<?xml version="1.0" encoding="utf-8" standalone="no"?>
<!DOCTYPE svg PUBLIC "-//W3C//DTD SVG 1.1//EN"
  "http://www.w3.org/Graphics/SVG/1.1/DTD/svg11.dtd">
<!-- Created with matplotlib (https://matplotlib.org/) -->
<svg height="288pt" version="1.1" viewBox="0 0 432 288" width="432pt" xmlns="http://www.w3.org/2000/svg" xmlns:xlink="http://www.w3.org/1999/xlink">
 <defs>
  <style type="text/css">
*{stroke-linecap:butt;stroke-linejoin:round;white-space:pre;}
  </style>
 </defs>
 <g id="figure_1">
  <g id="patch_1">
   <path d="M 0 288 
L 432 288 
L 432 0 
L 0 0 
z
" style="fill:#ffffff;"/>
  </g>
  <g id="axes_1">
   <g id="patch_2">
    <path d="M 54 252 
L 388.8 252 
L 388.8 34.56 
L 54 34.56 
z
" style="fill:#ffffff;"/>
   </g>
   <g id="matplotlib.axis_1">
    <g id="xtick_1">
     <g id="line2d_1">
      <defs>
       <path d="M 0 0 
L 0 3.5 
" id="m9b2c0c7712" style="stroke:#000000;stroke-width:0.8;"/>
      </defs>
      <g>
       <use style="stroke:#000000;stroke-width:0.8;" x="69.218182" xlink:href="#m9b2c0c7712" y="252"/>
      </g>
     </g>
     <g id="text_1">
      <!-- 3500 -->
      <defs>
       <path d="M 40.578125 39.3125 
Q 47.65625 37.796875 51.625 33 
Q 55.609375 28.21875 55.609375 21.1875 
Q 55.609375 10.40625 48.1875 4.484375 
Q 40.765625 -1.421875 27.09375 -1.421875 
Q 22.515625 -1.421875 17.65625 -0.515625 
Q 12.796875 0.390625 7.625 2.203125 
L 7.625 11.71875 
Q 11.71875 9.328125 16.59375 8.109375 
Q 21.484375 6.890625 26.8125 6.890625 
Q 36.078125 6.890625 40.9375 10.546875 
Q 45.796875 14.203125 45.796875 21.1875 
Q 45.796875 27.640625 41.28125 31.265625 
Q 36.765625 34.90625 28.71875 34.90625 
L 20.21875 34.90625 
L 20.21875 43.015625 
L 29.109375 43.015625 
Q 36.375 43.015625 40.234375 45.921875 
Q 44.09375 48.828125 44.09375 54.296875 
Q 44.09375 59.90625 40.109375 62.90625 
Q 36.140625 65.921875 28.71875 65.921875 
Q 24.65625 65.921875 20.015625 65.03125 
Q 15.375 64.15625 9.8125 62.3125 
L 9.8125 71.09375 
Q 15.4375 72.65625 20.34375 73.4375 
Q 25.25 74.21875 29.59375 74.21875 
Q 40.828125 74.21875 47.359375 69.109375 
Q 53.90625 64.015625 53.90625 55.328125 
Q 53.90625 49.265625 50.4375 45.09375 
Q 46.96875 40.921875 40.578125 39.3125 
z
" id="DejaVuSans-51"/>
       <path d="M 10.796875 72.90625 
L 49.515625 72.90625 
L 49.515625 64.59375 
L 19.828125 64.59375 
L 19.828125 46.734375 
Q 21.96875 47.46875 24.109375 47.828125 
Q 26.265625 48.1875 28.421875 48.1875 
Q 40.625 48.1875 47.75 41.5 
Q 54.890625 34.8125 54.890625 23.390625 
Q 54.890625 11.625 47.5625 5.09375 
Q 40.234375 -1.421875 26.90625 -1.421875 
Q 22.3125 -1.421875 17.546875 -0.640625 
Q 12.796875 0.140625 7.71875 1.703125 
L 7.71875 11.625 
Q 12.109375 9.234375 16.796875 8.0625 
Q 21.484375 6.890625 26.703125 6.890625 
Q 35.15625 6.890625 40.078125 11.328125 
Q 45.015625 15.765625 45.015625 23.390625 
Q 45.015625 31 40.078125 35.4375 
Q 35.15625 39.890625 26.703125 39.890625 
Q 22.75 39.890625 18.8125 39.015625 
Q 14.890625 38.140625 10.796875 36.28125 
z
" id="DejaVuSans-53"/>
       <path d="M 31.78125 66.40625 
Q 24.171875 66.40625 20.328125 58.90625 
Q 16.5 51.421875 16.5 36.375 
Q 16.5 21.390625 20.328125 13.890625 
Q 24.171875 6.390625 31.78125 6.390625 
Q 39.453125 6.390625 43.28125 13.890625 
Q 47.125 21.390625 47.125 36.375 
Q 47.125 51.421875 43.28125 58.90625 
Q 39.453125 66.40625 31.78125 66.40625 
z
M 31.78125 74.21875 
Q 44.046875 74.21875 50.515625 64.515625 
Q 56.984375 54.828125 56.984375 36.375 
Q 56.984375 17.96875 50.515625 8.265625 
Q 44.046875 -1.421875 31.78125 -1.421875 
Q 19.53125 -1.421875 13.0625 8.265625 
Q 6.59375 17.96875 6.59375 36.375 
Q 6.59375 54.828125 13.0625 64.515625 
Q 19.53125 74.21875 31.78125 74.21875 
z
" id="DejaVuSans-48"/>
      </defs>
      <g transform="translate(56.493182 266.598437)scale(0.1 -0.1)">
       <use xlink:href="#DejaVuSans-51"/>
       <use x="63.623047" xlink:href="#DejaVuSans-53"/>
       <use x="127.246094" xlink:href="#DejaVuSans-48"/>
       <use x="190.869141" xlink:href="#DejaVuSans-48"/>
      </g>
     </g>
    </g>
    <g id="xtick_2">
     <g id="line2d_2">
      <g>
       <use style="stroke:#000000;stroke-width:0.8;" x="107.947204" xlink:href="#m9b2c0c7712" y="252"/>
      </g>
     </g>
     <g id="text_2">
      <!-- 4000 -->
      <defs>
       <path d="M 37.796875 64.3125 
L 12.890625 25.390625 
L 37.796875 25.390625 
z
M 35.203125 72.90625 
L 47.609375 72.90625 
L 47.609375 25.390625 
L 58.015625 25.390625 
L 58.015625 17.1875 
L 47.609375 17.1875 
L 47.609375 0 
L 37.796875 0 
L 37.796875 17.1875 
L 4.890625 17.1875 
L 4.890625 26.703125 
z
" id="DejaVuSans-52"/>
      </defs>
      <g transform="translate(95.222204 266.598437)scale(0.1 -0.1)">
       <use xlink:href="#DejaVuSans-52"/>
       <use x="63.623047" xlink:href="#DejaVuSans-48"/>
       <use x="127.246094" xlink:href="#DejaVuSans-48"/>
       <use x="190.869141" xlink:href="#DejaVuSans-48"/>
      </g>
     </g>
    </g>
    <g id="xtick_3">
     <g id="line2d_3">
      <g>
       <use style="stroke:#000000;stroke-width:0.8;" x="146.676225" xlink:href="#m9b2c0c7712" y="252"/>
      </g>
     </g>
     <g id="text_3">
      <!-- 4500 -->
      <g transform="translate(133.951225 266.598437)scale(0.1 -0.1)">
       <use xlink:href="#DejaVuSans-52"/>
       <use x="63.623047" xlink:href="#DejaVuSans-53"/>
       <use x="127.246094" xlink:href="#DejaVuSans-48"/>
       <use x="190.869141" xlink:href="#DejaVuSans-48"/>
      </g>
     </g>
    </g>
    <g id="xtick_4">
     <g id="line2d_4">
      <g>
       <use style="stroke:#000000;stroke-width:0.8;" x="185.405247" xlink:href="#m9b2c0c7712" y="252"/>
      </g>
     </g>
     <g id="text_4">
      <!-- 5000 -->
      <g transform="translate(172.680247 266.598437)scale(0.1 -0.1)">
       <use xlink:href="#DejaVuSans-53"/>
       <use x="63.623047" xlink:href="#DejaVuSans-48"/>
       <use x="127.246094" xlink:href="#DejaVuSans-48"/>
       <use x="190.869141" xlink:href="#DejaVuSans-48"/>
      </g>
     </g>
    </g>
    <g id="xtick_5">
     <g id="line2d_5">
      <g>
       <use style="stroke:#000000;stroke-width:0.8;" x="224.134269" xlink:href="#m9b2c0c7712" y="252"/>
      </g>
     </g>
     <g id="text_5">
      <!-- 5500 -->
      <g transform="translate(211.409269 266.598437)scale(0.1 -0.1)">
       <use xlink:href="#DejaVuSans-53"/>
       <use x="63.623047" xlink:href="#DejaVuSans-53"/>
       <use x="127.246094" xlink:href="#DejaVuSans-48"/>
       <use x="190.869141" xlink:href="#DejaVuSans-48"/>
      </g>
     </g>
    </g>
    <g id="xtick_6">
     <g id="line2d_6">
      <g>
       <use style="stroke:#000000;stroke-width:0.8;" x="262.863291" xlink:href="#m9b2c0c7712" y="252"/>
      </g>
     </g>
     <g id="text_6">
      <!-- 6000 -->
      <defs>
       <path d="M 33.015625 40.375 
Q 26.375 40.375 22.484375 35.828125 
Q 18.609375 31.296875 18.609375 23.390625 
Q 18.609375 15.53125 22.484375 10.953125 
Q 26.375 6.390625 33.015625 6.390625 
Q 39.65625 6.390625 43.53125 10.953125 
Q 47.40625 15.53125 47.40625 23.390625 
Q 47.40625 31.296875 43.53125 35.828125 
Q 39.65625 40.375 33.015625 40.375 
z
M 52.59375 71.296875 
L 52.59375 62.3125 
Q 48.875 64.0625 45.09375 64.984375 
Q 41.3125 65.921875 37.59375 65.921875 
Q 27.828125 65.921875 22.671875 59.328125 
Q 17.53125 52.734375 16.796875 39.40625 
Q 19.671875 43.65625 24.015625 45.921875 
Q 28.375 48.1875 33.59375 48.1875 
Q 44.578125 48.1875 50.953125 41.515625 
Q 57.328125 34.859375 57.328125 23.390625 
Q 57.328125 12.15625 50.6875 5.359375 
Q 44.046875 -1.421875 33.015625 -1.421875 
Q 20.359375 -1.421875 13.671875 8.265625 
Q 6.984375 17.96875 6.984375 36.375 
Q 6.984375 53.65625 15.1875 63.9375 
Q 23.390625 74.21875 37.203125 74.21875 
Q 40.921875 74.21875 44.703125 73.484375 
Q 48.484375 72.75 52.59375 71.296875 
z
" id="DejaVuSans-54"/>
      </defs>
      <g transform="translate(250.138291 266.598437)scale(0.1 -0.1)">
       <use xlink:href="#DejaVuSans-54"/>
       <use x="63.623047" xlink:href="#DejaVuSans-48"/>
       <use x="127.246094" xlink:href="#DejaVuSans-48"/>
       <use x="190.869141" xlink:href="#DejaVuSans-48"/>
      </g>
     </g>
    </g>
    <g id="xtick_7">
     <g id="line2d_7">
      <g>
       <use style="stroke:#000000;stroke-width:0.8;" x="301.592312" xlink:href="#m9b2c0c7712" y="252"/>
      </g>
     </g>
     <g id="text_7">
      <!-- 6500 -->
      <g transform="translate(288.867312 266.598437)scale(0.1 -0.1)">
       <use xlink:href="#DejaVuSans-54"/>
       <use x="63.623047" xlink:href="#DejaVuSans-53"/>
       <use x="127.246094" xlink:href="#DejaVuSans-48"/>
       <use x="190.869141" xlink:href="#DejaVuSans-48"/>
      </g>
     </g>
    </g>
    <g id="xtick_8">
     <g id="line2d_8">
      <g>
       <use style="stroke:#000000;stroke-width:0.8;" x="340.321334" xlink:href="#m9b2c0c7712" y="252"/>
      </g>
     </g>
     <g id="text_8">
      <!-- 7000 -->
      <defs>
       <path d="M 8.203125 72.90625 
L 55.078125 72.90625 
L 55.078125 68.703125 
L 28.609375 0 
L 18.3125 0 
L 43.21875 64.59375 
L 8.203125 64.59375 
z
" id="DejaVuSans-55"/>
      </defs>
      <g transform="translate(327.596334 266.598437)scale(0.1 -0.1)">
       <use xlink:href="#DejaVuSans-55"/>
       <use x="63.623047" xlink:href="#DejaVuSans-48"/>
       <use x="127.246094" xlink:href="#DejaVuSans-48"/>
       <use x="190.869141" xlink:href="#DejaVuSans-48"/>
      </g>
     </g>
    </g>
    <g id="xtick_9">
     <g id="line2d_9">
      <g>
       <use style="stroke:#000000;stroke-width:0.8;" x="379.050356" xlink:href="#m9b2c0c7712" y="252"/>
      </g>
     </g>
     <g id="text_9">
      <!-- 7500 -->
      <g transform="translate(366.325356 266.598437)scale(0.1 -0.1)">
       <use xlink:href="#DejaVuSans-55"/>
       <use x="63.623047" xlink:href="#DejaVuSans-53"/>
       <use x="127.246094" xlink:href="#DejaVuSans-48"/>
       <use x="190.869141" xlink:href="#DejaVuSans-48"/>
      </g>
     </g>
    </g>
    <g id="text_10">
     <!-- $\lambda$ ($\AA$) -->
     <defs>
      <path d="M 36.71875 67.4375 
L 48.828125 0 
L 39.3125 0 
L 31.84375 40.4375 
L 5.125 0 
L -4.390625 0 
L 29.734375 52.4375 
L 28.03125 62.109375 
Q 26.953125 68.265625 21.734375 68.265625 
L 17.046875 68.265625 
L 18.5 75.984375 
L 24.21875 75.875 
Q 35.203125 75.734375 36.71875 67.4375 
z
" id="DejaVuSans-Oblique-955"/>
      <path id="DejaVuSans-32"/>
      <path d="M 31 75.875 
Q 24.46875 64.65625 21.28125 53.65625 
Q 18.109375 42.671875 18.109375 31.390625 
Q 18.109375 20.125 21.3125 9.0625 
Q 24.515625 -2 31 -13.1875 
L 23.1875 -13.1875 
Q 15.875 -1.703125 12.234375 9.375 
Q 8.59375 20.453125 8.59375 31.390625 
Q 8.59375 42.28125 12.203125 53.3125 
Q 15.828125 64.359375 23.1875 75.875 
z
" id="DejaVuSans-40"/>
      <path d="M 49.8125 79.390625 
Q 49.8125 82.46875 47.625 84.640625 
Q 45.453125 86.8125 42.390625 86.8125 
Q 39.265625 86.8125 37.140625 84.6875 
Q 35.015625 82.5625 35.015625 79.390625 
Q 35.015625 76.3125 37.140625 74.15625 
Q 39.265625 72.015625 42.390625 72.015625 
Q 45.453125 72.015625 47.625 74.15625 
Q 49.8125 76.3125 49.8125 79.390625 
z
M 34.421875 68.703125 
Q 31.78125 70.515625 30.390625 73.265625 
Q 29 76.03125 29 79.390625 
Q 29 84.96875 32.90625 88.890625 
Q 36.8125 92.828125 42.390625 92.828125 
Q 47.953125 92.828125 51.875 88.890625 
Q 55.8125 84.96875 55.8125 79.390625 
Q 55.8125 75.53125 54.03125 72.546875 
Q 52.25 69.578125 48.875 67.828125 
L 61.53125 0 
L 51.21875 0 
L 48.1875 18.703125 
L 15.375 18.703125 
L 5.078125 0 
L -5.328125 0 
z
M 40.375 63.1875 
L 19.921875 26.90625 
L 46.6875 26.90625 
z
" id="DejaVuSans-Oblique-197"/>
      <path d="M 8.015625 75.875 
L 15.828125 75.875 
Q 23.140625 64.359375 26.78125 53.3125 
Q 30.421875 42.28125 30.421875 31.390625 
Q 30.421875 20.453125 26.78125 9.375 
Q 23.140625 -1.703125 15.828125 -13.1875 
L 8.015625 -13.1875 
Q 14.5 -2 17.703125 9.0625 
Q 20.90625 20.125 20.90625 31.390625 
Q 20.90625 42.671875 17.703125 53.65625 
Q 14.5 64.65625 8.015625 75.875 
z
" id="DejaVuSans-41"/>
     </defs>
     <g transform="translate(209.5 281.298437)scale(0.1 -0.1)">
      <use transform="translate(0 0.171875)" xlink:href="#DejaVuSans-Oblique-955"/>
      <use transform="translate(59.179688 0.171875)" xlink:href="#DejaVuSans-32"/>
      <use transform="translate(90.966797 0.171875)" xlink:href="#DejaVuSans-40"/>
      <use transform="translate(129.980469 0.171875)" xlink:href="#DejaVuSans-Oblique-197"/>
      <use transform="translate(198.388672 0.171875)" xlink:href="#DejaVuSans-41"/>
     </g>
    </g>
   </g>
   <g id="matplotlib.axis_2">
    <g id="ytick_1">
     <g id="line2d_10">
      <defs>
       <path d="M 0 0 
L -3.5 0 
" id="m013ea104a3" style="stroke:#000000;stroke-width:0.8;"/>
      </defs>
      <g>
       <use style="stroke:#000000;stroke-width:0.8;" x="54" xlink:href="#m013ea104a3" y="242.116364"/>
      </g>
     </g>
     <g id="text_11">
      <!-- 0.00 -->
      <defs>
       <path d="M 10.6875 12.40625 
L 21 12.40625 
L 21 0 
L 10.6875 0 
z
" id="DejaVuSans-46"/>
      </defs>
      <g transform="translate(24.734375 245.915582)scale(0.1 -0.1)">
       <use xlink:href="#DejaVuSans-48"/>
       <use x="63.623047" xlink:href="#DejaVuSans-46"/>
       <use x="95.410156" xlink:href="#DejaVuSans-48"/>
       <use x="159.033203" xlink:href="#DejaVuSans-48"/>
      </g>
     </g>
    </g>
    <g id="ytick_2">
     <g id="line2d_11">
      <g>
       <use style="stroke:#000000;stroke-width:0.8;" x="54" xlink:href="#m013ea104a3" y="212.29762"/>
      </g>
     </g>
     <g id="text_12">
      <!-- 0.02 -->
      <defs>
       <path d="M 19.1875 8.296875 
L 53.609375 8.296875 
L 53.609375 0 
L 7.328125 0 
L 7.328125 8.296875 
Q 12.9375 14.109375 22.625 23.890625 
Q 32.328125 33.6875 34.8125 36.53125 
Q 39.546875 41.84375 41.421875 45.53125 
Q 43.3125 49.21875 43.3125 52.78125 
Q 43.3125 58.59375 39.234375 62.25 
Q 35.15625 65.921875 28.609375 65.921875 
Q 23.96875 65.921875 18.8125 64.3125 
Q 13.671875 62.703125 7.8125 59.421875 
L 7.8125 69.390625 
Q 13.765625 71.78125 18.9375 73 
Q 24.125 74.21875 28.421875 74.21875 
Q 39.75 74.21875 46.484375 68.546875 
Q 53.21875 62.890625 53.21875 53.421875 
Q 53.21875 48.921875 51.53125 44.890625 
Q 49.859375 40.875 45.40625 35.40625 
Q 44.1875 33.984375 37.640625 27.21875 
Q 31.109375 20.453125 19.1875 8.296875 
z
" id="DejaVuSans-50"/>
      </defs>
      <g transform="translate(24.734375 216.096839)scale(0.1 -0.1)">
       <use xlink:href="#DejaVuSans-48"/>
       <use x="63.623047" xlink:href="#DejaVuSans-46"/>
       <use x="95.410156" xlink:href="#DejaVuSans-48"/>
       <use x="159.033203" xlink:href="#DejaVuSans-50"/>
      </g>
     </g>
    </g>
    <g id="ytick_3">
     <g id="line2d_12">
      <g>
       <use style="stroke:#000000;stroke-width:0.8;" x="54" xlink:href="#m013ea104a3" y="182.478876"/>
      </g>
     </g>
     <g id="text_13">
      <!-- 0.04 -->
      <g transform="translate(24.734375 186.278095)scale(0.1 -0.1)">
       <use xlink:href="#DejaVuSans-48"/>
       <use x="63.623047" xlink:href="#DejaVuSans-46"/>
       <use x="95.410156" xlink:href="#DejaVuSans-48"/>
       <use x="159.033203" xlink:href="#DejaVuSans-52"/>
      </g>
     </g>
    </g>
    <g id="ytick_4">
     <g id="line2d_13">
      <g>
       <use style="stroke:#000000;stroke-width:0.8;" x="54" xlink:href="#m013ea104a3" y="152.660132"/>
      </g>
     </g>
     <g id="text_14">
      <!-- 0.06 -->
      <g transform="translate(24.734375 156.459351)scale(0.1 -0.1)">
       <use xlink:href="#DejaVuSans-48"/>
       <use x="63.623047" xlink:href="#DejaVuSans-46"/>
       <use x="95.410156" xlink:href="#DejaVuSans-48"/>
       <use x="159.033203" xlink:href="#DejaVuSans-54"/>
      </g>
     </g>
    </g>
    <g id="ytick_5">
     <g id="line2d_14">
      <g>
       <use style="stroke:#000000;stroke-width:0.8;" x="54" xlink:href="#m013ea104a3" y="122.841389"/>
      </g>
     </g>
     <g id="text_15">
      <!-- 0.08 -->
      <defs>
       <path d="M 31.78125 34.625 
Q 24.75 34.625 20.71875 30.859375 
Q 16.703125 27.09375 16.703125 20.515625 
Q 16.703125 13.921875 20.71875 10.15625 
Q 24.75 6.390625 31.78125 6.390625 
Q 38.8125 6.390625 42.859375 10.171875 
Q 46.921875 13.96875 46.921875 20.515625 
Q 46.921875 27.09375 42.890625 30.859375 
Q 38.875 34.625 31.78125 34.625 
z
M 21.921875 38.8125 
Q 15.578125 40.375 12.03125 44.71875 
Q 8.5 49.078125 8.5 55.328125 
Q 8.5 64.0625 14.71875 69.140625 
Q 20.953125 74.21875 31.78125 74.21875 
Q 42.671875 74.21875 48.875 69.140625 
Q 55.078125 64.0625 55.078125 55.328125 
Q 55.078125 49.078125 51.53125 44.71875 
Q 48 40.375 41.703125 38.8125 
Q 48.828125 37.15625 52.796875 32.3125 
Q 56.78125 27.484375 56.78125 20.515625 
Q 56.78125 9.90625 50.3125 4.234375 
Q 43.84375 -1.421875 31.78125 -1.421875 
Q 19.734375 -1.421875 13.25 4.234375 
Q 6.78125 9.90625 6.78125 20.515625 
Q 6.78125 27.484375 10.78125 32.3125 
Q 14.796875 37.15625 21.921875 38.8125 
z
M 18.3125 54.390625 
Q 18.3125 48.734375 21.84375 45.5625 
Q 25.390625 42.390625 31.78125 42.390625 
Q 38.140625 42.390625 41.71875 45.5625 
Q 45.3125 48.734375 45.3125 54.390625 
Q 45.3125 60.0625 41.71875 63.234375 
Q 38.140625 66.40625 31.78125 66.40625 
Q 25.390625 66.40625 21.84375 63.234375 
Q 18.3125 60.0625 18.3125 54.390625 
z
" id="DejaVuSans-56"/>
      </defs>
      <g transform="translate(24.734375 126.640607)scale(0.1 -0.1)">
       <use xlink:href="#DejaVuSans-48"/>
       <use x="63.623047" xlink:href="#DejaVuSans-46"/>
       <use x="95.410156" xlink:href="#DejaVuSans-48"/>
       <use x="159.033203" xlink:href="#DejaVuSans-56"/>
      </g>
     </g>
    </g>
    <g id="ytick_6">
     <g id="line2d_15">
      <g>
       <use style="stroke:#000000;stroke-width:0.8;" x="54" xlink:href="#m013ea104a3" y="93.022645"/>
      </g>
     </g>
     <g id="text_16">
      <!-- 0.10 -->
      <defs>
       <path d="M 12.40625 8.296875 
L 28.515625 8.296875 
L 28.515625 63.921875 
L 10.984375 60.40625 
L 10.984375 69.390625 
L 28.421875 72.90625 
L 38.28125 72.90625 
L 38.28125 8.296875 
L 54.390625 8.296875 
L 54.390625 0 
L 12.40625 0 
z
" id="DejaVuSans-49"/>
      </defs>
      <g transform="translate(24.734375 96.821864)scale(0.1 -0.1)">
       <use xlink:href="#DejaVuSans-48"/>
       <use x="63.623047" xlink:href="#DejaVuSans-46"/>
       <use x="95.410156" xlink:href="#DejaVuSans-49"/>
       <use x="159.033203" xlink:href="#DejaVuSans-48"/>
      </g>
     </g>
    </g>
    <g id="ytick_7">
     <g id="line2d_16">
      <g>
       <use style="stroke:#000000;stroke-width:0.8;" x="54" xlink:href="#m013ea104a3" y="63.203901"/>
      </g>
     </g>
     <g id="text_17">
      <!-- 0.12 -->
      <g transform="translate(24.734375 67.00312)scale(0.1 -0.1)">
       <use xlink:href="#DejaVuSans-48"/>
       <use x="63.623047" xlink:href="#DejaVuSans-46"/>
       <use x="95.410156" xlink:href="#DejaVuSans-49"/>
       <use x="159.033203" xlink:href="#DejaVuSans-50"/>
      </g>
     </g>
    </g>
    <g id="text_18">
     <!-- relative flux -->
     <defs>
      <path d="M 41.109375 46.296875 
Q 39.59375 47.171875 37.8125 47.578125 
Q 36.03125 48 33.890625 48 
Q 26.265625 48 22.1875 43.046875 
Q 18.109375 38.09375 18.109375 28.8125 
L 18.109375 0 
L 9.078125 0 
L 9.078125 54.6875 
L 18.109375 54.6875 
L 18.109375 46.1875 
Q 20.953125 51.171875 25.484375 53.578125 
Q 30.03125 56 36.53125 56 
Q 37.453125 56 38.578125 55.875 
Q 39.703125 55.765625 41.0625 55.515625 
z
" id="DejaVuSans-114"/>
      <path d="M 56.203125 29.59375 
L 56.203125 25.203125 
L 14.890625 25.203125 
Q 15.484375 15.921875 20.484375 11.0625 
Q 25.484375 6.203125 34.421875 6.203125 
Q 39.59375 6.203125 44.453125 7.46875 
Q 49.3125 8.734375 54.109375 11.28125 
L 54.109375 2.78125 
Q 49.265625 0.734375 44.1875 -0.34375 
Q 39.109375 -1.421875 33.890625 -1.421875 
Q 20.796875 -1.421875 13.15625 6.1875 
Q 5.515625 13.8125 5.515625 26.8125 
Q 5.515625 40.234375 12.765625 48.109375 
Q 20.015625 56 32.328125 56 
Q 43.359375 56 49.78125 48.890625 
Q 56.203125 41.796875 56.203125 29.59375 
z
M 47.21875 32.234375 
Q 47.125 39.59375 43.09375 43.984375 
Q 39.0625 48.390625 32.421875 48.390625 
Q 24.90625 48.390625 20.390625 44.140625 
Q 15.875 39.890625 15.1875 32.171875 
z
" id="DejaVuSans-101"/>
      <path d="M 9.421875 75.984375 
L 18.40625 75.984375 
L 18.40625 0 
L 9.421875 0 
z
" id="DejaVuSans-108"/>
      <path d="M 34.28125 27.484375 
Q 23.390625 27.484375 19.1875 25 
Q 14.984375 22.515625 14.984375 16.5 
Q 14.984375 11.71875 18.140625 8.90625 
Q 21.296875 6.109375 26.703125 6.109375 
Q 34.1875 6.109375 38.703125 11.40625 
Q 43.21875 16.703125 43.21875 25.484375 
L 43.21875 27.484375 
z
M 52.203125 31.203125 
L 52.203125 0 
L 43.21875 0 
L 43.21875 8.296875 
Q 40.140625 3.328125 35.546875 0.953125 
Q 30.953125 -1.421875 24.3125 -1.421875 
Q 15.921875 -1.421875 10.953125 3.296875 
Q 6 8.015625 6 15.921875 
Q 6 25.140625 12.171875 29.828125 
Q 18.359375 34.515625 30.609375 34.515625 
L 43.21875 34.515625 
L 43.21875 35.40625 
Q 43.21875 41.609375 39.140625 45 
Q 35.0625 48.390625 27.6875 48.390625 
Q 23 48.390625 18.546875 47.265625 
Q 14.109375 46.140625 10.015625 43.890625 
L 10.015625 52.203125 
Q 14.9375 54.109375 19.578125 55.046875 
Q 24.21875 56 28.609375 56 
Q 40.484375 56 46.34375 49.84375 
Q 52.203125 43.703125 52.203125 31.203125 
z
" id="DejaVuSans-97"/>
      <path d="M 18.3125 70.21875 
L 18.3125 54.6875 
L 36.8125 54.6875 
L 36.8125 47.703125 
L 18.3125 47.703125 
L 18.3125 18.015625 
Q 18.3125 11.328125 20.140625 9.421875 
Q 21.96875 7.515625 27.59375 7.515625 
L 36.8125 7.515625 
L 36.8125 0 
L 27.59375 0 
Q 17.1875 0 13.234375 3.875 
Q 9.28125 7.765625 9.28125 18.015625 
L 9.28125 47.703125 
L 2.6875 47.703125 
L 2.6875 54.6875 
L 9.28125 54.6875 
L 9.28125 70.21875 
z
" id="DejaVuSans-116"/>
      <path d="M 9.421875 54.6875 
L 18.40625 54.6875 
L 18.40625 0 
L 9.421875 0 
z
M 9.421875 75.984375 
L 18.40625 75.984375 
L 18.40625 64.59375 
L 9.421875 64.59375 
z
" id="DejaVuSans-105"/>
      <path d="M 2.984375 54.6875 
L 12.5 54.6875 
L 29.59375 8.796875 
L 46.6875 54.6875 
L 56.203125 54.6875 
L 35.6875 0 
L 23.484375 0 
z
" id="DejaVuSans-118"/>
      <path d="M 37.109375 75.984375 
L 37.109375 68.5 
L 28.515625 68.5 
Q 23.6875 68.5 21.796875 66.546875 
Q 19.921875 64.59375 19.921875 59.515625 
L 19.921875 54.6875 
L 34.71875 54.6875 
L 34.71875 47.703125 
L 19.921875 47.703125 
L 19.921875 0 
L 10.890625 0 
L 10.890625 47.703125 
L 2.296875 47.703125 
L 2.296875 54.6875 
L 10.890625 54.6875 
L 10.890625 58.5 
Q 10.890625 67.625 15.140625 71.796875 
Q 19.390625 75.984375 28.609375 75.984375 
z
" id="DejaVuSans-102"/>
      <path d="M 8.5 21.578125 
L 8.5 54.6875 
L 17.484375 54.6875 
L 17.484375 21.921875 
Q 17.484375 14.15625 20.5 10.265625 
Q 23.53125 6.390625 29.59375 6.390625 
Q 36.859375 6.390625 41.078125 11.03125 
Q 45.3125 15.671875 45.3125 23.6875 
L 45.3125 54.6875 
L 54.296875 54.6875 
L 54.296875 0 
L 45.3125 0 
L 45.3125 8.40625 
Q 42.046875 3.421875 37.71875 1 
Q 33.40625 -1.421875 27.6875 -1.421875 
Q 18.265625 -1.421875 13.375 4.4375 
Q 8.5 10.296875 8.5 21.578125 
z
M 31.109375 56 
z
" id="DejaVuSans-117"/>
      <path d="M 54.890625 54.6875 
L 35.109375 28.078125 
L 55.90625 0 
L 45.3125 0 
L 29.390625 21.484375 
L 13.484375 0 
L 2.875 0 
L 24.125 28.609375 
L 4.6875 54.6875 
L 15.28125 54.6875 
L 29.78125 35.203125 
L 44.28125 54.6875 
z
" id="DejaVuSans-120"/>
     </defs>
     <g transform="translate(18.654687 173.115156)rotate(-90)scale(0.1 -0.1)">
      <use xlink:href="#DejaVuSans-114"/>
      <use x="41.082031" xlink:href="#DejaVuSans-101"/>
      <use x="102.605469" xlink:href="#DejaVuSans-108"/>
      <use x="130.388672" xlink:href="#DejaVuSans-97"/>
      <use x="191.667969" xlink:href="#DejaVuSans-116"/>
      <use x="230.876953" xlink:href="#DejaVuSans-105"/>
      <use x="258.660156" xlink:href="#DejaVuSans-118"/>
      <use x="317.839844" xlink:href="#DejaVuSans-101"/>
      <use x="379.363281" xlink:href="#DejaVuSans-32"/>
      <use x="411.150391" xlink:href="#DejaVuSans-102"/>
      <use x="446.355469" xlink:href="#DejaVuSans-108"/>
      <use x="474.138672" xlink:href="#DejaVuSans-117"/>
      <use x="537.517578" xlink:href="#DejaVuSans-120"/>
     </g>
    </g>
   </g>
   <g id="line2d_17">
    <path clip-path="url(#pd08587a369)" d="M 69.218182 242.116364 
L 114.879698 242.116364 
L 115.019123 110.217631 
L 115.088835 109.499445 
L 115.437396 116.048662 
L 115.507109 115.551753 
L 115.576821 115.785729 
L 115.925382 122.600024 
L 116.064807 121.684131 
L 116.48308 127.209329 
L 116.692217 130.580855 
L 116.831641 134.817294 
L 117.040778 132.721681 
L 117.180202 130.342703 
L 117.877325 96.626254 
L 118.016749 96.053213 
L 118.156174 93.080025 
L 118.36531 91.03667 
L 118.435023 91.412466 
L 118.574447 90.565127 
L 118.644159 90.354212 
L 118.783584 88.465783 
L 118.853296 87.187883 
L 118.923008 87.789707 
L 119.201857 85.694981 
L 119.410994 84.055117 
L 119.480706 84.208149 
L 119.620131 80.885412 
L 119.689843 81.116489 
L 119.759555 80.637049 
L 119.829267 81.190669 
L 120.038404 79.864822 
L 120.108116 79.792877 
L 120.247541 80.141766 
L 120.52639 76.805859 
L 120.596102 76.585945 
L 120.665814 75.962798 
L 120.805239 73.964713 
L 120.944663 73.128087 
L 121.014376 73.268627 
L 121.084088 74.517453 
L 121.1538 74.42788 
L 121.223512 73.786427 
L 121.362937 74.690743 
L 121.572073 71.24068 
L 121.78121 74.418724 
L 121.990347 70.535598 
L 122.060059 70.844784 
L 122.129771 70.577805 
L 122.40862 72.582903 
L 122.757182 68.621864 
L 122.826894 69.262455 
L 122.966318 71.173214 
L 123.245167 66.320023 
L 123.314879 65.73782 
L 123.384592 66.254994 
L 123.454304 66.085693 
L 123.524016 65.565129 
L 123.593728 65.690727 
L 123.733153 67.1424 
L 123.872577 65.214064 
L 123.94229 65.49571 
L 124.081714 68.651502 
L 124.151426 68.238411 
L 124.360563 64.509599 
L 124.499988 62.542906 
L 124.5697 64.592887 
L 124.709124 61.877786 
L 124.778836 62.17675 
L 124.918261 63.469576 
L 125.406247 58.559026 
L 125.475959 58.686529 
L 125.82452 57.32418 
L 125.894232 58.504801 
L 125.963945 58.141298 
L 126.103369 56.752209 
L 126.173081 56.778758 
L 126.382218 56.167064 
L 126.521642 54.669916 
L 126.591355 55.429274 
L 126.661067 55.293741 
L 126.800491 54.712228 
L 127.009628 55.094633 
L 127.07934 56.768146 
L 127.288477 54.239413 
L 127.497614 51.882921 
L 127.776463 55.339905 
L 127.846175 55.662448 
L 128.055312 52.80401 
L 128.194736 53.102127 
L 128.334161 54.84014 
L 128.403873 51.605921 
L 128.473585 52.938485 
L 128.543297 53.058691 
L 128.61301 52.949948 
L 128.752434 51.070082 
L 128.891859 53.371558 
L 128.961571 53.358485 
L 129.100995 52.52796 
L 129.170708 52.672066 
L 129.310132 54.896758 
L 129.379844 54.666617 
L 129.658693 50.035006 
L 129.728405 50.243806 
L 129.86783 51.86992 
L 130.007254 52.641688 
L 130.355816 50.090232 
L 130.49524 50.530773 
L 130.564952 49.259223 
L 130.634665 49.949696 
L 130.774089 50.996589 
L 130.843801 50.80874 
L 131.262075 48.351966 
L 131.331787 48.843599 
L 131.401499 50.309202 
L 131.471211 49.651658 
L 131.680348 46.279484 
L 131.75006 46.478073 
L 131.889485 48.33813 
L 132.028909 48.053244 
L 132.168334 48.256231 
L 132.307758 47.082223 
L 132.377471 45.344492 
L 132.447183 46.021252 
L 132.656319 48.418119 
L 132.726032 48.798707 
L 132.865456 47.609306 
L 133.074593 50.333815 
L 133.144305 49.938463 
L 133.28373 50.50298 
L 133.423154 54.013897 
L 133.632291 58.997315 
L 133.771715 60.718527 
L 133.91114 64.166877 
L 134.468838 84.916612 
L 135.096248 97.342477 
L 135.235672 97.397751 
L 135.305385 97.598704 
L 135.375097 97.04788 
L 135.584234 89.659848 
L 136.281356 51.361402 
L 136.629917 46.42694 
L 136.699629 46.305793 
L 136.769342 45.920575 
L 136.839054 45.944171 
L 136.978478 47.701099 
L 137.187615 44.509711 
L 137.257327 44.443636 
L 137.396752 44.753172 
L 137.536176 45.271276 
L 137.675601 47.198867 
L 137.745313 46.764863 
L 137.884737 47.209083 
L 137.95445 46.248935 
L 138.163586 48.738552 
L 138.233299 48.776556 
L 138.442435 47.581198 
L 138.651572 49.243932 
L 138.721284 49.185973 
L 138.790997 49.521511 
L 139.000133 51.055522 
L 139.069846 51.214197 
L 139.139558 51.173818 
L 139.278982 50.472835 
L 139.488119 48.385054 
L 139.697256 46.446534 
L 139.83668 48.054628 
L 139.906392 48.048044 
L 140.045817 48.165156 
L 140.185241 46.502543 
L 140.324666 46.894243 
L 140.394378 46.729944 
L 140.673227 49.108481 
L 140.742939 48.396977 
L 140.812651 48.571137 
L 141.161213 45.642446 
L 141.440062 48.129149 
L 141.509774 47.82689 
L 141.649198 46.873706 
L 141.718911 46.9298 
L 141.858335 45.98289 
L 142.206896 49.423531 
L 142.555457 46.341213 
L 142.834306 48.016349 
L 142.904019 47.99504 
L 142.973731 47.651129 
L 143.043443 48.424991 
L 143.113155 48.175595 
L 143.25258 46.724688 
L 143.461717 48.737032 
L 143.531429 49.237616 
L 143.601141 49.188565 
L 143.670853 48.870877 
L 144.019414 51.097886 
L 144.089127 50.811545 
L 144.367976 51.653215 
L 144.716537 58.18093 
L 144.786249 57.519297 
L 144.995386 58.922565 
L 145.065098 58.662935 
L 145.13481 58.817391 
L 145.274235 59.588408 
L 145.343947 59.455668 
L 145.483372 61.461202 
L 145.553084 61.097233 
L 145.622796 61.046089 
L 145.692508 62.065444 
L 145.901645 58.448507 
L 145.971357 58.465399 
L 146.041069 59.129371 
L 146.110782 59.092221 
L 146.180494 59.119193 
L 146.250206 59.009655 
L 146.389631 57.819904 
L 146.459343 58.231658 
L 146.529055 58.086658 
L 146.66848 54.972899 
L 146.738192 55.126611 
L 147.017041 57.852289 
L 147.156465 57.722162 
L 147.226177 57.7341 
L 147.365602 57.088062 
L 147.435314 57.033205 
L 147.574739 56.419202 
L 147.644451 56.448987 
L 147.783875 56.773196 
L 147.853588 58.510333 
L 147.9233 58.289302 
L 147.993012 58.075642 
L 148.062724 58.217496 
L 148.132437 58.242575 
L 148.202149 57.896982 
L 148.55071 60.594474 
L 148.759847 61.565204 
L 149.108408 60.906018 
L 149.247832 61.296912 
L 149.317545 60.713498 
L 149.456969 63.518629 
L 149.526681 63.014731 
L 149.666106 61.896078 
L 149.80553 64.052865 
L 149.875243 63.945135 
L 149.944955 63.445663 
L 150.084379 63.942597 
L 150.223804 65.429 
L 150.43294 64.415487 
L 150.781502 66.726014 
L 150.851214 66.694771 
L 151.199775 68.223412 
L 151.3392 67.536728 
L 151.618049 70.098841 
L 151.687761 70.268898 
L 151.757473 70.141079 
L 151.896898 69.236087 
L 151.96661 69.75498 
L 152.106034 68.856189 
L 152.245459 70.085748 
L 152.315171 72.331136 
L 152.454595 70.351092 
L 152.663732 69.587791 
L 152.733444 70.233218 
L 152.803157 69.932314 
L 152.872869 69.404737 
L 152.942581 69.803317 
L 153.012293 69.732867 
L 153.082006 69.89303 
L 153.291142 71.77124 
L 153.360855 72.028537 
L 153.569991 73.492749 
L 153.639703 73.920311 
L 153.709416 73.708529 
L 153.779128 73.239613 
L 153.988265 74.477367 
L 154.127689 74.352592 
L 154.197401 73.298617 
L 154.267114 73.41122 
L 154.47625 74.833176 
L 154.545963 74.472868 
L 155.033948 76.69918 
L 155.103661 76.135228 
L 155.173373 76.171435 
L 155.312797 76.271555 
L 155.452222 75.648637 
L 155.521934 75.715817 
L 155.800783 78.034275 
L 156.00992 80.190402 
L 156.149344 79.802595 
L 156.288769 79.268534 
L 156.358481 79.556301 
L 156.567618 81.6915 
L 156.707042 82.443276 
L 156.846466 81.968126 
L 156.916179 82.131098 
L 156.985891 81.013712 
L 157.055603 81.244955 
L 157.404164 83.469897 
L 157.473877 83.393334 
L 157.543589 83.53556 
L 157.752726 84.83619 
L 157.961862 84.584136 
L 158.031575 84.823152 
L 158.101287 84.777146 
L 158.310424 83.435002 
L 158.380136 83.68517 
L 158.589272 84.274881 
L 158.658985 84.114849 
L 158.798409 83.025055 
L 158.868121 83.1682 
L 159.356107 85.919664 
L 159.425819 85.977796 
L 159.704668 84.730994 
L 159.774381 85.529019 
L 159.913805 84.465578 
L 159.983517 84.491225 
L 160.05323 84.533059 
L 160.262366 86.784692 
L 160.332078 86.409754 
L 160.471503 86.968712 
L 160.541215 86.667699 
L 160.820064 85.62478 
L 161.30805 87.505821 
L 161.377762 87.296262 
L 161.586899 86.50378 
L 161.656611 87.118106 
L 161.726323 86.9827 
L 162.005172 88.192135 
L 162.074884 87.760229 
L 162.144597 88.018364 
L 162.284021 89.097262 
L 162.423446 88.920317 
L 162.493158 89.063542 
L 162.56287 89.945657 
L 162.632582 89.68847 
L 162.841719 91.087769 
L 162.911431 90.810107 
L 163.19028 89.609636 
L 163.469129 91.573938 
L 163.678266 92.859579 
L 163.747978 93.279781 
L 163.81769 93.114055 
L 163.887403 92.986416 
L 164.096539 94.054031 
L 164.375388 95.341216 
L 164.514813 95.091415 
L 164.654237 95.373461 
L 164.72395 95.508409 
L 164.863374 94.830688 
L 164.933086 95.139022 
L 165.142223 96.609617 
L 165.211935 96.415027 
L 165.421072 97.065533 
L 165.490784 97.021482 
L 165.839345 98.11227 
L 165.909058 98.124168 
L 166.048482 98.413868 
L 166.187907 98.08934 
L 166.257619 98.170445 
L 166.327331 97.263862 
L 166.60618 99.184821 
L 166.675892 99.260558 
L 166.745604 99.062141 
L 166.815317 99.135648 
L 167.024453 100.033653 
L 167.094166 99.801915 
L 167.23359 98.856286 
L 167.303302 99.414525 
L 167.373015 99.163623 
L 167.442727 99.34827 
L 167.582151 100.984488 
L 167.721576 100.08368 
L 167.930713 100.831244 
L 168.070137 101.616334 
L 168.139849 101.461075 
L 168.348986 100.411687 
L 168.48841 99.66953 
L 168.836972 101.399949 
L 168.976396 101.948807 
L 169.185533 102.808414 
L 169.255245 102.269063 
L 169.324957 102.378804 
L 169.603806 103.339056 
L 169.673519 103.327265 
L 169.743231 103.121686 
L 170.02208 104.255198 
L 170.161504 103.558894 
L 170.231216 103.594696 
L 170.370641 104.470756 
L 170.510065 104.018083 
L 170.579778 104.993108 
L 170.64949 104.221106 
L 170.858627 105.90436 
L 170.928339 105.980244 
L 171.067763 106.718447 
L 171.207188 105.603137 
L 171.486037 107.82928 
L 171.695173 107.368499 
L 171.834598 107.887505 
L 171.90431 107.381354 
L 172.183159 109.18617 
L 172.252871 109.093509 
L 172.322584 108.938877 
L 172.392296 109.543208 
L 172.53172 108.918718 
L 172.880282 110.555997 
L 172.949994 110.212537 
L 173.019706 110.557386 
L 173.089418 110.000455 
L 173.15913 110.037895 
L 173.298555 111.18171 
L 173.577404 114.332095 
L 173.647116 114.448446 
L 173.786541 116.280672 
L 174.135102 123.2815 
L 174.344239 129.214729 
L 174.623087 138.245091 
L 174.901936 145.799796 
L 175.180785 148.172714 
L 175.808196 142.030335 
L 176.57503 122.889429 
L 176.923591 119.347244 
L 176.993304 119.514053 
L 177.063016 119.328621 
L 177.132728 119.435788 
L 177.272153 119.905251 
L 177.411577 119.713925 
L 177.551002 119.019129 
L 177.690426 119.077618 
L 177.760138 119.311621 
L 177.82985 119.087719 
L 178.108699 119.94852 
L 178.178412 120.056699 
L 178.248124 119.685329 
L 178.317836 120.148427 
L 178.387548 119.431517 
L 178.596685 121.161984 
L 178.73611 120.941586 
L 178.805822 120.442665 
L 178.875534 121.042603 
L 178.945246 120.906335 
L 179.014959 120.805173 
L 179.433232 122.327073 
L 179.572656 122.494519 
L 179.781793 122.520855 
L 179.851505 123.495168 
L 179.921218 123.18211 
L 179.99093 122.970119 
L 180.060642 123.090171 
L 180.130354 123.125513 
L 180.269779 122.904206 
L 180.409203 123.678434 
L 180.688052 122.933036 
L 180.827477 121.386997 
L 180.897189 121.592547 
L 180.966901 121.583071 
L 181.176038 121.994193 
L 181.385175 121.772394 
L 181.664024 122.996725 
L 181.733736 122.933106 
L 181.942873 122.32494 
L 182.012585 122.402381 
L 182.291434 124.476839 
L 182.361146 123.997102 
L 182.430858 124.433618 
L 182.500571 124.111949 
L 182.570283 124.272712 
L 182.639995 124.481437 
L 182.709707 124.424777 
L 182.849132 123.968608 
L 183.058268 125.361205 
L 183.127981 125.410962 
L 183.476542 126.717666 
L 183.546254 126.679627 
L 183.685679 126.592878 
L 183.755391 126.707409 
L 183.825103 126.442841 
L 183.894815 126.697209 
L 183.964528 126.345835 
L 184.03424 126.549338 
L 184.452513 128.897846 
L 184.522225 128.07341 
L 184.591938 128.437288 
L 184.801074 129.822334 
L 184.870787 129.255847 
L 184.940499 129.69396 
L 185.010211 129.427015 
L 185.219348 129.915367 
L 185.358772 130.186481 
L 185.428485 129.851224 
L 185.707334 131.688694 
L 185.777046 131.665631 
L 185.846758 131.689035 
L 185.91647 130.955317 
L 186.055895 132.224899 
L 186.125607 132.362983 
L 186.195319 132.28412 
L 186.265031 132.155651 
L 186.753017 135.131414 
L 186.822729 135.06616 
L 186.892442 134.70305 
L 186.962154 134.93871 
L 187.031866 134.516239 
L 187.171291 134.855132 
L 187.310715 134.819901 
L 187.380427 134.93006 
L 187.519852 135.920736 
L 187.728988 134.960024 
L 187.798701 134.929701 
L 188.07755 135.828818 
L 188.216974 135.163375 
L 188.426111 136.122668 
L 188.495823 135.601243 
L 188.565535 135.633949 
L 188.70496 136.233136 
L 188.774672 136.175449 
L 188.844384 135.986567 
L 188.914097 136.036513 
L 189.053521 136.108188 
L 189.262658 135.441174 
L 189.541507 135.904599 
L 189.750643 137.156614 
L 189.890068 137.711251 
L 189.95978 137.580041 
L 190.099205 136.843856 
L 190.168917 137.117776 
L 190.238629 136.941857 
L 190.447766 136.409399 
L 190.58719 135.985867 
L 190.656903 135.783354 
L 190.935751 137.75091 
L 191.005464 138.032662 
L 191.2146 136.700604 
L 191.284313 136.926898 
L 191.423737 137.326278 
L 191.493449 137.3791 
L 191.702586 138.820489 
L 191.842011 138.811897 
L 191.981435 139.367411 
L 192.260284 138.5433 
L 192.329996 138.499356 
L 192.74827 139.810902 
L 192.817982 139.476823 
L 192.957406 139.688489 
L 193.096831 140.350632 
L 193.166543 140.971223 
L 193.236255 140.916284 
L 193.37568 140.363609 
L 193.445392 140.45446 
L 193.654529 141.467314 
L 193.724241 141.426943 
L 193.933378 141.18502 
L 194.212227 142.113407 
L 194.281939 141.706231 
L 194.491076 142.498302 
L 194.560788 142.52026 
L 194.700212 141.876344 
L 194.909349 142.788678 
L 194.979061 142.71631 
L 195.25791 142.995641 
L 195.327623 142.428699 
L 195.397335 142.69521 
L 195.467047 142.616794 
L 195.536759 142.728855 
L 195.606471 142.643891 
L 195.676184 142.722881 
L 195.88532 143.400702 
L 195.955033 143.41383 
L 196.164169 143.953476 
L 196.303594 143.476501 
L 196.373306 144.076023 
L 196.443018 143.784029 
L 196.721867 144.476811 
L 196.861292 144.413455 
L 196.931004 144.617161 
L 197.000716 144.311586 
L 197.070429 144.688348 
L 197.140141 144.394025 
L 197.209853 144.50989 
L 197.628126 145.929185 
L 197.697839 145.783702 
L 197.906975 146.466204 
L 197.976688 146.669817 
L 198.116112 146.414999 
L 198.185824 146.463101 
L 198.464673 147.951162 
L 198.534386 147.894611 
L 198.604098 147.379394 
L 198.67381 147.573179 
L 199.022371 148.99253 
L 199.161796 149.355649 
L 199.30122 150.027505 
L 199.440645 149.39017 
L 199.719494 150.32898 
L 199.789206 150.54363 
L 200.068055 149.291582 
L 200.137767 149.363028 
L 200.207479 149.198943 
L 200.486328 150.822899 
L 200.625753 150.183946 
L 200.695465 150.250565 
L 200.765177 150.155726 
L 200.974314 150.890905 
L 201.113738 150.856701 
L 201.253163 150.708101 
L 201.322875 150.840811 
L 201.4623 151.782291 
L 201.601724 151.122679 
L 201.810861 151.747691 
L 201.880573 151.58213 
L 202.019998 152.160494 
L 202.159422 151.415576 
L 202.229134 151.411133 
L 202.298846 151.269978 
L 202.368559 151.335383 
L 202.71712 152.56354 
L 202.786832 152.629707 
L 202.995969 151.440114 
L 203.205106 152.767028 
L 203.34453 151.922094 
L 203.414242 152.094262 
L 203.553667 153.074548 
L 203.693091 152.765067 
L 203.762803 152.807561 
L 203.97194 153.568767 
L 204.041652 153.013944 
L 204.111365 153.342204 
L 204.181077 153.390845 
L 204.250789 153.580798 
L 204.529638 153.055499 
L 204.669063 153.238193 
L 204.808487 153.818204 
L 204.947912 154.426202 
L 205.157048 153.678236 
L 205.296473 153.836506 
L 205.435897 154.72231 
L 205.645034 154.459622 
L 205.714746 154.592452 
L 205.854171 155.119481 
L 205.993595 155.937112 
L 206.13302 155.912754 
L 206.272444 155.548418 
L 206.551293 157.071517 
L 206.830142 156.837078 
L 206.899854 156.78755 
L 207.039279 157.414241 
L 207.108991 157.378951 
L 207.178703 156.986864 
L 207.248415 157.049761 
L 207.38784 157.086305 
L 207.457552 157.51717 
L 207.527264 157.440607 
L 207.596977 157.560448 
L 207.666689 157.158897 
L 207.736401 157.283529 
L 207.945538 158.637453 
L 208.154675 158.846241 
L 208.503236 158.023302 
L 208.572948 158.250029 
L 208.64266 159.014671 
L 208.712372 158.958618 
L 208.782085 159.017539 
L 208.921509 158.773733 
L 209.409495 159.757231 
L 209.479207 159.581926 
L 209.688344 160.069891 
L 209.827768 160.916231 
L 209.967193 160.522214 
L 210.106617 160.891236 
L 210.246042 160.15249 
L 210.315754 160.178988 
L 210.385466 160.297086 
L 210.594603 161.075987 
L 210.664315 161.101924 
L 210.80374 161.580268 
L 210.873452 161.549897 
L 210.943164 161.637186 
L 211.012876 161.576566 
L 211.082589 162.228293 
L 211.152301 162.074497 
L 211.291725 162.256886 
L 211.570574 161.921548 
L 211.640287 162.298573 
L 211.709999 162.070218 
L 211.779711 162.385088 
L 211.988848 161.446938 
L 212.05856 161.096567 
L 212.128272 161.194581 
L 212.337409 161.618163 
L 212.616258 161.153804 
L 212.68597 161.242939 
L 212.825395 161.51683 
L 213.034531 161.259897 
L 213.31338 161.305319 
L 213.522517 161.93706 
L 213.592229 161.375554 
L 213.661941 161.589271 
L 213.801366 162.026781 
L 213.871078 161.922339 
L 214.010503 161.307339 
L 214.080215 161.333751 
L 214.149927 161.294242 
L 214.428776 161.920237 
L 214.498488 161.810531 
L 214.568201 161.899604 
L 214.637913 161.944468 
L 214.84705 162.661051 
L 214.986474 162.161024 
L 215.056186 162.255645 
L 215.125898 161.999173 
L 215.404747 163.009962 
L 215.613884 162.702325 
L 215.823021 163.313881 
L 216.032158 163.093347 
L 216.171582 162.986596 
L 216.241294 163.046581 
L 216.311007 163.257047 
L 216.520143 164.595356 
L 216.72928 163.556419 
L 217.147553 164.625445 
L 217.217266 164.618938 
L 217.286978 164.788296 
L 217.426402 164.332201 
L 217.565827 164.587428 
L 217.705251 165.476932 
L 217.844676 165.146766 
L 217.9841 165.584989 
L 218.123525 165.34361 
L 218.262949 165.973146 
L 218.332661 165.819385 
L 218.402374 165.53908 
L 218.472086 165.660655 
L 218.61151 165.596658 
L 218.890359 166.14193 
L 219.099496 165.574862 
L 219.378345 166.461872 
L 219.448057 166.032972 
L 219.51777 166.173685 
L 219.587482 165.983958 
L 220.005755 166.95857 
L 220.075467 166.897004 
L 220.214892 166.530438 
L 220.424029 167.504035 
L 220.563453 167.087194 
L 220.633165 167.187779 
L 220.912014 166.91201 
L 220.981727 167.114655 
L 221.051439 167.007464 
L 221.121151 166.780444 
L 221.190863 166.836093 
L 221.330288 167.53913 
L 221.4 168.697523 
L 221.469712 168.007901 
L 221.539424 168.029793 
L 221.609137 167.385823 
L 221.678849 167.521366 
L 221.818273 168.185762 
L 221.957698 167.637585 
L 222.097122 167.552053 
L 222.236547 167.864585 
L 222.375971 167.81753 
L 222.515396 168.058475 
L 222.65482 167.941111 
L 222.724533 168.047793 
L 222.794245 168.522546 
L 222.863957 168.321106 
L 223.003382 167.791487 
L 223.142806 167.947995 
L 223.351943 166.331426 
L 223.491367 167.691894 
L 223.630792 168.13122 
L 223.700504 168.344684 
L 223.839928 167.866176 
L 223.909641 168.529945 
L 223.979353 167.815496 
L 224.18849 169.156765 
L 224.258202 169.209948 
L 224.537051 168.222348 
L 224.606763 168.171659 
L 224.746187 168.49903 
L 224.8159 168.156649 
L 224.885612 168.268023 
L 225.025036 168.02448 
L 225.094749 168.143369 
L 225.164461 168.29151 
L 225.234173 168.751923 
L 225.303885 168.61607 
L 225.373598 168.768843 
L 225.44331 168.709817 
L 225.652447 168.958197 
L 225.861583 169.84283 
L 225.931296 169.221487 
L 226.001008 169.849172 
L 226.07072 169.182789 
L 226.140432 169.349999 
L 226.210145 169.22784 
L 226.279857 169.311135 
L 226.349569 169.527653 
L 226.419281 169.421512 
L 226.558706 169.542428 
L 226.69813 169.182464 
L 227.116404 170.272608 
L 227.186116 169.924557 
L 227.255828 169.947898 
L 227.32554 169.877763 
L 227.395253 170.143992 
L 227.604389 169.626912 
L 227.674102 169.793605 
L 227.813526 170.485187 
L 227.95295 169.682835 
L 228.022663 169.7755 
L 228.231799 171.278596 
L 228.301512 171.144387 
L 228.510648 170.289174 
L 228.650073 169.948851 
L 228.719785 170.434966 
L 228.789497 170.155192 
L 228.928922 169.968658 
L 228.998634 169.674602 
L 229.068346 169.731272 
L 229.277483 170.573514 
L 229.347195 170.372705 
L 229.626044 171.189048 
L 229.695756 171.030004 
L 229.835181 170.636959 
L 229.904893 170.649852 
L 229.974605 170.792542 
L 230.11403 170.567163 
L 230.253454 171.003423 
L 230.392879 170.476176 
L 230.462591 170.597934 
L 230.532303 170.627958 
L 230.602016 171.239743 
L 230.671728 170.738825 
L 230.74144 171.028408 
L 230.811152 170.91424 
L 230.950577 171.234445 
L 231.090001 170.992296 
L 231.159713 170.718048 
L 231.508275 171.935502 
L 231.647699 171.828164 
L 231.787124 171.890519 
L 231.99626 171.606791 
L 232.275109 172.754838 
L 232.414534 172.754866 
L 232.484246 172.883573 
L 232.553958 172.617994 
L 232.623671 172.733933 
L 232.832807 172.853062 
L 232.972232 173.169219 
L 233.111656 173.302025 
L 233.251081 174.149133 
L 233.320793 174.134089 
L 233.390505 173.783609 
L 233.460217 173.841472 
L 233.52993 173.792118 
L 233.948203 175.175447 
L 234.087628 175.066514 
L 234.15734 175.22574 
L 234.227052 174.974292 
L 234.505901 175.797117 
L 234.715038 176.374479 
L 234.78475 176.334742 
L 234.854462 176.006067 
L 234.924174 176.083203 
L 234.993887 176.033529 
L 235.272736 176.940772 
L 235.41216 176.612177 
L 235.551585 176.977182 
L 235.621297 176.971461 
L 235.760721 177.447881 
L 235.969858 177.297428 
L 236.178995 177.972789 
L 236.248707 177.700669 
L 236.318419 177.354385 
L 236.388131 177.376587 
L 236.527556 178.186111 
L 236.736693 177.634845 
L 236.876117 178.018639 
L 236.945829 177.869764 
L 237.224678 177.721399 
L 237.294391 177.613241 
L 237.433815 178.274611 
L 237.642952 178.825037 
L 237.712664 178.899458 
L 237.782376 179.233214 
L 237.921801 178.504587 
L 237.991513 178.64062 
L 238.061225 178.54914 
L 238.270362 178.236169 
L 238.479499 179.178378 
L 238.688635 178.870196 
L 238.82806 179.362226 
L 238.967484 178.983624 
L 239.037197 179.059384 
L 239.246333 179.739507 
L 239.316045 179.813582 
L 239.385758 179.707275 
L 239.525182 179.171887 
L 239.664607 179.96501 
L 239.943456 179.337815 
L 240.013168 179.259199 
L 240.152592 179.797525 
L 240.361729 179.161857 
L 240.570866 179.733769 
L 240.640578 179.740848 
L 240.71029 180.130265 
L 240.780002 179.624179 
L 240.849715 179.652564 
L 240.919427 179.539709 
L 240.989139 179.79309 
L 241.267988 178.816464 
L 241.477125 179.551011 
L 241.546837 179.421938 
L 241.686262 179.710662 
L 242.104535 179.659587 
L 242.174247 179.676438 
L 242.313672 180.315292 
L 242.453096 179.836288 
L 242.731945 179.35184 
L 242.801657 179.406717 
L 243.010794 180.623184 
L 243.289643 180.159098 
L 243.49878 180.12274 
L 243.568492 179.949661 
L 243.638204 180.045304 
L 243.707917 180.056138 
L 244.056478 181.089843 
L 244.12619 181.202458 
L 244.405039 180.646023 
L 244.544463 180.748945 
L 244.7536 181.052045 
L 244.893025 180.655741 
L 245.032449 181.328306 
L 245.102161 181.289496 
L 245.311298 180.599024 
L 245.450723 181.137029 
L 245.659859 181.228375 
L 245.729571 181.2711 
L 245.868996 181.839618 
L 245.938708 182.141148 
L 246.00842 182.059754 
L 246.078133 181.659256 
L 246.147845 181.841207 
L 246.217557 182.02565 
L 246.426694 181.523021 
L 246.566118 182.338815 
L 246.705543 181.755311 
L 246.775255 181.919535 
L 246.984392 182.106513 
L 247.054104 182.033701 
L 247.123816 181.7975 
L 247.263241 182.604925 
L 247.332953 182.467572 
L 247.402665 182.242537 
L 247.472377 182.293009 
L 247.54209 182.291844 
L 247.681514 183.238351 
L 247.751226 183.07919 
L 248.099788 182.442787 
L 248.308924 183.046711 
L 248.448349 182.825981 
L 248.518061 182.46731 
L 248.727198 182.950788 
L 248.79691 183.134487 
L 249.006047 182.551024 
L 249.075759 182.564895 
L 249.284896 183.228002 
L 249.354608 183.126057 
L 249.703169 182.151255 
L 249.842594 182.580926 
L 249.912306 182.775579 
L 249.982018 182.727387 
L 250.121443 182.537343 
L 250.191155 182.662101 
L 250.260867 183.036871 
L 250.330579 182.929598 
L 250.609428 182.623775 
L 250.818565 182.927328 
L 250.888277 182.82536 
L 250.957989 182.812614 
L 251.097414 183.12152 
L 251.306551 182.498214 
L 251.5854 183.799324 
L 251.794536 183.220331 
L 251.933961 183.306302 
L 252.143097 183.645387 
L 252.282522 183.511108 
L 252.352234 183.562175 
L 252.421946 183.453704 
L 252.491659 183.517401 
L 252.700795 184.014637 
L 252.84022 184.049699 
L 252.909932 184.550954 
L 252.979644 184.500515 
L 253.188781 183.903329 
L 253.46763 185.116262 
L 253.816191 185.819231 
L 253.885903 185.631299 
L 253.955616 185.750022 
L 254.164752 186.067953 
L 254.583026 187.456728 
L 254.792163 186.981393 
L 254.861875 187.091218 
L 254.931587 186.999297 
L 255.210436 186.500557 
L 255.34986 186.353709 
L 256.046983 187.099163 
L 256.25612 186.61799 
L 256.395544 187.163191 
L 256.465256 187.25928 
L 256.604681 186.722735 
L 256.674393 187.003023 
L 256.813818 187.047831 
L 256.88353 186.875044 
L 256.953242 186.962939 
L 257.022954 187.229854 
L 257.232091 186.301798 
L 257.301803 186.368541 
L 257.371515 186.277498 
L 257.51094 186.921149 
L 257.580652 186.812294 
L 258.068638 187.975099 
L 258.277775 186.872745 
L 258.347487 186.893477 
L 258.486911 187.190313 
L 258.626336 186.901772 
L 258.835472 187.218004 
L 258.974897 187.596223 
L 259.044609 187.242812 
L 259.114321 187.310412 
L 259.184034 187.201204 
L 259.323458 187.462041 
L 259.462883 187.656787 
L 259.602307 187.088479 
L 259.672019 187.13951 
L 259.811444 187.557052 
L 259.881156 187.493468 
L 260.020581 187.068409 
L 260.090293 187.518014 
L 260.160005 187.329178 
L 260.229717 187.32658 
L 260.438854 186.702798 
L 260.857127 187.265946 
L 261.066264 186.535462 
L 261.135976 186.594015 
L 261.275401 186.944554 
L 261.414825 186.254996 
L 261.55425 186.737987 
L 261.763386 186.572621 
L 261.833099 186.65332 
L 261.972523 187.280853 
L 262.111948 186.895521 
L 262.18166 186.931149 
L 262.251372 187.122362 
L 262.321084 187.039767 
L 262.390797 187.175909 
L 262.460509 186.959858 
L 262.669646 187.467137 
L 262.80907 186.664786 
L 262.878782 186.74162 
L 262.948495 187.404878 
L 263.018207 187.239536 
L 263.157631 186.728025 
L 263.297056 187.022649 
L 263.366768 187.663869 
L 263.43648 187.316792 
L 263.506192 187.195641 
L 263.645617 187.406636 
L 263.924466 186.552918 
L 264.06389 187.215595 
L 264.133603 187.080083 
L 264.203315 187.473321 
L 264.273027 187.14771 
L 264.342739 187.196897 
L 264.551876 186.999634 
L 264.830725 187.364582 
L 264.900437 187.253002 
L 264.97015 187.442173 
L 265.039862 187.129094 
L 265.109574 187.584774 
L 265.179286 187.355318 
L 265.248998 187.648642 
L 265.318711 187.618018 
L 265.388423 187.636159 
L 265.458135 187.454926 
L 265.736984 187.864943 
L 266.015833 187.55351 
L 266.155258 188.01778 
L 266.22497 188.387366 
L 266.294682 188.255167 
L 266.434107 187.394856 
L 266.573531 187.953704 
L 266.782668 187.700425 
L 267.061517 188.279465 
L 267.200941 188.025215 
L 267.270653 188.260799 
L 267.340366 188.151241 
L 267.410078 188.189208 
L 267.549502 187.990333 
L 267.619215 188.190368 
L 267.688927 188.159515 
L 267.758639 188.122314 
L 268.037488 188.80309 
L 268.1072 188.623756 
L 268.246625 188.124598 
L 268.316337 188.236389 
L 268.386049 188.972554 
L 268.455761 188.862407 
L 268.525474 189.127975 
L 268.595186 188.306284 
L 268.664898 188.747588 
L 268.73461 189.213907 
L 268.804323 189.051835 
L 269.292308 188.629499 
L 269.431733 188.29073 
L 269.64087 189.599165 
L 269.850006 188.637747 
L 269.989431 188.740264 
L 270.059143 188.793297 
L 270.198567 189.437311 
L 270.26828 189.384935 
L 270.407704 189.101319 
L 270.616841 189.35814 
L 270.825978 188.59837 
L 270.89569 188.679879 
L 271.035114 189.094798 
L 271.174539 189.184259 
L 271.383676 188.618904 
L 271.5231 189.05578 
L 271.592812 189.276853 
L 271.662524 189.160494 
L 271.801949 188.544652 
L 271.941373 189.014982 
L 272.15051 187.91348 
L 272.429359 188.55519 
L 272.499071 188.340589 
L 272.568784 188.469184 
L 272.638496 188.741145 
L 272.708208 188.695872 
L 272.917345 188.782742 
L 273.056769 188.408859 
L 273.126481 188.741023 
L 273.196194 188.71912 
L 273.40533 187.982159 
L 273.475043 188.537436 
L 273.544755 188.518123 
L 273.753892 188.046509 
L 273.963028 188.651295 
L 274.032741 188.496504 
L 274.241877 187.408673 
L 274.31159 187.715332 
L 274.381302 187.326702 
L 274.520726 188.184739 
L 274.660151 187.932736 
L 274.869287 188.198141 
L 275.078424 187.672702 
L 275.148136 187.711433 
L 275.217849 187.83546 
L 275.287561 187.770881 
L 275.426985 187.522548 
L 275.496698 187.947668 
L 275.636122 187.479124 
L 275.705834 187.468079 
L 275.845259 187.793532 
L 275.914971 187.589245 
L 275.984683 187.723647 
L 276.19382 187.813368 
L 276.263532 188.025165 
L 276.333244 187.981583 
L 276.472669 187.509179 
L 276.751518 188.274546 
L 276.82123 187.485016 
L 276.890942 187.537051 
L 276.960655 187.235966 
L 277.309216 188.216632 
L 277.44864 187.707836 
L 277.518353 187.874731 
L 277.588065 188.287518 
L 277.657777 188.243905 
L 277.727489 187.996477 
L 277.797202 188.031956 
L 277.866914 188.021584 
L 278.006338 188.361948 
L 278.07605 187.974025 
L 278.145763 188.133783 
L 278.215475 187.859191 
L 278.285187 188.503672 
L 278.354899 188.047174 
L 278.424612 188.400272 
L 278.494324 188.136301 
L 278.564036 188.160112 
L 278.703461 188.257506 
L 278.912597 188.177253 
L 279.052022 188.144314 
L 279.470295 188.810773 
L 279.679432 189.518355 
L 279.749144 189.502268 
L 279.958281 188.866355 
L 280.027993 189.230636 
L 280.097705 189.139093 
L 280.167418 188.92507 
L 280.23713 188.955016 
L 280.306842 188.930041 
L 280.446267 188.660292 
L 280.585691 189.945763 
L 280.655403 189.879657 
L 280.794828 189.732992 
L 280.934252 189.418924 
L 281.003965 189.584312 
L 281.073677 189.958215 
L 281.352526 189.060991 
L 281.422238 189.092278 
L 281.49195 189.547471 
L 281.561662 189.384136 
L 281.770799 188.4875 
L 281.840511 188.648386 
L 281.979936 188.863121 
L 282.189073 189.621302 
L 282.258785 189.544586 
L 282.398209 189.93688 
L 282.537634 189.540546 
L 282.74677 190.147191 
L 282.816483 189.969197 
L 283.025619 190.637983 
L 283.234756 190.047409 
L 283.304468 190.273814 
L 283.65303 190.727567 
L 283.862166 190.471823 
L 283.931879 190.593404 
L 284.001591 190.763372 
L 284.28044 190.191989 
L 284.489576 191.146692 
L 284.629001 191.430546 
L 284.698713 191.613539 
L 284.838138 191.145461 
L 284.90785 191.182696 
L 285.047274 191.136873 
L 285.186699 191.307511 
L 285.326123 190.796151 
L 285.395836 191.460453 
L 285.465548 191.166287 
L 285.53526 191.308631 
L 285.604972 191.179089 
L 285.744397 191.712364 
L 285.814109 191.73551 
L 285.883821 192.238277 
L 286.092958 191.008227 
L 286.16267 190.945121 
L 286.232382 191.121999 
L 286.302095 191.092556 
L 286.371807 190.878536 
L 286.441519 191.19508 
L 286.511231 191.056659 
L 286.580944 190.600036 
L 286.650656 190.681378 
L 286.859793 191.263427 
L 287.138642 190.360983 
L 287.347778 191.291863 
L 287.417491 191.105228 
L 287.556915 190.63393 
L 287.696339 190.617433 
L 287.835764 190.333397 
L 287.975188 191.11471 
L 288.184325 190.823032 
L 288.32375 190.614552 
L 288.393462 190.871259 
L 288.463174 190.761359 
L 288.532886 190.680632 
L 288.672311 191.243868 
L 288.742023 191.199088 
L 288.811735 190.86194 
L 289.020872 191.355922 
L 289.230009 190.809225 
L 289.299721 190.386016 
L 289.369433 190.438646 
L 289.57857 191.413447 
L 289.648282 191.263825 
L 289.787707 190.497511 
L 289.996843 190.761661 
L 290.066556 190.76186 
L 290.20598 191.115652 
L 290.275692 191.024725 
L 290.415117 191.038339 
L 290.624254 190.309521 
L 290.693966 190.714479 
L 290.763678 190.655777 
L 290.83339 190.786822 
L 291.042527 191.535118 
L 291.181951 190.909659 
L 291.251664 191.020813 
L 291.321376 191.321024 
L 291.391088 191.148273 
L 291.530513 190.68902 
L 291.809362 191.392048 
L 291.948786 191.262996 
L 292.157923 191.405892 
L 292.36706 190.85907 
L 292.506484 191.213498 
L 292.715621 190.506938 
L 292.855045 191.213024 
L 292.924757 190.949206 
L 292.99447 190.63827 
L 293.203606 191.828539 
L 293.62188 190.941722 
L 293.761304 191.009453 
L 293.831017 191.063297 
L 294.109865 190.776895 
L 294.179578 190.951885 
L 294.24929 190.841727 
L 294.458427 190.369161 
L 294.597851 190.730462 
L 294.737276 190.870528 
L 294.946412 190.351628 
L 295.016125 190.520887 
L 295.085837 190.541484 
L 295.155549 190.437734 
L 295.294974 190.87922 
L 295.364686 190.367624 
L 295.434398 190.580325 
L 295.50411 191.010442 
L 295.573823 190.976793 
L 295.713247 190.497859 
L 295.852671 191.097433 
L 295.922384 191.638241 
L 295.992096 191.568133 
L 296.13152 191.045238 
L 296.270945 191.225062 
L 296.480082 190.919819 
L 296.619506 190.368381 
L 296.689218 190.422929 
L 296.758931 190.744132 
L 296.828643 190.568579 
L 296.898355 190.262929 
L 296.968067 190.448708 
L 297.177204 190.545674 
L 297.316628 190.476858 
L 297.525765 190.684206 
L 297.595477 190.344989 
L 297.66519 190.585014 
L 297.734902 190.357185 
L 298.013751 191.568304 
L 298.222888 190.997534 
L 298.2926 191.067934 
L 298.432024 190.951272 
L 298.989722 191.580013 
L 299.059434 191.337524 
L 299.129147 191.380529 
L 299.338283 191.932053 
L 299.407996 191.94619 
L 299.617132 192.246974 
L 299.756557 191.866553 
L 299.826269 192.178202 
L 299.895981 192.122416 
L 300.035406 192.118163 
L 300.17483 192.51973 
L 300.244543 192.364403 
L 300.314255 192.221985 
L 300.383967 192.771751 
L 300.453679 192.293784 
L 300.523391 192.711078 
L 300.593104 192.115649 
L 300.662816 192.337529 
L 300.80224 191.850007 
L 300.941665 191.923613 
L 301.290226 193.09928 
L 301.429651 192.691749 
L 301.569075 193.087013 
L 301.778212 192.102146 
L 302.126773 193.483124 
L 302.33591 192.849891 
L 302.405622 192.405888 
L 302.475334 192.535736 
L 302.684471 193.355313 
L 302.96332 192.652126 
L 303.102744 193.457969 
L 303.381593 193.090713 
L 303.451306 192.98908 
L 303.521018 193.07987 
L 303.660442 193.992693 
L 303.799867 193.406534 
L 303.869579 193.279219 
L 304.078716 194.314325 
L 304.21814 193.965641 
L 304.287852 194.607772 
L 304.357565 194.484664 
L 304.566701 194.122955 
L 304.775838 195.567197 
L 305.194112 196.840899 
L 305.47296 198.030977 
L 305.542673 198.138639 
L 305.682097 198.937149 
L 305.751809 198.901177 
L 305.960946 199.097701 
L 306.100371 199.524802 
L 306.170083 199.655763 
L 306.239795 199.613102 
L 306.309507 199.37982 
L 306.518644 200.034301 
L 306.658069 199.719493 
L 306.727781 199.823677 
L 306.867205 199.523853 
L 307.00663 199.059725 
L 307.146054 199.56374 
L 307.424903 198.660214 
L 307.564328 198.90496 
L 307.703752 198.723946 
L 307.773464 198.77432 
L 307.982601 197.976136 
L 308.052313 198.23468 
L 308.191738 198.040017 
L 308.26145 197.380279 
L 308.331162 197.738143 
L 308.400875 197.639855 
L 308.470587 196.876657 
L 308.540299 197.051642 
L 308.610011 197.067525 
L 308.819148 195.921776 
L 308.958572 196.396492 
L 309.237421 195.499811 
L 309.307134 195.615194 
L 309.446558 194.831512 
L 309.51627 194.844912 
L 309.725407 194.480085 
L 309.795119 194.580671 
L 309.864832 194.412316 
L 310.143681 195.146053 
L 310.422529 193.840426 
L 310.701378 193.076741 
L 310.771091 193.243376 
L 310.840803 193.747695 
L 310.910515 193.693193 
L 310.980227 193.357916 
L 311.259076 193.890207 
L 311.398501 193.81792 
L 311.67735 193.762335 
L 312.025911 193.164181 
L 312.165335 193.943885 
L 312.235048 193.914005 
L 312.374472 193.549971 
L 312.513897 192.62776 
L 312.583609 192.70793 
L 312.792746 193.815353 
L 312.93217 193.694487 
L 313.350444 192.644828 
L 313.420156 192.756851 
L 313.55958 193.32652 
L 313.629292 193.31039 
L 313.977854 192.79798 
L 314.047566 192.991119 
L 314.117278 192.856867 
L 314.326415 193.187329 
L 314.535552 192.639186 
L 314.744688 193.842482 
L 314.814401 193.543682 
L 314.884113 193.923419 
L 314.953825 193.778966 
L 315.441811 192.671244 
L 315.860084 193.358008 
L 315.999509 193.194413 
L 316.069221 193.306353 
L 316.138933 193.756609 
L 316.208645 193.643188 
L 316.278358 193.351919 
L 316.34807 193.631856 
L 316.557207 193.141938 
L 316.696631 193.335328 
L 316.766343 193.737548 
L 316.836055 193.511575 
L 316.97548 193.141437 
L 317.045192 193.422158 
L 317.114904 193.060628 
L 317.254329 193.300034 
L 317.463466 193.524557 
L 317.533178 193.602804 
L 317.672602 193.217462 
L 317.742315 193.845853 
L 317.812027 193.693362 
L 318.021164 193.125941 
L 318.090876 193.688956 
L 318.160588 193.191455 
L 318.2303 193.359177 
L 318.369725 194.760196 
L 318.439437 194.434578 
L 318.578861 193.63285 
L 318.718286 193.592222 
L 318.787998 194.020018 
L 318.85771 194.007909 
L 318.927423 194.018694 
L 319.066847 193.490984 
L 319.345696 194.483397 
L 319.554833 194.354351 
L 319.694257 194.017062 
L 319.76397 193.653674 
L 319.833682 194.076774 
L 319.903394 194.050126 
L 320.042818 194.305147 
L 320.182243 193.906272 
L 320.251955 193.955691 
L 320.461092 194.457603 
L 320.670229 195.328022 
L 320.809653 194.272236 
L 320.949078 194.734179 
L 321.01879 194.64621 
L 321.158214 193.968802 
L 321.506775 195.100353 
L 321.715912 194.614855 
L 321.925049 194.469384 
L 322.064473 195.155634 
L 322.134186 195.229011 
L 322.27361 194.969349 
L 322.413035 195.013748 
L 322.552459 194.578046 
L 322.622171 194.739197 
L 322.691884 194.682877 
L 322.90102 194.488774 
L 322.970733 194.441674 
L 323.110157 194.909143 
L 323.249581 194.214209 
L 323.319294 194.40531 
L 323.52843 194.770584 
L 323.737567 195.192539 
L 323.876992 194.597408 
L 324.086128 195.372637 
L 324.225553 195.202037 
L 324.364977 195.29259 
L 324.574114 195.850734 
L 324.643826 195.87205 
L 324.852963 194.802076 
L 324.922675 195.111646 
L 324.992387 195.672042 
L 325.0621 195.4226 
L 325.271236 195.865095 
L 325.410661 195.633183 
L 325.480373 195.614342 
L 325.68951 195.079947 
L 325.759222 195.407472 
L 325.828934 195.380422 
L 325.898647 195.511357 
L 325.968359 195.289321 
L 326.107783 195.689369 
L 326.177496 195.701565 
L 326.247208 195.52234 
L 326.31692 195.628733 
L 326.386632 195.913745 
L 326.456344 195.815646 
L 326.595769 195.233768 
L 326.665481 194.408631 
L 326.735193 194.486395 
L 326.804906 194.766868 
L 326.874618 196.064933 
L 326.94433 195.62017 
L 327.014042 195.648204 
L 327.083755 195.502309 
L 327.153467 196.193565 
L 327.292891 194.29395 
L 327.432316 242.116364 
L 373.581818 242.116364 
L 373.581818 242.116364 
" style="fill:none;stroke:#1f77b4;stroke-linecap:square;stroke-width:1.5;"/>
   </g>
   <g id="line2d_18">
    <path clip-path="url(#pd08587a369)" d="M 306.472169 242.116364 
L 306.472169 44.443636 
" style="fill:none;stroke:#ff0000;stroke-dasharray:1.5,2.475;stroke-dashoffset:0;stroke-width:1.5;"/>
   </g>
   <g id="line2d_19">
    <path clip-path="url(#pd08587a369)" d="M 304.357565 242.116364 
L 304.357565 44.443636 
" style="fill:none;stroke:#008000;stroke-dasharray:1.5,2.475;stroke-dashoffset:0;stroke-width:1.5;"/>
   </g>
   <g id="line2d_20">
    <path clip-path="url(#pd08587a369)" d="M 308.540299 242.116364 
L 308.540299 44.443636 
" style="fill:none;stroke:#008000;stroke-dasharray:1.5,2.475;stroke-dashoffset:0;stroke-width:1.5;"/>
   </g>
   <g id="patch_3">
    <path d="M 54 252 
L 54 34.56 
" style="fill:none;stroke:#000000;stroke-linecap:square;stroke-linejoin:miter;stroke-width:0.8;"/>
   </g>
   <g id="patch_4">
    <path d="M 388.8 252 
L 388.8 34.56 
" style="fill:none;stroke:#000000;stroke-linecap:square;stroke-linejoin:miter;stroke-width:0.8;"/>
   </g>
   <g id="patch_5">
    <path d="M 54 252 
L 388.8 252 
" style="fill:none;stroke:#000000;stroke-linecap:square;stroke-linejoin:miter;stroke-width:0.8;"/>
   </g>
   <g id="patch_6">
    <path d="M 54 34.56 
L 388.8 34.56 
" style="fill:none;stroke:#000000;stroke-linecap:square;stroke-linejoin:miter;stroke-width:0.8;"/>
   </g>
   <g id="text_19">
    <!-- $H_\alpha$ -->
    <defs>
     <path d="M 16.890625 72.90625 
L 26.8125 72.90625 
L 21 43.015625 
L 56.78125 43.015625 
L 62.59375 72.90625 
L 72.515625 72.90625 
L 58.296875 0 
L 48.390625 0 
L 55.171875 34.71875 
L 19.390625 34.71875 
L 12.59375 0 
L 2.6875 0 
z
" id="DejaVuSans-Oblique-72"/>
     <path d="M 40.921875 25.4375 
L 40.96875 36.71875 
Q 41.015625 48.25 32.328125 48.296875 
Q 25.828125 48.34375 21.78125 42.921875 
Q 16.703125 36.234375 14.984375 27.296875 
Q 12.890625 16.546875 15.53125 11.421875 
Q 18.265625 6.203125 24.171875 6.203125 
Q 30.71875 6.203125 36.234375 16.609375 
z
M 33.84375 55.90625 
Q 49.078125 56.15625 48.875 40.375 
Q 48.875 40.375 56.5 54.6875 
L 64.5 54.6875 
L 48.734375 25.046875 
L 48.578125 14.359375 
Q 48.578125 11.96875 49.90625 9.96875 
Q 51.421875 7.625 52.984375 7.625 
L 57.328125 7.625 
L 55.859375 0 
L 50.4375 0 
Q 45.84375 0 42.53125 4.109375 
Q 40.96875 6.15625 40.921875 10.453125 
Q 37.75 5.21875 32.28125 0.78125 
Q 29.6875 -1.265625 22.703125 -1.21875 
Q 11.28125 -1.125 7.125 6.203125 
Q 2.875 13.8125 5.515625 27.296875 
Q 8.34375 41.796875 15.765625 48.390625 
Q 24.125 55.765625 33.84375 55.90625 
z
" id="DejaVuSans-Oblique-945"/>
    </defs>
    <g style="fill:#ff0000;" transform="translate(300.222169 242.116364)scale(0.1 -0.1)">
     <use transform="translate(0 0.09375)" xlink:href="#DejaVuSans-Oblique-72"/>
     <use transform="translate(75.195312 -16.3125)scale(0.7)" xlink:href="#DejaVuSans-Oblique-945"/>
    </g>
   </g>
   <g id="text_20">
    <!-- Spectrum of  -->
    <defs>
     <path d="M 53.515625 70.515625 
L 53.515625 60.890625 
Q 47.90625 63.578125 42.921875 64.890625 
Q 37.9375 66.21875 33.296875 66.21875 
Q 25.25 66.21875 20.875 63.09375 
Q 16.5 59.96875 16.5 54.203125 
Q 16.5 49.359375 19.40625 46.890625 
Q 22.3125 44.4375 30.421875 42.921875 
L 36.375 41.703125 
Q 47.40625 39.59375 52.65625 34.296875 
Q 57.90625 29 57.90625 20.125 
Q 57.90625 9.515625 50.796875 4.046875 
Q 43.703125 -1.421875 29.984375 -1.421875 
Q 24.8125 -1.421875 18.96875 -0.25 
Q 13.140625 0.921875 6.890625 3.21875 
L 6.890625 13.375 
Q 12.890625 10.015625 18.65625 8.296875 
Q 24.421875 6.59375 29.984375 6.59375 
Q 38.421875 6.59375 43.015625 9.90625 
Q 47.609375 13.234375 47.609375 19.390625 
Q 47.609375 24.75 44.3125 27.78125 
Q 41.015625 30.8125 33.5 32.328125 
L 27.484375 33.5 
Q 16.453125 35.6875 11.515625 40.375 
Q 6.59375 45.0625 6.59375 53.421875 
Q 6.59375 63.09375 13.40625 68.65625 
Q 20.21875 74.21875 32.171875 74.21875 
Q 37.3125 74.21875 42.625 73.28125 
Q 47.953125 72.359375 53.515625 70.515625 
z
" id="DejaVuSans-83"/>
     <path d="M 18.109375 8.203125 
L 18.109375 -20.796875 
L 9.078125 -20.796875 
L 9.078125 54.6875 
L 18.109375 54.6875 
L 18.109375 46.390625 
Q 20.953125 51.265625 25.265625 53.625 
Q 29.59375 56 35.59375 56 
Q 45.5625 56 51.78125 48.09375 
Q 58.015625 40.1875 58.015625 27.296875 
Q 58.015625 14.40625 51.78125 6.484375 
Q 45.5625 -1.421875 35.59375 -1.421875 
Q 29.59375 -1.421875 25.265625 0.953125 
Q 20.953125 3.328125 18.109375 8.203125 
z
M 48.6875 27.296875 
Q 48.6875 37.203125 44.609375 42.84375 
Q 40.53125 48.484375 33.40625 48.484375 
Q 26.265625 48.484375 22.1875 42.84375 
Q 18.109375 37.203125 18.109375 27.296875 
Q 18.109375 17.390625 22.1875 11.75 
Q 26.265625 6.109375 33.40625 6.109375 
Q 40.53125 6.109375 44.609375 11.75 
Q 48.6875 17.390625 48.6875 27.296875 
z
" id="DejaVuSans-112"/>
     <path d="M 48.78125 52.59375 
L 48.78125 44.1875 
Q 44.96875 46.296875 41.140625 47.34375 
Q 37.3125 48.390625 33.40625 48.390625 
Q 24.65625 48.390625 19.8125 42.84375 
Q 14.984375 37.3125 14.984375 27.296875 
Q 14.984375 17.28125 19.8125 11.734375 
Q 24.65625 6.203125 33.40625 6.203125 
Q 37.3125 6.203125 41.140625 7.25 
Q 44.96875 8.296875 48.78125 10.40625 
L 48.78125 2.09375 
Q 45.015625 0.34375 40.984375 -0.53125 
Q 36.96875 -1.421875 32.421875 -1.421875 
Q 20.0625 -1.421875 12.78125 6.34375 
Q 5.515625 14.109375 5.515625 27.296875 
Q 5.515625 40.671875 12.859375 48.328125 
Q 20.21875 56 33.015625 56 
Q 37.15625 56 41.109375 55.140625 
Q 45.0625 54.296875 48.78125 52.59375 
z
" id="DejaVuSans-99"/>
     <path d="M 52 44.1875 
Q 55.375 50.25 60.0625 53.125 
Q 64.75 56 71.09375 56 
Q 79.640625 56 84.28125 50.015625 
Q 88.921875 44.046875 88.921875 33.015625 
L 88.921875 0 
L 79.890625 0 
L 79.890625 32.71875 
Q 79.890625 40.578125 77.09375 44.375 
Q 74.3125 48.1875 68.609375 48.1875 
Q 61.625 48.1875 57.5625 43.546875 
Q 53.515625 38.921875 53.515625 30.90625 
L 53.515625 0 
L 44.484375 0 
L 44.484375 32.71875 
Q 44.484375 40.625 41.703125 44.40625 
Q 38.921875 48.1875 33.109375 48.1875 
Q 26.21875 48.1875 22.15625 43.53125 
Q 18.109375 38.875 18.109375 30.90625 
L 18.109375 0 
L 9.078125 0 
L 9.078125 54.6875 
L 18.109375 54.6875 
L 18.109375 46.1875 
Q 21.1875 51.21875 25.484375 53.609375 
Q 29.78125 56 35.6875 56 
Q 41.65625 56 45.828125 52.96875 
Q 50 49.953125 52 44.1875 
z
" id="DejaVuSans-109"/>
     <path d="M 30.609375 48.390625 
Q 23.390625 48.390625 19.1875 42.75 
Q 14.984375 37.109375 14.984375 27.296875 
Q 14.984375 17.484375 19.15625 11.84375 
Q 23.34375 6.203125 30.609375 6.203125 
Q 37.796875 6.203125 41.984375 11.859375 
Q 46.1875 17.53125 46.1875 27.296875 
Q 46.1875 37.015625 41.984375 42.703125 
Q 37.796875 48.390625 30.609375 48.390625 
z
M 30.609375 56 
Q 42.328125 56 49.015625 48.375 
Q 55.71875 40.765625 55.71875 27.296875 
Q 55.71875 13.875 49.015625 6.21875 
Q 42.328125 -1.421875 30.609375 -1.421875 
Q 18.84375 -1.421875 12.171875 6.21875 
Q 5.515625 13.875 5.515625 27.296875 
Q 5.515625 40.765625 12.171875 48.375 
Q 18.84375 56 30.609375 56 
z
" id="DejaVuSans-111"/>
    </defs>
    <g transform="translate(182.728125 28.56)scale(0.12 -0.12)">
     <use xlink:href="#DejaVuSans-83"/>
     <use x="63.476562" xlink:href="#DejaVuSans-112"/>
     <use x="126.953125" xlink:href="#DejaVuSans-101"/>
     <use x="188.476562" xlink:href="#DejaVuSans-99"/>
     <use x="243.457031" xlink:href="#DejaVuSans-116"/>
     <use x="282.666016" xlink:href="#DejaVuSans-114"/>
     <use x="323.779297" xlink:href="#DejaVuSans-117"/>
     <use x="387.158203" xlink:href="#DejaVuSans-109"/>
     <use x="484.570312" xlink:href="#DejaVuSans-32"/>
     <use x="516.357422" xlink:href="#DejaVuSans-111"/>
     <use x="577.539062" xlink:href="#DejaVuSans-102"/>
     <use x="612.744141" xlink:href="#DejaVuSans-32"/>
    </g>
   </g>
  </g>
 </g>
 <defs>
  <clipPath id="pd08587a369">
   <rect height="217.44" width="334.8" x="54" y="34.56"/>
  </clipPath>
 </defs>
</svg>
