<?xml version="1.0" encoding="utf-8" standalone="no"?>
<!DOCTYPE svg PUBLIC "-//W3C//DTD SVG 1.1//EN"
  "http://www.w3.org/Graphics/SVG/1.1/DTD/svg11.dtd">
<!-- Created with matplotlib (https://matplotlib.org/) -->
<svg height="288pt" version="1.1" viewBox="0 0 432 288" width="432pt" xmlns="http://www.w3.org/2000/svg" xmlns:xlink="http://www.w3.org/1999/xlink">
 <defs>
  <style type="text/css">
*{stroke-linecap:butt;stroke-linejoin:round;}
  </style>
 </defs>
 <g id="figure_1">
  <g id="patch_1">
   <path d="M 0 288 
L 432 288 
L 432 0 
L 0 0 
z
" style="fill:#ffffff;"/>
  </g>
  <g id="axes_1">
   <g id="patch_2">
    <path d="M 54 252 
L 388.8 252 
L 388.8 34.56 
L 54 34.56 
z
" style="fill:#ffffff;"/>
   </g>
   <g id="matplotlib.axis_1">
    <g id="xtick_1">
     <g id="line2d_1">
      <defs>
       <path d="M 0 0 
L 0 3.5 
" id="m5a7e9649d7" style="stroke:#000000;stroke-width:0.8;"/>
      </defs>
      <g>
       <use style="stroke:#000000;stroke-width:0.8;" x="69.218182" xlink:href="#m5a7e9649d7" y="252"/>
      </g>
     </g>
     <g id="text_1">
      <!-- 3500 -->
      <defs>
       <path d="M 40.578125 39.3125 
Q 47.65625 37.796875 51.625 33 
Q 55.609375 28.21875 55.609375 21.1875 
Q 55.609375 10.40625 48.1875 4.484375 
Q 40.765625 -1.421875 27.09375 -1.421875 
Q 22.515625 -1.421875 17.65625 -0.515625 
Q 12.796875 0.390625 7.625 2.203125 
L 7.625 11.71875 
Q 11.71875 9.328125 16.59375 8.109375 
Q 21.484375 6.890625 26.8125 6.890625 
Q 36.078125 6.890625 40.9375 10.546875 
Q 45.796875 14.203125 45.796875 21.1875 
Q 45.796875 27.640625 41.28125 31.265625 
Q 36.765625 34.90625 28.71875 34.90625 
L 20.21875 34.90625 
L 20.21875 43.015625 
L 29.109375 43.015625 
Q 36.375 43.015625 40.234375 45.921875 
Q 44.09375 48.828125 44.09375 54.296875 
Q 44.09375 59.90625 40.109375 62.90625 
Q 36.140625 65.921875 28.71875 65.921875 
Q 24.65625 65.921875 20.015625 65.03125 
Q 15.375 64.15625 9.8125 62.3125 
L 9.8125 71.09375 
Q 15.4375 72.65625 20.34375 73.4375 
Q 25.25 74.21875 29.59375 74.21875 
Q 40.828125 74.21875 47.359375 69.109375 
Q 53.90625 64.015625 53.90625 55.328125 
Q 53.90625 49.265625 50.4375 45.09375 
Q 46.96875 40.921875 40.578125 39.3125 
z
" id="DejaVuSans-51"/>
       <path d="M 10.796875 72.90625 
L 49.515625 72.90625 
L 49.515625 64.59375 
L 19.828125 64.59375 
L 19.828125 46.734375 
Q 21.96875 47.46875 24.109375 47.828125 
Q 26.265625 48.1875 28.421875 48.1875 
Q 40.625 48.1875 47.75 41.5 
Q 54.890625 34.8125 54.890625 23.390625 
Q 54.890625 11.625 47.5625 5.09375 
Q 40.234375 -1.421875 26.90625 -1.421875 
Q 22.3125 -1.421875 17.546875 -0.640625 
Q 12.796875 0.140625 7.71875 1.703125 
L 7.71875 11.625 
Q 12.109375 9.234375 16.796875 8.0625 
Q 21.484375 6.890625 26.703125 6.890625 
Q 35.15625 6.890625 40.078125 11.328125 
Q 45.015625 15.765625 45.015625 23.390625 
Q 45.015625 31 40.078125 35.4375 
Q 35.15625 39.890625 26.703125 39.890625 
Q 22.75 39.890625 18.8125 39.015625 
Q 14.890625 38.140625 10.796875 36.28125 
z
" id="DejaVuSans-53"/>
       <path d="M 31.78125 66.40625 
Q 24.171875 66.40625 20.328125 58.90625 
Q 16.5 51.421875 16.5 36.375 
Q 16.5 21.390625 20.328125 13.890625 
Q 24.171875 6.390625 31.78125 6.390625 
Q 39.453125 6.390625 43.28125 13.890625 
Q 47.125 21.390625 47.125 36.375 
Q 47.125 51.421875 43.28125 58.90625 
Q 39.453125 66.40625 31.78125 66.40625 
z
M 31.78125 74.21875 
Q 44.046875 74.21875 50.515625 64.515625 
Q 56.984375 54.828125 56.984375 36.375 
Q 56.984375 17.96875 50.515625 8.265625 
Q 44.046875 -1.421875 31.78125 -1.421875 
Q 19.53125 -1.421875 13.0625 8.265625 
Q 6.59375 17.96875 6.59375 36.375 
Q 6.59375 54.828125 13.0625 64.515625 
Q 19.53125 74.21875 31.78125 74.21875 
z
" id="DejaVuSans-48"/>
      </defs>
      <g transform="translate(56.493182 266.598437)scale(0.1 -0.1)">
       <use xlink:href="#DejaVuSans-51"/>
       <use x="63.623047" xlink:href="#DejaVuSans-53"/>
       <use x="127.246094" xlink:href="#DejaVuSans-48"/>
       <use x="190.869141" xlink:href="#DejaVuSans-48"/>
      </g>
     </g>
    </g>
    <g id="xtick_2">
     <g id="line2d_2">
      <g>
       <use style="stroke:#000000;stroke-width:0.8;" x="107.947204" xlink:href="#m5a7e9649d7" y="252"/>
      </g>
     </g>
     <g id="text_2">
      <!-- 4000 -->
      <defs>
       <path d="M 37.796875 64.3125 
L 12.890625 25.390625 
L 37.796875 25.390625 
z
M 35.203125 72.90625 
L 47.609375 72.90625 
L 47.609375 25.390625 
L 58.015625 25.390625 
L 58.015625 17.1875 
L 47.609375 17.1875 
L 47.609375 0 
L 37.796875 0 
L 37.796875 17.1875 
L 4.890625 17.1875 
L 4.890625 26.703125 
z
" id="DejaVuSans-52"/>
      </defs>
      <g transform="translate(95.222204 266.598437)scale(0.1 -0.1)">
       <use xlink:href="#DejaVuSans-52"/>
       <use x="63.623047" xlink:href="#DejaVuSans-48"/>
       <use x="127.246094" xlink:href="#DejaVuSans-48"/>
       <use x="190.869141" xlink:href="#DejaVuSans-48"/>
      </g>
     </g>
    </g>
    <g id="xtick_3">
     <g id="line2d_3">
      <g>
       <use style="stroke:#000000;stroke-width:0.8;" x="146.676225" xlink:href="#m5a7e9649d7" y="252"/>
      </g>
     </g>
     <g id="text_3">
      <!-- 4500 -->
      <g transform="translate(133.951225 266.598437)scale(0.1 -0.1)">
       <use xlink:href="#DejaVuSans-52"/>
       <use x="63.623047" xlink:href="#DejaVuSans-53"/>
       <use x="127.246094" xlink:href="#DejaVuSans-48"/>
       <use x="190.869141" xlink:href="#DejaVuSans-48"/>
      </g>
     </g>
    </g>
    <g id="xtick_4">
     <g id="line2d_4">
      <g>
       <use style="stroke:#000000;stroke-width:0.8;" x="185.405247" xlink:href="#m5a7e9649d7" y="252"/>
      </g>
     </g>
     <g id="text_4">
      <!-- 5000 -->
      <g transform="translate(172.680247 266.598437)scale(0.1 -0.1)">
       <use xlink:href="#DejaVuSans-53"/>
       <use x="63.623047" xlink:href="#DejaVuSans-48"/>
       <use x="127.246094" xlink:href="#DejaVuSans-48"/>
       <use x="190.869141" xlink:href="#DejaVuSans-48"/>
      </g>
     </g>
    </g>
    <g id="xtick_5">
     <g id="line2d_5">
      <g>
       <use style="stroke:#000000;stroke-width:0.8;" x="224.134269" xlink:href="#m5a7e9649d7" y="252"/>
      </g>
     </g>
     <g id="text_5">
      <!-- 5500 -->
      <g transform="translate(211.409269 266.598437)scale(0.1 -0.1)">
       <use xlink:href="#DejaVuSans-53"/>
       <use x="63.623047" xlink:href="#DejaVuSans-53"/>
       <use x="127.246094" xlink:href="#DejaVuSans-48"/>
       <use x="190.869141" xlink:href="#DejaVuSans-48"/>
      </g>
     </g>
    </g>
    <g id="xtick_6">
     <g id="line2d_6">
      <g>
       <use style="stroke:#000000;stroke-width:0.8;" x="262.863291" xlink:href="#m5a7e9649d7" y="252"/>
      </g>
     </g>
     <g id="text_6">
      <!-- 6000 -->
      <defs>
       <path d="M 33.015625 40.375 
Q 26.375 40.375 22.484375 35.828125 
Q 18.609375 31.296875 18.609375 23.390625 
Q 18.609375 15.53125 22.484375 10.953125 
Q 26.375 6.390625 33.015625 6.390625 
Q 39.65625 6.390625 43.53125 10.953125 
Q 47.40625 15.53125 47.40625 23.390625 
Q 47.40625 31.296875 43.53125 35.828125 
Q 39.65625 40.375 33.015625 40.375 
z
M 52.59375 71.296875 
L 52.59375 62.3125 
Q 48.875 64.0625 45.09375 64.984375 
Q 41.3125 65.921875 37.59375 65.921875 
Q 27.828125 65.921875 22.671875 59.328125 
Q 17.53125 52.734375 16.796875 39.40625 
Q 19.671875 43.65625 24.015625 45.921875 
Q 28.375 48.1875 33.59375 48.1875 
Q 44.578125 48.1875 50.953125 41.515625 
Q 57.328125 34.859375 57.328125 23.390625 
Q 57.328125 12.15625 50.6875 5.359375 
Q 44.046875 -1.421875 33.015625 -1.421875 
Q 20.359375 -1.421875 13.671875 8.265625 
Q 6.984375 17.96875 6.984375 36.375 
Q 6.984375 53.65625 15.1875 63.9375 
Q 23.390625 74.21875 37.203125 74.21875 
Q 40.921875 74.21875 44.703125 73.484375 
Q 48.484375 72.75 52.59375 71.296875 
z
" id="DejaVuSans-54"/>
      </defs>
      <g transform="translate(250.138291 266.598437)scale(0.1 -0.1)">
       <use xlink:href="#DejaVuSans-54"/>
       <use x="63.623047" xlink:href="#DejaVuSans-48"/>
       <use x="127.246094" xlink:href="#DejaVuSans-48"/>
       <use x="190.869141" xlink:href="#DejaVuSans-48"/>
      </g>
     </g>
    </g>
    <g id="xtick_7">
     <g id="line2d_7">
      <g>
       <use style="stroke:#000000;stroke-width:0.8;" x="301.592312" xlink:href="#m5a7e9649d7" y="252"/>
      </g>
     </g>
     <g id="text_7">
      <!-- 6500 -->
      <g transform="translate(288.867312 266.598437)scale(0.1 -0.1)">
       <use xlink:href="#DejaVuSans-54"/>
       <use x="63.623047" xlink:href="#DejaVuSans-53"/>
       <use x="127.246094" xlink:href="#DejaVuSans-48"/>
       <use x="190.869141" xlink:href="#DejaVuSans-48"/>
      </g>
     </g>
    </g>
    <g id="xtick_8">
     <g id="line2d_8">
      <g>
       <use style="stroke:#000000;stroke-width:0.8;" x="340.321334" xlink:href="#m5a7e9649d7" y="252"/>
      </g>
     </g>
     <g id="text_8">
      <!-- 7000 -->
      <defs>
       <path d="M 8.203125 72.90625 
L 55.078125 72.90625 
L 55.078125 68.703125 
L 28.609375 0 
L 18.3125 0 
L 43.21875 64.59375 
L 8.203125 64.59375 
z
" id="DejaVuSans-55"/>
      </defs>
      <g transform="translate(327.596334 266.598437)scale(0.1 -0.1)">
       <use xlink:href="#DejaVuSans-55"/>
       <use x="63.623047" xlink:href="#DejaVuSans-48"/>
       <use x="127.246094" xlink:href="#DejaVuSans-48"/>
       <use x="190.869141" xlink:href="#DejaVuSans-48"/>
      </g>
     </g>
    </g>
    <g id="xtick_9">
     <g id="line2d_9">
      <g>
       <use style="stroke:#000000;stroke-width:0.8;" x="379.050356" xlink:href="#m5a7e9649d7" y="252"/>
      </g>
     </g>
     <g id="text_9">
      <!-- 7500 -->
      <g transform="translate(366.325356 266.598437)scale(0.1 -0.1)">
       <use xlink:href="#DejaVuSans-55"/>
       <use x="63.623047" xlink:href="#DejaVuSans-53"/>
       <use x="127.246094" xlink:href="#DejaVuSans-48"/>
       <use x="190.869141" xlink:href="#DejaVuSans-48"/>
      </g>
     </g>
    </g>
    <g id="text_10">
     <!-- $\lambda$ ($\AA$) -->
     <defs>
      <path d="M 36.71875 67.4375 
L 48.828125 0 
L 39.3125 0 
L 31.84375 40.4375 
L 5.125 0 
L -4.390625 0 
L 29.734375 52.4375 
L 28.03125 62.109375 
Q 26.953125 68.265625 21.734375 68.265625 
L 17.046875 68.265625 
L 18.5 75.984375 
L 24.21875 75.875 
Q 35.203125 75.734375 36.71875 67.4375 
z
" id="DejaVuSans-Oblique-955"/>
      <path id="DejaVuSans-32"/>
      <path d="M 31 75.875 
Q 24.46875 64.65625 21.28125 53.65625 
Q 18.109375 42.671875 18.109375 31.390625 
Q 18.109375 20.125 21.3125 9.0625 
Q 24.515625 -2 31 -13.1875 
L 23.1875 -13.1875 
Q 15.875 -1.703125 12.234375 9.375 
Q 8.59375 20.453125 8.59375 31.390625 
Q 8.59375 42.28125 12.203125 53.3125 
Q 15.828125 64.359375 23.1875 75.875 
z
" id="DejaVuSans-40"/>
      <path d="M 49.8125 79.390625 
Q 49.8125 82.46875 47.625 84.640625 
Q 45.453125 86.8125 42.390625 86.8125 
Q 39.265625 86.8125 37.140625 84.6875 
Q 35.015625 82.5625 35.015625 79.390625 
Q 35.015625 76.3125 37.140625 74.15625 
Q 39.265625 72.015625 42.390625 72.015625 
Q 45.453125 72.015625 47.625 74.15625 
Q 49.8125 76.3125 49.8125 79.390625 
z
M 34.421875 68.703125 
Q 31.78125 70.515625 30.390625 73.265625 
Q 29 76.03125 29 79.390625 
Q 29 84.96875 32.90625 88.890625 
Q 36.8125 92.828125 42.390625 92.828125 
Q 47.953125 92.828125 51.875 88.890625 
Q 55.8125 84.96875 55.8125 79.390625 
Q 55.8125 75.53125 54.03125 72.546875 
Q 52.25 69.578125 48.875 67.828125 
L 61.53125 0 
L 51.21875 0 
L 48.1875 18.703125 
L 15.375 18.703125 
L 5.078125 0 
L -5.328125 0 
z
M 40.375 63.1875 
L 19.921875 26.90625 
L 46.6875 26.90625 
z
" id="DejaVuSans-Oblique-197"/>
      <path d="M 8.015625 75.875 
L 15.828125 75.875 
Q 23.140625 64.359375 26.78125 53.3125 
Q 30.421875 42.28125 30.421875 31.390625 
Q 30.421875 20.453125 26.78125 9.375 
Q 23.140625 -1.703125 15.828125 -13.1875 
L 8.015625 -13.1875 
Q 14.5 -2 17.703125 9.0625 
Q 20.90625 20.125 20.90625 31.390625 
Q 20.90625 42.671875 17.703125 53.65625 
Q 14.5 64.65625 8.015625 75.875 
z
" id="DejaVuSans-41"/>
     </defs>
     <g transform="translate(209.5 281.298437)scale(0.1 -0.1)">
      <use transform="translate(0 0.171875)" xlink:href="#DejaVuSans-Oblique-955"/>
      <use transform="translate(59.179688 0.171875)" xlink:href="#DejaVuSans-32"/>
      <use transform="translate(90.966797 0.171875)" xlink:href="#DejaVuSans-40"/>
      <use transform="translate(129.980469 0.171875)" xlink:href="#DejaVuSans-Oblique-197"/>
      <use transform="translate(198.388672 0.171875)" xlink:href="#DejaVuSans-41"/>
     </g>
    </g>
   </g>
   <g id="matplotlib.axis_2">
    <g id="ytick_1">
     <g id="line2d_10">
      <defs>
       <path d="M 0 0 
L -3.5 0 
" id="ma6ee06a9c6" style="stroke:#000000;stroke-width:0.8;"/>
      </defs>
      <g>
       <use style="stroke:#000000;stroke-width:0.8;" x="54" xlink:href="#ma6ee06a9c6" y="242.116364"/>
      </g>
     </g>
     <g id="text_11">
      <!-- 0.00 -->
      <defs>
       <path d="M 10.6875 12.40625 
L 21 12.40625 
L 21 0 
L 10.6875 0 
z
" id="DejaVuSans-46"/>
      </defs>
      <g transform="translate(24.734375 245.915582)scale(0.1 -0.1)">
       <use xlink:href="#DejaVuSans-48"/>
       <use x="63.623047" xlink:href="#DejaVuSans-46"/>
       <use x="95.410156" xlink:href="#DejaVuSans-48"/>
       <use x="159.033203" xlink:href="#DejaVuSans-48"/>
      </g>
     </g>
    </g>
    <g id="ytick_2">
     <g id="line2d_11">
      <g>
       <use style="stroke:#000000;stroke-width:0.8;" x="54" xlink:href="#ma6ee06a9c6" y="212.392453"/>
      </g>
     </g>
     <g id="text_12">
      <!-- 0.02 -->
      <defs>
       <path d="M 19.1875 8.296875 
L 53.609375 8.296875 
L 53.609375 0 
L 7.328125 0 
L 7.328125 8.296875 
Q 12.9375 14.109375 22.625 23.890625 
Q 32.328125 33.6875 34.8125 36.53125 
Q 39.546875 41.84375 41.421875 45.53125 
Q 43.3125 49.21875 43.3125 52.78125 
Q 43.3125 58.59375 39.234375 62.25 
Q 35.15625 65.921875 28.609375 65.921875 
Q 23.96875 65.921875 18.8125 64.3125 
Q 13.671875 62.703125 7.8125 59.421875 
L 7.8125 69.390625 
Q 13.765625 71.78125 18.9375 73 
Q 24.125 74.21875 28.421875 74.21875 
Q 39.75 74.21875 46.484375 68.546875 
Q 53.21875 62.890625 53.21875 53.421875 
Q 53.21875 48.921875 51.53125 44.890625 
Q 49.859375 40.875 45.40625 35.40625 
Q 44.1875 33.984375 37.640625 27.21875 
Q 31.109375 20.453125 19.1875 8.296875 
z
" id="DejaVuSans-50"/>
      </defs>
      <g transform="translate(24.734375 216.191672)scale(0.1 -0.1)">
       <use xlink:href="#DejaVuSans-48"/>
       <use x="63.623047" xlink:href="#DejaVuSans-46"/>
       <use x="95.410156" xlink:href="#DejaVuSans-48"/>
       <use x="159.033203" xlink:href="#DejaVuSans-50"/>
      </g>
     </g>
    </g>
    <g id="ytick_3">
     <g id="line2d_12">
      <g>
       <use style="stroke:#000000;stroke-width:0.8;" x="54" xlink:href="#ma6ee06a9c6" y="182.668543"/>
      </g>
     </g>
     <g id="text_13">
      <!-- 0.04 -->
      <g transform="translate(24.734375 186.467762)scale(0.1 -0.1)">
       <use xlink:href="#DejaVuSans-48"/>
       <use x="63.623047" xlink:href="#DejaVuSans-46"/>
       <use x="95.410156" xlink:href="#DejaVuSans-48"/>
       <use x="159.033203" xlink:href="#DejaVuSans-52"/>
      </g>
     </g>
    </g>
    <g id="ytick_4">
     <g id="line2d_13">
      <g>
       <use style="stroke:#000000;stroke-width:0.8;" x="54" xlink:href="#ma6ee06a9c6" y="152.944632"/>
      </g>
     </g>
     <g id="text_14">
      <!-- 0.06 -->
      <g transform="translate(24.734375 156.743851)scale(0.1 -0.1)">
       <use xlink:href="#DejaVuSans-48"/>
       <use x="63.623047" xlink:href="#DejaVuSans-46"/>
       <use x="95.410156" xlink:href="#DejaVuSans-48"/>
       <use x="159.033203" xlink:href="#DejaVuSans-54"/>
      </g>
     </g>
    </g>
    <g id="ytick_5">
     <g id="line2d_14">
      <g>
       <use style="stroke:#000000;stroke-width:0.8;" x="54" xlink:href="#ma6ee06a9c6" y="123.220722"/>
      </g>
     </g>
     <g id="text_15">
      <!-- 0.08 -->
      <defs>
       <path d="M 31.78125 34.625 
Q 24.75 34.625 20.71875 30.859375 
Q 16.703125 27.09375 16.703125 20.515625 
Q 16.703125 13.921875 20.71875 10.15625 
Q 24.75 6.390625 31.78125 6.390625 
Q 38.8125 6.390625 42.859375 10.171875 
Q 46.921875 13.96875 46.921875 20.515625 
Q 46.921875 27.09375 42.890625 30.859375 
Q 38.875 34.625 31.78125 34.625 
z
M 21.921875 38.8125 
Q 15.578125 40.375 12.03125 44.71875 
Q 8.5 49.078125 8.5 55.328125 
Q 8.5 64.0625 14.71875 69.140625 
Q 20.953125 74.21875 31.78125 74.21875 
Q 42.671875 74.21875 48.875 69.140625 
Q 55.078125 64.0625 55.078125 55.328125 
Q 55.078125 49.078125 51.53125 44.71875 
Q 48 40.375 41.703125 38.8125 
Q 48.828125 37.15625 52.796875 32.3125 
Q 56.78125 27.484375 56.78125 20.515625 
Q 56.78125 9.90625 50.3125 4.234375 
Q 43.84375 -1.421875 31.78125 -1.421875 
Q 19.734375 -1.421875 13.25 4.234375 
Q 6.78125 9.90625 6.78125 20.515625 
Q 6.78125 27.484375 10.78125 32.3125 
Q 14.796875 37.15625 21.921875 38.8125 
z
M 18.3125 54.390625 
Q 18.3125 48.734375 21.84375 45.5625 
Q 25.390625 42.390625 31.78125 42.390625 
Q 38.140625 42.390625 41.71875 45.5625 
Q 45.3125 48.734375 45.3125 54.390625 
Q 45.3125 60.0625 41.71875 63.234375 
Q 38.140625 66.40625 31.78125 66.40625 
Q 25.390625 66.40625 21.84375 63.234375 
Q 18.3125 60.0625 18.3125 54.390625 
z
" id="DejaVuSans-56"/>
      </defs>
      <g transform="translate(24.734375 127.019941)scale(0.1 -0.1)">
       <use xlink:href="#DejaVuSans-48"/>
       <use x="63.623047" xlink:href="#DejaVuSans-46"/>
       <use x="95.410156" xlink:href="#DejaVuSans-48"/>
       <use x="159.033203" xlink:href="#DejaVuSans-56"/>
      </g>
     </g>
    </g>
    <g id="ytick_6">
     <g id="line2d_15">
      <g>
       <use style="stroke:#000000;stroke-width:0.8;" x="54" xlink:href="#ma6ee06a9c6" y="93.496812"/>
      </g>
     </g>
     <g id="text_16">
      <!-- 0.10 -->
      <defs>
       <path d="M 12.40625 8.296875 
L 28.515625 8.296875 
L 28.515625 63.921875 
L 10.984375 60.40625 
L 10.984375 69.390625 
L 28.421875 72.90625 
L 38.28125 72.90625 
L 38.28125 8.296875 
L 54.390625 8.296875 
L 54.390625 0 
L 12.40625 0 
z
" id="DejaVuSans-49"/>
      </defs>
      <g transform="translate(24.734375 97.29603)scale(0.1 -0.1)">
       <use xlink:href="#DejaVuSans-48"/>
       <use x="63.623047" xlink:href="#DejaVuSans-46"/>
       <use x="95.410156" xlink:href="#DejaVuSans-49"/>
       <use x="159.033203" xlink:href="#DejaVuSans-48"/>
      </g>
     </g>
    </g>
    <g id="ytick_7">
     <g id="line2d_16">
      <g>
       <use style="stroke:#000000;stroke-width:0.8;" x="54" xlink:href="#ma6ee06a9c6" y="63.772901"/>
      </g>
     </g>
     <g id="text_17">
      <!-- 0.12 -->
      <g transform="translate(24.734375 67.57212)scale(0.1 -0.1)">
       <use xlink:href="#DejaVuSans-48"/>
       <use x="63.623047" xlink:href="#DejaVuSans-46"/>
       <use x="95.410156" xlink:href="#DejaVuSans-49"/>
       <use x="159.033203" xlink:href="#DejaVuSans-50"/>
      </g>
     </g>
    </g>
    <g id="text_18">
     <!-- relative flux -->
     <defs>
      <path d="M 41.109375 46.296875 
Q 39.59375 47.171875 37.8125 47.578125 
Q 36.03125 48 33.890625 48 
Q 26.265625 48 22.1875 43.046875 
Q 18.109375 38.09375 18.109375 28.8125 
L 18.109375 0 
L 9.078125 0 
L 9.078125 54.6875 
L 18.109375 54.6875 
L 18.109375 46.1875 
Q 20.953125 51.171875 25.484375 53.578125 
Q 30.03125 56 36.53125 56 
Q 37.453125 56 38.578125 55.875 
Q 39.703125 55.765625 41.0625 55.515625 
z
" id="DejaVuSans-114"/>
      <path d="M 56.203125 29.59375 
L 56.203125 25.203125 
L 14.890625 25.203125 
Q 15.484375 15.921875 20.484375 11.0625 
Q 25.484375 6.203125 34.421875 6.203125 
Q 39.59375 6.203125 44.453125 7.46875 
Q 49.3125 8.734375 54.109375 11.28125 
L 54.109375 2.78125 
Q 49.265625 0.734375 44.1875 -0.34375 
Q 39.109375 -1.421875 33.890625 -1.421875 
Q 20.796875 -1.421875 13.15625 6.1875 
Q 5.515625 13.8125 5.515625 26.8125 
Q 5.515625 40.234375 12.765625 48.109375 
Q 20.015625 56 32.328125 56 
Q 43.359375 56 49.78125 48.890625 
Q 56.203125 41.796875 56.203125 29.59375 
z
M 47.21875 32.234375 
Q 47.125 39.59375 43.09375 43.984375 
Q 39.0625 48.390625 32.421875 48.390625 
Q 24.90625 48.390625 20.390625 44.140625 
Q 15.875 39.890625 15.1875 32.171875 
z
" id="DejaVuSans-101"/>
      <path d="M 9.421875 75.984375 
L 18.40625 75.984375 
L 18.40625 0 
L 9.421875 0 
z
" id="DejaVuSans-108"/>
      <path d="M 34.28125 27.484375 
Q 23.390625 27.484375 19.1875 25 
Q 14.984375 22.515625 14.984375 16.5 
Q 14.984375 11.71875 18.140625 8.90625 
Q 21.296875 6.109375 26.703125 6.109375 
Q 34.1875 6.109375 38.703125 11.40625 
Q 43.21875 16.703125 43.21875 25.484375 
L 43.21875 27.484375 
z
M 52.203125 31.203125 
L 52.203125 0 
L 43.21875 0 
L 43.21875 8.296875 
Q 40.140625 3.328125 35.546875 0.953125 
Q 30.953125 -1.421875 24.3125 -1.421875 
Q 15.921875 -1.421875 10.953125 3.296875 
Q 6 8.015625 6 15.921875 
Q 6 25.140625 12.171875 29.828125 
Q 18.359375 34.515625 30.609375 34.515625 
L 43.21875 34.515625 
L 43.21875 35.40625 
Q 43.21875 41.609375 39.140625 45 
Q 35.0625 48.390625 27.6875 48.390625 
Q 23 48.390625 18.546875 47.265625 
Q 14.109375 46.140625 10.015625 43.890625 
L 10.015625 52.203125 
Q 14.9375 54.109375 19.578125 55.046875 
Q 24.21875 56 28.609375 56 
Q 40.484375 56 46.34375 49.84375 
Q 52.203125 43.703125 52.203125 31.203125 
z
" id="DejaVuSans-97"/>
      <path d="M 18.3125 70.21875 
L 18.3125 54.6875 
L 36.8125 54.6875 
L 36.8125 47.703125 
L 18.3125 47.703125 
L 18.3125 18.015625 
Q 18.3125 11.328125 20.140625 9.421875 
Q 21.96875 7.515625 27.59375 7.515625 
L 36.8125 7.515625 
L 36.8125 0 
L 27.59375 0 
Q 17.1875 0 13.234375 3.875 
Q 9.28125 7.765625 9.28125 18.015625 
L 9.28125 47.703125 
L 2.6875 47.703125 
L 2.6875 54.6875 
L 9.28125 54.6875 
L 9.28125 70.21875 
z
" id="DejaVuSans-116"/>
      <path d="M 9.421875 54.6875 
L 18.40625 54.6875 
L 18.40625 0 
L 9.421875 0 
z
M 9.421875 75.984375 
L 18.40625 75.984375 
L 18.40625 64.59375 
L 9.421875 64.59375 
z
" id="DejaVuSans-105"/>
      <path d="M 2.984375 54.6875 
L 12.5 54.6875 
L 29.59375 8.796875 
L 46.6875 54.6875 
L 56.203125 54.6875 
L 35.6875 0 
L 23.484375 0 
z
" id="DejaVuSans-118"/>
      <path d="M 37.109375 75.984375 
L 37.109375 68.5 
L 28.515625 68.5 
Q 23.6875 68.5 21.796875 66.546875 
Q 19.921875 64.59375 19.921875 59.515625 
L 19.921875 54.6875 
L 34.71875 54.6875 
L 34.71875 47.703125 
L 19.921875 47.703125 
L 19.921875 0 
L 10.890625 0 
L 10.890625 47.703125 
L 2.296875 47.703125 
L 2.296875 54.6875 
L 10.890625 54.6875 
L 10.890625 58.5 
Q 10.890625 67.625 15.140625 71.796875 
Q 19.390625 75.984375 28.609375 75.984375 
z
" id="DejaVuSans-102"/>
      <path d="M 8.5 21.578125 
L 8.5 54.6875 
L 17.484375 54.6875 
L 17.484375 21.921875 
Q 17.484375 14.15625 20.5 10.265625 
Q 23.53125 6.390625 29.59375 6.390625 
Q 36.859375 6.390625 41.078125 11.03125 
Q 45.3125 15.671875 45.3125 23.6875 
L 45.3125 54.6875 
L 54.296875 54.6875 
L 54.296875 0 
L 45.3125 0 
L 45.3125 8.40625 
Q 42.046875 3.421875 37.71875 1 
Q 33.40625 -1.421875 27.6875 -1.421875 
Q 18.265625 -1.421875 13.375 4.4375 
Q 8.5 10.296875 8.5 21.578125 
z
M 31.109375 56 
z
" id="DejaVuSans-117"/>
      <path d="M 54.890625 54.6875 
L 35.109375 28.078125 
L 55.90625 0 
L 45.3125 0 
L 29.390625 21.484375 
L 13.484375 0 
L 2.875 0 
L 24.125 28.609375 
L 4.6875 54.6875 
L 15.28125 54.6875 
L 29.78125 35.203125 
L 44.28125 54.6875 
z
" id="DejaVuSans-120"/>
     </defs>
     <g transform="translate(18.654687 173.115156)rotate(-90)scale(0.1 -0.1)">
      <use xlink:href="#DejaVuSans-114"/>
      <use x="41.082031" xlink:href="#DejaVuSans-101"/>
      <use x="102.605469" xlink:href="#DejaVuSans-108"/>
      <use x="130.388672" xlink:href="#DejaVuSans-97"/>
      <use x="191.667969" xlink:href="#DejaVuSans-116"/>
      <use x="230.876953" xlink:href="#DejaVuSans-105"/>
      <use x="258.660156" xlink:href="#DejaVuSans-118"/>
      <use x="317.839844" xlink:href="#DejaVuSans-101"/>
      <use x="379.363281" xlink:href="#DejaVuSans-32"/>
      <use x="411.150391" xlink:href="#DejaVuSans-102"/>
      <use x="446.355469" xlink:href="#DejaVuSans-108"/>
      <use x="474.138672" xlink:href="#DejaVuSans-117"/>
      <use x="537.517578" xlink:href="#DejaVuSans-120"/>
     </g>
    </g>
   </g>
   <g id="line2d_17">
    <path clip-path="url(#pc0c7a461d7)" d="M 69.218182 242.116364 
L 114.809986 242.116364 
L 114.949411 110.214533 
L 115.019123 109.763844 
L 115.367684 116.054812 
L 115.437396 115.651738 
L 115.507109 115.885582 
L 115.85567 122.558229 
L 115.995094 121.735096 
L 116.273943 125.75555 
L 116.622504 131.27541 
L 116.761929 134.870702 
L 117.040778 131.639273 
L 117.249915 123.810453 
L 117.598476 104.711168 
L 117.947037 95.932251 
L 118.225886 91.037165 
L 118.295598 91.263307 
L 118.36531 91.286048 
L 118.923008 86.882571 
L 118.992721 86.909048 
L 119.062433 86.495103 
L 119.27157 84.967942 
L 119.689843 80.844904 
L 119.759555 81.070763 
L 119.89898 80.021189 
L 120.038404 79.882563 
L 120.108116 80.047365 
L 120.177829 79.836731 
L 120.386965 77.23792 
L 120.596102 75.419664 
L 120.665814 73.708815 
L 120.735527 74.151165 
L 120.874951 73.122227 
L 121.014376 74.53402 
L 121.084088 74.343046 
L 121.1538 73.583063 
L 121.223512 74.869881 
L 121.293225 74.39069 
L 121.502361 71.370173 
L 121.641786 74.661248 
L 121.711498 74.01427 
L 121.920635 70.612705 
L 121.990347 70.984305 
L 122.060059 70.414673 
L 122.269196 72.448527 
L 122.338908 72.291302 
L 122.617757 68.7383 
L 122.687469 68.90016 
L 122.826894 71.460109 
L 122.896606 71.05117 
L 123.105743 66.370331 
L 123.245167 65.803989 
L 123.314879 66.605405 
L 123.454304 65.554187 
L 123.663441 66.906077 
L 123.802865 65.077858 
L 124.012002 68.506689 
L 124.081714 67.592784 
L 124.290851 64.306032 
L 124.360563 63.085841 
L 124.430275 63.455636 
L 124.499988 64.190828 
L 124.639412 61.490591 
L 124.778836 63.459625 
L 124.848549 63.108042 
L 125.127398 58.713513 
L 125.19711 58.977726 
L 125.266822 58.902295 
L 125.685096 57.384658 
L 125.82452 58.532816 
L 126.103369 56.728052 
L 126.312506 55.892688 
L 126.382218 54.233244 
L 126.521642 55.398585 
L 126.661067 54.735094 
L 126.730779 54.802945 
L 126.800491 55.169013 
L 126.870204 54.53379 
L 126.939916 56.196416 
L 127.009628 55.985864 
L 127.358189 51.800544 
L 127.706751 55.775258 
L 127.776463 55.466256 
L 127.985599 52.927537 
L 128.055312 53.392835 
L 128.125024 52.792009 
L 128.194736 55.211232 
L 128.334161 52.341163 
L 128.403873 53.09929 
L 128.473585 53.019079 
L 128.543297 52.833915 
L 128.61301 50.981971 
L 128.682722 51.813934 
L 128.822146 53.418682 
L 129.031283 52.471603 
L 129.24042 54.810644 
L 129.310132 54.231643 
L 129.588981 50.1625 
L 129.86783 52.878338 
L 130.286103 49.864439 
L 130.355816 50.816854 
L 130.425528 49.665859 
L 130.49524 49.678226 
L 130.704377 50.983379 
L 131.192362 48.142187 
L 131.262075 50.037542 
L 131.331787 49.903866 
L 131.540924 46.272148 
L 131.610636 46.316304 
L 131.680348 46.757137 
L 131.819773 48.259401 
L 131.959197 48.088229 
L 132.028909 48.342647 
L 132.098622 48.109009 
L 132.307758 45.678335 
L 132.586607 48.79867 
L 132.726032 47.674765 
L 132.935168 50.522395 
L 133.004881 49.970635 
L 133.144305 50.415918 
L 133.28373 53.123572 
L 133.492866 58.732543 
L 133.702003 61.51109 
L 133.841428 66.710655 
L 134.189989 79.196349 
L 134.677974 95.391508 
L 134.747687 95.261085 
L 134.956823 97.22671 
L 135.026536 97.406948 
L 135.096248 97.272217 
L 135.16596 97.699422 
L 135.235672 97.266047 
L 135.444809 90.814075 
L 136.211644 50.441846 
L 136.629917 46.019525 
L 136.699629 45.91904 
L 136.839054 48.099471 
L 137.048191 44.687343 
L 137.117903 44.443636 
L 137.187615 44.504737 
L 137.396752 45.02727 
L 137.536176 47.105826 
L 137.675601 46.89172 
L 137.745313 47.570717 
L 137.815025 46.04383 
L 138.093874 48.900303 
L 138.303011 47.591144 
L 138.512148 49.256038 
L 138.651572 49.276715 
L 138.860709 51.034403 
L 139.000133 51.215933 
L 139.139558 50.759253 
L 139.348694 48.618862 
L 139.557831 46.282602 
L 139.766968 48.069467 
L 139.976105 47.985537 
L 140.045817 46.536163 
L 140.115529 46.669429 
L 140.324666 46.995019 
L 140.533803 48.985542 
L 141.021788 45.742658 
L 141.300637 48.169431 
L 141.370349 47.966219 
L 141.509774 46.899717 
L 141.579486 46.919023 
L 141.718911 45.895436 
L 141.788623 46.549051 
L 141.99776 49.089047 
L 142.067472 49.418708 
L 142.137184 48.935925 
L 142.276609 46.676334 
L 142.346321 46.839172 
L 142.416033 46.437022 
L 142.694882 48.028604 
L 142.764594 48.007417 
L 142.834306 47.710377 
L 142.973731 48.330565 
L 143.113155 46.554621 
L 143.322292 48.716444 
L 143.461717 49.292232 
L 143.531429 48.822015 
L 143.601141 49.282337 
L 143.670853 50.661587 
L 143.740566 50.58617 
L 143.87999 51.181975 
L 143.949702 50.807541 
L 144.019414 50.968386 
L 144.298263 52.672663 
L 144.577112 58.099728 
L 144.646825 57.625639 
L 145.13481 59.587535 
L 145.204523 59.504546 
L 145.274235 59.935951 
L 145.343947 61.518185 
L 145.413659 61.131291 
L 145.483372 61.068151 
L 145.553084 61.964236 
L 145.622796 61.316253 
L 145.831933 58.41862 
L 145.971357 59.11721 
L 146.110782 59.049661 
L 146.250206 57.799806 
L 146.319918 58.23512 
L 146.389631 58.11998 
L 146.598767 55.014884 
L 146.877616 57.784546 
L 147.086753 57.809189 
L 147.226177 57.119148 
L 147.29589 57.061357 
L 147.505026 56.433788 
L 147.574739 56.819623 
L 147.644451 56.672509 
L 147.714163 58.411698 
L 147.783875 58.34347 
L 147.853588 58.111703 
L 147.9233 58.217864 
L 147.993012 58.309061 
L 148.062724 57.87385 
L 148.411286 60.579846 
L 148.620422 61.573891 
L 148.968983 60.925304 
L 149.108408 61.317508 
L 149.17812 60.785384 
L 149.317545 63.567984 
L 149.387257 63.093614 
L 149.526681 61.939572 
L 149.666106 64.046228 
L 149.735818 64.022697 
L 149.80553 63.460696 
L 149.944955 63.971011 
L 150.084379 65.473007 
L 150.293516 64.43083 
L 150.642077 66.771876 
L 150.711789 66.717194 
L 151.060351 68.251298 
L 151.130063 68.086912 
L 151.199775 67.551417 
L 151.478624 70.131571 
L 151.548336 70.307084 
L 151.618049 70.193752 
L 151.757473 69.286305 
L 151.827185 69.784806 
L 151.96661 68.887849 
L 152.106034 70.081268 
L 152.175746 72.404095 
L 152.315171 70.395954 
L 152.524308 69.620897 
L 152.59402 70.282181 
L 152.663732 69.981461 
L 152.733444 69.456852 
L 152.803157 69.842524 
L 152.872869 69.784365 
L 152.942581 69.930451 
L 153.151718 71.818215 
L 153.22143 72.074184 
L 153.430567 73.538263 
L 153.500279 73.969532 
L 153.569991 73.758005 
L 153.639703 73.290081 
L 153.84884 74.52735 
L 153.988265 74.402354 
L 154.057977 73.348338 
L 154.127689 73.463352 
L 154.336826 74.88314 
L 154.406538 74.527487 
L 154.894524 76.748332 
L 154.964236 76.184575 
L 155.033948 76.227598 
L 155.173373 76.326932 
L 155.312797 75.706025 
L 155.382509 75.785057 
L 155.661358 78.098873 
L 155.870495 80.266202 
L 156.00992 79.86397 
L 156.149344 79.326407 
L 156.219056 79.647054 
L 156.428193 81.76005 
L 156.567618 82.494169 
L 156.707042 82.034311 
L 156.776754 82.164367 
L 156.846466 81.047224 
L 156.916179 81.322129 
L 157.26474 83.55291 
L 157.334452 83.454133 
L 157.404164 83.607536 
L 157.613301 84.900441 
L 157.822438 84.648991 
L 157.89215 84.902958 
L 157.961862 84.828846 
L 158.170999 83.492888 
L 158.240711 83.764567 
L 158.449848 84.349691 
L 158.51956 84.149074 
L 158.658985 83.08759 
L 158.728697 83.247629 
L 159.216683 85.998715 
L 159.286395 86.052807 
L 159.565244 84.796168 
L 159.634956 85.644974 
L 159.774381 84.550627 
L 159.913805 84.639885 
L 160.122942 86.869797 
L 160.192654 86.459617 
L 160.332078 87.032222 
L 160.68064 85.699955 
L 160.820064 86.263084 
L 160.889776 86.079661 
L 160.959489 86.316342 
L 161.168625 87.601281 
L 161.447474 86.557367 
L 161.517187 87.24615 
L 161.586899 87.042828 
L 161.865748 88.252683 
L 161.93546 87.821313 
L 162.423446 90.091651 
L 162.493158 89.744466 
L 162.702295 91.16059 
L 163.050856 89.702375 
L 163.329705 91.718603 
L 163.538841 93.006433 
L 163.608554 93.361427 
L 163.678266 93.197992 
L 163.747978 93.128315 
L 163.957115 94.197987 
L 164.235964 95.432858 
L 164.375388 95.184583 
L 164.584525 95.590237 
L 164.72395 94.905154 
L 165.142223 96.924388 
L 165.211935 96.846842 
L 165.490784 97.793919 
L 165.560496 97.87899 
L 165.699921 98.216896 
L 165.769633 98.227234 
L 165.909058 98.506238 
L 166.118194 98.20574 
L 166.187907 97.295798 
L 166.397043 98.844273 
L 166.536468 99.350125 
L 166.60618 99.164638 
L 166.675892 99.249292 
L 166.885029 100.138161 
L 167.094166 98.957271 
L 167.163878 99.575598 
L 167.23359 99.22902 
L 167.303302 99.516254 
L 167.442727 101.037203 
L 167.582151 100.172565 
L 167.930713 101.716907 
L 168.000425 101.511407 
L 168.209561 100.482263 
L 168.348986 99.827201 
L 168.697547 101.526062 
L 168.836972 102.116403 
L 169.046108 102.963045 
L 169.115821 102.320353 
L 169.185533 102.547496 
L 169.534094 103.445243 
L 169.603806 103.218704 
L 169.882655 104.314252 
L 169.952367 103.668995 
L 170.02208 103.681815 
L 170.091792 103.720701 
L 170.231216 104.563507 
L 170.370641 104.230888 
L 170.440353 105.158674 
L 170.510065 104.262651 
L 170.719202 106.024889 
L 170.788914 106.140352 
L 170.928339 106.864151 
L 171.067763 105.691366 
L 171.2769 107.71025 
L 171.346612 107.938806 
L 171.555749 107.504242 
L 171.625461 107.984584 
L 171.695173 107.940375 
L 171.764886 107.552164 
L 172.043735 109.389783 
L 172.183159 109.151065 
L 172.252871 109.633832 
L 172.392296 109.026845 
L 172.740857 110.650729 
L 172.810569 110.376077 
L 172.880282 110.720904 
L 172.949994 110.067445 
L 173.019706 110.201881 
L 173.15913 111.427392 
L 173.437979 114.460408 
L 173.507692 114.595237 
L 173.647116 116.609903 
L 174.971649 148.307958 
L 175.041361 148.21593 
L 175.599059 143.234368 
L 175.738483 139.853494 
L 176.226469 124.425584 
L 176.505318 121.860431 
L 176.784167 119.444749 
L 176.853879 119.678904 
L 176.923591 119.439009 
L 177.132728 120.034591 
L 177.20244 119.904696 
L 177.272153 119.852228 
L 177.341865 119.144681 
L 177.411577 119.181681 
L 177.481289 119.134502 
L 177.620714 119.432308 
L 177.690426 119.262765 
L 177.969275 120.164297 
L 178.038987 120.136926 
L 178.108699 119.889153 
L 178.178412 120.229986 
L 178.248124 119.567278 
L 178.387548 121.292881 
L 178.457261 121.279607 
L 178.596685 121.030822 
L 178.666397 120.648084 
L 178.73611 121.209062 
L 178.805822 121.041202 
L 178.875534 120.948283 
L 179.154383 122.429672 
L 179.224095 122.147103 
L 179.36352 122.668463 
L 179.572656 122.599872 
L 179.642369 122.761759 
L 179.712081 123.61849 
L 179.781793 123.306265 
L 179.851505 123.105721 
L 179.99093 123.262551 
L 180.130354 123.103768 
L 180.269779 123.857036 
L 180.548628 123.012652 
L 180.688052 121.564282 
L 180.757765 121.769839 
L 180.827477 121.739646 
L 181.036614 122.150952 
L 181.24575 121.931428 
L 181.454887 123.116367 
L 181.524599 123.162742 
L 181.594311 123.06308 
L 181.803448 122.471042 
L 181.87316 122.578664 
L 182.082297 124.637272 
L 182.152009 124.598544 
L 182.221722 124.193909 
L 182.291434 124.633514 
L 182.361146 124.236225 
L 182.430858 124.475393 
L 182.500571 124.642706 
L 182.570283 124.58063 
L 182.709707 124.20554 
L 182.918844 125.534276 
L 182.988556 125.576593 
L 183.337117 126.883375 
L 183.546254 126.781824 
L 183.615966 126.846841 
L 183.685679 126.629994 
L 183.755391 126.860314 
L 183.825103 126.483567 
L 184.173664 128.156148 
L 184.313089 129.100982 
L 184.382801 128.15902 
L 184.452513 128.68313 
L 184.66165 129.94133 
L 184.731362 129.456879 
L 184.801074 129.894492 
L 184.870787 129.568543 
L 185.079923 130.103964 
L 185.219348 130.330069 
L 185.28906 130.011322 
L 185.637621 131.845639 
L 185.707334 131.804326 
L 185.777046 131.198232 
L 185.91647 132.395888 
L 185.986182 132.544978 
L 186.125607 132.339341 
L 186.613593 135.303502 
L 186.683305 135.203752 
L 186.753017 134.887575 
L 186.822729 135.107637 
L 186.892442 134.654977 
L 187.031866 135.013212 
L 187.171291 134.987698 
L 187.241003 135.153677 
L 187.380427 136.102536 
L 187.589564 135.112909 
L 187.659276 135.125953 
L 187.938125 136.028935 
L 188.07755 135.362929 
L 188.286686 136.263562 
L 188.356399 135.771586 
L 188.426111 135.810521 
L 188.565535 136.422054 
L 188.635248 136.329489 
L 188.70496 136.165498 
L 188.774672 136.210408 
L 188.914097 136.288698 
L 189.123233 135.622474 
L 189.402082 136.110152 
L 189.541507 137.293327 
L 189.611219 137.331477 
L 189.750643 137.88381 
L 189.820356 137.737293 
L 189.95978 137.003081 
L 190.029492 137.314693 
L 190.517478 135.956305 
L 190.796327 137.952119 
L 190.866039 138.200255 
L 191.075176 136.867778 
L 191.144888 137.130176 
L 191.563162 139.026034 
L 191.632874 138.967222 
L 191.702586 138.998825 
L 191.842011 139.540118 
L 192.12086 138.719739 
L 192.190572 138.684721 
L 192.608845 140.008955 
L 192.678557 139.645026 
L 192.74827 139.729342 
L 192.887694 140.079415 
L 193.027119 141.153307 
L 193.096831 141.098767 
L 193.236255 140.537326 
L 193.305968 140.652192 
L 193.515104 141.651083 
L 193.584817 141.610268 
L 193.793953 141.374035 
L 194.072802 142.287615 
L 194.142514 141.889453 
L 194.351651 142.701776 
L 194.421363 142.693116 
L 194.560788 142.074373 
L 194.769925 142.992801 
L 194.839637 142.897343 
L 195.118486 143.170801 
L 195.188198 142.624261 
L 195.25791 142.890398 
L 195.327623 142.804131 
L 195.397335 142.922863 
L 195.467047 142.828603 
L 195.536759 142.924139 
L 195.745896 143.594193 
L 195.815608 143.604252 
L 196.024745 144.142537 
L 196.164169 143.678502 
L 196.233882 144.262266 
L 196.303594 143.971245 
L 196.582443 144.666186 
L 196.721867 144.60782 
L 196.79158 144.805407 
L 196.861292 144.500844 
L 196.931004 144.884639 
L 197.000716 144.581904 
L 197.070429 144.707244 
L 197.488702 146.120815 
L 197.558414 145.974649 
L 197.767551 146.658671 
L 197.837263 146.860526 
L 197.976688 146.60711 
L 198.0464 146.655682 
L 198.325249 148.141601 
L 198.394961 148.085805 
L 198.464673 147.572145 
L 198.534386 147.76473 
L 198.882947 149.182256 
L 199.022371 149.544395 
L 199.161796 150.217773 
L 199.30122 149.578525 
L 199.580069 150.51531 
L 199.649781 150.73125 
L 199.92863 149.483096 
L 199.998343 149.558923 
L 200.068055 149.38728 
L 200.346904 151.015144 
L 200.486328 150.375379 
L 200.55604 150.445933 
L 200.625753 150.342712 
L 200.834889 151.080407 
L 200.974314 151.050036 
L 201.113738 150.899787 
L 201.183451 151.022325 
L 201.322875 151.966709 
L 201.4623 151.320477 
L 201.532012 151.512518 
L 201.671436 151.946396 
L 201.741149 151.764178 
L 201.880573 152.352091 
L 202.08971 151.613314 
L 202.159422 151.46617 
L 202.229134 151.52149 
L 202.577695 152.739224 
L 202.647408 152.843159 
L 202.856544 151.613908 
L 203.065681 152.964689 
L 203.205106 152.122149 
L 203.274818 152.267655 
L 203.414242 153.278313 
L 203.553667 152.9641 
L 203.623379 153.002492 
L 203.832516 153.799355 
L 203.902228 153.196757 
L 203.97194 153.537675 
L 204.250789 153.617979 
L 204.320501 153.541484 
L 204.390214 153.253906 
L 204.459926 153.295368 
L 204.59935 153.589372 
L 204.808487 154.629787 
L 205.017624 153.870193 
L 205.087336 154.016955 
L 205.157048 154.035701 
L 205.296473 154.921454 
L 205.505609 154.65325 
L 205.575322 154.779095 
L 205.714746 155.300236 
L 205.854171 156.144447 
L 205.993595 156.122308 
L 206.13302 155.71729 
L 206.411869 157.254869 
L 206.621005 157.259048 
L 206.76043 156.972974 
L 206.969566 157.583848 
L 207.108991 157.216252 
L 207.178703 157.3557 
L 207.248415 157.244122 
L 207.318128 157.721803 
L 207.38784 157.635979 
L 207.457552 157.749646 
L 207.527264 157.393595 
L 207.596977 157.459871 
L 207.806113 158.819192 
L 208.01525 159.043161 
L 208.363811 158.223671 
L 208.433524 158.373617 
L 208.503236 159.217415 
L 208.572948 159.161727 
L 208.64266 159.210501 
L 208.782085 158.973552 
L 209.27007 159.942909 
L 209.339783 159.806457 
L 209.409495 159.8817 
L 209.548919 160.199765 
L 209.688344 161.124028 
L 209.827768 160.740862 
L 209.967193 161.080205 
L 210.106617 160.350276 
L 210.246042 160.441903 
L 210.455178 161.24766 
L 210.524891 161.306178 
L 210.80374 161.846325 
L 210.873452 161.741536 
L 210.943164 162.352972 
L 211.012876 162.295977 
L 211.152301 162.466857 
L 211.43115 162.076662 
L 211.500862 162.452709 
L 211.570574 162.296333 
L 211.640287 162.534996 
L 211.709999 162.4208 
L 211.919135 161.291428 
L 211.988848 161.363525 
L 212.197984 161.791031 
L 212.476833 161.356009 
L 212.546546 161.404644 
L 212.68597 161.721074 
L 212.895107 161.459986 
L 213.173956 161.465458 
L 213.383092 162.111778 
L 213.452805 161.682794 
L 213.522517 161.699698 
L 213.661941 162.230969 
L 213.731654 162.17849 
L 213.94079 161.53638 
L 214.010503 161.507704 
L 214.289352 162.150345 
L 214.359064 162.003071 
L 214.428776 162.096668 
L 214.498488 162.144042 
L 214.707625 162.869811 
L 214.777337 162.620874 
L 214.84705 162.320938 
L 214.916762 162.519087 
L 214.986474 162.162436 
L 215.265323 163.180455 
L 215.335035 163.145514 
L 215.47446 162.874085 
L 215.683596 163.516842 
L 215.753309 163.478494 
L 215.823021 163.529771 
L 216.032158 163.183742 
L 216.171582 163.349783 
L 216.380719 164.745326 
L 216.589855 163.756986 
L 216.659568 163.907897 
L 216.868704 164.514289 
L 216.938417 164.486099 
L 217.147553 164.944494 
L 217.217266 164.871542 
L 217.286978 164.493238 
L 217.35669 164.70661 
L 217.426402 164.656411 
L 217.565827 165.653135 
L 217.705251 165.344203 
L 217.844676 165.791111 
L 217.914388 165.716051 
L 217.9841 165.497598 
L 218.123525 166.132651 
L 218.193237 166.052473 
L 218.262949 165.798977 
L 218.332661 165.822433 
L 218.681223 165.954534 
L 218.750935 166.29735 
L 218.820647 166.131294 
L 218.960072 165.818923 
L 219.029784 165.937337 
L 219.238921 166.771782 
L 219.308633 166.242747 
L 219.378345 166.358431 
L 219.448057 166.228623 
L 219.51777 166.303164 
L 219.587482 166.396364 
L 219.866331 167.169859 
L 219.936043 167.139282 
L 220.075467 166.764116 
L 220.284604 167.721293 
L 220.563453 167.292433 
L 220.77259 167.150278 
L 220.912014 167.284055 
L 221.051439 166.9688 
L 221.190863 167.534709 
L 221.260576 168.700949 
L 221.330288 168.36532 
L 221.4 168.215237 
L 221.539424 167.589481 
L 221.678849 168.523251 
L 221.818273 167.853877 
L 221.957698 167.774668 
L 222.097122 168.0783 
L 222.236547 167.994593 
L 222.375971 168.284479 
L 222.445684 168.203543 
L 222.585108 168.230232 
L 222.724533 168.609927 
L 222.863957 168.014975 
L 222.933669 168.033873 
L 223.003382 168.259058 
L 223.212518 166.657055 
L 223.421655 167.987314 
L 223.561079 168.560047 
L 223.630792 168.461661 
L 223.700504 167.860491 
L 223.770216 168.728049 
L 223.839928 168.195274 
L 224.118777 169.453233 
L 224.467339 168.383387 
L 224.606763 168.704 
L 224.746187 168.385957 
L 224.8159 168.506968 
L 224.885612 168.196682 
L 224.955324 168.341919 
L 225.025036 168.392441 
L 225.094749 168.883409 
L 225.164461 168.862939 
L 225.44331 169.013305 
L 225.513022 169.005763 
L 225.722159 170.047813 
L 225.791871 169.583525 
L 225.861583 169.886398 
L 226.001008 169.439603 
L 226.07072 169.550682 
L 226.140432 169.386 
L 226.210145 169.779887 
L 226.279857 169.633352 
L 226.349569 169.62908 
L 226.419281 169.743746 
L 226.558706 169.429363 
L 226.628418 169.552807 
L 226.767842 170.275623 
L 226.837555 170.252687 
L 226.976979 170.575993 
L 227.116404 170.152899 
L 227.186116 170.108945 
L 227.32554 170.26791 
L 227.534677 169.77083 
L 227.674102 170.810759 
L 227.813526 169.938349 
L 227.883238 169.958018 
L 228.162087 171.641291 
L 228.301512 170.772618 
L 228.510648 170.217047 
L 228.650073 170.513131 
L 228.928922 169.731015 
L 229.138059 170.767992 
L 229.277483 170.673661 
L 229.556332 171.37361 
L 229.695756 170.861374 
L 229.765469 170.85047 
L 229.904893 170.917085 
L 229.974605 170.807484 
L 230.11403 171.190681 
L 230.183742 171.141483 
L 230.253454 170.61986 
L 230.323167 170.836644 
L 230.392879 170.737402 
L 230.462591 171.302546 
L 230.532303 171.117676 
L 230.74144 171.247818 
L 230.811152 171.513678 
L 230.880865 171.354121 
L 230.950577 171.36427 
L 231.020289 170.89331 
L 231.090001 171.101541 
L 231.36885 172.16647 
L 231.508275 172.008605 
L 231.647699 172.175881 
L 231.856836 171.882258 
L 232.344822 173.235706 
L 232.414534 172.833987 
L 232.484246 172.912381 
L 232.763095 173.199905 
L 232.902519 173.377795 
L 233.041944 173.638002 
L 233.181368 174.388123 
L 233.320793 174.029685 
L 233.460217 174.105993 
L 233.808779 175.385943 
L 233.948203 175.273699 
L 234.017915 175.372613 
L 234.087628 175.283499 
L 234.15734 175.340687 
L 234.366476 175.906497 
L 234.645325 176.567737 
L 234.78475 176.252926 
L 234.924174 176.381788 
L 235.133311 177.13397 
L 235.203023 177.157577 
L 235.272736 176.808938 
L 235.621297 177.612638 
L 235.691009 177.641117 
L 235.830434 177.378031 
L 236.03957 178.063017 
L 236.109282 178.011375 
L 236.248707 177.557888 
L 236.388131 178.379884 
L 236.457844 178.317826 
L 236.597268 177.811496 
L 236.66698 177.879329 
L 236.736693 178.173635 
L 236.806405 178.125794 
L 237.224678 177.835509 
L 237.503527 178.981495 
L 237.642952 179.292829 
L 237.712664 179.187856 
L 237.852088 178.728422 
L 237.921801 178.891056 
L 238.130937 178.314124 
L 238.340074 179.088021 
L 238.409786 179.326183 
L 238.479499 179.184892 
L 238.549211 179.078312 
L 238.618923 179.178376 
L 238.688635 179.601891 
L 238.758348 179.505086 
L 238.897772 179.175148 
L 239.176621 179.981732 
L 239.246333 179.968596 
L 239.45547 179.391678 
L 239.525182 180.243972 
L 239.594894 180.028479 
L 239.804031 179.572105 
L 239.873743 179.495413 
L 240.08288 179.932713 
L 240.222305 179.29866 
L 240.292017 179.443613 
L 240.431441 179.933883 
L 240.501154 179.918155 
L 240.570866 180.153289 
L 240.640578 180.060609 
L 240.780002 179.819446 
L 240.849715 179.787718 
L 240.919427 180.097088 
L 241.128564 179.067176 
L 241.198276 179.150015 
L 241.3377 179.759621 
L 241.477125 179.712762 
L 241.616549 179.911061 
L 241.686262 179.883085 
L 241.755974 180.075546 
L 241.895398 179.754386 
L 242.104535 180.074522 
L 242.174247 180.391365 
L 242.24396 180.312424 
L 242.453096 179.771607 
L 242.662233 179.499153 
L 242.941082 180.747709 
L 243.219931 180.350492 
L 243.359355 180.430124 
L 243.429068 180.176021 
L 243.49878 180.215374 
L 243.568492 180.239355 
L 244.056478 181.513536 
L 244.12619 180.901084 
L 244.195902 181.093353 
L 244.335327 180.859145 
L 244.683888 181.236764 
L 244.823312 180.801103 
L 244.962737 181.529843 
L 245.102161 181.215852 
L 245.171874 180.920707 
L 245.241586 181.029205 
L 245.38101 181.343941 
L 245.520435 181.372077 
L 245.729571 181.827748 
L 245.868996 182.346019 
L 246.00842 181.946392 
L 246.147845 182.145082 
L 246.287269 181.658489 
L 246.356982 181.841944 
L 246.426694 182.552447 
L 246.496406 182.524559 
L 246.566118 182.004077 
L 246.635831 182.037107 
L 246.844967 182.301716 
L 246.984392 182.137376 
L 247.054104 182.05485 
L 247.193529 182.9817 
L 247.263241 182.397107 
L 247.332953 182.507424 
L 247.402665 182.454798 
L 247.472377 182.575131 
L 247.611802 183.362563 
L 247.960363 182.614951 
L 248.030075 182.672892 
L 248.1695 183.277912 
L 248.448349 182.802968 
L 248.518061 182.916626 
L 248.587773 182.966566 
L 248.727198 183.302009 
L 248.866622 182.716486 
L 249.006047 182.745002 
L 249.215183 183.38795 
L 249.354608 182.898485 
L 249.494032 182.35268 
L 249.563745 182.466953 
L 249.633457 182.305132 
L 249.842594 183.00692 
L 249.982018 182.730527 
L 250.05173 182.780307 
L 250.191155 183.191974 
L 250.539716 182.794298 
L 250.67914 183.144201 
L 250.748853 183.077388 
L 250.888277 183.069623 
L 251.027702 183.249443 
L 251.167126 182.630844 
L 251.236838 182.812143 
L 251.445975 184.060595 
L 251.515687 183.872968 
L 251.724824 183.433931 
L 251.864249 183.576861 
L 252.003673 183.870819 
L 252.073385 183.807707 
L 252.143097 183.675686 
L 252.21281 183.735626 
L 252.282522 183.780737 
L 252.352234 183.557147 
L 252.561371 184.131735 
L 252.84022 184.759735 
L 252.909932 184.629804 
L 253.049357 184.005976 
L 253.119069 184.165216 
L 253.328206 185.214947 
L 253.746479 185.97329 
L 253.816191 185.814674 
L 254.234465 186.873914 
L 254.304177 186.809885 
L 254.443601 187.653161 
L 254.513314 187.570514 
L 254.72245 187.174228 
L 254.792163 187.321878 
L 255.140724 186.611174 
L 255.280148 186.576765 
L 255.768134 187.320267 
L 255.977271 187.221322 
L 256.046983 187.168168 
L 256.116695 186.907244 
L 256.186407 186.990006 
L 256.325832 187.38818 
L 256.395544 187.406147 
L 256.534969 186.884933 
L 256.604681 187.331365 
L 256.674393 187.159109 
L 256.744105 187.289355 
L 256.813818 186.916211 
L 256.88353 187.40493 
L 256.953242 187.24361 
L 257.232091 186.533552 
L 257.301803 186.627246 
L 257.441228 187.110503 
L 257.51094 186.976556 
L 257.650364 187.273435 
L 257.720077 187.188636 
L 257.929213 188.148141 
L 257.998926 188.057 
L 258.208062 187.073171 
L 258.277775 187.122148 
L 258.417199 187.391324 
L 258.486911 186.94192 
L 258.556623 187.169366 
L 258.626336 187.143415 
L 258.76576 187.50001 
L 258.835472 187.796513 
L 258.905185 187.642578 
L 259.044609 187.464764 
L 259.114321 187.473823 
L 259.323458 187.729633 
L 259.39317 187.877273 
L 259.532595 187.249692 
L 259.741732 187.787261 
L 259.811444 187.55844 
L 259.881156 187.265861 
L 259.950868 187.420982 
L 260.020581 187.653619 
L 260.090293 187.522739 
L 260.160005 187.445081 
L 260.369142 186.902333 
L 260.717703 187.511501 
L 260.857127 187.178395 
L 260.996552 186.748497 
L 261.205689 187.093845 
L 261.345113 186.348714 
L 261.414825 186.943782 
L 261.484538 186.913404 
L 261.693674 186.772957 
L 261.902811 187.408847 
L 261.972523 187.198346 
L 262.042235 187.102684 
L 262.111948 187.176854 
L 262.321084 187.416927 
L 262.390797 187.060884 
L 262.530221 187.70768 
L 262.599933 187.614146 
L 262.739358 186.793963 
L 262.878782 187.571979 
L 263.087919 186.971789 
L 263.227344 187.320189 
L 263.297056 187.99523 
L 263.366768 187.345656 
L 263.43648 187.418772 
L 263.575905 187.623133 
L 263.785041 186.718454 
L 264.133603 187.602182 
L 264.342739 187.221102 
L 264.482164 187.213237 
L 264.551876 187.330123 
L 264.621588 187.22038 
L 264.691301 187.532484 
L 264.761013 187.471496 
L 264.900437 187.518079 
L 264.97015 187.458098 
L 265.179286 187.845441 
L 265.318711 187.823025 
L 265.388423 187.600891 
L 265.458135 187.868942 
L 265.527847 187.657724 
L 265.59756 188.071501 
L 265.667272 188.008007 
L 265.736984 187.996831 
L 265.946121 187.771664 
L 266.155258 188.552938 
L 266.22497 188.284724 
L 266.294682 187.610543 
L 266.364394 187.624167 
L 266.503819 188.16206 
L 266.643243 187.875969 
L 266.712955 187.919647 
L 266.991804 188.43456 
L 267.131229 188.279311 
L 267.200941 188.433355 
L 267.270653 188.355932 
L 267.340366 188.358607 
L 267.47979 188.191947 
L 267.549502 188.438197 
L 267.619215 188.330845 
L 267.688927 188.320229 
L 267.967776 188.974216 
L 268.176913 188.321846 
L 268.455761 189.217499 
L 268.525474 188.433274 
L 268.664898 189.489811 
L 268.73461 189.175356 
L 268.804323 189.221095 
L 268.874035 189.237148 
L 269.083172 188.887087 
L 269.222596 188.773244 
L 269.292308 188.53046 
L 269.362021 188.592644 
L 269.571157 189.788373 
L 269.710582 188.813232 
L 269.850006 188.940198 
L 269.989431 189.007373 
L 270.128855 189.644575 
L 270.337992 189.329635 
L 270.547129 189.491166 
L 270.756265 188.788464 
L 270.825978 188.900419 
L 270.965402 189.285976 
L 271.104827 189.384849 
L 271.313963 188.817766 
L 271.5231 189.469575 
L 271.592812 189.282332 
L 271.732237 188.794445 
L 271.871661 189.162785 
L 272.080798 188.105139 
L 272.289935 188.7872 
L 272.359647 188.725549 
L 272.429359 188.505195 
L 272.568784 188.924488 
L 272.638496 188.902544 
L 272.847633 188.944357 
L 272.987057 188.655369 
L 273.056769 188.941095 
L 273.126481 188.881747 
L 273.265906 188.228977 
L 273.335618 188.177025 
L 273.40533 188.841119 
L 273.475043 188.665398 
L 273.684179 188.256657 
L 273.893316 188.852129 
L 274.032741 188.043484 
L 274.172165 187.654025 
L 274.241877 187.86915 
L 274.31159 187.581459 
L 274.451014 188.404494 
L 274.590439 188.123093 
L 274.729863 188.413072 
L 274.799575 188.398256 
L 275.008712 187.869866 
L 275.078424 187.937324 
L 275.148136 188.036321 
L 275.217849 187.952203 
L 275.357273 187.784877 
L 275.426985 188.100724 
L 275.56641 187.681926 
L 275.636122 187.678927 
L 275.775547 188.00531 
L 275.845259 187.76426 
L 275.984683 187.950432 
L 276.124108 188.024701 
L 276.19382 188.263587 
L 276.263532 188.134131 
L 276.402957 187.726533 
L 276.681806 188.393449 
L 276.751518 187.69589 
L 276.82123 187.713255 
L 276.890942 187.442229 
L 277.239504 188.411345 
L 277.378928 187.889236 
L 277.518353 188.520298 
L 277.588065 188.40368 
L 277.727489 188.226206 
L 277.797202 188.24539 
L 277.936626 188.524846 
L 278.006338 188.194746 
L 278.07605 188.313143 
L 278.145763 188.116281 
L 278.215475 188.700293 
L 278.285187 188.212321 
L 278.354899 188.637045 
L 278.424612 188.311007 
L 278.494324 188.373086 
L 278.633748 188.455098 
L 278.842885 188.380934 
L 278.98231 188.356337 
L 279.400583 189.044007 
L 279.60972 189.727361 
L 279.749144 189.55534 
L 279.888569 189.044578 
L 279.958281 189.467992 
L 280.027993 189.317169 
L 280.097705 189.119706 
L 280.167418 189.16446 
L 280.23713 189.123228 
L 280.376554 188.870445 
L 280.515979 190.138903 
L 280.585691 190.078255 
L 280.725116 189.928354 
L 280.86454 189.627186 
L 280.934252 189.802602 
L 281.003965 190.146552 
L 281.282813 189.243576 
L 281.352526 189.300995 
L 281.422238 189.772304 
L 281.49195 189.564169 
L 281.701087 188.690172 
L 281.770799 188.866985 
L 281.910224 189.088902 
L 282.11936 189.816125 
L 282.189073 189.753209 
L 282.328497 190.12414 
L 282.467922 189.749494 
L 282.677058 190.345504 
L 282.74677 190.162606 
L 282.955907 190.834867 
L 283.165044 190.250215 
L 283.234756 190.479229 
L 283.583317 190.923237 
L 283.792454 190.671714 
L 283.862166 190.794163 
L 283.931879 190.9568 
L 284.210728 190.390491 
L 284.419864 191.345787 
L 284.489576 191.410568 
L 284.629001 191.808401 
L 284.768425 191.341466 
L 284.838138 191.378713 
L 284.977562 191.333363 
L 285.116987 191.5027 
L 285.256411 190.994596 
L 285.326123 191.655233 
L 285.395836 191.362276 
L 285.465548 191.504394 
L 285.53526 191.374328 
L 285.674685 191.906073 
L 285.744397 191.929463 
L 285.814109 192.42772 
L 286.023246 191.207435 
L 286.092958 191.142284 
L 286.232382 191.290842 
L 286.302095 191.078705 
L 286.371807 191.383614 
L 286.441519 191.263644 
L 286.511231 190.799855 
L 286.580944 190.876237 
L 286.79008 191.467245 
L 287.068929 190.555996 
L 287.278066 191.492263 
L 287.347778 191.30653 
L 287.487203 190.835537 
L 287.626627 190.818381 
L 287.766052 190.534668 
L 287.905476 191.313686 
L 288.114613 191.021724 
L 288.254037 190.80188 
L 288.32375 191.066354 
L 288.393462 190.97382 
L 288.463174 190.865145 
L 288.602599 191.436595 
L 288.672311 191.415583 
L 288.742023 191.049072 
L 288.95116 191.55827 
L 289.160297 191.020898 
L 289.230009 190.604815 
L 289.299721 190.635979 
L 289.508858 191.613611 
L 289.57857 191.469275 
L 289.717994 190.695495 
L 289.927131 190.961328 
L 289.996843 190.961646 
L 290.136268 191.312861 
L 290.20598 191.235742 
L 290.345405 191.293161 
L 290.415117 190.694634 
L 290.484829 190.910981 
L 290.554541 190.48049 
L 290.624254 190.919592 
L 290.693966 190.852818 
L 290.763678 190.955331 
L 290.972815 191.738031 
L 291.112239 191.136198 
L 291.181951 191.211864 
L 291.251664 191.499165 
L 291.321376 191.361994 
L 291.4608 190.895103 
L 291.669937 191.410824 
L 291.739649 191.584106 
L 291.879074 191.443713 
L 292.088211 191.625817 
L 292.297347 191.045175 
L 292.436772 191.419534 
L 292.645908 190.697655 
L 292.715621 190.888942 
L 292.785333 191.431972 
L 292.855045 191.18062 
L 292.924757 190.798092 
L 293.133894 191.999272 
L 293.62188 191.138901 
L 293.761304 191.259502 
L 294.040153 190.961208 
L 294.109865 191.136835 
L 294.179578 191.077694 
L 294.388714 190.579783 
L 294.458427 190.629513 
L 294.667563 191.076983 
L 294.737276 190.984493 
L 294.8767 190.53532 
L 295.016125 190.761026 
L 295.085837 190.600114 
L 295.225261 191.098081 
L 295.294974 190.616151 
L 295.364686 190.760256 
L 295.50411 191.184129 
L 295.643535 190.710156 
L 295.782959 191.25238 
L 295.922384 191.79658 
L 296.061808 191.261136 
L 296.201233 191.442832 
L 296.410369 191.145303 
L 296.619506 190.572299 
L 296.689218 190.927806 
L 296.758931 190.849235 
L 296.828643 190.440942 
L 296.898355 190.636526 
L 297.107492 190.766493 
L 297.246916 190.678595 
L 297.316628 190.703598 
L 297.456053 190.940315 
L 297.525765 190.52879 
L 297.595477 190.794369 
L 297.66519 190.565141 
L 297.944039 191.687815 
L 298.013751 191.592711 
L 298.153175 191.217138 
L 298.222888 191.255756 
L 298.362312 191.148201 
L 298.571449 191.523693 
L 298.710873 191.649059 
L 298.989722 191.622385 
L 299.059434 191.499778 
L 299.268571 192.183068 
L 299.338283 192.074321 
L 299.407996 192.34456 
L 299.477708 192.190889 
L 299.617132 192.41545 
L 299.686845 191.995186 
L 299.756557 192.385595 
L 299.826269 192.32639 
L 299.965694 192.293574 
L 300.105118 192.737813 
L 300.17483 192.600648 
L 300.244543 192.346285 
L 300.314255 192.983066 
L 300.383967 192.502073 
L 300.453679 192.888029 
L 300.523391 192.389422 
L 300.593104 192.500851 
L 300.662816 192.421778 
L 300.80224 192.104513 
L 300.871953 192.123235 
L 301.220514 193.242529 
L 301.290226 193.117051 
L 301.359938 192.905294 
L 301.429651 193.048509 
L 301.499363 193.26022 
L 301.7085 192.332177 
L 301.847924 192.96094 
L 302.057061 193.700201 
L 302.266197 193.203757 
L 302.33591 192.592002 
L 302.405622 192.695848 
L 302.614759 193.59724 
L 302.684471 193.373452 
L 302.823895 193.340786 
L 302.893608 192.746367 
L 303.033032 193.687708 
L 303.242169 193.37122 
L 303.451306 193.220382 
L 303.59073 194.193516 
L 303.730154 193.610041 
L 303.799867 193.477143 
L 304.009003 194.421199 
L 304.078716 194.307489 
L 304.148428 194.176384 
L 304.287852 194.710584 
L 304.496989 194.383417 
L 304.775838 195.934806 
L 304.84555 195.897385 
L 305.054687 196.470099 
L 305.403248 198.166541 
L 305.542673 198.623537 
L 305.682097 199.099885 
L 305.891234 199.138368 
L 306.030658 199.739175 
L 306.100371 199.720237 
L 306.170083 199.923429 
L 306.239795 199.491397 
L 306.309507 199.725709 
L 306.448932 200.258686 
L 306.518644 200.004027 
L 306.588356 199.831761 
L 306.658069 200.032239 
L 306.797493 199.835997 
L 306.936918 199.179564 
L 307.076342 199.799823 
L 307.146054 199.512437 
L 307.355191 198.828274 
L 307.424903 198.878255 
L 307.494615 199.102404 
L 307.63404 198.883103 
L 307.703752 198.985749 
L 307.912889 198.19071 
L 307.982601 198.382731 
L 308.052313 198.269421 
L 308.122026 198.25633 
L 308.191738 197.67555 
L 308.26145 197.843779 
L 308.331162 197.852854 
L 308.470587 197.190822 
L 308.540299 197.244641 
L 308.749436 196.182992 
L 308.819148 196.214857 
L 308.88886 196.49924 
L 308.958572 196.333553 
L 309.097997 196.018636 
L 309.446558 195.019225 
L 309.795119 194.670354 
L 310.004256 195.04329 
L 310.073968 195.31682 
L 310.701378 193.311603 
L 310.840803 193.988199 
L 310.980227 193.630355 
L 311.189364 194.188212 
L 311.259076 193.953269 
L 311.328789 194.022229 
L 311.67735 193.915551 
L 311.886486 193.437697 
L 311.956199 193.470281 
L 312.025911 193.377481 
L 312.095623 194.184862 
L 312.165335 194.072066 
L 312.235048 194.094481 
L 312.513897 192.690097 
L 312.723033 193.996304 
L 312.792746 194.021501 
L 313.001882 193.416253 
L 313.280731 192.849712 
L 313.350444 192.855498 
L 313.489868 193.531858 
L 313.55958 193.503768 
L 313.629292 193.500009 
L 313.768717 192.99612 
L 313.838429 193.237565 
L 313.908141 192.877548 
L 313.977854 193.279454 
L 314.047566 192.973496 
L 314.256703 193.466853 
L 314.465839 192.660719 
L 314.674976 194.171499 
L 314.744688 193.629723 
L 314.814401 194.119075 
L 314.884113 194.037148 
L 315.093249 193.307109 
L 315.162962 193.639177 
L 315.372098 192.854459 
L 315.860084 193.517606 
L 315.999509 193.393112 
L 316.138933 193.928939 
L 316.208645 193.529815 
L 316.278358 193.820669 
L 316.34807 193.669787 
L 316.487494 193.339742 
L 316.626919 193.43214 
L 316.696631 193.896059 
L 316.766343 193.787492 
L 316.905768 193.294161 
L 316.97548 193.638662 
L 317.045192 193.285351 
L 317.114904 193.443838 
L 317.393753 193.668503 
L 317.463466 193.808626 
L 317.60289 193.341949 
L 317.742315 193.940957 
L 317.951451 193.242915 
L 318.021164 193.859875 
L 318.160588 193.454837 
L 318.369725 194.824089 
L 318.509149 193.81877 
L 318.578861 193.877042 
L 318.648574 193.726463 
L 318.787998 194.198442 
L 318.85771 194.231371 
L 318.927423 194.122106 
L 318.997135 193.701887 
L 319.066847 193.897479 
L 319.275984 194.689149 
L 319.415408 194.586929 
L 319.554833 194.489701 
L 319.624545 194.354886 
L 319.694257 193.818396 
L 319.833682 194.230218 
L 320.042818 194.454805 
L 320.182243 194.139938 
L 320.251955 194.160232 
L 320.600516 195.612119 
L 320.739941 194.459844 
L 320.809653 194.642904 
L 320.949078 194.903078 
L 321.158214 194.1592 
L 321.297639 195.138745 
L 321.367351 194.774503 
L 321.437063 195.383492 
L 321.506775 195.020186 
L 321.6462 194.937171 
L 321.715912 194.558291 
L 321.785624 194.968878 
L 321.855337 194.370489 
L 321.994761 195.258159 
L 322.064473 195.5033 
L 322.27361 195.131512 
L 322.343322 195.300629 
L 322.482747 194.66939 
L 322.552459 194.932929 
L 322.622171 194.923345 
L 322.90102 194.604637 
L 322.970733 194.706594 
L 323.040445 195.092312 
L 323.110157 195.057026 
L 323.249581 194.424178 
L 323.389006 194.874158 
L 323.458718 194.82169 
L 323.667855 195.355338 
L 323.737567 195.33715 
L 323.876992 194.820232 
L 324.016416 195.640778 
L 324.155841 195.362409 
L 324.364977 195.596282 
L 324.504402 196.060625 
L 324.643826 195.959689 
L 324.852963 194.994435 
L 324.992387 195.833669 
L 325.0621 195.614302 
L 325.201524 195.936635 
L 325.271236 196.005682 
L 325.550085 195.441433 
L 325.619798 195.296884 
L 325.898647 195.602158 
L 325.968359 195.643466 
L 326.107783 195.881005 
L 326.247208 195.757459 
L 326.386632 196.05875 
L 326.526057 195.576133 
L 326.665481 194.631274 
L 326.735193 194.841021 
L 326.874618 195.99108 
L 327.014042 195.731685 
L 327.083755 196.141536 
L 327.153467 195.810973 
L 327.292891 194.405063 
L 327.432316 242.116364 
L 373.581818 242.116364 
L 373.581818 242.116364 
" style="fill:none;stroke:#1f77b4;stroke-linecap:square;stroke-width:1.5;"/>
   </g>
   <g id="line2d_18">
    <path clip-path="url(#pc0c7a461d7)" d="M 306.472169 242.116364 
L 306.472169 44.443636 
" style="fill:none;stroke:#ff0000;stroke-dasharray:1.5,2.475;stroke-dashoffset:0;stroke-width:1.5;"/>
   </g>
   <g id="line2d_19">
    <path clip-path="url(#pc0c7a461d7)" d="M 304.357565 242.116364 
L 304.357565 44.443636 
" style="fill:none;stroke:#008000;stroke-dasharray:1.5,2.475;stroke-dashoffset:0;stroke-width:1.5;"/>
   </g>
   <g id="line2d_20">
    <path clip-path="url(#pc0c7a461d7)" d="M 308.540299 242.116364 
L 308.540299 44.443636 
" style="fill:none;stroke:#008000;stroke-dasharray:1.5,2.475;stroke-dashoffset:0;stroke-width:1.5;"/>
   </g>
   <g id="patch_3">
    <path d="M 54 252 
L 54 34.56 
" style="fill:none;stroke:#000000;stroke-linecap:square;stroke-linejoin:miter;stroke-width:0.8;"/>
   </g>
   <g id="patch_4">
    <path d="M 388.8 252 
L 388.8 34.56 
" style="fill:none;stroke:#000000;stroke-linecap:square;stroke-linejoin:miter;stroke-width:0.8;"/>
   </g>
   <g id="patch_5">
    <path d="M 54 252 
L 388.8 252 
" style="fill:none;stroke:#000000;stroke-linecap:square;stroke-linejoin:miter;stroke-width:0.8;"/>
   </g>
   <g id="patch_6">
    <path d="M 54 34.56 
L 388.8 34.56 
" style="fill:none;stroke:#000000;stroke-linecap:square;stroke-linejoin:miter;stroke-width:0.8;"/>
   </g>
   <g id="text_19">
    <!-- $H_\alpha$ -->
    <defs>
     <path d="M 16.890625 72.90625 
L 26.8125 72.90625 
L 21 43.015625 
L 56.78125 43.015625 
L 62.59375 72.90625 
L 72.515625 72.90625 
L 58.296875 0 
L 48.390625 0 
L 55.171875 34.71875 
L 19.390625 34.71875 
L 12.59375 0 
L 2.6875 0 
z
" id="DejaVuSans-Oblique-72"/>
     <path d="M 40.921875 25.4375 
L 40.96875 36.71875 
Q 41.015625 48.25 32.328125 48.296875 
Q 25.828125 48.34375 21.78125 42.921875 
Q 16.703125 36.234375 14.984375 27.296875 
Q 12.890625 16.546875 15.53125 11.421875 
Q 18.265625 6.203125 24.171875 6.203125 
Q 30.71875 6.203125 36.234375 16.609375 
z
M 33.84375 55.90625 
Q 49.078125 56.15625 48.875 40.375 
Q 48.875 40.375 56.5 54.6875 
L 64.5 54.6875 
L 48.734375 25.046875 
L 48.578125 14.359375 
Q 48.578125 11.96875 49.90625 9.96875 
Q 51.421875 7.625 52.984375 7.625 
L 57.328125 7.625 
L 55.859375 0 
L 50.4375 0 
Q 45.84375 0 42.53125 4.109375 
Q 40.96875 6.15625 40.921875 10.453125 
Q 37.75 5.21875 32.28125 0.78125 
Q 29.6875 -1.265625 22.703125 -1.21875 
Q 11.28125 -1.125 7.125 6.203125 
Q 2.875 13.8125 5.515625 27.296875 
Q 8.34375 41.796875 15.765625 48.390625 
Q 24.125 55.765625 33.84375 55.90625 
z
" id="DejaVuSans-Oblique-945"/>
    </defs>
    <g style="fill:#ff0000;" transform="translate(300.222169 242.116364)scale(0.1 -0.1)">
     <use transform="translate(0 0.09375)" xlink:href="#DejaVuSans-Oblique-72"/>
     <use transform="translate(75.195312 -16.3125)scale(0.7)" xlink:href="#DejaVuSans-Oblique-945"/>
    </g>
   </g>
   <g id="text_20">
    <!-- Spectrum of  -->
    <defs>
     <path d="M 53.515625 70.515625 
L 53.515625 60.890625 
Q 47.90625 63.578125 42.921875 64.890625 
Q 37.9375 66.21875 33.296875 66.21875 
Q 25.25 66.21875 20.875 63.09375 
Q 16.5 59.96875 16.5 54.203125 
Q 16.5 49.359375 19.40625 46.890625 
Q 22.3125 44.4375 30.421875 42.921875 
L 36.375 41.703125 
Q 47.40625 39.59375 52.65625 34.296875 
Q 57.90625 29 57.90625 20.125 
Q 57.90625 9.515625 50.796875 4.046875 
Q 43.703125 -1.421875 29.984375 -1.421875 
Q 24.8125 -1.421875 18.96875 -0.25 
Q 13.140625 0.921875 6.890625 3.21875 
L 6.890625 13.375 
Q 12.890625 10.015625 18.65625 8.296875 
Q 24.421875 6.59375 29.984375 6.59375 
Q 38.421875 6.59375 43.015625 9.90625 
Q 47.609375 13.234375 47.609375 19.390625 
Q 47.609375 24.75 44.3125 27.78125 
Q 41.015625 30.8125 33.5 32.328125 
L 27.484375 33.5 
Q 16.453125 35.6875 11.515625 40.375 
Q 6.59375 45.0625 6.59375 53.421875 
Q 6.59375 63.09375 13.40625 68.65625 
Q 20.21875 74.21875 32.171875 74.21875 
Q 37.3125 74.21875 42.625 73.28125 
Q 47.953125 72.359375 53.515625 70.515625 
z
" id="DejaVuSans-83"/>
     <path d="M 18.109375 8.203125 
L 18.109375 -20.796875 
L 9.078125 -20.796875 
L 9.078125 54.6875 
L 18.109375 54.6875 
L 18.109375 46.390625 
Q 20.953125 51.265625 25.265625 53.625 
Q 29.59375 56 35.59375 56 
Q 45.5625 56 51.78125 48.09375 
Q 58.015625 40.1875 58.015625 27.296875 
Q 58.015625 14.40625 51.78125 6.484375 
Q 45.5625 -1.421875 35.59375 -1.421875 
Q 29.59375 -1.421875 25.265625 0.953125 
Q 20.953125 3.328125 18.109375 8.203125 
z
M 48.6875 27.296875 
Q 48.6875 37.203125 44.609375 42.84375 
Q 40.53125 48.484375 33.40625 48.484375 
Q 26.265625 48.484375 22.1875 42.84375 
Q 18.109375 37.203125 18.109375 27.296875 
Q 18.109375 17.390625 22.1875 11.75 
Q 26.265625 6.109375 33.40625 6.109375 
Q 40.53125 6.109375 44.609375 11.75 
Q 48.6875 17.390625 48.6875 27.296875 
z
" id="DejaVuSans-112"/>
     <path d="M 48.78125 52.59375 
L 48.78125 44.1875 
Q 44.96875 46.296875 41.140625 47.34375 
Q 37.3125 48.390625 33.40625 48.390625 
Q 24.65625 48.390625 19.8125 42.84375 
Q 14.984375 37.3125 14.984375 27.296875 
Q 14.984375 17.28125 19.8125 11.734375 
Q 24.65625 6.203125 33.40625 6.203125 
Q 37.3125 6.203125 41.140625 7.25 
Q 44.96875 8.296875 48.78125 10.40625 
L 48.78125 2.09375 
Q 45.015625 0.34375 40.984375 -0.53125 
Q 36.96875 -1.421875 32.421875 -1.421875 
Q 20.0625 -1.421875 12.78125 6.34375 
Q 5.515625 14.109375 5.515625 27.296875 
Q 5.515625 40.671875 12.859375 48.328125 
Q 20.21875 56 33.015625 56 
Q 37.15625 56 41.109375 55.140625 
Q 45.0625 54.296875 48.78125 52.59375 
z
" id="DejaVuSans-99"/>
     <path d="M 52 44.1875 
Q 55.375 50.25 60.0625 53.125 
Q 64.75 56 71.09375 56 
Q 79.640625 56 84.28125 50.015625 
Q 88.921875 44.046875 88.921875 33.015625 
L 88.921875 0 
L 79.890625 0 
L 79.890625 32.71875 
Q 79.890625 40.578125 77.09375 44.375 
Q 74.3125 48.1875 68.609375 48.1875 
Q 61.625 48.1875 57.5625 43.546875 
Q 53.515625 38.921875 53.515625 30.90625 
L 53.515625 0 
L 44.484375 0 
L 44.484375 32.71875 
Q 44.484375 40.625 41.703125 44.40625 
Q 38.921875 48.1875 33.109375 48.1875 
Q 26.21875 48.1875 22.15625 43.53125 
Q 18.109375 38.875 18.109375 30.90625 
L 18.109375 0 
L 9.078125 0 
L 9.078125 54.6875 
L 18.109375 54.6875 
L 18.109375 46.1875 
Q 21.1875 51.21875 25.484375 53.609375 
Q 29.78125 56 35.6875 56 
Q 41.65625 56 45.828125 52.96875 
Q 50 49.953125 52 44.1875 
z
" id="DejaVuSans-109"/>
     <path d="M 30.609375 48.390625 
Q 23.390625 48.390625 19.1875 42.75 
Q 14.984375 37.109375 14.984375 27.296875 
Q 14.984375 17.484375 19.15625 11.84375 
Q 23.34375 6.203125 30.609375 6.203125 
Q 37.796875 6.203125 41.984375 11.859375 
Q 46.1875 17.53125 46.1875 27.296875 
Q 46.1875 37.015625 41.984375 42.703125 
Q 37.796875 48.390625 30.609375 48.390625 
z
M 30.609375 56 
Q 42.328125 56 49.015625 48.375 
Q 55.71875 40.765625 55.71875 27.296875 
Q 55.71875 13.875 49.015625 6.21875 
Q 42.328125 -1.421875 30.609375 -1.421875 
Q 18.84375 -1.421875 12.171875 6.21875 
Q 5.515625 13.875 5.515625 27.296875 
Q 5.515625 40.765625 12.171875 48.375 
Q 18.84375 56 30.609375 56 
z
" id="DejaVuSans-111"/>
    </defs>
    <g transform="translate(182.728125 28.56)scale(0.12 -0.12)">
     <use xlink:href="#DejaVuSans-83"/>
     <use x="63.476562" xlink:href="#DejaVuSans-112"/>
     <use x="126.953125" xlink:href="#DejaVuSans-101"/>
     <use x="188.476562" xlink:href="#DejaVuSans-99"/>
     <use x="243.457031" xlink:href="#DejaVuSans-116"/>
     <use x="282.666016" xlink:href="#DejaVuSans-114"/>
     <use x="323.779297" xlink:href="#DejaVuSans-117"/>
     <use x="387.158203" xlink:href="#DejaVuSans-109"/>
     <use x="484.570312" xlink:href="#DejaVuSans-32"/>
     <use x="516.357422" xlink:href="#DejaVuSans-111"/>
     <use x="577.539062" xlink:href="#DejaVuSans-102"/>
     <use x="612.744141" xlink:href="#DejaVuSans-32"/>
    </g>
   </g>
  </g>
 </g>
 <defs>
  <clipPath id="pc0c7a461d7">
   <rect height="217.44" width="334.8" x="54" y="34.56"/>
  </clipPath>
 </defs>
</svg>
