<?xml version="1.0" encoding="utf-8" standalone="no"?>
<!DOCTYPE svg PUBLIC "-//W3C//DTD SVG 1.1//EN"
  "http://www.w3.org/Graphics/SVG/1.1/DTD/svg11.dtd">
<!-- Created with matplotlib (https://matplotlib.org/) -->
<svg height="288pt" version="1.1" viewBox="0 0 432 288" width="432pt" xmlns="http://www.w3.org/2000/svg" xmlns:xlink="http://www.w3.org/1999/xlink">
 <defs>
  <style type="text/css">
*{stroke-linecap:butt;stroke-linejoin:round;white-space:pre;}
  </style>
 </defs>
 <g id="figure_1">
  <g id="patch_1">
   <path d="M 0 288 
L 432 288 
L 432 0 
L 0 0 
z
" style="fill:#ffffff;"/>
  </g>
  <g id="axes_1">
   <g id="patch_2">
    <path d="M 54 252 
L 388.8 252 
L 388.8 34.56 
L 54 34.56 
z
" style="fill:#ffffff;"/>
   </g>
   <g id="matplotlib.axis_1">
    <g id="xtick_1">
     <g id="line2d_1">
      <defs>
       <path d="M 0 0 
L 0 3.5 
" id="me8026168d5" style="stroke:#000000;stroke-width:0.8;"/>
      </defs>
      <g>
       <use style="stroke:#000000;stroke-width:0.8;" x="69.218182" xlink:href="#me8026168d5" y="252"/>
      </g>
     </g>
     <g id="text_1">
      <!-- 3500 -->
      <defs>
       <path d="M 40.578125 39.3125 
Q 47.65625 37.796875 51.625 33 
Q 55.609375 28.21875 55.609375 21.1875 
Q 55.609375 10.40625 48.1875 4.484375 
Q 40.765625 -1.421875 27.09375 -1.421875 
Q 22.515625 -1.421875 17.65625 -0.515625 
Q 12.796875 0.390625 7.625 2.203125 
L 7.625 11.71875 
Q 11.71875 9.328125 16.59375 8.109375 
Q 21.484375 6.890625 26.8125 6.890625 
Q 36.078125 6.890625 40.9375 10.546875 
Q 45.796875 14.203125 45.796875 21.1875 
Q 45.796875 27.640625 41.28125 31.265625 
Q 36.765625 34.90625 28.71875 34.90625 
L 20.21875 34.90625 
L 20.21875 43.015625 
L 29.109375 43.015625 
Q 36.375 43.015625 40.234375 45.921875 
Q 44.09375 48.828125 44.09375 54.296875 
Q 44.09375 59.90625 40.109375 62.90625 
Q 36.140625 65.921875 28.71875 65.921875 
Q 24.65625 65.921875 20.015625 65.03125 
Q 15.375 64.15625 9.8125 62.3125 
L 9.8125 71.09375 
Q 15.4375 72.65625 20.34375 73.4375 
Q 25.25 74.21875 29.59375 74.21875 
Q 40.828125 74.21875 47.359375 69.109375 
Q 53.90625 64.015625 53.90625 55.328125 
Q 53.90625 49.265625 50.4375 45.09375 
Q 46.96875 40.921875 40.578125 39.3125 
z
" id="DejaVuSans-51"/>
       <path d="M 10.796875 72.90625 
L 49.515625 72.90625 
L 49.515625 64.59375 
L 19.828125 64.59375 
L 19.828125 46.734375 
Q 21.96875 47.46875 24.109375 47.828125 
Q 26.265625 48.1875 28.421875 48.1875 
Q 40.625 48.1875 47.75 41.5 
Q 54.890625 34.8125 54.890625 23.390625 
Q 54.890625 11.625 47.5625 5.09375 
Q 40.234375 -1.421875 26.90625 -1.421875 
Q 22.3125 -1.421875 17.546875 -0.640625 
Q 12.796875 0.140625 7.71875 1.703125 
L 7.71875 11.625 
Q 12.109375 9.234375 16.796875 8.0625 
Q 21.484375 6.890625 26.703125 6.890625 
Q 35.15625 6.890625 40.078125 11.328125 
Q 45.015625 15.765625 45.015625 23.390625 
Q 45.015625 31 40.078125 35.4375 
Q 35.15625 39.890625 26.703125 39.890625 
Q 22.75 39.890625 18.8125 39.015625 
Q 14.890625 38.140625 10.796875 36.28125 
z
" id="DejaVuSans-53"/>
       <path d="M 31.78125 66.40625 
Q 24.171875 66.40625 20.328125 58.90625 
Q 16.5 51.421875 16.5 36.375 
Q 16.5 21.390625 20.328125 13.890625 
Q 24.171875 6.390625 31.78125 6.390625 
Q 39.453125 6.390625 43.28125 13.890625 
Q 47.125 21.390625 47.125 36.375 
Q 47.125 51.421875 43.28125 58.90625 
Q 39.453125 66.40625 31.78125 66.40625 
z
M 31.78125 74.21875 
Q 44.046875 74.21875 50.515625 64.515625 
Q 56.984375 54.828125 56.984375 36.375 
Q 56.984375 17.96875 50.515625 8.265625 
Q 44.046875 -1.421875 31.78125 -1.421875 
Q 19.53125 -1.421875 13.0625 8.265625 
Q 6.59375 17.96875 6.59375 36.375 
Q 6.59375 54.828125 13.0625 64.515625 
Q 19.53125 74.21875 31.78125 74.21875 
z
" id="DejaVuSans-48"/>
      </defs>
      <g transform="translate(56.493182 266.598437)scale(0.1 -0.1)">
       <use xlink:href="#DejaVuSans-51"/>
       <use x="63.623047" xlink:href="#DejaVuSans-53"/>
       <use x="127.246094" xlink:href="#DejaVuSans-48"/>
       <use x="190.869141" xlink:href="#DejaVuSans-48"/>
      </g>
     </g>
    </g>
    <g id="xtick_2">
     <g id="line2d_2">
      <g>
       <use style="stroke:#000000;stroke-width:0.8;" x="107.947204" xlink:href="#me8026168d5" y="252"/>
      </g>
     </g>
     <g id="text_2">
      <!-- 4000 -->
      <defs>
       <path d="M 37.796875 64.3125 
L 12.890625 25.390625 
L 37.796875 25.390625 
z
M 35.203125 72.90625 
L 47.609375 72.90625 
L 47.609375 25.390625 
L 58.015625 25.390625 
L 58.015625 17.1875 
L 47.609375 17.1875 
L 47.609375 0 
L 37.796875 0 
L 37.796875 17.1875 
L 4.890625 17.1875 
L 4.890625 26.703125 
z
" id="DejaVuSans-52"/>
      </defs>
      <g transform="translate(95.222204 266.598437)scale(0.1 -0.1)">
       <use xlink:href="#DejaVuSans-52"/>
       <use x="63.623047" xlink:href="#DejaVuSans-48"/>
       <use x="127.246094" xlink:href="#DejaVuSans-48"/>
       <use x="190.869141" xlink:href="#DejaVuSans-48"/>
      </g>
     </g>
    </g>
    <g id="xtick_3">
     <g id="line2d_3">
      <g>
       <use style="stroke:#000000;stroke-width:0.8;" x="146.676225" xlink:href="#me8026168d5" y="252"/>
      </g>
     </g>
     <g id="text_3">
      <!-- 4500 -->
      <g transform="translate(133.951225 266.598437)scale(0.1 -0.1)">
       <use xlink:href="#DejaVuSans-52"/>
       <use x="63.623047" xlink:href="#DejaVuSans-53"/>
       <use x="127.246094" xlink:href="#DejaVuSans-48"/>
       <use x="190.869141" xlink:href="#DejaVuSans-48"/>
      </g>
     </g>
    </g>
    <g id="xtick_4">
     <g id="line2d_4">
      <g>
       <use style="stroke:#000000;stroke-width:0.8;" x="185.405247" xlink:href="#me8026168d5" y="252"/>
      </g>
     </g>
     <g id="text_4">
      <!-- 5000 -->
      <g transform="translate(172.680247 266.598437)scale(0.1 -0.1)">
       <use xlink:href="#DejaVuSans-53"/>
       <use x="63.623047" xlink:href="#DejaVuSans-48"/>
       <use x="127.246094" xlink:href="#DejaVuSans-48"/>
       <use x="190.869141" xlink:href="#DejaVuSans-48"/>
      </g>
     </g>
    </g>
    <g id="xtick_5">
     <g id="line2d_5">
      <g>
       <use style="stroke:#000000;stroke-width:0.8;" x="224.134269" xlink:href="#me8026168d5" y="252"/>
      </g>
     </g>
     <g id="text_5">
      <!-- 5500 -->
      <g transform="translate(211.409269 266.598437)scale(0.1 -0.1)">
       <use xlink:href="#DejaVuSans-53"/>
       <use x="63.623047" xlink:href="#DejaVuSans-53"/>
       <use x="127.246094" xlink:href="#DejaVuSans-48"/>
       <use x="190.869141" xlink:href="#DejaVuSans-48"/>
      </g>
     </g>
    </g>
    <g id="xtick_6">
     <g id="line2d_6">
      <g>
       <use style="stroke:#000000;stroke-width:0.8;" x="262.863291" xlink:href="#me8026168d5" y="252"/>
      </g>
     </g>
     <g id="text_6">
      <!-- 6000 -->
      <defs>
       <path d="M 33.015625 40.375 
Q 26.375 40.375 22.484375 35.828125 
Q 18.609375 31.296875 18.609375 23.390625 
Q 18.609375 15.53125 22.484375 10.953125 
Q 26.375 6.390625 33.015625 6.390625 
Q 39.65625 6.390625 43.53125 10.953125 
Q 47.40625 15.53125 47.40625 23.390625 
Q 47.40625 31.296875 43.53125 35.828125 
Q 39.65625 40.375 33.015625 40.375 
z
M 52.59375 71.296875 
L 52.59375 62.3125 
Q 48.875 64.0625 45.09375 64.984375 
Q 41.3125 65.921875 37.59375 65.921875 
Q 27.828125 65.921875 22.671875 59.328125 
Q 17.53125 52.734375 16.796875 39.40625 
Q 19.671875 43.65625 24.015625 45.921875 
Q 28.375 48.1875 33.59375 48.1875 
Q 44.578125 48.1875 50.953125 41.515625 
Q 57.328125 34.859375 57.328125 23.390625 
Q 57.328125 12.15625 50.6875 5.359375 
Q 44.046875 -1.421875 33.015625 -1.421875 
Q 20.359375 -1.421875 13.671875 8.265625 
Q 6.984375 17.96875 6.984375 36.375 
Q 6.984375 53.65625 15.1875 63.9375 
Q 23.390625 74.21875 37.203125 74.21875 
Q 40.921875 74.21875 44.703125 73.484375 
Q 48.484375 72.75 52.59375 71.296875 
z
" id="DejaVuSans-54"/>
      </defs>
      <g transform="translate(250.138291 266.598437)scale(0.1 -0.1)">
       <use xlink:href="#DejaVuSans-54"/>
       <use x="63.623047" xlink:href="#DejaVuSans-48"/>
       <use x="127.246094" xlink:href="#DejaVuSans-48"/>
       <use x="190.869141" xlink:href="#DejaVuSans-48"/>
      </g>
     </g>
    </g>
    <g id="xtick_7">
     <g id="line2d_7">
      <g>
       <use style="stroke:#000000;stroke-width:0.8;" x="301.592312" xlink:href="#me8026168d5" y="252"/>
      </g>
     </g>
     <g id="text_7">
      <!-- 6500 -->
      <g transform="translate(288.867312 266.598437)scale(0.1 -0.1)">
       <use xlink:href="#DejaVuSans-54"/>
       <use x="63.623047" xlink:href="#DejaVuSans-53"/>
       <use x="127.246094" xlink:href="#DejaVuSans-48"/>
       <use x="190.869141" xlink:href="#DejaVuSans-48"/>
      </g>
     </g>
    </g>
    <g id="xtick_8">
     <g id="line2d_8">
      <g>
       <use style="stroke:#000000;stroke-width:0.8;" x="340.321334" xlink:href="#me8026168d5" y="252"/>
      </g>
     </g>
     <g id="text_8">
      <!-- 7000 -->
      <defs>
       <path d="M 8.203125 72.90625 
L 55.078125 72.90625 
L 55.078125 68.703125 
L 28.609375 0 
L 18.3125 0 
L 43.21875 64.59375 
L 8.203125 64.59375 
z
" id="DejaVuSans-55"/>
      </defs>
      <g transform="translate(327.596334 266.598437)scale(0.1 -0.1)">
       <use xlink:href="#DejaVuSans-55"/>
       <use x="63.623047" xlink:href="#DejaVuSans-48"/>
       <use x="127.246094" xlink:href="#DejaVuSans-48"/>
       <use x="190.869141" xlink:href="#DejaVuSans-48"/>
      </g>
     </g>
    </g>
    <g id="xtick_9">
     <g id="line2d_9">
      <g>
       <use style="stroke:#000000;stroke-width:0.8;" x="379.050356" xlink:href="#me8026168d5" y="252"/>
      </g>
     </g>
     <g id="text_9">
      <!-- 7500 -->
      <g transform="translate(366.325356 266.598437)scale(0.1 -0.1)">
       <use xlink:href="#DejaVuSans-55"/>
       <use x="63.623047" xlink:href="#DejaVuSans-53"/>
       <use x="127.246094" xlink:href="#DejaVuSans-48"/>
       <use x="190.869141" xlink:href="#DejaVuSans-48"/>
      </g>
     </g>
    </g>
    <g id="text_10">
     <!-- $\lambda$ ($\AA$) -->
     <defs>
      <path d="M 36.71875 67.4375 
L 48.828125 0 
L 39.3125 0 
L 31.84375 40.4375 
L 5.125 0 
L -4.390625 0 
L 29.734375 52.4375 
L 28.03125 62.109375 
Q 26.953125 68.265625 21.734375 68.265625 
L 17.046875 68.265625 
L 18.5 75.984375 
L 24.21875 75.875 
Q 35.203125 75.734375 36.71875 67.4375 
z
" id="DejaVuSans-Oblique-955"/>
      <path id="DejaVuSans-32"/>
      <path d="M 31 75.875 
Q 24.46875 64.65625 21.28125 53.65625 
Q 18.109375 42.671875 18.109375 31.390625 
Q 18.109375 20.125 21.3125 9.0625 
Q 24.515625 -2 31 -13.1875 
L 23.1875 -13.1875 
Q 15.875 -1.703125 12.234375 9.375 
Q 8.59375 20.453125 8.59375 31.390625 
Q 8.59375 42.28125 12.203125 53.3125 
Q 15.828125 64.359375 23.1875 75.875 
z
" id="DejaVuSans-40"/>
      <path d="M 49.8125 79.390625 
Q 49.8125 82.46875 47.625 84.640625 
Q 45.453125 86.8125 42.390625 86.8125 
Q 39.265625 86.8125 37.140625 84.6875 
Q 35.015625 82.5625 35.015625 79.390625 
Q 35.015625 76.3125 37.140625 74.15625 
Q 39.265625 72.015625 42.390625 72.015625 
Q 45.453125 72.015625 47.625 74.15625 
Q 49.8125 76.3125 49.8125 79.390625 
z
M 34.421875 68.703125 
Q 31.78125 70.515625 30.390625 73.265625 
Q 29 76.03125 29 79.390625 
Q 29 84.96875 32.90625 88.890625 
Q 36.8125 92.828125 42.390625 92.828125 
Q 47.953125 92.828125 51.875 88.890625 
Q 55.8125 84.96875 55.8125 79.390625 
Q 55.8125 75.53125 54.03125 72.546875 
Q 52.25 69.578125 48.875 67.828125 
L 61.53125 0 
L 51.21875 0 
L 48.1875 18.703125 
L 15.375 18.703125 
L 5.078125 0 
L -5.328125 0 
z
M 40.375 63.1875 
L 19.921875 26.90625 
L 46.6875 26.90625 
z
" id="DejaVuSans-Oblique-197"/>
      <path d="M 8.015625 75.875 
L 15.828125 75.875 
Q 23.140625 64.359375 26.78125 53.3125 
Q 30.421875 42.28125 30.421875 31.390625 
Q 30.421875 20.453125 26.78125 9.375 
Q 23.140625 -1.703125 15.828125 -13.1875 
L 8.015625 -13.1875 
Q 14.5 -2 17.703125 9.0625 
Q 20.90625 20.125 20.90625 31.390625 
Q 20.90625 42.671875 17.703125 53.65625 
Q 14.5 64.65625 8.015625 75.875 
z
" id="DejaVuSans-41"/>
     </defs>
     <g transform="translate(209.5 281.298437)scale(0.1 -0.1)">
      <use transform="translate(0 0.171875)" xlink:href="#DejaVuSans-Oblique-955"/>
      <use transform="translate(59.179688 0.171875)" xlink:href="#DejaVuSans-32"/>
      <use transform="translate(90.966797 0.171875)" xlink:href="#DejaVuSans-40"/>
      <use transform="translate(129.980469 0.171875)" xlink:href="#DejaVuSans-Oblique-197"/>
      <use transform="translate(198.388672 0.171875)" xlink:href="#DejaVuSans-41"/>
     </g>
    </g>
   </g>
   <g id="matplotlib.axis_2">
    <g id="ytick_1">
     <g id="line2d_10">
      <defs>
       <path d="M 0 0 
L -3.5 0 
" id="m42d3cef2c9" style="stroke:#000000;stroke-width:0.8;"/>
      </defs>
      <g>
       <use style="stroke:#000000;stroke-width:0.8;" x="54" xlink:href="#m42d3cef2c9" y="242.116364"/>
      </g>
     </g>
     <g id="text_11">
      <!-- 0.000 -->
      <defs>
       <path d="M 10.6875 12.40625 
L 21 12.40625 
L 21 0 
L 10.6875 0 
z
" id="DejaVuSans-46"/>
      </defs>
      <g transform="translate(18.371875 245.915582)scale(0.1 -0.1)">
       <use xlink:href="#DejaVuSans-48"/>
       <use x="63.623047" xlink:href="#DejaVuSans-46"/>
       <use x="95.410156" xlink:href="#DejaVuSans-48"/>
       <use x="159.033203" xlink:href="#DejaVuSans-48"/>
       <use x="222.65625" xlink:href="#DejaVuSans-48"/>
      </g>
     </g>
    </g>
    <g id="ytick_2">
     <g id="line2d_11">
      <g>
       <use style="stroke:#000000;stroke-width:0.8;" x="54" xlink:href="#m42d3cef2c9" y="208.630934"/>
      </g>
     </g>
     <g id="text_12">
      <!-- 0.005 -->
      <g transform="translate(18.371875 212.430152)scale(0.1 -0.1)">
       <use xlink:href="#DejaVuSans-48"/>
       <use x="63.623047" xlink:href="#DejaVuSans-46"/>
       <use x="95.410156" xlink:href="#DejaVuSans-48"/>
       <use x="159.033203" xlink:href="#DejaVuSans-48"/>
       <use x="222.65625" xlink:href="#DejaVuSans-53"/>
      </g>
     </g>
    </g>
    <g id="ytick_3">
     <g id="line2d_12">
      <g>
       <use style="stroke:#000000;stroke-width:0.8;" x="54" xlink:href="#m42d3cef2c9" y="175.145503"/>
      </g>
     </g>
     <g id="text_13">
      <!-- 0.010 -->
      <defs>
       <path d="M 12.40625 8.296875 
L 28.515625 8.296875 
L 28.515625 63.921875 
L 10.984375 60.40625 
L 10.984375 69.390625 
L 28.421875 72.90625 
L 38.28125 72.90625 
L 38.28125 8.296875 
L 54.390625 8.296875 
L 54.390625 0 
L 12.40625 0 
z
" id="DejaVuSans-49"/>
      </defs>
      <g transform="translate(18.371875 178.944722)scale(0.1 -0.1)">
       <use xlink:href="#DejaVuSans-48"/>
       <use x="63.623047" xlink:href="#DejaVuSans-46"/>
       <use x="95.410156" xlink:href="#DejaVuSans-48"/>
       <use x="159.033203" xlink:href="#DejaVuSans-49"/>
       <use x="222.65625" xlink:href="#DejaVuSans-48"/>
      </g>
     </g>
    </g>
    <g id="ytick_4">
     <g id="line2d_13">
      <g>
       <use style="stroke:#000000;stroke-width:0.8;" x="54" xlink:href="#m42d3cef2c9" y="141.660073"/>
      </g>
     </g>
     <g id="text_14">
      <!-- 0.015 -->
      <g transform="translate(18.371875 145.459292)scale(0.1 -0.1)">
       <use xlink:href="#DejaVuSans-48"/>
       <use x="63.623047" xlink:href="#DejaVuSans-46"/>
       <use x="95.410156" xlink:href="#DejaVuSans-48"/>
       <use x="159.033203" xlink:href="#DejaVuSans-49"/>
       <use x="222.65625" xlink:href="#DejaVuSans-53"/>
      </g>
     </g>
    </g>
    <g id="ytick_5">
     <g id="line2d_14">
      <g>
       <use style="stroke:#000000;stroke-width:0.8;" x="54" xlink:href="#m42d3cef2c9" y="108.174643"/>
      </g>
     </g>
     <g id="text_15">
      <!-- 0.020 -->
      <defs>
       <path d="M 19.1875 8.296875 
L 53.609375 8.296875 
L 53.609375 0 
L 7.328125 0 
L 7.328125 8.296875 
Q 12.9375 14.109375 22.625 23.890625 
Q 32.328125 33.6875 34.8125 36.53125 
Q 39.546875 41.84375 41.421875 45.53125 
Q 43.3125 49.21875 43.3125 52.78125 
Q 43.3125 58.59375 39.234375 62.25 
Q 35.15625 65.921875 28.609375 65.921875 
Q 23.96875 65.921875 18.8125 64.3125 
Q 13.671875 62.703125 7.8125 59.421875 
L 7.8125 69.390625 
Q 13.765625 71.78125 18.9375 73 
Q 24.125 74.21875 28.421875 74.21875 
Q 39.75 74.21875 46.484375 68.546875 
Q 53.21875 62.890625 53.21875 53.421875 
Q 53.21875 48.921875 51.53125 44.890625 
Q 49.859375 40.875 45.40625 35.40625 
Q 44.1875 33.984375 37.640625 27.21875 
Q 31.109375 20.453125 19.1875 8.296875 
z
" id="DejaVuSans-50"/>
      </defs>
      <g transform="translate(18.371875 111.973862)scale(0.1 -0.1)">
       <use xlink:href="#DejaVuSans-48"/>
       <use x="63.623047" xlink:href="#DejaVuSans-46"/>
       <use x="95.410156" xlink:href="#DejaVuSans-48"/>
       <use x="159.033203" xlink:href="#DejaVuSans-50"/>
       <use x="222.65625" xlink:href="#DejaVuSans-48"/>
      </g>
     </g>
    </g>
    <g id="ytick_6">
     <g id="line2d_15">
      <g>
       <use style="stroke:#000000;stroke-width:0.8;" x="54" xlink:href="#m42d3cef2c9" y="74.689213"/>
      </g>
     </g>
     <g id="text_16">
      <!-- 0.025 -->
      <g transform="translate(18.371875 78.488432)scale(0.1 -0.1)">
       <use xlink:href="#DejaVuSans-48"/>
       <use x="63.623047" xlink:href="#DejaVuSans-46"/>
       <use x="95.410156" xlink:href="#DejaVuSans-48"/>
       <use x="159.033203" xlink:href="#DejaVuSans-50"/>
       <use x="222.65625" xlink:href="#DejaVuSans-53"/>
      </g>
     </g>
    </g>
    <g id="ytick_7">
     <g id="line2d_16">
      <g>
       <use style="stroke:#000000;stroke-width:0.8;" x="54" xlink:href="#m42d3cef2c9" y="41.203783"/>
      </g>
     </g>
     <g id="text_17">
      <!-- 0.030 -->
      <g transform="translate(18.371875 45.003002)scale(0.1 -0.1)">
       <use xlink:href="#DejaVuSans-48"/>
       <use x="63.623047" xlink:href="#DejaVuSans-46"/>
       <use x="95.410156" xlink:href="#DejaVuSans-48"/>
       <use x="159.033203" xlink:href="#DejaVuSans-51"/>
       <use x="222.65625" xlink:href="#DejaVuSans-48"/>
      </g>
     </g>
    </g>
    <g id="text_18">
     <!-- relative flux -->
     <defs>
      <path d="M 41.109375 46.296875 
Q 39.59375 47.171875 37.8125 47.578125 
Q 36.03125 48 33.890625 48 
Q 26.265625 48 22.1875 43.046875 
Q 18.109375 38.09375 18.109375 28.8125 
L 18.109375 0 
L 9.078125 0 
L 9.078125 54.6875 
L 18.109375 54.6875 
L 18.109375 46.1875 
Q 20.953125 51.171875 25.484375 53.578125 
Q 30.03125 56 36.53125 56 
Q 37.453125 56 38.578125 55.875 
Q 39.703125 55.765625 41.0625 55.515625 
z
" id="DejaVuSans-114"/>
      <path d="M 56.203125 29.59375 
L 56.203125 25.203125 
L 14.890625 25.203125 
Q 15.484375 15.921875 20.484375 11.0625 
Q 25.484375 6.203125 34.421875 6.203125 
Q 39.59375 6.203125 44.453125 7.46875 
Q 49.3125 8.734375 54.109375 11.28125 
L 54.109375 2.78125 
Q 49.265625 0.734375 44.1875 -0.34375 
Q 39.109375 -1.421875 33.890625 -1.421875 
Q 20.796875 -1.421875 13.15625 6.1875 
Q 5.515625 13.8125 5.515625 26.8125 
Q 5.515625 40.234375 12.765625 48.109375 
Q 20.015625 56 32.328125 56 
Q 43.359375 56 49.78125 48.890625 
Q 56.203125 41.796875 56.203125 29.59375 
z
M 47.21875 32.234375 
Q 47.125 39.59375 43.09375 43.984375 
Q 39.0625 48.390625 32.421875 48.390625 
Q 24.90625 48.390625 20.390625 44.140625 
Q 15.875 39.890625 15.1875 32.171875 
z
" id="DejaVuSans-101"/>
      <path d="M 9.421875 75.984375 
L 18.40625 75.984375 
L 18.40625 0 
L 9.421875 0 
z
" id="DejaVuSans-108"/>
      <path d="M 34.28125 27.484375 
Q 23.390625 27.484375 19.1875 25 
Q 14.984375 22.515625 14.984375 16.5 
Q 14.984375 11.71875 18.140625 8.90625 
Q 21.296875 6.109375 26.703125 6.109375 
Q 34.1875 6.109375 38.703125 11.40625 
Q 43.21875 16.703125 43.21875 25.484375 
L 43.21875 27.484375 
z
M 52.203125 31.203125 
L 52.203125 0 
L 43.21875 0 
L 43.21875 8.296875 
Q 40.140625 3.328125 35.546875 0.953125 
Q 30.953125 -1.421875 24.3125 -1.421875 
Q 15.921875 -1.421875 10.953125 3.296875 
Q 6 8.015625 6 15.921875 
Q 6 25.140625 12.171875 29.828125 
Q 18.359375 34.515625 30.609375 34.515625 
L 43.21875 34.515625 
L 43.21875 35.40625 
Q 43.21875 41.609375 39.140625 45 
Q 35.0625 48.390625 27.6875 48.390625 
Q 23 48.390625 18.546875 47.265625 
Q 14.109375 46.140625 10.015625 43.890625 
L 10.015625 52.203125 
Q 14.9375 54.109375 19.578125 55.046875 
Q 24.21875 56 28.609375 56 
Q 40.484375 56 46.34375 49.84375 
Q 52.203125 43.703125 52.203125 31.203125 
z
" id="DejaVuSans-97"/>
      <path d="M 18.3125 70.21875 
L 18.3125 54.6875 
L 36.8125 54.6875 
L 36.8125 47.703125 
L 18.3125 47.703125 
L 18.3125 18.015625 
Q 18.3125 11.328125 20.140625 9.421875 
Q 21.96875 7.515625 27.59375 7.515625 
L 36.8125 7.515625 
L 36.8125 0 
L 27.59375 0 
Q 17.1875 0 13.234375 3.875 
Q 9.28125 7.765625 9.28125 18.015625 
L 9.28125 47.703125 
L 2.6875 47.703125 
L 2.6875 54.6875 
L 9.28125 54.6875 
L 9.28125 70.21875 
z
" id="DejaVuSans-116"/>
      <path d="M 9.421875 54.6875 
L 18.40625 54.6875 
L 18.40625 0 
L 9.421875 0 
z
M 9.421875 75.984375 
L 18.40625 75.984375 
L 18.40625 64.59375 
L 9.421875 64.59375 
z
" id="DejaVuSans-105"/>
      <path d="M 2.984375 54.6875 
L 12.5 54.6875 
L 29.59375 8.796875 
L 46.6875 54.6875 
L 56.203125 54.6875 
L 35.6875 0 
L 23.484375 0 
z
" id="DejaVuSans-118"/>
      <path d="M 37.109375 75.984375 
L 37.109375 68.5 
L 28.515625 68.5 
Q 23.6875 68.5 21.796875 66.546875 
Q 19.921875 64.59375 19.921875 59.515625 
L 19.921875 54.6875 
L 34.71875 54.6875 
L 34.71875 47.703125 
L 19.921875 47.703125 
L 19.921875 0 
L 10.890625 0 
L 10.890625 47.703125 
L 2.296875 47.703125 
L 2.296875 54.6875 
L 10.890625 54.6875 
L 10.890625 58.5 
Q 10.890625 67.625 15.140625 71.796875 
Q 19.390625 75.984375 28.609375 75.984375 
z
" id="DejaVuSans-102"/>
      <path d="M 8.5 21.578125 
L 8.5 54.6875 
L 17.484375 54.6875 
L 17.484375 21.921875 
Q 17.484375 14.15625 20.5 10.265625 
Q 23.53125 6.390625 29.59375 6.390625 
Q 36.859375 6.390625 41.078125 11.03125 
Q 45.3125 15.671875 45.3125 23.6875 
L 45.3125 54.6875 
L 54.296875 54.6875 
L 54.296875 0 
L 45.3125 0 
L 45.3125 8.40625 
Q 42.046875 3.421875 37.71875 1 
Q 33.40625 -1.421875 27.6875 -1.421875 
Q 18.265625 -1.421875 13.375 4.4375 
Q 8.5 10.296875 8.5 21.578125 
z
M 31.109375 56 
z
" id="DejaVuSans-117"/>
      <path d="M 54.890625 54.6875 
L 35.109375 28.078125 
L 55.90625 0 
L 45.3125 0 
L 29.390625 21.484375 
L 13.484375 0 
L 2.875 0 
L 24.125 28.609375 
L 4.6875 54.6875 
L 15.28125 54.6875 
L 29.78125 35.203125 
L 44.28125 54.6875 
z
" id="DejaVuSans-120"/>
     </defs>
     <g transform="translate(12.292187 173.115156)rotate(-90)scale(0.1 -0.1)">
      <use xlink:href="#DejaVuSans-114"/>
      <use x="41.082031" xlink:href="#DejaVuSans-101"/>
      <use x="102.605469" xlink:href="#DejaVuSans-108"/>
      <use x="130.388672" xlink:href="#DejaVuSans-97"/>
      <use x="191.667969" xlink:href="#DejaVuSans-116"/>
      <use x="230.876953" xlink:href="#DejaVuSans-105"/>
      <use x="258.660156" xlink:href="#DejaVuSans-118"/>
      <use x="317.839844" xlink:href="#DejaVuSans-101"/>
      <use x="379.363281" xlink:href="#DejaVuSans-32"/>
      <use x="411.150391" xlink:href="#DejaVuSans-102"/>
      <use x="446.355469" xlink:href="#DejaVuSans-108"/>
      <use x="474.138672" xlink:href="#DejaVuSans-117"/>
      <use x="537.517578" xlink:href="#DejaVuSans-120"/>
     </g>
    </g>
   </g>
   <g id="line2d_17">
    <path clip-path="url(#p18c9418672)" d="M 69.218182 242.116364 
L 106.095956 242.116364 
L 106.165669 147.658456 
L 106.235381 147.953011 
L 106.444518 143.841974 
L 106.583942 142.523019 
L 107.420489 123.459301 
L 107.699338 114.022824 
L 107.76905 113.539011 
L 108.39646 100.072473 
L 108.466172 99.671269 
L 108.535885 98.066904 
L 108.605597 99.128703 
L 108.884446 95.399001 
L 108.954158 95.44707 
L 109.233007 90.006807 
L 109.442144 86.86193 
L 109.720993 83.192224 
L 109.790705 83.357935 
L 109.860417 82.853219 
L 109.999842 79.784556 
L 110.139266 81.662509 
L 110.208978 81.201893 
L 110.278691 81.268892 
L 110.487827 76.236542 
L 110.55754 75.92995 
L 110.766676 77.408064 
L 110.836389 72.475269 
L 110.906101 73.041199 
L 110.975813 73.322799 
L 111.045525 72.912454 
L 111.18495 70.231447 
L 111.254662 70.940841 
L 111.324374 70.431811 
L 111.394087 72.252418 
L 111.533511 67.811292 
L 111.603223 68.137243 
L 111.742648 69.172075 
L 111.882072 65.484462 
L 111.951784 66.757824 
L 112.021497 65.691991 
L 112.091209 65.725148 
L 112.230633 67.330265 
L 112.300346 66.927209 
L 112.43977 62.362814 
L 112.579195 65.735074 
L 112.718619 64.557476 
L 112.788331 65.053412 
L 112.858044 66.549117 
L 112.927756 65.51891 
L 113.136893 66.700383 
L 113.276317 65.813038 
L 113.346029 66.959104 
L 113.415741 66.422498 
L 113.485454 66.373003 
L 113.555166 65.940365 
L 113.69459 67.884253 
L 113.764303 67.789591 
L 113.903727 69.517148 
L 114.391713 84.998904 
L 114.461425 85.528783 
L 114.949411 100.230262 
L 115.019123 102.757059 
L 115.088835 101.702231 
L 115.437396 106.41964 
L 115.507109 106.659029 
L 115.646533 107.74184 
L 115.716245 106.299344 
L 115.785958 106.830644 
L 115.85567 105.901067 
L 115.925382 105.91642 
L 115.995094 107.192238 
L 116.064807 106.343888 
L 116.204231 107.80984 
L 116.413368 103.108681 
L 116.48308 102.656422 
L 116.552792 103.382355 
L 118.016749 60.33895 
L 118.086462 59.915372 
L 118.156174 60.326583 
L 118.225886 59.914416 
L 118.435023 55.003146 
L 118.574447 55.284401 
L 118.853296 52.389118 
L 118.992721 49.2231 
L 119.132145 49.505775 
L 119.201857 49.441311 
L 119.27157 50.14605 
L 119.341282 48.166766 
L 119.410994 49.11688 
L 119.620131 46.530797 
L 119.759555 47.985462 
L 119.829267 47.420627 
L 119.89898 47.682196 
L 119.968692 47.180411 
L 120.108116 48.324273 
L 120.317253 48.856701 
L 120.386965 48.334038 
L 120.52639 46.006073 
L 120.735527 49.070955 
L 120.805239 48.084565 
L 120.874951 48.304318 
L 120.944663 49.976254 
L 121.014376 49.923174 
L 121.1538 47.73706 
L 121.223512 46.414907 
L 121.362937 48.146497 
L 121.432649 47.539363 
L 121.572073 49.403121 
L 121.641786 49.376945 
L 121.711498 48.358379 
L 121.78121 48.777213 
L 121.850922 51.317048 
L 121.920635 50.366758 
L 122.129771 47.856333 
L 122.269196 49.534293 
L 122.338908 47.655986 
L 122.40862 48.064722 
L 122.478333 48.048108 
L 122.548045 49.182036 
L 122.617757 48.682967 
L 122.826894 46.712689 
L 122.896606 47.741585 
L 123.03603 44.890645 
L 123.105743 45.506411 
L 123.175455 46.105676 
L 123.245167 45.754675 
L 123.314879 45.602932 
L 123.384592 45.953468 
L 123.524016 44.443636 
L 123.593728 44.560007 
L 123.733153 45.558557 
L 123.802865 44.63005 
L 123.94229 47.578315 
L 124.081714 46.946948 
L 124.499988 49.730682 
L 124.639412 47.258945 
L 124.778836 49.375665 
L 124.848549 48.845143 
L 124.918261 48.623332 
L 124.987973 48.690843 
L 125.266822 48.38972 
L 125.406247 49.253874 
L 125.475959 48.851297 
L 125.545671 49.835178 
L 125.615383 49.770192 
L 125.754808 49.234466 
L 125.894232 49.839437 
L 125.963945 48.922332 
L 126.033657 49.238137 
L 126.103369 50.944254 
L 126.173081 50.371654 
L 126.242793 49.058085 
L 126.312506 49.845774 
L 126.382218 52.352278 
L 126.521642 49.526036 
L 126.730779 51.113904 
L 126.800491 50.997361 
L 126.870204 49.758306 
L 126.939916 51.639013 
L 127.009628 51.215667 
L 127.07934 52.0663 
L 127.218765 50.775219 
L 127.288477 51.038503 
L 127.358189 51.600979 
L 127.427902 50.420435 
L 127.567326 53.631359 
L 127.706751 52.849099 
L 127.776463 53.111294 
L 127.846175 53.03135 
L 127.915887 52.490354 
L 127.985599 50.6712 
L 128.125024 53.23462 
L 128.194736 52.858353 
L 128.264448 53.021496 
L 128.403873 56.149944 
L 128.543297 53.32236 
L 128.61301 53.305083 
L 128.822146 57.345879 
L 128.891859 56.57962 
L 128.961571 57.101951 
L 129.031283 56.443964 
L 129.100995 56.720177 
L 129.449556 61.72128 
L 129.519269 61.302654 
L 129.658693 63.144289 
L 129.728405 63.125412 
L 129.798118 62.664357 
L 129.86783 62.879673 
L 129.937542 62.788645 
L 130.146679 64.604329 
L 130.286103 66.522393 
L 130.355816 65.410266 
L 130.425528 65.51345 
L 130.634665 67.599155 
L 130.704377 67.490424 
L 130.774089 67.643727 
L 130.843801 68.331907 
L 130.913514 68.115774 
L 131.052938 69.145995 
L 131.192362 70.860119 
L 131.262075 70.960761 
L 131.471211 73.686272 
L 131.540924 73.598174 
L 131.610636 75.157831 
L 131.680348 75.009313 
L 131.75006 74.917821 
L 133.214017 111.488554 
L 133.28373 111.382145 
L 133.492866 114.215248 
L 133.562579 113.159012 
L 133.632291 113.222177 
L 133.771715 114.887878 
L 133.841428 112.911595 
L 133.91114 113.551918 
L 134.050564 115.288431 
L 134.120277 114.984833 
L 134.259701 113.221474 
L 134.329413 113.995822 
L 134.399125 113.748499 
L 134.468838 111.8881 
L 134.53855 111.991693 
L 134.677974 110.689457 
L 135.026536 103.614444 
L 135.375097 91.63251 
L 135.723658 84.812159 
L 135.79337 84.765601 
L 135.863082 84.183337 
L 136.002507 80.234994 
L 136.072219 80.537826 
L 136.141931 80.793644 
L 136.211644 80.577625 
L 136.281356 80.81717 
L 136.490493 78.71217 
L 136.560205 79.080475 
L 136.699629 80.406764 
L 136.839054 78.582779 
L 137.048191 81.139125 
L 137.117903 81.092324 
L 137.187615 80.36008 
L 137.32704 80.991818 
L 137.536176 79.39834 
L 137.675601 80.8972 
L 137.745313 80.717256 
L 137.884737 79.735509 
L 137.95445 78.424619 
L 138.024162 79.157542 
L 138.163586 80.839204 
L 138.233299 80.585696 
L 138.303011 82.166254 
L 138.372723 81.841911 
L 138.442435 82.447359 
L 138.58186 81.117207 
L 138.790997 81.889115 
L 138.860709 80.561209 
L 138.930421 80.952655 
L 139.000133 81.474841 
L 139.069846 81.329357 
L 139.20927 80.52104 
L 139.278982 81.9086 
L 139.488119 79.133608 
L 139.557831 78.839814 
L 139.627543 79.068193 
L 139.697256 80.000122 
L 139.766968 79.550271 
L 139.83668 79.752229 
L 139.906392 79.208429 
L 140.045817 80.403588 
L 140.254954 78.579543 
L 140.324666 80.180284 
L 140.394378 80.0094 
L 140.46409 79.959165 
L 140.742939 80.815307 
L 140.812651 80.242433 
L 140.882364 81.538966 
L 140.952076 80.972057 
L 141.021788 80.699139 
L 141.0915 81.159311 
L 141.161213 81.116133 
L 141.230925 81.264544 
L 141.300637 79.575304 
L 141.440062 81.898327 
L 141.649198 80.628088 
L 141.718911 81.03457 
L 141.788623 82.328943 
L 141.858335 81.225018 
L 142.206896 84.645852 
L 142.276609 84.84615 
L 142.346321 84.616399 
L 142.416033 85.53683 
L 142.485745 85.439605 
L 142.555457 84.654618 
L 142.764594 86.852978 
L 142.834306 86.495717 
L 142.973731 86.511654 
L 143.043443 86.881624 
L 143.113155 88.120418 
L 143.182868 87.87355 
L 143.25258 86.935426 
L 143.531429 89.222706 
L 143.601141 89.074083 
L 143.740566 89.728301 
L 143.87999 90.985487 
L 143.949702 90.838153 
L 144.089127 91.974787 
L 144.228551 92.921338 
L 144.298263 92.440424 
L 144.577112 93.636932 
L 144.716537 93.138105 
L 144.995386 94.340401 
L 145.13481 93.289239 
L 145.343947 94.889759 
L 145.413659 95.178721 
L 145.483372 94.733016 
L 145.553084 95.34887 
L 145.622796 97.392636 
L 145.76222 95.933184 
L 145.971357 96.874991 
L 146.041069 96.638462 
L 146.250206 97.719725 
L 146.598767 99.957337 
L 146.738192 98.056862 
L 146.947329 99.131203 
L 147.017041 98.797194 
L 147.156465 99.693467 
L 147.29589 99.158993 
L 147.365602 99.222506 
L 147.505026 99.785696 
L 147.644451 99.050776 
L 147.783875 100.401861 
L 147.9233 99.936401 
L 147.993012 100.690546 
L 148.132437 99.956977 
L 148.55071 103.265644 
L 148.620422 102.808786 
L 148.759847 104.062796 
L 148.899271 103.650125 
L 149.038696 105.39719 
L 149.17812 104.302265 
L 149.317545 105.233536 
L 149.387257 105.830888 
L 149.456969 105.721114 
L 149.526681 105.730699 
L 149.735818 107.037065 
L 149.875243 107.580635 
L 149.944955 108.247294 
L 150.014667 107.661885 
L 150.084379 108.353223 
L 150.154092 108.326605 
L 150.223804 108.479315 
L 150.363228 109.488215 
L 150.502653 109.095929 
L 150.642077 110.24362 
L 150.711789 110.26006 
L 150.851214 111.564938 
L 150.920926 112.160665 
L 150.990638 111.576396 
L 151.060351 112.092633 
L 151.130063 111.903017 
L 151.199775 111.480638 
L 151.269487 111.779858 
L 151.3392 112.822133 
L 151.408912 112.574436 
L 151.478624 112.480002 
L 151.548336 111.60622 
L 151.618049 111.645795 
L 151.687761 111.81992 
L 151.827185 111.484799 
L 151.96661 112.834335 
L 152.036322 111.982252 
L 152.106034 112.418403 
L 152.175746 112.522492 
L 152.245459 111.968246 
L 152.315171 112.179695 
L 152.384883 112.2097 
L 152.524308 112.947092 
L 152.663732 112.754038 
L 152.803157 113.394708 
L 152.872869 113.303851 
L 152.942581 113.437106 
L 153.012293 113.029174 
L 153.082006 113.166889 
L 153.151718 113.145107 
L 153.22143 112.793289 
L 153.291142 112.890298 
L 153.360855 112.974314 
L 153.430567 112.318526 
L 153.500279 112.554588 
L 153.639703 112.889914 
L 153.709416 112.866054 
L 153.84884 113.048065 
L 153.918552 113.72188 
L 153.988265 113.468747 
L 154.127689 114.059172 
L 154.267114 112.609879 
L 154.336826 113.932745 
L 154.406538 113.130185 
L 154.615675 114.403087 
L 154.894524 116.51193 
L 155.033948 115.69558 
L 155.243085 116.960498 
L 155.382509 117.292462 
L 155.591646 118.22572 
L 155.661358 117.685057 
L 155.731071 117.904551 
L 155.800783 117.707223 
L 156.149344 118.923236 
L 156.219056 118.27242 
L 156.358481 119.634012 
L 156.497905 118.728473 
L 156.567618 118.778673 
L 156.63733 118.324729 
L 156.707042 119.050482 
L 156.776754 118.355425 
L 156.916179 119.376186 
L 157.055603 118.924758 
L 157.26474 119.983267 
L 157.473877 119.372639 
L 157.543589 119.085986 
L 157.613301 119.160255 
L 157.752726 120.171654 
L 157.822438 119.656242 
L 157.89215 119.797791 
L 157.961862 120.078579 
L 158.031575 119.958577 
L 158.101287 119.618175 
L 158.170999 119.969239 
L 158.240711 119.610528 
L 158.310424 119.980709 
L 158.449848 119.568497 
L 158.589272 119.577343 
L 158.658985 120.666322 
L 158.728697 119.463657 
L 158.868121 120.770476 
L 158.937834 120.65784 
L 159.007546 120.719587 
L 159.077258 120.8864 
L 159.14697 119.79012 
L 159.356107 121.167047 
L 159.495532 120.926402 
L 159.565244 121.183771 
L 159.634956 120.505469 
L 159.704668 120.665291 
L 159.913805 121.610183 
L 160.05323 120.912579 
L 160.122942 121.078324 
L 160.262366 121.701596 
L 160.332078 120.912362 
L 160.401791 120.970208 
L 160.610927 122.827414 
L 160.68064 121.959296 
L 160.889776 123.625729 
L 161.098913 123.917795 
L 161.168625 123.341051 
L 161.517187 124.748274 
L 161.656611 124.137474 
L 161.726323 125.017167 
L 161.796035 124.623062 
L 161.865748 124.831011 
L 162.074884 126.39691 
L 162.144597 126.728743 
L 162.214309 126.49159 
L 162.56287 127.717663 
L 162.702295 127.881989 
L 162.841719 127.254419 
L 163.050856 128.901393 
L 163.19028 128.312877 
L 163.329705 129.238667 
L 163.399417 129.206588 
L 163.538841 130.308694 
L 163.608554 129.909453 
L 163.678266 130.000849 
L 163.887403 129.710695 
L 163.957115 129.665559 
L 164.096539 130.750907 
L 164.166252 130.587248 
L 164.514813 131.330292 
L 164.584525 131.126597 
L 164.654237 131.239799 
L 164.793662 131.946527 
L 164.863374 131.806521 
L 164.933086 131.433653 
L 165.211935 133.392332 
L 165.281647 133.157492 
L 165.421072 132.053055 
L 165.490784 132.739573 
L 165.560496 132.716508 
L 165.699921 133.189157 
L 165.769633 133.047452 
L 165.909058 132.664735 
L 166.118194 133.984169 
L 166.257619 132.974789 
L 166.327331 133.214673 
L 166.397043 133.131085 
L 166.466756 132.838212 
L 166.60618 133.60576 
L 166.675892 133.546494 
L 166.745604 133.553829 
L 166.885029 134.228366 
L 166.954741 133.854823 
L 167.024453 134.01831 
L 167.163878 134.70625 
L 167.373015 133.959632 
L 167.512439 134.780452 
L 167.582151 134.751514 
L 167.651864 134.864779 
L 167.791288 134.357443 
L 167.930713 135.575077 
L 168.070137 134.787329 
L 168.139849 134.818694 
L 168.279274 135.680691 
L 168.348986 135.353606 
L 168.418698 135.581859 
L 168.48841 135.240288 
L 168.558123 136.037915 
L 168.627835 135.886634 
L 168.697547 135.758038 
L 168.906684 136.285867 
L 168.976396 136.78499 
L 169.046108 136.306417 
L 169.115821 136.346721 
L 169.255245 136.928361 
L 169.464382 136.463971 
L 169.673519 137.448355 
L 169.743231 137.476344 
L 170.300929 139.047131 
L 170.370641 139.369505 
L 170.440353 139.130999 
L 170.719202 140.450156 
L 170.788914 140.250613 
L 170.928339 140.209006 
L 171.2769 143.186303 
L 171.346612 143.538654 
L 171.416324 143.522826 
L 171.486037 144.988255 
L 171.555749 144.704262 
L 171.625461 144.821121 
L 172.53172 158.976802 
L 172.810569 163.326484 
L 172.880282 163.542821 
L 173.15913 166.519243 
L 173.298555 166.717302 
L 173.577404 168.589173 
L 173.647116 168.612354 
L 174.06539 169.84593 
L 174.135102 169.781221 
L 174.274526 169.318699 
L 174.344239 169.400499 
L 174.413951 169.977973 
L 174.623087 168.496824 
L 174.762512 167.629712 
L 175.180785 162.428733 
L 175.738483 155.513015 
L 176.017332 153.666659 
L 176.087045 153.760325 
L 176.505318 151.308335 
L 176.644742 151.299959 
L 176.993304 150.221259 
L 177.063016 150.916006 
L 177.132728 150.691372 
L 177.272153 149.806137 
L 177.411577 150.395266 
L 177.481289 150.087045 
L 177.551002 150.268141 
L 177.690426 150.071857 
L 177.82985 150.881336 
L 177.969275 150.006582 
L 178.038987 150.589057 
L 178.178412 150.049256 
L 178.248124 150.231381 
L 178.317836 150.129858 
L 178.596685 148.949148 
L 178.666397 149.062576 
L 178.875534 150.265725 
L 178.945246 149.507024 
L 179.014959 149.595919 
L 179.084671 149.211789 
L 179.154383 149.324218 
L 179.293808 149.669388 
L 179.36352 149.654725 
L 179.502944 150.563972 
L 179.572656 149.728324 
L 179.642369 149.799111 
L 179.712081 149.977478 
L 179.781793 149.896834 
L 180.060642 148.719799 
L 180.130354 148.758883 
L 180.200067 149.140628 
L 180.269779 149.098099 
L 180.409203 148.70362 
L 180.478916 149.083721 
L 180.548628 148.675974 
L 180.688052 149.219156 
L 180.757765 149.07251 
L 180.827477 149.203962 
L 180.897189 149.735561 
L 181.106326 148.869819 
L 181.24575 149.851134 
L 181.315462 149.592591 
L 181.385175 149.747021 
L 181.733736 150.531905 
L 181.87316 150.375033 
L 182.361146 151.569656 
L 182.430858 151.2999 
L 182.500571 151.435477 
L 182.570283 151.271913 
L 182.988556 152.560314 
L 183.40683 153.327934 
L 183.476542 153.235638 
L 183.685679 154.34866 
L 183.755391 154.132582 
L 183.894815 153.797137 
L 183.964528 153.882979 
L 184.173664 155.239208 
L 184.243377 155.303837 
L 185.079923 158.304144 
L 185.219348 157.98848 
L 185.28906 158.556647 
L 185.358772 158.38595 
L 185.428485 158.518779 
L 185.498197 159.028395 
L 185.637621 158.538286 
L 185.707334 159.036562 
L 185.777046 158.979276 
L 185.846758 158.789573 
L 185.91647 158.896817 
L 186.125607 159.219615 
L 186.195319 158.634315 
L 186.474168 159.73461 
L 186.54388 159.582141 
L 186.613593 159.733414 
L 186.683305 159.588912 
L 186.753017 159.63422 
L 186.892442 159.603504 
L 187.101578 159.315969 
L 187.241003 159.67305 
L 187.310715 159.638146 
L 187.519852 158.778819 
L 187.589564 159.055085 
L 187.938125 158.21884 
L 188.07755 158.939473 
L 188.147262 158.560947 
L 188.216974 158.852342 
L 188.286686 158.61724 
L 188.426111 159.222241 
L 188.565535 158.918847 
L 188.774672 159.103861 
L 188.844384 158.539872 
L 188.914097 158.641114 
L 188.983809 158.919747 
L 189.053521 158.873493 
L 189.123233 158.789781 
L 189.33237 159.41627 
L 189.471794 158.810942 
L 189.680931 159.094918 
L 189.750643 158.879578 
L 189.95978 159.568232 
L 190.099205 159.125989 
L 190.168917 159.238797 
L 190.238629 159.158922 
L 190.308341 159.139346 
L 190.517478 159.716612 
L 190.58719 159.820596 
L 190.726615 159.478082 
L 190.866039 159.924228 
L 190.935751 159.929136 
L 191.144888 160.760912 
L 191.2146 160.775324 
L 191.354025 160.328615 
L 191.423737 161.072416 
L 191.493449 160.829368 
L 191.772298 161.516244 
L 191.911723 161.257721 
L 191.981435 161.381359 
L 192.051147 161.843447 
L 192.12086 161.405905 
L 192.329996 162.356577 
L 192.469421 162.185277 
L 192.539133 162.642388 
L 192.608845 161.869313 
L 192.678557 162.12109 
L 193.027119 163.077151 
L 193.096831 162.706076 
L 193.166543 163.054386 
L 193.305968 162.811352 
L 193.654529 164.037327 
L 193.793953 163.54548 
L 193.933378 163.834387 
L 194.00309 163.766249 
L 194.072802 164.200852 
L 194.142514 163.88802 
L 194.212227 164.245559 
L 194.281939 164.107364 
L 194.421363 164.41961 
L 194.491076 164.370601 
L 194.560788 164.337602 
L 194.769925 165.156395 
L 194.909349 165.092926 
L 195.048774 164.572911 
L 195.25791 165.744595 
L 195.397335 165.153806 
L 195.815608 165.929931 
L 195.88532 166.029765 
L 196.024745 165.514807 
L 196.721867 168.671641 
L 196.79158 168.620017 
L 197.000716 169.01681 
L 197.070429 168.753232 
L 197.140141 168.785704 
L 197.209853 168.969029 
L 197.279565 168.867614 
L 197.349277 168.791674 
L 197.558414 169.74239 
L 197.628126 169.471331 
L 197.697839 169.499344 
L 197.837263 169.97134 
L 197.906975 169.961812 
L 198.0464 170.499997 
L 198.116112 170.414743 
L 198.185824 170.474612 
L 198.604098 171.55089 
L 198.743522 171.163932 
L 198.882947 171.596559 
L 198.952659 171.550091 
L 199.092083 170.820599 
L 199.161796 170.877503 
L 199.440645 170.292008 
L 199.510357 170.633858 
L 199.580069 170.458443 
L 199.649781 170.26595 
L 199.719494 170.315012 
L 199.858918 170.632763 
L 199.92863 170.537072 
L 200.068055 170.10953 
L 200.137767 170.737459 
L 200.207479 170.476736 
L 200.277192 170.65138 
L 200.346904 170.538971 
L 200.416616 170.422101 
L 200.55604 169.837204 
L 200.765177 170.580887 
L 200.834889 170.891852 
L 200.974314 170.380549 
L 201.044026 170.476674 
L 201.113738 170.407362 
L 201.253163 170.036427 
L 201.601724 170.895232 
L 201.810861 170.633865 
L 202.019998 171.781236 
L 202.229134 171.394637 
L 202.298846 171.18101 
L 202.368559 171.212974 
L 202.438271 171.844894 
L 202.507983 171.183304 
L 202.71712 171.940535 
L 202.856544 172.026575 
L 202.926257 171.945281 
L 202.995969 172.597515 
L 203.065681 172.388868 
L 203.205106 172.233192 
L 203.34453 172.730246 
L 203.414242 172.588921 
L 203.483955 172.650829 
L 203.553667 173.058274 
L 203.762803 172.493012 
L 203.97194 173.13606 
L 204.041652 173.555318 
L 204.111365 173.381203 
L 204.181077 173.44426 
L 204.250789 173.353374 
L 204.390214 172.957777 
L 204.808487 174.322365 
L 204.878199 174.208232 
L 205.087336 174.75999 
L 205.226761 174.583337 
L 205.575322 175.614819 
L 205.645034 175.455435 
L 205.714746 175.048739 
L 205.784458 175.239066 
L 205.854171 175.426773 
L 205.923883 175.213714 
L 205.993595 175.357029 
L 206.202732 175.436615 
L 206.272444 175.346554 
L 206.342156 175.444114 
L 206.551293 176.407623 
L 206.621005 175.883222 
L 206.690718 175.982024 
L 206.76043 176.058152 
L 206.899854 176.632941 
L 207.039279 175.988091 
L 207.108991 176.281237 
L 207.178703 176.246226 
L 207.248415 176.131896 
L 207.38784 176.539605 
L 207.596977 176.112653 
L 207.666689 176.353702 
L 207.736401 176.130182 
L 207.806113 176.186652 
L 208.01525 177.048338 
L 208.084962 176.920038 
L 208.224387 177.200471 
L 208.294099 176.833477 
L 208.503236 177.9031 
L 208.572948 177.766348 
L 208.782085 177.513039 
L 208.921509 178.003448 
L 208.991221 177.918979 
L 209.060934 177.983546 
L 209.409495 178.491795 
L 209.618632 178.515095 
L 209.688344 178.468208 
L 209.827768 178.930968 
L 210.036905 178.453201 
L 210.106617 178.827794 
L 210.176329 178.63589 
L 210.315754 178.346359 
L 210.455178 179.05109 
L 210.594603 178.538546 
L 210.664315 178.989202 
L 210.734027 178.76834 
L 210.943164 178.187782 
L 211.222013 177.864387 
L 211.361438 178.605908 
L 211.500862 178.102406 
L 211.570574 178.255354 
L 211.640287 178.526368 
L 211.779711 178.215039 
L 211.849423 178.553226 
L 211.919135 178.427794 
L 211.988848 178.008999 
L 212.05856 178.124301 
L 212.476833 178.228359 
L 212.616258 177.576822 
L 212.68597 177.597233 
L 212.964819 177.652319 
L 213.034531 178.332531 
L 213.104244 178.147368 
L 213.243668 177.693419 
L 213.452805 177.727151 
L 213.522517 178.109872 
L 213.592229 177.783509 
L 213.661941 177.912195 
L 213.731654 177.93708 
L 213.801366 178.092548 
L 213.871078 178.059688 
L 214.080215 177.542929 
L 214.149927 178.044539 
L 214.219639 177.848804 
L 214.289352 177.834014 
L 214.359064 178.143574 
L 214.498488 177.511098 
L 214.84705 178.396057 
L 214.916762 178.119409 
L 214.986474 178.224726 
L 215.056186 178.146414 
L 215.125898 178.561701 
L 215.195611 178.462198 
L 215.265323 178.285909 
L 215.335035 178.563688 
L 215.404747 178.419815 
L 215.47446 178.42984 
L 215.613884 178.785854 
L 215.753309 178.764738 
L 215.892733 178.681806 
L 216.032158 178.78749 
L 216.10187 178.777586 
L 216.171582 179.117036 
L 216.241294 179.073664 
L 216.311007 179.133519 
L 216.450431 179.48932 
L 216.659568 179.032526 
L 216.868704 179.879011 
L 216.938417 179.861284 
L 217.077841 179.681584 
L 217.147553 179.708549 
L 217.286978 179.501952 
L 217.496115 180.3233 
L 217.635539 179.800272 
L 217.705251 179.84344 
L 217.914388 180.086698 
L 217.9841 180.406896 
L 218.123525 179.722579 
L 218.193237 180.014667 
L 218.262949 179.917115 
L 218.402374 180.30519 
L 218.472086 180.143651 
L 218.61151 179.646562 
L 218.820647 180.561837 
L 218.960072 180.245712 
L 219.029784 180.330733 
L 219.099496 180.388023 
L 219.169208 180.211618 
L 219.238921 180.372188 
L 219.378345 179.957801 
L 219.51777 180.264748 
L 219.657194 180.296191 
L 219.796618 180.051368 
L 220.075467 180.609378 
L 220.14518 180.628734 
L 220.284604 180.385488 
L 220.563453 180.724516 
L 220.633165 180.499417 
L 220.77259 181.08436 
L 220.842302 181.066889 
L 220.981727 180.750298 
L 221.051439 180.889792 
L 221.121151 180.838875 
L 221.260576 180.782095 
L 221.4 181.238414 
L 221.539424 181.115201 
L 221.609137 181.180226 
L 221.678849 181.097101 
L 221.818273 180.952389 
L 221.957698 181.135704 
L 222.02741 181.317662 
L 222.097122 180.878983 
L 222.166835 180.982724 
L 222.236547 181.170807 
L 222.306259 181.113622 
L 222.375971 181.156206 
L 222.515396 181.622884 
L 222.65482 181.548373 
L 222.794245 181.906268 
L 222.863957 181.74769 
L 222.933669 181.677296 
L 223.142806 181.973857 
L 223.212518 181.443915 
L 223.28223 181.62022 
L 223.351943 181.865424 
L 223.421655 181.612212 
L 223.491367 181.697933 
L 223.561079 181.866394 
L 223.630792 181.769368 
L 223.700504 181.788596 
L 223.770216 182.295655 
L 223.839928 182.254485 
L 223.909641 181.942003 
L 223.979353 182.007179 
L 224.606763 182.744332 
L 224.746187 182.719132 
L 224.8159 182.711191 
L 224.955324 182.436847 
L 225.234173 183.436782 
L 225.44331 182.916228 
L 225.582734 183.283678 
L 225.722159 183.188345 
L 225.791871 183.244699 
L 225.861583 183.615526 
L 225.931296 183.517916 
L 226.07072 183.635987 
L 226.210145 183.315805 
L 226.279857 183.352824 
L 226.419281 183.270115 
L 226.628418 184.058575 
L 226.837555 183.698914 
L 226.907267 183.627589 
L 227.046691 183.89564 
L 227.116404 183.725971 
L 227.186116 183.885034 
L 227.32554 183.455748 
L 227.604389 184.042763 
L 227.674102 184.168389 
L 227.883238 183.754392 
L 227.95295 184.007177 
L 228.022663 183.491306 
L 228.092375 183.525841 
L 228.301512 183.98406 
L 228.580361 183.406982 
L 228.719785 183.961581 
L 228.789497 183.872396 
L 228.85921 184.155663 
L 228.928922 184.118698 
L 228.998634 183.818783 
L 229.068346 183.902409 
L 229.277483 184.222318 
L 229.347195 184.171771 
L 229.416908 184.387459 
L 229.48662 184.324436 
L 229.556332 184.073201 
L 229.835181 184.859234 
L 229.904893 184.816594 
L 230.044318 184.425386 
L 230.183742 184.987491 
L 230.253454 184.964475 
L 230.323167 184.971995 
L 230.392879 184.839423 
L 230.462591 184.896822 
L 230.671728 185.214562 
L 230.74144 185.206831 
L 230.811152 184.792538 
L 230.880865 185.044673 
L 230.950577 185.078451 
L 231.090001 185.414717 
L 231.159713 185.271062 
L 231.299138 185.738365 
L 231.36885 185.919385 
L 231.577987 185.421756 
L 231.647699 185.514982 
L 231.717411 185.543891 
L 231.99626 186.56744 
L 232.065973 186.330286 
L 232.205397 186.252193 
L 232.414534 186.950292 
L 232.484246 186.844316 
L 232.623671 186.714842 
L 232.763095 186.976492 
L 232.832807 187.183953 
L 232.902519 186.89388 
L 233.041944 187.491591 
L 233.111656 187.244297 
L 233.320793 187.863619 
L 233.460217 187.813396 
L 233.52993 187.799279 
L 233.669354 187.908234 
L 233.739066 187.761563 
L 233.808779 188.210305 
L 233.878491 188.13747 
L 233.948203 188.299557 
L 234.017915 188.119089 
L 234.087628 188.232182 
L 234.296764 189.03657 
L 234.366476 188.745924 
L 234.436189 188.805689 
L 234.715038 189.449926 
L 234.78475 189.237937 
L 234.854462 189.302302 
L 235.063599 189.708339 
L 235.133311 189.771459 
L 235.203023 189.686406 
L 235.272736 189.494403 
L 235.481872 190.00982 
L 235.621297 190.004439 
L 235.760721 190.341792 
L 235.900146 190.174878 
L 235.969858 190.229411 
L 236.03957 190.455075 
L 236.109282 190.408637 
L 236.248707 190.468652 
L 236.388131 190.835053 
L 236.597268 190.434229 
L 236.806405 190.997889 
L 236.876117 190.794979 
L 236.945829 190.830337 
L 237.085254 190.7473 
L 237.224678 191.222498 
L 237.364103 190.969456 
L 237.433815 191.055973 
L 237.642952 190.890011 
L 237.921801 191.477211 
L 237.991513 191.350552 
L 238.130937 192.01667 
L 238.20065 191.592664 
L 238.270362 191.566397 
L 238.409786 191.933931 
L 238.549211 191.779036 
L 238.82806 191.605616 
L 238.967484 191.753449 
L 239.037197 191.940608 
L 239.106909 191.238173 
L 239.246333 191.881383 
L 239.316045 191.690248 
L 239.385758 192.104698 
L 239.45547 192.029781 
L 239.525182 191.771241 
L 239.594894 191.792295 
L 239.734319 191.543506 
L 239.873743 192.017981 
L 239.943456 191.620861 
L 240.013168 192.278611 
L 240.08288 192.051622 
L 240.222305 191.847093 
L 240.361729 192.121114 
L 240.431441 191.88558 
L 240.501154 191.91508 
L 240.71029 191.827015 
L 240.849715 192.237594 
L 240.919427 192.638363 
L 241.058851 191.633032 
L 241.128564 191.783087 
L 241.3377 192.222854 
L 241.546837 191.91701 
L 242.104535 192.434744 
L 242.174247 192.252784 
L 242.24396 192.261682 
L 242.313672 192.417192 
L 242.522808 191.78544 
L 242.731945 192.213749 
L 242.801657 192.173784 
L 242.941082 192.65294 
L 243.010794 192.548747 
L 243.150219 192.25234 
L 243.219931 192.815865 
L 243.289643 192.622395 
L 243.359355 192.223327 
L 243.49878 192.595104 
L 243.568492 192.648836 
L 243.707917 192.907943 
L 243.777629 192.677261 
L 243.847341 192.818199 
L 243.917053 192.834536 
L 244.056478 193.226133 
L 244.12619 193.130987 
L 244.335327 192.901409 
L 244.405039 192.956116 
L 244.614176 193.301142 
L 244.823312 193.146288 
L 244.893025 193.867912 
L 245.032449 193.290493 
L 245.241586 193.672849 
L 245.311298 193.583324 
L 245.450723 194.080274 
L 245.520435 193.945549 
L 245.659859 193.366021 
L 245.799284 193.406878 
L 245.868996 193.363673 
L 245.938708 193.986658 
L 246.00842 193.873707 
L 246.078133 193.840321 
L 246.217557 194.410173 
L 246.566118 193.61771 
L 246.635831 194.195707 
L 246.705543 194.10075 
L 246.775255 194.107511 
L 246.844967 194.450441 
L 246.91468 194.260505 
L 247.054104 193.887917 
L 247.332953 194.462248 
L 247.472377 194.511488 
L 247.54209 193.878011 
L 247.611802 194.235757 
L 247.681514 193.835347 
L 247.820939 194.266448 
L 248.239212 194.23097 
L 248.518061 194.694653 
L 248.587773 194.216744 
L 248.657486 194.316038 
L 248.866622 194.530321 
L 249.075759 194.273937 
L 249.145471 194.366054 
L 249.215183 194.271275 
L 249.284896 194.332018 
L 249.42432 194.64157 
L 249.563745 194.055591 
L 249.703169 194.280976 
L 250.05173 194.542614 
L 250.191155 194.144029 
L 250.260867 194.253718 
L 250.330579 194.12132 
L 250.400292 194.394138 
L 250.470004 194.272956 
L 250.539716 194.393485 
L 250.609428 194.271789 
L 250.748853 194.980014 
L 250.818565 194.669363 
L 250.888277 194.287914 
L 250.957989 194.330293 
L 251.027702 194.717114 
L 251.097414 194.55495 
L 251.306551 194.339913 
L 251.515687 194.908993 
L 251.5854 194.753663 
L 251.655112 194.685098 
L 251.724824 194.821732 
L 251.794536 194.756732 
L 251.864249 194.330256 
L 251.933961 194.39657 
L 252.073385 194.764314 
L 252.143097 194.509413 
L 252.421946 195.522342 
L 252.491659 195.442646 
L 252.561371 195.338428 
L 252.770508 196.148139 
L 252.84022 195.973301 
L 253.049357 196.515055 
L 253.119069 196.487804 
L 253.188781 196.30684 
L 253.328206 196.801609 
L 253.397918 196.651538 
L 253.46763 196.617089 
L 253.607055 196.88882 
L 253.746479 196.429243 
L 253.816191 196.465837 
L 253.955616 196.668696 
L 254.025328 196.506809 
L 254.234465 197.027624 
L 254.304177 196.789164 
L 254.443601 197.003865 
L 254.513314 196.779511 
L 254.583026 196.903089 
L 254.72245 197.273746 
L 254.792163 197.154862 
L 254.861875 196.713425 
L 255.001299 197.427744 
L 255.071012 197.238088 
L 255.140724 197.2386 
L 255.489285 196.498174 
L 255.628709 196.57712 
L 255.837846 196.032434 
L 255.907558 195.852003 
L 256.046983 196.101532 
L 256.116695 196.137996 
L 256.25612 195.507719 
L 256.465256 196.164465 
L 256.604681 196.056788 
L 256.674393 196.028142 
L 256.813818 196.617948 
L 256.88353 196.208247 
L 256.953242 196.822924 
L 257.022954 196.535774 
L 257.092666 195.908601 
L 257.301803 196.583069 
L 257.371515 196.658396 
L 257.51094 196.590746 
L 257.650364 196.745505 
L 257.789789 196.640546 
L 257.859501 196.405092 
L 257.929213 196.75089 
L 257.998926 196.514082 
L 258.068638 196.879477 
L 258.13835 196.689584 
L 258.277775 196.288402 
L 258.417199 196.400881 
L 258.556623 196.007784 
L 258.835472 196.638194 
L 258.905185 196.556776 
L 258.974897 196.360294 
L 259.044609 196.89417 
L 259.184034 196.194221 
L 259.253746 196.915583 
L 259.323458 196.620099 
L 259.462883 196.715763 
L 259.672019 196.400727 
L 259.741732 196.335179 
L 259.881156 196.584106 
L 260.090293 196.35345 
L 260.160005 196.65392 
L 260.229717 196.586836 
L 260.369142 196.304006 
L 260.508566 196.632434 
L 260.647991 196.348885 
L 260.717703 196.400524 
L 260.857127 196.288654 
L 261.066264 196.733413 
L 261.135976 196.430836 
L 261.205689 196.840626 
L 261.275401 196.467954 
L 261.345113 196.828406 
L 261.484538 196.584389 
L 261.623962 196.871649 
L 261.972523 196.825875 
L 262.111948 196.34151 
L 262.390797 196.983255 
L 262.530221 196.880302 
L 262.599933 197.09479 
L 262.669646 197.030657 
L 262.739358 196.870622 
L 262.878782 197.111749 
L 263.087919 196.953149 
L 263.157631 197.259565 
L 263.227344 197.232599 
L 263.297056 196.851142 
L 263.366768 196.952515 
L 263.43648 196.96767 
L 263.506192 197.432459 
L 263.575905 197.245183 
L 263.645617 197.079298 
L 263.924466 197.648292 
L 263.994178 197.20234 
L 264.06389 197.302613 
L 264.133603 197.653157 
L 264.203315 197.521562 
L 264.273027 197.512262 
L 264.342739 197.68271 
L 264.412452 197.525877 
L 264.482164 197.718869 
L 264.551876 197.376208 
L 264.621588 197.842717 
L 264.691301 197.573641 
L 264.761013 197.441849 
L 264.830725 198.048995 
L 264.900437 197.945457 
L 265.179286 197.566308 
L 265.248998 197.475994 
L 265.667272 198.194161 
L 265.806696 197.504407 
L 265.876409 197.320976 
L 266.015833 197.914215 
L 266.085545 197.992965 
L 266.294682 197.709292 
L 266.503819 198.004671 
L 266.643243 197.90805 
L 266.712955 198.121653 
L 266.782668 198.074196 
L 266.85238 198.051599 
L 266.922092 198.649426 
L 266.991804 198.140411 
L 267.061517 198.154845 
L 267.131229 198.099311 
L 267.200941 198.288131 
L 267.410078 197.841677 
L 267.549502 198.167474 
L 267.619215 198.129354 
L 267.758639 198.533089 
L 267.828351 198.490194 
L 267.898064 198.643484 
L 267.967776 198.580848 
L 268.037488 198.403468 
L 268.1072 198.690119 
L 268.176913 198.626675 
L 268.246625 198.227772 
L 268.316337 198.64609 
L 268.386049 198.560507 
L 268.455761 198.193941 
L 268.525474 198.62672 
L 268.595186 198.279328 
L 268.664898 198.725529 
L 268.73461 198.698782 
L 268.804323 198.687787 
L 268.943747 198.809959 
L 269.083172 198.571566 
L 269.222596 198.757013 
L 269.292308 198.749876 
L 269.362021 198.628642 
L 269.431733 198.718169 
L 269.571157 198.917354 
L 269.64087 198.939927 
L 269.919718 198.471547 
L 270.059143 199.01814 
L 270.128855 198.747596 
L 270.198567 198.821456 
L 270.26828 199.211761 
L 270.337992 199.029817 
L 270.477416 198.325404 
L 270.547129 198.434902 
L 270.686553 198.915008 
L 270.756265 198.777616 
L 270.89569 199.254845 
L 270.965402 198.606158 
L 271.035114 198.837054 
L 271.174539 199.004467 
L 271.244251 198.770317 
L 271.313963 198.945292 
L 271.453388 198.667167 
L 271.5231 198.725907 
L 271.592812 198.430842 
L 271.801949 198.898075 
L 271.941373 198.843011 
L 272.011086 198.943261 
L 272.080798 198.523623 
L 272.15051 198.645623 
L 272.289935 198.576471 
L 272.359647 198.89956 
L 272.429359 198.699406 
L 272.499071 198.637237 
L 272.568784 198.895924 
L 272.77792 198.495182 
L 272.847633 198.761724 
L 272.917345 198.629237 
L 273.196194 198.948218 
L 273.335618 198.646761 
L 273.475043 199.086838 
L 273.614467 198.811227 
L 273.684179 198.316879 
L 273.753892 198.591276 
L 273.823604 198.534143 
L 273.893316 198.665963 
L 274.172165 198.0309 
L 274.241877 198.07005 
L 274.31159 198.520355 
L 274.381302 198.448301 
L 274.660151 198.355266 
L 274.799575 198.099313 
L 275.008712 198.523744 
L 275.357273 197.747127 
L 275.496698 197.676162 
L 275.636122 198.367514 
L 275.845259 197.425484 
L 275.914971 197.358694 
L 276.054396 197.613517 
L 276.263532 197.548219 
L 276.402957 197.861978 
L 276.472669 197.583771 
L 276.542381 197.725188 
L 276.612093 197.848452 
L 276.681806 197.46704 
L 276.82123 197.765415 
L 276.960655 197.308703 
L 277.030367 197.86925 
L 277.100079 197.711301 
L 277.169791 197.678119 
L 277.309216 197.978624 
L 277.378928 197.587353 
L 277.44864 197.723946 
L 277.518353 197.943943 
L 277.588065 197.807905 
L 277.657777 197.758581 
L 277.866914 198.139813 
L 277.936626 198.072139 
L 278.07605 198.203417 
L 278.215475 197.707983 
L 278.285187 197.820214 
L 278.424612 198.081014 
L 278.494324 197.758368 
L 278.564036 197.931812 
L 278.633748 198.014078 
L 278.773173 198.696974 
L 278.98231 198.287096 
L 279.261159 198.874757 
L 279.400583 198.760806 
L 279.470295 198.92343 
L 279.60972 198.744521 
L 279.749144 199.201683 
L 279.818856 199.222084 
L 279.888569 198.893535 
L 279.958281 199.063926 
L 280.027993 199.519742 
L 280.167418 198.888047 
L 280.23713 199.0101 
L 280.306842 198.919497 
L 280.446267 199.032956 
L 280.515979 199.512219 
L 280.585691 199.452486 
L 280.655403 199.41764 
L 280.794828 199.558185 
L 280.934252 199.339185 
L 281.352526 199.892106 
L 281.49195 200.121363 
L 281.561662 200.079181 
L 281.701087 199.816592 
L 281.840511 200.08851 
L 281.910224 200.333711 
L 282.049648 199.897043 
L 282.11936 200.282341 
L 282.258785 200.008095 
L 282.328497 200.22251 
L 282.467922 199.987518 
L 282.537634 200.459397 
L 282.607346 200.403757 
L 282.677058 200.377721 
L 282.816483 200.879008 
L 283.025619 200.555378 
L 283.095332 200.434006 
L 283.304468 200.953011 
L 283.374181 200.54774 
L 283.443893 200.61305 
L 283.513605 201.115475 
L 283.583317 201.012711 
L 283.65303 201.297354 
L 283.722742 200.699042 
L 283.792454 201.26875 
L 283.862166 200.832782 
L 283.931879 201.269099 
L 284.141015 200.689587 
L 284.28044 201.323095 
L 284.350152 201.160237 
L 284.419864 201.27502 
L 284.698713 201.569901 
L 284.768425 201.641966 
L 284.90785 201.16393 
L 284.977562 201.296982 
L 285.047274 201.298976 
L 285.116987 201.642081 
L 285.186699 201.480991 
L 285.465548 200.749684 
L 285.53526 200.725254 
L 285.744397 201.322677 
L 285.814109 200.99422 
L 285.883821 201.352274 
L 285.953534 201.232537 
L 286.092958 201.111616 
L 286.16267 200.861607 
L 286.371807 201.133389 
L 286.441519 200.949391 
L 286.511231 201.074675 
L 286.580944 201.039726 
L 286.79008 200.70349 
L 287.068929 200.785927 
L 287.138642 200.36907 
L 287.208354 200.404186 
L 287.347778 200.344352 
L 287.556915 200.867859 
L 287.835764 200.288338 
L 287.975188 200.785547 
L 288.254037 200.168237 
L 288.393462 200.89408 
L 288.602599 200.38994 
L 288.672311 200.794194 
L 288.742023 200.763371 
L 288.811735 200.670633 
L 288.881448 200.838542 
L 289.020872 200.478062 
L 289.090584 200.534601 
L 289.160297 200.649815 
L 289.299721 200.356297 
L 289.508858 200.873627 
L 289.787707 200.383749 
L 289.857419 201.055987 
L 289.927131 200.606914 
L 289.996843 200.68302 
L 290.066556 200.885618 
L 290.136268 200.817494 
L 290.20598 200.465015 
L 290.415117 201.160697 
L 290.624254 200.602014 
L 290.83339 200.880472 
L 290.903102 200.896822 
L 291.042527 201.12146 
L 291.181951 200.731072 
L 291.251664 200.88345 
L 291.391088 200.682048 
L 291.4608 200.703064 
L 291.600225 200.409542 
L 291.669937 200.528124 
L 291.739649 200.803867 
L 291.809362 200.742553 
L 292.088211 201.089863 
L 292.157923 200.748697 
L 292.227635 200.868684 
L 292.297347 201.438754 
L 292.36706 201.10323 
L 292.436772 200.918159 
L 292.506484 201.144686 
L 292.576196 200.850267 
L 292.645908 200.886191 
L 292.715621 201.083035 
L 292.785333 200.587648 
L 292.855045 200.696048 
L 292.924757 200.577975 
L 293.064182 200.947238 
L 293.133894 200.951655 
L 293.273319 200.362651 
L 293.343031 200.506315 
L 293.482455 200.976319 
L 293.691592 200.479926 
L 293.761304 200.660964 
L 293.831017 201.027412 
L 293.900729 200.869798 
L 293.970441 200.373424 
L 294.109865 201.185325 
L 294.179578 200.837686 
L 294.24929 200.966198 
L 294.319002 200.944093 
L 294.388714 201.088756 
L 294.597851 200.206674 
L 294.8767 201.080409 
L 295.016125 200.740736 
L 295.085837 200.727528 
L 295.225261 200.86043 
L 295.294974 200.550064 
L 295.434398 200.796066 
L 295.50411 200.505841 
L 295.713247 201.175604 
L 295.782959 200.792341 
L 295.852671 200.918532 
L 295.922384 200.884115 
L 296.061808 200.488754 
L 296.270945 200.974877 
L 296.340657 200.829374 
L 296.480082 200.733271 
L 296.619506 200.765778 
L 296.689218 200.676596 
L 296.758931 200.747008 
L 296.968067 201.185503 
L 297.03778 201.079581 
L 297.246916 201.079431 
L 297.316628 200.890002 
L 297.386341 201.116916 
L 297.595477 200.401483 
L 297.734902 201.259097 
L 297.804614 200.630075 
L 297.874326 200.867882 
L 297.944039 200.782816 
L 298.013751 201.048356 
L 298.083463 200.866006 
L 298.153175 201.010093 
L 298.222888 200.837131 
L 298.2926 201.027518 
L 298.362312 200.8547 
L 298.432024 200.912311 
L 298.501737 201.09456 
L 298.571449 200.919027 
L 298.710873 201.439774 
L 298.780586 201.093438 
L 298.850298 201.203358 
L 298.92001 200.996464 
L 298.989722 201.336926 
L 299.059434 201.2237 
L 299.129147 201.016519 
L 299.198859 201.191431 
L 299.268571 201.097503 
L 299.407996 201.244083 
L 299.686845 200.712376 
L 299.965694 201.618366 
L 300.035406 201.60066 
L 300.383967 200.890608 
L 300.453679 200.904972 
L 300.523391 201.529518 
L 300.593104 201.418679 
L 300.662816 201.178665 
L 300.80224 201.534216 
L 300.871953 201.324252 
L 301.011377 201.647671 
L 301.081089 201.402798 
L 301.150802 201.830947 
L 301.220514 201.538546 
L 301.290226 201.91033 
L 301.359938 201.325411 
L 301.429651 201.412713 
L 301.569075 200.886372 
L 301.7085 201.722477 
L 301.778212 201.778654 
L 301.847924 201.568532 
L 301.987349 202.018085 
L 302.057061 201.613655 
L 302.126773 201.823847 
L 302.196485 202.142289 
L 302.475334 201.525318 
L 302.684471 202.332868 
L 302.823895 202.020708 
L 302.893608 201.996052 
L 302.96332 201.83478 
L 303.311881 202.813409 
L 303.59073 202.969631 
L 303.660442 202.673739 
L 303.869579 203.420257 
L 303.939291 203.591958 
L 304.009003 203.328206 
L 304.21814 204.306297 
L 304.287852 204.257977 
L 304.427277 204.955534 
L 304.496989 204.485343 
L 304.566701 205.194845 
L 304.636414 205.159631 
L 304.706126 205.287545 
L 304.915263 206.893834 
L 304.984975 206.73919 
L 305.054687 207.84482 
L 305.124399 207.316865 
L 305.333536 208.430504 
L 305.403248 208.281861 
L 305.542673 209.384638 
L 305.612385 208.766504 
L 305.682097 208.994901 
L 305.960946 209.889835 
L 306.030658 210.03679 
L 306.100371 209.877 
L 306.170083 210.093974 
L 306.309507 209.915023 
L 306.588356 210.406476 
L 306.658069 210.093717 
L 306.727781 210.133947 
L 306.867205 210.263936 
L 307.424903 209.141706 
L 307.912889 207.316695 
L 308.122026 207.173848 
L 308.331162 206.662115 
L 308.470587 206.748044 
L 308.679723 205.725129 
L 308.749436 206.037188 
L 308.88886 205.661551 
L 308.958572 205.881089 
L 309.028285 204.993014 
L 309.097997 205.233156 
L 309.237421 205.296061 
L 309.307134 205.428903 
L 309.446558 204.737425 
L 309.51627 205.232787 
L 309.585983 204.367502 
L 309.655695 204.655374 
L 309.864832 203.84817 
L 310.004256 204.356233 
L 310.073968 203.690612 
L 310.143681 203.949032 
L 310.213393 203.634829 
L 310.283105 203.768762 
L 310.352817 203.653532 
L 310.422529 203.91802 
L 310.492242 203.666556 
L 310.561954 203.867055 
L 310.631666 203.596148 
L 310.701378 203.689248 
L 310.771091 203.775434 
L 310.910515 203.3761 
L 311.119652 203.925004 
L 311.189364 203.8274 
L 311.398501 202.975726 
L 311.468213 203.270972 
L 311.537925 202.836712 
L 311.607638 202.99344 
L 311.956199 202.897554 
L 312.025911 203.058609 
L 312.095623 203.015085 
L 312.235048 202.387338 
L 312.374472 202.895543 
L 312.583609 202.055402 
L 312.653321 202.140884 
L 312.792746 202.607037 
L 312.93217 202.225465 
L 313.001882 202.260736 
L 313.280731 202.628226 
L 313.350444 202.565066 
L 313.55958 202.365155 
L 313.699005 202.761322 
L 313.908141 202.039689 
L 313.977854 202.044082 
L 314.047566 202.221126 
L 314.117278 202.082032 
L 314.18699 202.238814 
L 314.256703 202.150885 
L 314.396127 202.096744 
L 314.465839 202.250044 
L 314.535552 202.108983 
L 314.605264 202.340581 
L 314.674976 202.233525 
L 314.744688 202.356133 
L 314.953825 202.13785 
L 315.162962 202.61032 
L 315.232674 202.568444 
L 315.372098 202.172257 
L 315.511523 202.684439 
L 315.581235 202.550083 
L 315.650947 202.10453 
L 315.72066 202.444814 
L 315.860084 201.742441 
L 315.929796 202.239756 
L 315.999509 202.114206 
L 316.138933 202.298866 
L 316.208645 202.067007 
L 316.34807 202.816972 
L 316.417782 202.095073 
L 316.487494 202.197908 
L 316.696631 202.947655 
L 316.766343 201.814817 
L 316.836055 202.761826 
L 316.905768 202.493902 
L 316.97548 202.395456 
L 317.114904 202.932977 
L 317.254329 202.240499 
L 317.393753 202.496438 
L 317.60289 202.157887 
L 317.672602 202.726993 
L 317.742315 202.646863 
L 317.812027 201.872966 
L 317.881739 202.247034 
L 317.951451 202.348066 
L 318.090876 203.196275 
L 318.160588 203.238239 
L 318.2303 203.699034 
L 318.300012 203.546715 
L 318.439437 242.116364 
L 373.581818 242.116364 
L 373.581818 242.116364 
" style="fill:none;stroke:#1f77b4;stroke-linecap:square;stroke-width:1.5;"/>
   </g>
   <g id="line2d_18">
    <path clip-path="url(#p18c9418672)" d="M 306.472169 242.116364 
L 306.472169 44.443636 
" style="fill:none;stroke:#ff0000;stroke-dasharray:1.5,2.475;stroke-dashoffset:0;stroke-width:1.5;"/>
   </g>
   <g id="line2d_19">
    <path clip-path="url(#p18c9418672)" d="M 304.357565 242.116364 
L 304.357565 44.443636 
" style="fill:none;stroke:#008000;stroke-dasharray:1.5,2.475;stroke-dashoffset:0;stroke-width:1.5;"/>
   </g>
   <g id="line2d_20">
    <path clip-path="url(#p18c9418672)" d="M 308.540299 242.116364 
L 308.540299 44.443636 
" style="fill:none;stroke:#008000;stroke-dasharray:1.5,2.475;stroke-dashoffset:0;stroke-width:1.5;"/>
   </g>
   <g id="patch_3">
    <path d="M 54 252 
L 54 34.56 
" style="fill:none;stroke:#000000;stroke-linecap:square;stroke-linejoin:miter;stroke-width:0.8;"/>
   </g>
   <g id="patch_4">
    <path d="M 388.8 252 
L 388.8 34.56 
" style="fill:none;stroke:#000000;stroke-linecap:square;stroke-linejoin:miter;stroke-width:0.8;"/>
   </g>
   <g id="patch_5">
    <path d="M 54 252 
L 388.8 252 
" style="fill:none;stroke:#000000;stroke-linecap:square;stroke-linejoin:miter;stroke-width:0.8;"/>
   </g>
   <g id="patch_6">
    <path d="M 54 34.56 
L 388.8 34.56 
" style="fill:none;stroke:#000000;stroke-linecap:square;stroke-linejoin:miter;stroke-width:0.8;"/>
   </g>
   <g id="text_19">
    <!-- $H_\alpha$ -->
    <defs>
     <path d="M 16.890625 72.90625 
L 26.8125 72.90625 
L 21 43.015625 
L 56.78125 43.015625 
L 62.59375 72.90625 
L 72.515625 72.90625 
L 58.296875 0 
L 48.390625 0 
L 55.171875 34.71875 
L 19.390625 34.71875 
L 12.59375 0 
L 2.6875 0 
z
" id="DejaVuSans-Oblique-72"/>
     <path d="M 40.921875 25.4375 
L 40.96875 36.71875 
Q 41.015625 48.25 32.328125 48.296875 
Q 25.828125 48.34375 21.78125 42.921875 
Q 16.703125 36.234375 14.984375 27.296875 
Q 12.890625 16.546875 15.53125 11.421875 
Q 18.265625 6.203125 24.171875 6.203125 
Q 30.71875 6.203125 36.234375 16.609375 
z
M 33.84375 55.90625 
Q 49.078125 56.15625 48.875 40.375 
Q 48.875 40.375 56.5 54.6875 
L 64.5 54.6875 
L 48.734375 25.046875 
L 48.578125 14.359375 
Q 48.578125 11.96875 49.90625 9.96875 
Q 51.421875 7.625 52.984375 7.625 
L 57.328125 7.625 
L 55.859375 0 
L 50.4375 0 
Q 45.84375 0 42.53125 4.109375 
Q 40.96875 6.15625 40.921875 10.453125 
Q 37.75 5.21875 32.28125 0.78125 
Q 29.6875 -1.265625 22.703125 -1.21875 
Q 11.28125 -1.125 7.125 6.203125 
Q 2.875 13.8125 5.515625 27.296875 
Q 8.34375 41.796875 15.765625 48.390625 
Q 24.125 55.765625 33.84375 55.90625 
z
" id="DejaVuSans-Oblique-945"/>
    </defs>
    <g style="fill:#ff0000;" transform="translate(300.222169 242.116364)scale(0.1 -0.1)">
     <use transform="translate(0 0.09375)" xlink:href="#DejaVuSans-Oblique-72"/>
     <use transform="translate(75.195312 -16.3125)scale(0.7)" xlink:href="#DejaVuSans-Oblique-945"/>
    </g>
   </g>
   <g id="text_20">
    <!-- Spectrum of HD 112028 -->
    <defs>
     <path d="M 53.515625 70.515625 
L 53.515625 60.890625 
Q 47.90625 63.578125 42.921875 64.890625 
Q 37.9375 66.21875 33.296875 66.21875 
Q 25.25 66.21875 20.875 63.09375 
Q 16.5 59.96875 16.5 54.203125 
Q 16.5 49.359375 19.40625 46.890625 
Q 22.3125 44.4375 30.421875 42.921875 
L 36.375 41.703125 
Q 47.40625 39.59375 52.65625 34.296875 
Q 57.90625 29 57.90625 20.125 
Q 57.90625 9.515625 50.796875 4.046875 
Q 43.703125 -1.421875 29.984375 -1.421875 
Q 24.8125 -1.421875 18.96875 -0.25 
Q 13.140625 0.921875 6.890625 3.21875 
L 6.890625 13.375 
Q 12.890625 10.015625 18.65625 8.296875 
Q 24.421875 6.59375 29.984375 6.59375 
Q 38.421875 6.59375 43.015625 9.90625 
Q 47.609375 13.234375 47.609375 19.390625 
Q 47.609375 24.75 44.3125 27.78125 
Q 41.015625 30.8125 33.5 32.328125 
L 27.484375 33.5 
Q 16.453125 35.6875 11.515625 40.375 
Q 6.59375 45.0625 6.59375 53.421875 
Q 6.59375 63.09375 13.40625 68.65625 
Q 20.21875 74.21875 32.171875 74.21875 
Q 37.3125 74.21875 42.625 73.28125 
Q 47.953125 72.359375 53.515625 70.515625 
z
" id="DejaVuSans-83"/>
     <path d="M 18.109375 8.203125 
L 18.109375 -20.796875 
L 9.078125 -20.796875 
L 9.078125 54.6875 
L 18.109375 54.6875 
L 18.109375 46.390625 
Q 20.953125 51.265625 25.265625 53.625 
Q 29.59375 56 35.59375 56 
Q 45.5625 56 51.78125 48.09375 
Q 58.015625 40.1875 58.015625 27.296875 
Q 58.015625 14.40625 51.78125 6.484375 
Q 45.5625 -1.421875 35.59375 -1.421875 
Q 29.59375 -1.421875 25.265625 0.953125 
Q 20.953125 3.328125 18.109375 8.203125 
z
M 48.6875 27.296875 
Q 48.6875 37.203125 44.609375 42.84375 
Q 40.53125 48.484375 33.40625 48.484375 
Q 26.265625 48.484375 22.1875 42.84375 
Q 18.109375 37.203125 18.109375 27.296875 
Q 18.109375 17.390625 22.1875 11.75 
Q 26.265625 6.109375 33.40625 6.109375 
Q 40.53125 6.109375 44.609375 11.75 
Q 48.6875 17.390625 48.6875 27.296875 
z
" id="DejaVuSans-112"/>
     <path d="M 48.78125 52.59375 
L 48.78125 44.1875 
Q 44.96875 46.296875 41.140625 47.34375 
Q 37.3125 48.390625 33.40625 48.390625 
Q 24.65625 48.390625 19.8125 42.84375 
Q 14.984375 37.3125 14.984375 27.296875 
Q 14.984375 17.28125 19.8125 11.734375 
Q 24.65625 6.203125 33.40625 6.203125 
Q 37.3125 6.203125 41.140625 7.25 
Q 44.96875 8.296875 48.78125 10.40625 
L 48.78125 2.09375 
Q 45.015625 0.34375 40.984375 -0.53125 
Q 36.96875 -1.421875 32.421875 -1.421875 
Q 20.0625 -1.421875 12.78125 6.34375 
Q 5.515625 14.109375 5.515625 27.296875 
Q 5.515625 40.671875 12.859375 48.328125 
Q 20.21875 56 33.015625 56 
Q 37.15625 56 41.109375 55.140625 
Q 45.0625 54.296875 48.78125 52.59375 
z
" id="DejaVuSans-99"/>
     <path d="M 52 44.1875 
Q 55.375 50.25 60.0625 53.125 
Q 64.75 56 71.09375 56 
Q 79.640625 56 84.28125 50.015625 
Q 88.921875 44.046875 88.921875 33.015625 
L 88.921875 0 
L 79.890625 0 
L 79.890625 32.71875 
Q 79.890625 40.578125 77.09375 44.375 
Q 74.3125 48.1875 68.609375 48.1875 
Q 61.625 48.1875 57.5625 43.546875 
Q 53.515625 38.921875 53.515625 30.90625 
L 53.515625 0 
L 44.484375 0 
L 44.484375 32.71875 
Q 44.484375 40.625 41.703125 44.40625 
Q 38.921875 48.1875 33.109375 48.1875 
Q 26.21875 48.1875 22.15625 43.53125 
Q 18.109375 38.875 18.109375 30.90625 
L 18.109375 0 
L 9.078125 0 
L 9.078125 54.6875 
L 18.109375 54.6875 
L 18.109375 46.1875 
Q 21.1875 51.21875 25.484375 53.609375 
Q 29.78125 56 35.6875 56 
Q 41.65625 56 45.828125 52.96875 
Q 50 49.953125 52 44.1875 
z
" id="DejaVuSans-109"/>
     <path d="M 30.609375 48.390625 
Q 23.390625 48.390625 19.1875 42.75 
Q 14.984375 37.109375 14.984375 27.296875 
Q 14.984375 17.484375 19.15625 11.84375 
Q 23.34375 6.203125 30.609375 6.203125 
Q 37.796875 6.203125 41.984375 11.859375 
Q 46.1875 17.53125 46.1875 27.296875 
Q 46.1875 37.015625 41.984375 42.703125 
Q 37.796875 48.390625 30.609375 48.390625 
z
M 30.609375 56 
Q 42.328125 56 49.015625 48.375 
Q 55.71875 40.765625 55.71875 27.296875 
Q 55.71875 13.875 49.015625 6.21875 
Q 42.328125 -1.421875 30.609375 -1.421875 
Q 18.84375 -1.421875 12.171875 6.21875 
Q 5.515625 13.875 5.515625 27.296875 
Q 5.515625 40.765625 12.171875 48.375 
Q 18.84375 56 30.609375 56 
z
" id="DejaVuSans-111"/>
     <path d="M 9.8125 72.90625 
L 19.671875 72.90625 
L 19.671875 43.015625 
L 55.515625 43.015625 
L 55.515625 72.90625 
L 65.375 72.90625 
L 65.375 0 
L 55.515625 0 
L 55.515625 34.71875 
L 19.671875 34.71875 
L 19.671875 0 
L 9.8125 0 
z
" id="DejaVuSans-72"/>
     <path d="M 19.671875 64.796875 
L 19.671875 8.109375 
L 31.59375 8.109375 
Q 46.6875 8.109375 53.6875 14.9375 
Q 60.6875 21.78125 60.6875 36.53125 
Q 60.6875 51.171875 53.6875 57.984375 
Q 46.6875 64.796875 31.59375 64.796875 
z
M 9.8125 72.90625 
L 30.078125 72.90625 
Q 51.265625 72.90625 61.171875 64.09375 
Q 71.09375 55.28125 71.09375 36.53125 
Q 71.09375 17.671875 61.125 8.828125 
Q 51.171875 0 30.078125 0 
L 9.8125 0 
z
" id="DejaVuSans-68"/>
     <path d="M 31.78125 34.625 
Q 24.75 34.625 20.71875 30.859375 
Q 16.703125 27.09375 16.703125 20.515625 
Q 16.703125 13.921875 20.71875 10.15625 
Q 24.75 6.390625 31.78125 6.390625 
Q 38.8125 6.390625 42.859375 10.171875 
Q 46.921875 13.96875 46.921875 20.515625 
Q 46.921875 27.09375 42.890625 30.859375 
Q 38.875 34.625 31.78125 34.625 
z
M 21.921875 38.8125 
Q 15.578125 40.375 12.03125 44.71875 
Q 8.5 49.078125 8.5 55.328125 
Q 8.5 64.0625 14.71875 69.140625 
Q 20.953125 74.21875 31.78125 74.21875 
Q 42.671875 74.21875 48.875 69.140625 
Q 55.078125 64.0625 55.078125 55.328125 
Q 55.078125 49.078125 51.53125 44.71875 
Q 48 40.375 41.703125 38.8125 
Q 48.828125 37.15625 52.796875 32.3125 
Q 56.78125 27.484375 56.78125 20.515625 
Q 56.78125 9.90625 50.3125 4.234375 
Q 43.84375 -1.421875 31.78125 -1.421875 
Q 19.734375 -1.421875 13.25 4.234375 
Q 6.78125 9.90625 6.78125 20.515625 
Q 6.78125 27.484375 10.78125 32.3125 
Q 14.796875 37.15625 21.921875 38.8125 
z
M 18.3125 54.390625 
Q 18.3125 48.734375 21.84375 45.5625 
Q 25.390625 42.390625 31.78125 42.390625 
Q 38.140625 42.390625 41.71875 45.5625 
Q 45.3125 48.734375 45.3125 54.390625 
Q 45.3125 60.0625 41.71875 63.234375 
Q 38.140625 66.40625 31.78125 66.40625 
Q 25.390625 66.40625 21.84375 63.234375 
Q 18.3125 60.0625 18.3125 54.390625 
z
" id="DejaVuSans-56"/>
    </defs>
    <g transform="translate(148.784063 28.56)scale(0.12 -0.12)">
     <use xlink:href="#DejaVuSans-83"/>
     <use x="63.476562" xlink:href="#DejaVuSans-112"/>
     <use x="126.953125" xlink:href="#DejaVuSans-101"/>
     <use x="188.476562" xlink:href="#DejaVuSans-99"/>
     <use x="243.457031" xlink:href="#DejaVuSans-116"/>
     <use x="282.666016" xlink:href="#DejaVuSans-114"/>
     <use x="323.779297" xlink:href="#DejaVuSans-117"/>
     <use x="387.158203" xlink:href="#DejaVuSans-109"/>
     <use x="484.570312" xlink:href="#DejaVuSans-32"/>
     <use x="516.357422" xlink:href="#DejaVuSans-111"/>
     <use x="577.539062" xlink:href="#DejaVuSans-102"/>
     <use x="612.744141" xlink:href="#DejaVuSans-32"/>
     <use x="644.53125" xlink:href="#DejaVuSans-72"/>
     <use x="719.726562" xlink:href="#DejaVuSans-68"/>
     <use x="796.728516" xlink:href="#DejaVuSans-32"/>
     <use x="828.515625" xlink:href="#DejaVuSans-49"/>
     <use x="892.138672" xlink:href="#DejaVuSans-49"/>
     <use x="955.761719" xlink:href="#DejaVuSans-50"/>
     <use x="1019.384766" xlink:href="#DejaVuSans-48"/>
     <use x="1083.007812" xlink:href="#DejaVuSans-50"/>
     <use x="1146.630859" xlink:href="#DejaVuSans-56"/>
    </g>
   </g>
  </g>
 </g>
 <defs>
  <clipPath id="p18c9418672">
   <rect height="217.44" width="334.8" x="54" y="34.56"/>
  </clipPath>
 </defs>
</svg>
