<?xml version="1.0" encoding="utf-8" standalone="no"?>
<!DOCTYPE svg PUBLIC "-//W3C//DTD SVG 1.1//EN"
  "http://www.w3.org/Graphics/SVG/1.1/DTD/svg11.dtd">
<!-- Created with matplotlib (https://matplotlib.org/) -->
<svg height="288pt" version="1.1" viewBox="0 0 432 288" width="432pt" xmlns="http://www.w3.org/2000/svg" xmlns:xlink="http://www.w3.org/1999/xlink">
 <defs>
  <style type="text/css">
*{stroke-linecap:butt;stroke-linejoin:round;}
  </style>
 </defs>
 <g id="figure_1">
  <g id="patch_1">
   <path d="M 0 288 
L 432 288 
L 432 0 
L 0 0 
z
" style="fill:#ffffff;"/>
  </g>
  <g id="axes_1">
   <g id="patch_2">
    <path d="M 54 252 
L 388.8 252 
L 388.8 34.56 
L 54 34.56 
z
" style="fill:#ffffff;"/>
   </g>
   <g id="matplotlib.axis_1">
    <g id="xtick_1">
     <g id="line2d_1">
      <defs>
       <path d="M 0 0 
L 0 3.5 
" id="m6b686f5468" style="stroke:#000000;stroke-width:0.8;"/>
      </defs>
      <g>
       <use style="stroke:#000000;stroke-width:0.8;" x="69.218182" xlink:href="#m6b686f5468" y="252"/>
      </g>
     </g>
     <g id="text_1">
      <!-- 3500 -->
      <defs>
       <path d="M 40.578125 39.3125 
Q 47.65625 37.796875 51.625 33 
Q 55.609375 28.21875 55.609375 21.1875 
Q 55.609375 10.40625 48.1875 4.484375 
Q 40.765625 -1.421875 27.09375 -1.421875 
Q 22.515625 -1.421875 17.65625 -0.515625 
Q 12.796875 0.390625 7.625 2.203125 
L 7.625 11.71875 
Q 11.71875 9.328125 16.59375 8.109375 
Q 21.484375 6.890625 26.8125 6.890625 
Q 36.078125 6.890625 40.9375 10.546875 
Q 45.796875 14.203125 45.796875 21.1875 
Q 45.796875 27.640625 41.28125 31.265625 
Q 36.765625 34.90625 28.71875 34.90625 
L 20.21875 34.90625 
L 20.21875 43.015625 
L 29.109375 43.015625 
Q 36.375 43.015625 40.234375 45.921875 
Q 44.09375 48.828125 44.09375 54.296875 
Q 44.09375 59.90625 40.109375 62.90625 
Q 36.140625 65.921875 28.71875 65.921875 
Q 24.65625 65.921875 20.015625 65.03125 
Q 15.375 64.15625 9.8125 62.3125 
L 9.8125 71.09375 
Q 15.4375 72.65625 20.34375 73.4375 
Q 25.25 74.21875 29.59375 74.21875 
Q 40.828125 74.21875 47.359375 69.109375 
Q 53.90625 64.015625 53.90625 55.328125 
Q 53.90625 49.265625 50.4375 45.09375 
Q 46.96875 40.921875 40.578125 39.3125 
z
" id="DejaVuSans-51"/>
       <path d="M 10.796875 72.90625 
L 49.515625 72.90625 
L 49.515625 64.59375 
L 19.828125 64.59375 
L 19.828125 46.734375 
Q 21.96875 47.46875 24.109375 47.828125 
Q 26.265625 48.1875 28.421875 48.1875 
Q 40.625 48.1875 47.75 41.5 
Q 54.890625 34.8125 54.890625 23.390625 
Q 54.890625 11.625 47.5625 5.09375 
Q 40.234375 -1.421875 26.90625 -1.421875 
Q 22.3125 -1.421875 17.546875 -0.640625 
Q 12.796875 0.140625 7.71875 1.703125 
L 7.71875 11.625 
Q 12.109375 9.234375 16.796875 8.0625 
Q 21.484375 6.890625 26.703125 6.890625 
Q 35.15625 6.890625 40.078125 11.328125 
Q 45.015625 15.765625 45.015625 23.390625 
Q 45.015625 31 40.078125 35.4375 
Q 35.15625 39.890625 26.703125 39.890625 
Q 22.75 39.890625 18.8125 39.015625 
Q 14.890625 38.140625 10.796875 36.28125 
z
" id="DejaVuSans-53"/>
       <path d="M 31.78125 66.40625 
Q 24.171875 66.40625 20.328125 58.90625 
Q 16.5 51.421875 16.5 36.375 
Q 16.5 21.390625 20.328125 13.890625 
Q 24.171875 6.390625 31.78125 6.390625 
Q 39.453125 6.390625 43.28125 13.890625 
Q 47.125 21.390625 47.125 36.375 
Q 47.125 51.421875 43.28125 58.90625 
Q 39.453125 66.40625 31.78125 66.40625 
z
M 31.78125 74.21875 
Q 44.046875 74.21875 50.515625 64.515625 
Q 56.984375 54.828125 56.984375 36.375 
Q 56.984375 17.96875 50.515625 8.265625 
Q 44.046875 -1.421875 31.78125 -1.421875 
Q 19.53125 -1.421875 13.0625 8.265625 
Q 6.59375 17.96875 6.59375 36.375 
Q 6.59375 54.828125 13.0625 64.515625 
Q 19.53125 74.21875 31.78125 74.21875 
z
" id="DejaVuSans-48"/>
      </defs>
      <g transform="translate(56.493182 266.598437)scale(0.1 -0.1)">
       <use xlink:href="#DejaVuSans-51"/>
       <use x="63.623047" xlink:href="#DejaVuSans-53"/>
       <use x="127.246094" xlink:href="#DejaVuSans-48"/>
       <use x="190.869141" xlink:href="#DejaVuSans-48"/>
      </g>
     </g>
    </g>
    <g id="xtick_2">
     <g id="line2d_2">
      <g>
       <use style="stroke:#000000;stroke-width:0.8;" x="107.947204" xlink:href="#m6b686f5468" y="252"/>
      </g>
     </g>
     <g id="text_2">
      <!-- 4000 -->
      <defs>
       <path d="M 37.796875 64.3125 
L 12.890625 25.390625 
L 37.796875 25.390625 
z
M 35.203125 72.90625 
L 47.609375 72.90625 
L 47.609375 25.390625 
L 58.015625 25.390625 
L 58.015625 17.1875 
L 47.609375 17.1875 
L 47.609375 0 
L 37.796875 0 
L 37.796875 17.1875 
L 4.890625 17.1875 
L 4.890625 26.703125 
z
" id="DejaVuSans-52"/>
      </defs>
      <g transform="translate(95.222204 266.598437)scale(0.1 -0.1)">
       <use xlink:href="#DejaVuSans-52"/>
       <use x="63.623047" xlink:href="#DejaVuSans-48"/>
       <use x="127.246094" xlink:href="#DejaVuSans-48"/>
       <use x="190.869141" xlink:href="#DejaVuSans-48"/>
      </g>
     </g>
    </g>
    <g id="xtick_3">
     <g id="line2d_3">
      <g>
       <use style="stroke:#000000;stroke-width:0.8;" x="146.676225" xlink:href="#m6b686f5468" y="252"/>
      </g>
     </g>
     <g id="text_3">
      <!-- 4500 -->
      <g transform="translate(133.951225 266.598437)scale(0.1 -0.1)">
       <use xlink:href="#DejaVuSans-52"/>
       <use x="63.623047" xlink:href="#DejaVuSans-53"/>
       <use x="127.246094" xlink:href="#DejaVuSans-48"/>
       <use x="190.869141" xlink:href="#DejaVuSans-48"/>
      </g>
     </g>
    </g>
    <g id="xtick_4">
     <g id="line2d_4">
      <g>
       <use style="stroke:#000000;stroke-width:0.8;" x="185.405247" xlink:href="#m6b686f5468" y="252"/>
      </g>
     </g>
     <g id="text_4">
      <!-- 5000 -->
      <g transform="translate(172.680247 266.598437)scale(0.1 -0.1)">
       <use xlink:href="#DejaVuSans-53"/>
       <use x="63.623047" xlink:href="#DejaVuSans-48"/>
       <use x="127.246094" xlink:href="#DejaVuSans-48"/>
       <use x="190.869141" xlink:href="#DejaVuSans-48"/>
      </g>
     </g>
    </g>
    <g id="xtick_5">
     <g id="line2d_5">
      <g>
       <use style="stroke:#000000;stroke-width:0.8;" x="224.134269" xlink:href="#m6b686f5468" y="252"/>
      </g>
     </g>
     <g id="text_5">
      <!-- 5500 -->
      <g transform="translate(211.409269 266.598437)scale(0.1 -0.1)">
       <use xlink:href="#DejaVuSans-53"/>
       <use x="63.623047" xlink:href="#DejaVuSans-53"/>
       <use x="127.246094" xlink:href="#DejaVuSans-48"/>
       <use x="190.869141" xlink:href="#DejaVuSans-48"/>
      </g>
     </g>
    </g>
    <g id="xtick_6">
     <g id="line2d_6">
      <g>
       <use style="stroke:#000000;stroke-width:0.8;" x="262.863291" xlink:href="#m6b686f5468" y="252"/>
      </g>
     </g>
     <g id="text_6">
      <!-- 6000 -->
      <defs>
       <path d="M 33.015625 40.375 
Q 26.375 40.375 22.484375 35.828125 
Q 18.609375 31.296875 18.609375 23.390625 
Q 18.609375 15.53125 22.484375 10.953125 
Q 26.375 6.390625 33.015625 6.390625 
Q 39.65625 6.390625 43.53125 10.953125 
Q 47.40625 15.53125 47.40625 23.390625 
Q 47.40625 31.296875 43.53125 35.828125 
Q 39.65625 40.375 33.015625 40.375 
z
M 52.59375 71.296875 
L 52.59375 62.3125 
Q 48.875 64.0625 45.09375 64.984375 
Q 41.3125 65.921875 37.59375 65.921875 
Q 27.828125 65.921875 22.671875 59.328125 
Q 17.53125 52.734375 16.796875 39.40625 
Q 19.671875 43.65625 24.015625 45.921875 
Q 28.375 48.1875 33.59375 48.1875 
Q 44.578125 48.1875 50.953125 41.515625 
Q 57.328125 34.859375 57.328125 23.390625 
Q 57.328125 12.15625 50.6875 5.359375 
Q 44.046875 -1.421875 33.015625 -1.421875 
Q 20.359375 -1.421875 13.671875 8.265625 
Q 6.984375 17.96875 6.984375 36.375 
Q 6.984375 53.65625 15.1875 63.9375 
Q 23.390625 74.21875 37.203125 74.21875 
Q 40.921875 74.21875 44.703125 73.484375 
Q 48.484375 72.75 52.59375 71.296875 
z
" id="DejaVuSans-54"/>
      </defs>
      <g transform="translate(250.138291 266.598437)scale(0.1 -0.1)">
       <use xlink:href="#DejaVuSans-54"/>
       <use x="63.623047" xlink:href="#DejaVuSans-48"/>
       <use x="127.246094" xlink:href="#DejaVuSans-48"/>
       <use x="190.869141" xlink:href="#DejaVuSans-48"/>
      </g>
     </g>
    </g>
    <g id="xtick_7">
     <g id="line2d_7">
      <g>
       <use style="stroke:#000000;stroke-width:0.8;" x="301.592312" xlink:href="#m6b686f5468" y="252"/>
      </g>
     </g>
     <g id="text_7">
      <!-- 6500 -->
      <g transform="translate(288.867312 266.598437)scale(0.1 -0.1)">
       <use xlink:href="#DejaVuSans-54"/>
       <use x="63.623047" xlink:href="#DejaVuSans-53"/>
       <use x="127.246094" xlink:href="#DejaVuSans-48"/>
       <use x="190.869141" xlink:href="#DejaVuSans-48"/>
      </g>
     </g>
    </g>
    <g id="xtick_8">
     <g id="line2d_8">
      <g>
       <use style="stroke:#000000;stroke-width:0.8;" x="340.321334" xlink:href="#m6b686f5468" y="252"/>
      </g>
     </g>
     <g id="text_8">
      <!-- 7000 -->
      <defs>
       <path d="M 8.203125 72.90625 
L 55.078125 72.90625 
L 55.078125 68.703125 
L 28.609375 0 
L 18.3125 0 
L 43.21875 64.59375 
L 8.203125 64.59375 
z
" id="DejaVuSans-55"/>
      </defs>
      <g transform="translate(327.596334 266.598437)scale(0.1 -0.1)">
       <use xlink:href="#DejaVuSans-55"/>
       <use x="63.623047" xlink:href="#DejaVuSans-48"/>
       <use x="127.246094" xlink:href="#DejaVuSans-48"/>
       <use x="190.869141" xlink:href="#DejaVuSans-48"/>
      </g>
     </g>
    </g>
    <g id="xtick_9">
     <g id="line2d_9">
      <g>
       <use style="stroke:#000000;stroke-width:0.8;" x="379.050356" xlink:href="#m6b686f5468" y="252"/>
      </g>
     </g>
     <g id="text_9">
      <!-- 7500 -->
      <g transform="translate(366.325356 266.598437)scale(0.1 -0.1)">
       <use xlink:href="#DejaVuSans-55"/>
       <use x="63.623047" xlink:href="#DejaVuSans-53"/>
       <use x="127.246094" xlink:href="#DejaVuSans-48"/>
       <use x="190.869141" xlink:href="#DejaVuSans-48"/>
      </g>
     </g>
    </g>
    <g id="text_10">
     <!-- $\lambda$ ($\AA$) -->
     <defs>
      <path d="M 36.71875 67.4375 
L 48.828125 0 
L 39.3125 0 
L 31.84375 40.4375 
L 5.125 0 
L -4.390625 0 
L 29.734375 52.4375 
L 28.03125 62.109375 
Q 26.953125 68.265625 21.734375 68.265625 
L 17.046875 68.265625 
L 18.5 75.984375 
L 24.21875 75.875 
Q 35.203125 75.734375 36.71875 67.4375 
z
" id="DejaVuSans-Oblique-955"/>
      <path id="DejaVuSans-32"/>
      <path d="M 31 75.875 
Q 24.46875 64.65625 21.28125 53.65625 
Q 18.109375 42.671875 18.109375 31.390625 
Q 18.109375 20.125 21.3125 9.0625 
Q 24.515625 -2 31 -13.1875 
L 23.1875 -13.1875 
Q 15.875 -1.703125 12.234375 9.375 
Q 8.59375 20.453125 8.59375 31.390625 
Q 8.59375 42.28125 12.203125 53.3125 
Q 15.828125 64.359375 23.1875 75.875 
z
" id="DejaVuSans-40"/>
      <path d="M 49.8125 79.390625 
Q 49.8125 82.46875 47.625 84.640625 
Q 45.453125 86.8125 42.390625 86.8125 
Q 39.265625 86.8125 37.140625 84.6875 
Q 35.015625 82.5625 35.015625 79.390625 
Q 35.015625 76.3125 37.140625 74.15625 
Q 39.265625 72.015625 42.390625 72.015625 
Q 45.453125 72.015625 47.625 74.15625 
Q 49.8125 76.3125 49.8125 79.390625 
z
M 34.421875 68.703125 
Q 31.78125 70.515625 30.390625 73.265625 
Q 29 76.03125 29 79.390625 
Q 29 84.96875 32.90625 88.890625 
Q 36.8125 92.828125 42.390625 92.828125 
Q 47.953125 92.828125 51.875 88.890625 
Q 55.8125 84.96875 55.8125 79.390625 
Q 55.8125 75.53125 54.03125 72.546875 
Q 52.25 69.578125 48.875 67.828125 
L 61.53125 0 
L 51.21875 0 
L 48.1875 18.703125 
L 15.375 18.703125 
L 5.078125 0 
L -5.328125 0 
z
M 40.375 63.1875 
L 19.921875 26.90625 
L 46.6875 26.90625 
z
" id="DejaVuSans-Oblique-197"/>
      <path d="M 8.015625 75.875 
L 15.828125 75.875 
Q 23.140625 64.359375 26.78125 53.3125 
Q 30.421875 42.28125 30.421875 31.390625 
Q 30.421875 20.453125 26.78125 9.375 
Q 23.140625 -1.703125 15.828125 -13.1875 
L 8.015625 -13.1875 
Q 14.5 -2 17.703125 9.0625 
Q 20.90625 20.125 20.90625 31.390625 
Q 20.90625 42.671875 17.703125 53.65625 
Q 14.5 64.65625 8.015625 75.875 
z
" id="DejaVuSans-41"/>
     </defs>
     <g transform="translate(209.5 281.298437)scale(0.1 -0.1)">
      <use transform="translate(0 0.171875)" xlink:href="#DejaVuSans-Oblique-955"/>
      <use transform="translate(59.179688 0.171875)" xlink:href="#DejaVuSans-32"/>
      <use transform="translate(90.966797 0.171875)" xlink:href="#DejaVuSans-40"/>
      <use transform="translate(129.980469 0.171875)" xlink:href="#DejaVuSans-Oblique-197"/>
      <use transform="translate(198.388672 0.171875)" xlink:href="#DejaVuSans-41"/>
     </g>
    </g>
   </g>
   <g id="matplotlib.axis_2">
    <g id="ytick_1">
     <g id="line2d_10">
      <defs>
       <path d="M 0 0 
L -3.5 0 
" id="mc8c0fd1edf" style="stroke:#000000;stroke-width:0.8;"/>
      </defs>
      <g>
       <use style="stroke:#000000;stroke-width:0.8;" x="54" xlink:href="#mc8c0fd1edf" y="242.116364"/>
      </g>
     </g>
     <g id="text_11">
      <!-- 0.000 -->
      <defs>
       <path d="M 10.6875 12.40625 
L 21 12.40625 
L 21 0 
L 10.6875 0 
z
" id="DejaVuSans-46"/>
      </defs>
      <g transform="translate(18.371875 245.915582)scale(0.1 -0.1)">
       <use xlink:href="#DejaVuSans-48"/>
       <use x="63.623047" xlink:href="#DejaVuSans-46"/>
       <use x="95.410156" xlink:href="#DejaVuSans-48"/>
       <use x="159.033203" xlink:href="#DejaVuSans-48"/>
       <use x="222.65625" xlink:href="#DejaVuSans-48"/>
      </g>
     </g>
    </g>
    <g id="ytick_2">
     <g id="line2d_11">
      <g>
       <use style="stroke:#000000;stroke-width:0.8;" x="54" xlink:href="#mc8c0fd1edf" y="208.692499"/>
      </g>
     </g>
     <g id="text_12">
      <!-- 0.005 -->
      <g transform="translate(18.371875 212.491718)scale(0.1 -0.1)">
       <use xlink:href="#DejaVuSans-48"/>
       <use x="63.623047" xlink:href="#DejaVuSans-46"/>
       <use x="95.410156" xlink:href="#DejaVuSans-48"/>
       <use x="159.033203" xlink:href="#DejaVuSans-48"/>
       <use x="222.65625" xlink:href="#DejaVuSans-53"/>
      </g>
     </g>
    </g>
    <g id="ytick_3">
     <g id="line2d_12">
      <g>
       <use style="stroke:#000000;stroke-width:0.8;" x="54" xlink:href="#mc8c0fd1edf" y="175.268635"/>
      </g>
     </g>
     <g id="text_13">
      <!-- 0.010 -->
      <defs>
       <path d="M 12.40625 8.296875 
L 28.515625 8.296875 
L 28.515625 63.921875 
L 10.984375 60.40625 
L 10.984375 69.390625 
L 28.421875 72.90625 
L 38.28125 72.90625 
L 38.28125 8.296875 
L 54.390625 8.296875 
L 54.390625 0 
L 12.40625 0 
z
" id="DejaVuSans-49"/>
      </defs>
      <g transform="translate(18.371875 179.067854)scale(0.1 -0.1)">
       <use xlink:href="#DejaVuSans-48"/>
       <use x="63.623047" xlink:href="#DejaVuSans-46"/>
       <use x="95.410156" xlink:href="#DejaVuSans-48"/>
       <use x="159.033203" xlink:href="#DejaVuSans-49"/>
       <use x="222.65625" xlink:href="#DejaVuSans-48"/>
      </g>
     </g>
    </g>
    <g id="ytick_4">
     <g id="line2d_13">
      <g>
       <use style="stroke:#000000;stroke-width:0.8;" x="54" xlink:href="#mc8c0fd1edf" y="141.844771"/>
      </g>
     </g>
     <g id="text_14">
      <!-- 0.015 -->
      <g transform="translate(18.371875 145.643989)scale(0.1 -0.1)">
       <use xlink:href="#DejaVuSans-48"/>
       <use x="63.623047" xlink:href="#DejaVuSans-46"/>
       <use x="95.410156" xlink:href="#DejaVuSans-48"/>
       <use x="159.033203" xlink:href="#DejaVuSans-49"/>
       <use x="222.65625" xlink:href="#DejaVuSans-53"/>
      </g>
     </g>
    </g>
    <g id="ytick_5">
     <g id="line2d_14">
      <g>
       <use style="stroke:#000000;stroke-width:0.8;" x="54" xlink:href="#mc8c0fd1edf" y="108.420906"/>
      </g>
     </g>
     <g id="text_15">
      <!-- 0.020 -->
      <defs>
       <path d="M 19.1875 8.296875 
L 53.609375 8.296875 
L 53.609375 0 
L 7.328125 0 
L 7.328125 8.296875 
Q 12.9375 14.109375 22.625 23.890625 
Q 32.328125 33.6875 34.8125 36.53125 
Q 39.546875 41.84375 41.421875 45.53125 
Q 43.3125 49.21875 43.3125 52.78125 
Q 43.3125 58.59375 39.234375 62.25 
Q 35.15625 65.921875 28.609375 65.921875 
Q 23.96875 65.921875 18.8125 64.3125 
Q 13.671875 62.703125 7.8125 59.421875 
L 7.8125 69.390625 
Q 13.765625 71.78125 18.9375 73 
Q 24.125 74.21875 28.421875 74.21875 
Q 39.75 74.21875 46.484375 68.546875 
Q 53.21875 62.890625 53.21875 53.421875 
Q 53.21875 48.921875 51.53125 44.890625 
Q 49.859375 40.875 45.40625 35.40625 
Q 44.1875 33.984375 37.640625 27.21875 
Q 31.109375 20.453125 19.1875 8.296875 
z
" id="DejaVuSans-50"/>
      </defs>
      <g transform="translate(18.371875 112.220125)scale(0.1 -0.1)">
       <use xlink:href="#DejaVuSans-48"/>
       <use x="63.623047" xlink:href="#DejaVuSans-46"/>
       <use x="95.410156" xlink:href="#DejaVuSans-48"/>
       <use x="159.033203" xlink:href="#DejaVuSans-50"/>
       <use x="222.65625" xlink:href="#DejaVuSans-48"/>
      </g>
     </g>
    </g>
    <g id="ytick_6">
     <g id="line2d_15">
      <g>
       <use style="stroke:#000000;stroke-width:0.8;" x="54" xlink:href="#mc8c0fd1edf" y="74.997042"/>
      </g>
     </g>
     <g id="text_16">
      <!-- 0.025 -->
      <g transform="translate(18.371875 78.796261)scale(0.1 -0.1)">
       <use xlink:href="#DejaVuSans-48"/>
       <use x="63.623047" xlink:href="#DejaVuSans-46"/>
       <use x="95.410156" xlink:href="#DejaVuSans-48"/>
       <use x="159.033203" xlink:href="#DejaVuSans-50"/>
       <use x="222.65625" xlink:href="#DejaVuSans-53"/>
      </g>
     </g>
    </g>
    <g id="ytick_7">
     <g id="line2d_16">
      <g>
       <use style="stroke:#000000;stroke-width:0.8;" x="54" xlink:href="#mc8c0fd1edf" y="41.573178"/>
      </g>
     </g>
     <g id="text_17">
      <!-- 0.030 -->
      <g transform="translate(18.371875 45.372397)scale(0.1 -0.1)">
       <use xlink:href="#DejaVuSans-48"/>
       <use x="63.623047" xlink:href="#DejaVuSans-46"/>
       <use x="95.410156" xlink:href="#DejaVuSans-48"/>
       <use x="159.033203" xlink:href="#DejaVuSans-51"/>
       <use x="222.65625" xlink:href="#DejaVuSans-48"/>
      </g>
     </g>
    </g>
    <g id="text_18">
     <!-- relative flux -->
     <defs>
      <path d="M 41.109375 46.296875 
Q 39.59375 47.171875 37.8125 47.578125 
Q 36.03125 48 33.890625 48 
Q 26.265625 48 22.1875 43.046875 
Q 18.109375 38.09375 18.109375 28.8125 
L 18.109375 0 
L 9.078125 0 
L 9.078125 54.6875 
L 18.109375 54.6875 
L 18.109375 46.1875 
Q 20.953125 51.171875 25.484375 53.578125 
Q 30.03125 56 36.53125 56 
Q 37.453125 56 38.578125 55.875 
Q 39.703125 55.765625 41.0625 55.515625 
z
" id="DejaVuSans-114"/>
      <path d="M 56.203125 29.59375 
L 56.203125 25.203125 
L 14.890625 25.203125 
Q 15.484375 15.921875 20.484375 11.0625 
Q 25.484375 6.203125 34.421875 6.203125 
Q 39.59375 6.203125 44.453125 7.46875 
Q 49.3125 8.734375 54.109375 11.28125 
L 54.109375 2.78125 
Q 49.265625 0.734375 44.1875 -0.34375 
Q 39.109375 -1.421875 33.890625 -1.421875 
Q 20.796875 -1.421875 13.15625 6.1875 
Q 5.515625 13.8125 5.515625 26.8125 
Q 5.515625 40.234375 12.765625 48.109375 
Q 20.015625 56 32.328125 56 
Q 43.359375 56 49.78125 48.890625 
Q 56.203125 41.796875 56.203125 29.59375 
z
M 47.21875 32.234375 
Q 47.125 39.59375 43.09375 43.984375 
Q 39.0625 48.390625 32.421875 48.390625 
Q 24.90625 48.390625 20.390625 44.140625 
Q 15.875 39.890625 15.1875 32.171875 
z
" id="DejaVuSans-101"/>
      <path d="M 9.421875 75.984375 
L 18.40625 75.984375 
L 18.40625 0 
L 9.421875 0 
z
" id="DejaVuSans-108"/>
      <path d="M 34.28125 27.484375 
Q 23.390625 27.484375 19.1875 25 
Q 14.984375 22.515625 14.984375 16.5 
Q 14.984375 11.71875 18.140625 8.90625 
Q 21.296875 6.109375 26.703125 6.109375 
Q 34.1875 6.109375 38.703125 11.40625 
Q 43.21875 16.703125 43.21875 25.484375 
L 43.21875 27.484375 
z
M 52.203125 31.203125 
L 52.203125 0 
L 43.21875 0 
L 43.21875 8.296875 
Q 40.140625 3.328125 35.546875 0.953125 
Q 30.953125 -1.421875 24.3125 -1.421875 
Q 15.921875 -1.421875 10.953125 3.296875 
Q 6 8.015625 6 15.921875 
Q 6 25.140625 12.171875 29.828125 
Q 18.359375 34.515625 30.609375 34.515625 
L 43.21875 34.515625 
L 43.21875 35.40625 
Q 43.21875 41.609375 39.140625 45 
Q 35.0625 48.390625 27.6875 48.390625 
Q 23 48.390625 18.546875 47.265625 
Q 14.109375 46.140625 10.015625 43.890625 
L 10.015625 52.203125 
Q 14.9375 54.109375 19.578125 55.046875 
Q 24.21875 56 28.609375 56 
Q 40.484375 56 46.34375 49.84375 
Q 52.203125 43.703125 52.203125 31.203125 
z
" id="DejaVuSans-97"/>
      <path d="M 18.3125 70.21875 
L 18.3125 54.6875 
L 36.8125 54.6875 
L 36.8125 47.703125 
L 18.3125 47.703125 
L 18.3125 18.015625 
Q 18.3125 11.328125 20.140625 9.421875 
Q 21.96875 7.515625 27.59375 7.515625 
L 36.8125 7.515625 
L 36.8125 0 
L 27.59375 0 
Q 17.1875 0 13.234375 3.875 
Q 9.28125 7.765625 9.28125 18.015625 
L 9.28125 47.703125 
L 2.6875 47.703125 
L 2.6875 54.6875 
L 9.28125 54.6875 
L 9.28125 70.21875 
z
" id="DejaVuSans-116"/>
      <path d="M 9.421875 54.6875 
L 18.40625 54.6875 
L 18.40625 0 
L 9.421875 0 
z
M 9.421875 75.984375 
L 18.40625 75.984375 
L 18.40625 64.59375 
L 9.421875 64.59375 
z
" id="DejaVuSans-105"/>
      <path d="M 2.984375 54.6875 
L 12.5 54.6875 
L 29.59375 8.796875 
L 46.6875 54.6875 
L 56.203125 54.6875 
L 35.6875 0 
L 23.484375 0 
z
" id="DejaVuSans-118"/>
      <path d="M 37.109375 75.984375 
L 37.109375 68.5 
L 28.515625 68.5 
Q 23.6875 68.5 21.796875 66.546875 
Q 19.921875 64.59375 19.921875 59.515625 
L 19.921875 54.6875 
L 34.71875 54.6875 
L 34.71875 47.703125 
L 19.921875 47.703125 
L 19.921875 0 
L 10.890625 0 
L 10.890625 47.703125 
L 2.296875 47.703125 
L 2.296875 54.6875 
L 10.890625 54.6875 
L 10.890625 58.5 
Q 10.890625 67.625 15.140625 71.796875 
Q 19.390625 75.984375 28.609375 75.984375 
z
" id="DejaVuSans-102"/>
      <path d="M 8.5 21.578125 
L 8.5 54.6875 
L 17.484375 54.6875 
L 17.484375 21.921875 
Q 17.484375 14.15625 20.5 10.265625 
Q 23.53125 6.390625 29.59375 6.390625 
Q 36.859375 6.390625 41.078125 11.03125 
Q 45.3125 15.671875 45.3125 23.6875 
L 45.3125 54.6875 
L 54.296875 54.6875 
L 54.296875 0 
L 45.3125 0 
L 45.3125 8.40625 
Q 42.046875 3.421875 37.71875 1 
Q 33.40625 -1.421875 27.6875 -1.421875 
Q 18.265625 -1.421875 13.375 4.4375 
Q 8.5 10.296875 8.5 21.578125 
z
M 31.109375 56 
z
" id="DejaVuSans-117"/>
      <path d="M 54.890625 54.6875 
L 35.109375 28.078125 
L 55.90625 0 
L 45.3125 0 
L 29.390625 21.484375 
L 13.484375 0 
L 2.875 0 
L 24.125 28.609375 
L 4.6875 54.6875 
L 15.28125 54.6875 
L 29.78125 35.203125 
L 44.28125 54.6875 
z
" id="DejaVuSans-120"/>
     </defs>
     <g transform="translate(12.292187 173.115156)rotate(-90)scale(0.1 -0.1)">
      <use xlink:href="#DejaVuSans-114"/>
      <use x="41.082031" xlink:href="#DejaVuSans-101"/>
      <use x="102.605469" xlink:href="#DejaVuSans-108"/>
      <use x="130.388672" xlink:href="#DejaVuSans-97"/>
      <use x="191.667969" xlink:href="#DejaVuSans-116"/>
      <use x="230.876953" xlink:href="#DejaVuSans-105"/>
      <use x="258.660156" xlink:href="#DejaVuSans-118"/>
      <use x="317.839844" xlink:href="#DejaVuSans-101"/>
      <use x="379.363281" xlink:href="#DejaVuSans-32"/>
      <use x="411.150391" xlink:href="#DejaVuSans-102"/>
      <use x="446.355469" xlink:href="#DejaVuSans-108"/>
      <use x="474.138672" xlink:href="#DejaVuSans-117"/>
      <use x="537.517578" xlink:href="#DejaVuSans-120"/>
     </g>
    </g>
   </g>
   <g id="line2d_17">
    <path clip-path="url(#p8a3347a254)" d="M 69.218182 242.116364 
L 106.095956 242.116364 
L 106.165669 147.810238 
L 106.235381 148.225569 
L 106.444518 144.0842 
L 106.583942 142.745119 
L 107.281064 126.156409 
L 107.76905 113.746033 
L 108.39646 100.31372 
L 108.466172 99.83283 
L 108.535885 98.367345 
L 108.605597 99.42898 
L 108.814734 95.599573 
L 108.884446 95.723353 
L 108.954158 95.538178 
L 109.302719 88.077826 
L 109.372432 87.815246 
L 109.999842 80.132177 
L 110.139266 81.861338 
L 110.208978 81.460425 
L 110.278691 81.526549 
L 110.487827 76.358014 
L 110.55754 76.269868 
L 110.766676 76.995514 
L 110.836389 72.060076 
L 110.906101 73.502333 
L 110.975813 73.544241 
L 111.045525 73.083573 
L 111.18495 70.616471 
L 111.394087 72.792701 
L 111.533511 68.039493 
L 111.672935 69.443606 
L 111.742648 68.953855 
L 111.882072 65.850083 
L 111.951784 67.25186 
L 112.021497 65.641382 
L 112.091209 66.141747 
L 112.230633 67.611535 
L 112.300346 66.665312 
L 112.43977 62.721694 
L 112.579195 66.136346 
L 112.718619 64.748232 
L 112.858044 66.560122 
L 112.927756 65.924775 
L 113.136893 67.059574 
L 113.206605 65.834404 
L 113.276317 66.452174 
L 113.346029 67.050165 
L 113.555166 66.236923 
L 113.624878 68.350645 
L 113.69459 67.965784 
L 113.764303 68.092288 
L 113.834015 68.667366 
L 114.60085 89.849082 
L 114.949411 101.25639 
L 115.297972 106.459616 
L 115.437396 106.57983 
L 115.576821 107.790752 
L 115.646533 107.550237 
L 115.716245 106.191494 
L 115.785958 107.328587 
L 115.85567 105.390976 
L 115.995094 106.96953 
L 116.064807 106.773459 
L 116.134519 107.560975 
L 116.204231 107.531032 
L 116.413368 102.621264 
L 116.48308 103.37718 
L 116.552792 102.800832 
L 118.016749 60.159879 
L 118.156174 60.375507 
L 118.295598 57.299255 
L 118.435023 55.027258 
L 118.504735 55.710051 
L 118.853296 51.937056 
L 118.992721 49.375656 
L 119.201857 49.942202 
L 119.341282 48.492993 
L 119.410994 49.446038 
L 119.550419 46.699141 
L 119.620131 46.900822 
L 119.759555 47.920697 
L 119.968692 47.148974 
L 120.108116 48.801184 
L 120.177829 48.728917 
L 120.317253 48.795335 
L 120.52639 46.173015 
L 120.665814 49.175292 
L 120.805239 48.347442 
L 120.944663 50.428173 
L 121.014376 49.789118 
L 121.084088 49.058141 
L 121.1538 46.777676 
L 121.223512 47.208021 
L 121.293225 48.046453 
L 121.362937 48.03445 
L 121.432649 47.830433 
L 121.572073 50.265933 
L 121.711498 48.454731 
L 121.850922 51.012857 
L 122.060059 47.561189 
L 122.129771 48.43013 
L 122.199484 49.829911 
L 122.338908 48.007262 
L 122.478333 48.587773 
L 122.548045 49.689767 
L 122.617757 47.978548 
L 122.687469 48.744756 
L 122.826894 47.378648 
L 122.896606 47.203233 
L 123.03603 44.847799 
L 123.105743 46.440342 
L 123.175455 46.051107 
L 123.245167 45.752686 
L 123.314879 45.946426 
L 123.384592 45.798751 
L 123.524016 44.443636 
L 123.663441 46.352571 
L 123.733153 44.72742 
L 123.94229 47.442662 
L 124.012002 46.975118 
L 124.081714 47.260539 
L 124.151426 47.850827 
L 124.221139 47.604332 
L 124.430275 49.542581 
L 124.499988 49.280813 
L 124.639412 47.250624 
L 124.709124 49.456899 
L 124.778836 49.176429 
L 124.918261 48.79004 
L 125.127398 48.792263 
L 125.19711 48.273729 
L 125.336534 49.299311 
L 125.406247 49.150774 
L 125.545671 50.105247 
L 125.615383 49.625621 
L 125.685096 49.216633 
L 125.82452 49.928727 
L 125.963945 49.192932 
L 126.103369 51.416013 
L 126.242793 49.039034 
L 126.312506 51.860473 
L 126.382218 51.240708 
L 126.521642 49.768888 
L 126.730779 51.684712 
L 126.800491 49.983559 
L 127.009628 51.753155 
L 127.07934 52.130026 
L 127.218765 50.773558 
L 127.288477 51.789259 
L 127.358189 50.901936 
L 127.567326 53.644899 
L 127.637038 52.799754 
L 127.706751 53.208488 
L 127.776463 53.23899 
L 127.846175 52.866736 
L 127.915887 51.464346 
L 127.985599 51.949132 
L 128.055312 53.415451 
L 128.125024 53.151528 
L 128.194736 52.737856 
L 128.334161 55.906337 
L 128.403873 54.766035 
L 128.543297 53.380112 
L 128.61301 54.035171 
L 128.752434 57.639458 
L 128.822146 56.829602 
L 128.891859 57.016678 
L 129.031283 56.640609 
L 129.170708 59.527291 
L 129.310132 61.610929 
L 129.379844 61.771309 
L 129.449556 61.543515 
L 129.519269 61.894449 
L 129.658693 63.510358 
L 129.728405 62.66107 
L 129.798118 62.94685 
L 129.86783 62.904998 
L 130.076967 64.212641 
L 130.216391 67.078655 
L 130.355816 65.539824 
L 130.634665 67.694403 
L 130.704377 67.422148 
L 130.774089 68.385978 
L 130.843801 68.242503 
L 130.983226 69.031546 
L 131.12265 71.306858 
L 131.192362 70.444259 
L 131.401499 73.351158 
L 131.540924 74.586697 
L 131.610636 75.617133 
L 131.680348 74.356089 
L 132.865456 107.414416 
L 133.144305 111.733069 
L 133.214017 111.120708 
L 133.423154 114.195903 
L 133.562579 113.05543 
L 133.702003 115.599238 
L 133.771715 113.142322 
L 133.841428 113.440103 
L 133.980852 115.246725 
L 134.050564 115.210695 
L 134.189989 113.025541 
L 134.259701 114.002653 
L 134.329413 113.867679 
L 134.468838 111.923583 
L 134.53855 111.834072 
L 134.747687 107.928826 
L 135.026536 101.587254 
L 135.305385 92.298003 
L 135.653946 84.861831 
L 135.723658 84.931629 
L 135.79337 84.413536 
L 136.002507 80.327115 
L 136.072219 80.998306 
L 136.141931 80.538387 
L 136.211644 81.005552 
L 136.490493 78.911896 
L 136.629917 80.716058 
L 136.769342 78.778941 
L 136.908766 79.787862 
L 137.048191 81.475694 
L 137.117903 80.308325 
L 137.187615 80.859604 
L 137.257327 81.054591 
L 137.466464 79.59841 
L 137.536176 79.693367 
L 137.605888 80.994365 
L 137.675601 80.83764 
L 137.815025 79.941428 
L 137.884737 78.772793 
L 137.95445 78.897761 
L 138.093874 81.054208 
L 138.163586 80.320179 
L 138.233299 81.983544 
L 138.303011 81.969224 
L 138.372723 82.366615 
L 138.512148 81.047004 
L 138.58186 81.605349 
L 138.651572 81.566141 
L 138.721284 81.950077 
L 138.790997 80.876601 
L 138.860709 80.896035 
L 139.000133 81.51809 
L 139.139558 80.302623 
L 139.20927 81.82453 
L 139.418407 79.225728 
L 139.557831 78.898252 
L 139.627543 80.149077 
L 139.697256 79.671796 
L 139.766968 79.780008 
L 139.83668 79.386977 
L 139.976105 80.643041 
L 140.185241 78.643378 
L 140.324666 80.146366 
L 140.394378 80.003465 
L 140.673227 80.85327 
L 140.742939 80.399818 
L 140.812651 81.341715 
L 140.882364 81.277377 
L 140.952076 80.633799 
L 141.021788 81.2389 
L 141.0915 81.14523 
L 141.161213 81.352667 
L 141.230925 79.907262 
L 141.370349 82.035028 
L 141.579486 80.631274 
L 141.649198 81.013658 
L 141.718911 82.192114 
L 141.788623 81.516157 
L 141.858335 81.854429 
L 141.99776 83.4107 
L 142.067472 83.279444 
L 142.206896 84.877501 
L 142.276609 84.722229 
L 142.416033 85.727521 
L 142.485745 84.624162 
L 142.555457 85.279689 
L 142.694882 86.887925 
L 142.834306 86.547538 
L 142.973731 86.723216 
L 143.043443 88.213908 
L 143.113155 87.973822 
L 143.182868 87.125169 
L 143.601141 89.418423 
L 143.670853 89.744584 
L 143.810278 91.101121 
L 143.87999 90.879816 
L 143.949702 91.149726 
L 144.158839 92.940263 
L 144.228551 92.58139 
L 144.298263 92.743113 
L 144.5074 93.740534 
L 144.646825 93.213637 
L 144.855961 93.930855 
L 144.925674 94.486335 
L 145.065098 93.393709 
L 145.343947 95.332847 
L 145.413659 94.746963 
L 145.483372 95.169861 
L 145.553084 97.214876 
L 145.622796 96.303632 
L 145.692508 95.973931 
L 145.901645 96.976547 
L 145.971357 96.613456 
L 146.180494 97.665677 
L 146.319918 98.486294 
L 146.389631 98.510753 
L 146.529055 99.969455 
L 146.66848 98.104004 
L 146.877616 99.23909 
L 146.947329 98.775172 
L 147.086753 99.743245 
L 147.226177 99.218782 
L 147.29589 99.265191 
L 147.435314 99.89684 
L 147.574739 99.128527 
L 147.714163 100.481073 
L 147.853588 99.9082 
L 147.9233 100.808404 
L 148.062724 100.017821 
L 148.202149 101.64714 
L 148.411286 102.871067 
L 148.480998 103.28603 
L 148.55071 102.916918 
L 148.690135 104.149973 
L 148.829559 103.608172 
L 148.968983 105.396558 
L 149.108408 104.375617 
L 149.17812 104.568754 
L 149.317545 105.899642 
L 149.387257 105.782011 
L 149.456969 105.788636 
L 149.666106 107.079056 
L 149.80553 107.577506 
L 149.875243 108.313001 
L 149.944955 107.768924 
L 150.084379 108.416194 
L 150.154092 108.48959 
L 150.293516 109.574477 
L 150.43294 109.159393 
L 150.642077 110.317544 
L 150.711789 110.617487 
L 150.851214 112.207523 
L 150.920926 111.679816 
L 150.990638 112.097924 
L 151.060351 112.005527 
L 151.130063 111.561003 
L 151.199775 111.736834 
L 151.269487 112.899463 
L 151.3392 112.648601 
L 151.408912 112.545819 
L 151.548336 111.666617 
L 151.618049 111.890582 
L 151.757473 111.495425 
L 151.896898 112.845257 
L 151.96661 112.123726 
L 152.036322 112.392876 
L 152.106034 112.650879 
L 152.175746 112.010992 
L 152.245459 112.237941 
L 152.315171 112.267908 
L 152.454595 112.998896 
L 152.59402 112.790663 
L 152.733444 113.461556 
L 152.803157 113.370815 
L 152.872869 113.488845 
L 152.942581 113.125658 
L 153.012293 113.19547 
L 153.082006 113.243938 
L 153.151718 112.848392 
L 153.22143 112.946518 
L 153.291142 113.030661 
L 153.360855 112.424671 
L 153.430567 112.587911 
L 153.569991 112.959121 
L 153.639703 112.918441 
L 153.779128 113.108255 
L 153.84884 113.740477 
L 153.918552 113.562257 
L 154.057977 114.150439 
L 154.197401 112.591203 
L 154.267114 113.914121 
L 154.336826 113.248734 
L 154.615675 114.876793 
L 154.824812 116.534367 
L 154.964236 115.717108 
L 155.173373 117.018455 
L 155.312797 117.341782 
L 155.521934 118.338182 
L 155.591646 117.733637 
L 155.661358 117.980005 
L 155.731071 117.782851 
L 156.079632 119.03242 
L 156.149344 118.298328 
L 156.288769 119.66119 
L 156.428193 118.751834 
L 156.497905 118.894291 
L 156.567618 118.342794 
L 156.63733 119.15436 
L 156.707042 118.459604 
L 156.846466 119.456469 
L 156.985891 118.969184 
L 157.195028 120.015558 
L 157.473877 119.157331 
L 157.543589 119.19867 
L 157.683013 120.213798 
L 157.752726 119.756541 
L 157.822438 119.843812 
L 157.89215 120.136627 
L 157.961862 120.056436 
L 158.031575 119.665302 
L 158.101287 120.056283 
L 158.170999 119.697839 
L 158.240711 120.025711 
L 158.380136 119.619434 
L 158.449848 119.704364 
L 158.51956 119.582432 
L 158.589272 120.79756 
L 158.658985 119.59547 
L 158.798409 120.835827 
L 158.868121 120.740922 
L 158.937834 120.760265 
L 159.007546 121.018298 
L 159.077258 119.819457 
L 159.286395 121.234921 
L 159.425819 120.969926 
L 159.495532 121.291383 
L 159.565244 120.568627 
L 159.634956 120.728548 
L 159.844093 121.690732 
L 159.983517 120.976657 
L 160.05323 121.133976 
L 160.192654 121.759335 
L 160.332078 120.986792 
L 160.541215 122.936891 
L 160.610927 122.075878 
L 160.820064 123.68936 
L 161.029201 124.014155 
L 161.098913 123.443297 
L 161.168625 123.768554 
L 161.238338 123.680293 
L 161.447474 124.833477 
L 161.517187 124.596092 
L 161.586899 124.229932 
L 161.656611 125.037265 
L 161.726323 124.747259 
L 161.796035 124.842851 
L 162.005172 126.451349 
L 162.074884 126.785397 
L 162.144597 126.581573 
L 162.56287 127.862374 
L 162.632582 127.951353 
L 162.772007 127.306943 
L 162.981144 128.983885 
L 163.120568 128.405596 
L 163.469129 130.394053 
L 163.538841 130.005149 
L 163.608554 130.06748 
L 163.81769 129.802826 
L 163.887403 129.691306 
L 164.026827 130.817566 
L 164.096539 130.674128 
L 164.235964 131.072796 
L 164.445101 131.416034 
L 164.514813 131.213963 
L 164.584525 131.307989 
L 164.72395 132.015207 
L 164.793662 131.915272 
L 164.863374 131.488456 
L 165.142223 133.436049 
L 165.211935 133.283706 
L 165.35136 132.090449 
L 165.421072 132.818387 
L 165.490784 132.795506 
L 165.630209 133.25443 
L 165.699921 133.149366 
L 165.839345 132.698261 
L 166.048482 134.056274 
L 166.187907 133.030958 
L 166.257619 133.293945 
L 166.327331 133.230768 
L 166.397043 132.892484 
L 166.536468 133.667088 
L 166.60618 133.637421 
L 166.675892 133.624935 
L 166.815317 134.333108 
L 166.885029 133.925434 
L 166.954741 134.088958 
L 167.094166 134.783418 
L 167.303302 133.999976 
L 167.442727 134.849908 
L 167.512439 134.835553 
L 167.582151 134.936012 
L 167.721576 134.388802 
L 167.861 135.678602 
L 168.070137 134.890463 
L 168.209561 135.799072 
L 168.279274 135.417006 
L 168.348986 135.686393 
L 168.418698 135.345298 
L 168.48841 136.065073 
L 168.558123 135.997367 
L 168.627835 135.837576 
L 168.697547 135.943617 
L 168.836972 136.336215 
L 168.906684 136.835061 
L 169.046108 136.418362 
L 169.185533 137.030542 
L 169.39467 136.5616 
L 169.603806 137.536806 
L 169.673519 137.552248 
L 170.161504 138.634249 
L 170.300929 139.471474 
L 170.370641 139.227981 
L 170.64949 140.554559 
L 170.719202 140.340262 
L 170.858627 140.271159 
L 171.207188 143.233738 
L 171.625461 145.774297 
L 172.043735 151.456427 
L 172.462008 158.911292 
L 172.740857 163.38846 
L 172.810569 163.5105 
L 173.089418 166.561207 
L 173.228843 166.716608 
L 173.507692 168.606745 
L 173.647116 168.880026 
L 173.716828 169.407679 
L 173.786541 169.096494 
L 173.995677 169.913758 
L 174.135102 169.658316 
L 174.204814 169.390249 
L 174.274526 169.408404 
L 174.344239 170.037302 
L 174.553375 168.584177 
L 174.6928 167.770817 
L 175.111073 162.573079 
L 175.738483 154.821163 
L 175.808196 154.86514 
L 176.505318 151.411598 
L 176.57503 151.394583 
L 176.784167 150.932227 
L 176.923591 150.309279 
L 176.993304 150.918225 
L 177.063016 150.849755 
L 177.20244 149.833461 
L 177.341865 150.506428 
L 177.411577 150.213694 
L 177.481289 150.333904 
L 177.620714 150.142482 
L 177.760138 151.031366 
L 177.899563 150.14499 
L 177.969275 150.607603 
L 178.108699 150.110034 
L 178.178412 150.313398 
L 178.248124 150.283572 
L 178.317836 149.807582 
L 178.387548 149.838806 
L 178.457261 149.674057 
L 178.596685 149.098812 
L 178.805822 150.460822 
L 178.875534 149.658556 
L 178.945246 149.679964 
L 179.014959 149.363708 
L 179.084671 149.379907 
L 179.224095 149.802403 
L 179.293808 149.649257 
L 179.433232 150.635467 
L 179.572656 149.849943 
L 179.642369 150.063964 
L 179.712081 150.02833 
L 180.060642 148.842183 
L 180.200067 149.275411 
L 180.339491 148.746358 
L 180.409203 149.155586 
L 180.478916 148.832364 
L 180.61834 149.302336 
L 180.688052 149.221706 
L 180.757765 149.184379 
L 180.827477 149.894491 
L 180.897189 149.476475 
L 180.966901 149.584447 
L 181.036614 149.070208 
L 181.176038 150.040126 
L 181.24575 149.669433 
L 181.315462 149.827142 
L 181.385175 149.965249 
L 181.524599 150.504193 
L 181.733736 150.605173 
L 181.803448 150.445138 
L 182.291434 151.735545 
L 182.361146 151.374553 
L 182.430858 151.542922 
L 182.500571 151.39892 
L 183.127981 153.342273 
L 183.197693 153.266603 
L 183.337117 153.46234 
L 183.40683 153.28706 
L 183.615966 154.373501 
L 183.685679 154.306254 
L 183.894815 153.862858 
L 184.103952 155.200976 
L 184.731362 157.375456 
L 184.870787 157.909066 
L 184.940499 157.91947 
L 185.010211 158.401501 
L 185.079923 158.153065 
L 185.149636 158.086806 
L 185.28906 158.60545 
L 185.358772 158.441737 
L 185.428485 159.19347 
L 185.498197 158.835803 
L 185.567909 158.653526 
L 185.707334 159.104438 
L 185.846758 158.928946 
L 185.91647 159.154903 
L 185.986182 158.964405 
L 186.055895 159.342518 
L 186.125607 158.847523 
L 186.195319 159.050145 
L 186.404456 159.899465 
L 186.474168 159.639393 
L 186.54388 159.85448 
L 186.613593 159.714096 
L 186.892442 159.653983 
L 187.031866 159.369155 
L 187.241003 159.748294 
L 187.45014 158.77363 
L 187.519852 159.200605 
L 187.589564 158.993744 
L 187.868413 158.312928 
L 188.007837 159.180069 
L 188.07755 158.588297 
L 188.147262 158.944934 
L 188.216974 158.772144 
L 188.356399 159.324946 
L 188.495823 158.99735 
L 188.565535 159.11254 
L 188.70496 159.230184 
L 188.844384 158.705923 
L 188.983809 159.045613 
L 189.053521 158.851815 
L 189.262658 159.487574 
L 189.402082 158.914105 
L 189.611219 159.276833 
L 189.680931 158.950921 
L 189.750643 159.119045 
L 189.890068 159.58396 
L 189.95978 159.438413 
L 190.029492 159.167062 
L 190.099205 159.363743 
L 190.168917 159.28697 
L 190.238629 159.199346 
L 190.517478 159.920375 
L 190.656903 159.478253 
L 190.796327 160.016655 
L 190.866039 160.035275 
L 191.144888 160.916682 
L 191.284313 160.29002 
L 191.354025 161.03614 
L 191.423737 160.998038 
L 191.632874 161.410649 
L 191.772298 161.631544 
L 191.842011 161.372043 
L 191.911723 161.454443 
L 191.981435 161.83013 
L 192.051147 161.665969 
L 192.12086 161.664166 
L 192.260284 162.509752 
L 192.399708 162.253229 
L 192.469421 162.627378 
L 192.608845 162.095714 
L 192.817982 162.611662 
L 192.887694 162.564392 
L 192.957406 163.095631 
L 193.027119 162.914706 
L 193.166543 163.037937 
L 193.236255 162.846413 
L 193.584817 164.031936 
L 193.724241 163.617458 
L 193.793953 163.805112 
L 193.863666 164.033886 
L 193.933378 163.714501 
L 194.00309 164.272644 
L 194.072802 164.085003 
L 194.212227 164.280429 
L 194.281939 164.26565 
L 194.421363 164.549798 
L 194.491076 164.303482 
L 194.700212 165.26481 
L 194.909349 165.044294 
L 194.979061 164.367467 
L 195.048774 165.416646 
L 195.118486 165.295088 
L 195.188198 165.683438 
L 195.25791 165.47212 
L 195.327623 165.212257 
L 195.397335 165.379042 
L 195.536759 165.980768 
L 195.606471 165.713995 
L 195.815608 166.108921 
L 195.88532 165.934373 
L 195.955033 165.606509 
L 196.024745 165.756212 
L 196.233882 166.862625 
L 196.652155 168.803951 
L 196.721867 168.708043 
L 196.931004 169.064405 
L 197.000716 168.998537 
L 197.070429 168.770004 
L 197.140141 169.094298 
L 197.209853 169.032453 
L 197.279565 168.839946 
L 197.488702 169.705265 
L 197.558414 169.761405 
L 197.628126 169.444446 
L 197.767551 170.079365 
L 197.837263 170.040797 
L 198.0464 170.569654 
L 198.116112 170.527678 
L 198.534386 171.639005 
L 198.604098 171.532032 
L 198.743522 171.280143 
L 198.882947 171.82918 
L 199.022371 170.949279 
L 199.161796 170.866173 
L 199.370932 170.211331 
L 199.440645 170.732533 
L 199.510357 170.62898 
L 199.649781 170.401408 
L 199.858918 170.771355 
L 199.998343 170.059459 
L 200.068055 170.689169 
L 200.137767 170.679574 
L 200.277192 170.709282 
L 200.416616 170.354482 
L 200.486328 169.660404 
L 200.55604 170.42208 
L 200.625753 170.405664 
L 200.765177 170.881415 
L 200.834889 170.757717 
L 200.904602 170.404434 
L 200.974314 170.585653 
L 201.044026 170.577211 
L 201.183451 170.17595 
L 201.253163 170.287152 
L 201.532012 171.17354 
L 201.601724 170.760737 
L 201.671436 170.922588 
L 201.741149 170.714753 
L 201.950285 171.820584 
L 202.019998 171.794029 
L 202.229134 171.343172 
L 202.298846 171.232154 
L 202.368559 171.721072 
L 202.438271 171.557503 
L 202.507983 171.511688 
L 202.71712 172.129706 
L 202.786832 172.213765 
L 202.856544 171.979417 
L 202.995969 172.581809 
L 203.205106 172.408473 
L 203.274818 172.917273 
L 203.34453 172.725171 
L 203.414242 172.669019 
L 203.483955 173.027465 
L 203.553667 173.009613 
L 203.762803 172.60878 
L 203.97194 173.599185 
L 204.041652 173.546388 
L 204.181077 173.501804 
L 204.320501 173.048503 
L 204.390214 173.148244 
L 204.529638 173.794068 
L 204.59935 173.771108 
L 205.017624 174.910517 
L 205.157048 174.690181 
L 205.226761 174.791182 
L 205.366185 175.289809 
L 205.435897 175.168184 
L 205.575322 175.888688 
L 205.645034 175.159877 
L 205.714746 175.254277 
L 205.784458 175.467481 
L 205.854171 175.416341 
L 205.923883 175.388824 
L 206.13302 175.610658 
L 206.272444 175.451636 
L 206.481581 176.349011 
L 206.551293 176.29994 
L 206.621005 175.903735 
L 206.830142 176.839052 
L 206.969566 176.112491 
L 207.108991 176.384192 
L 207.178703 176.298466 
L 207.248415 176.266656 
L 207.318128 176.707222 
L 207.38784 176.577053 
L 207.527264 176.266058 
L 207.596977 176.344345 
L 207.666689 176.352432 
L 207.736401 176.236623 
L 208.154675 177.26845 
L 208.294099 177.022217 
L 208.503236 178.003292 
L 208.64266 177.736386 
L 208.712372 177.648625 
L 209.27007 178.439184 
L 209.548919 178.67884 
L 209.688344 178.570262 
L 209.758056 179.105453 
L 209.827768 178.827079 
L 209.897481 178.86299 
L 210.036905 178.723931 
L 210.106617 178.902442 
L 210.246042 178.328648 
L 210.385466 179.167522 
L 210.455178 178.917914 
L 210.524891 178.675183 
L 210.664315 179.024824 
L 210.873452 178.291784 
L 210.943164 178.295957 
L 211.152301 178.003812 
L 211.361438 178.682599 
L 211.500862 178.10143 
L 211.570574 178.631546 
L 211.640287 178.472934 
L 211.709999 178.320154 
L 211.849423 178.616442 
L 211.988848 178.021256 
L 212.05856 178.397688 
L 212.128272 178.122129 
L 212.267697 178.374043 
L 212.476833 178.215325 
L 212.616258 177.59174 
L 212.68597 177.795232 
L 212.755682 177.650904 
L 212.825395 177.742132 
L 212.895107 177.711676 
L 213.034531 178.359963 
L 213.173956 177.783933 
L 213.243668 177.814769 
L 213.31338 177.822002 
L 213.383092 177.649217 
L 213.452805 178.100175 
L 213.522517 178.055976 
L 213.592229 177.947022 
L 213.661941 178.032707 
L 213.801366 178.233761 
L 213.871078 178.119971 
L 214.010503 177.526178 
L 214.149927 178.065189 
L 214.219639 177.951998 
L 214.359064 178.158271 
L 214.498488 177.622488 
L 214.777337 178.407134 
L 214.84705 178.393244 
L 214.916762 178.257315 
L 214.986474 178.330343 
L 215.056186 178.276535 
L 215.125898 178.933022 
L 215.195611 178.297875 
L 215.265323 178.58634 
L 215.47446 178.650978 
L 215.613884 178.908737 
L 215.753309 178.844386 
L 215.823021 178.739981 
L 216.171582 179.227274 
L 216.241294 179.184921 
L 216.311007 179.293375 
L 216.380719 179.664405 
L 216.450431 179.534221 
L 216.520143 179.48414 
L 216.589855 179.233462 
L 216.659568 179.284188 
L 216.868704 180.060473 
L 216.938417 179.911616 
L 217.008129 179.696076 
L 217.077841 179.862184 
L 217.147553 179.744556 
L 217.217266 179.573395 
L 217.496115 180.423204 
L 217.635539 179.893569 
L 217.9841 180.365417 
L 218.123525 179.859245 
L 218.193237 180.226764 
L 218.262949 179.917903 
L 218.332661 180.381565 
L 218.402374 180.359755 
L 218.61151 179.884247 
L 218.820647 180.801312 
L 218.960072 180.328899 
L 219.029784 180.525241 
L 219.099496 180.395217 
L 219.238921 180.354519 
L 219.308633 180.08827 
L 219.378345 180.134457 
L 219.448057 180.453399 
L 219.51777 180.334203 
L 219.657194 180.378364 
L 219.726906 180.197364 
L 219.796618 180.226228 
L 220.075467 180.723273 
L 220.14518 180.743299 
L 220.214892 180.466353 
L 220.284604 180.533967 
L 220.633165 180.745458 
L 220.702878 181.259767 
L 220.77259 181.162943 
L 220.842302 181.179859 
L 220.912014 180.837581 
L 220.981727 180.932564 
L 221.121151 180.943454 
L 221.260576 180.964651 
L 221.4 181.383123 
L 221.469712 181.138906 
L 221.539424 181.271842 
L 221.609137 181.278698 
L 221.818273 181.077684 
L 222.02741 181.41479 
L 222.097122 180.817623 
L 222.236547 181.276853 
L 222.306259 181.18858 
L 222.515396 181.722386 
L 222.585108 181.689146 
L 222.65482 181.672593 
L 222.794245 182.073901 
L 222.863957 181.748502 
L 222.933669 181.85295 
L 223.142806 181.933406 
L 223.212518 181.599 
L 223.28223 181.788383 
L 223.351943 181.999548 
L 223.421655 181.620653 
L 223.561079 181.991141 
L 223.630792 181.800557 
L 223.770216 182.399872 
L 223.839928 182.281808 
L 223.909641 182.061881 
L 223.979353 182.136951 
L 224.537051 182.854137 
L 224.8159 182.808459 
L 224.885612 182.483936 
L 224.955324 182.624808 
L 225.234173 183.512728 
L 225.44331 182.978757 
L 225.513022 183.455587 
L 225.582734 183.319717 
L 225.722159 183.282209 
L 226.001008 183.678375 
L 226.07072 183.75905 
L 226.140432 183.370322 
L 226.210145 183.454307 
L 226.419281 183.441953 
L 226.628418 184.114672 
L 226.837555 183.778911 
L 226.907267 183.724639 
L 226.976979 184.003109 
L 227.046691 183.929048 
L 227.255828 183.749013 
L 227.32554 183.598008 
L 227.464965 183.918905 
L 227.534677 183.894763 
L 227.674102 184.249346 
L 228.022663 183.590839 
L 228.092375 183.650353 
L 228.231799 184.139371 
L 228.301512 184.06293 
L 228.510648 183.711816 
L 228.580361 183.605551 
L 228.719785 184.054752 
L 228.789497 183.97984 
L 228.85921 184.319727 
L 228.928922 184.197017 
L 228.998634 183.860567 
L 229.207771 184.247503 
L 229.416908 184.484332 
L 229.48662 184.409648 
L 229.556332 184.134362 
L 229.835181 184.985152 
L 230.044318 184.572749 
L 230.183742 185.115824 
L 230.253454 185.060297 
L 230.323167 185.079676 
L 230.392879 184.913862 
L 230.671728 185.328203 
L 230.74144 185.247778 
L 230.811152 184.932593 
L 231.020289 185.57529 
L 231.090001 185.496567 
L 231.159713 185.356783 
L 231.36885 186.010458 
L 231.438562 185.831833 
L 231.577987 185.534831 
L 231.856836 186.02137 
L 231.99626 186.627145 
L 232.135685 186.386804 
L 232.205397 186.377149 
L 232.414534 187.064989 
L 232.484246 186.927354 
L 232.623671 186.826466 
L 232.693383 186.884161 
L 232.832807 187.239993 
L 232.902519 187.02406 
L 233.041944 187.581811 
L 233.111656 187.317334 
L 233.320793 187.977351 
L 233.669354 187.991808 
L 233.739066 187.903195 
L 233.808779 188.338418 
L 233.878491 188.226156 
L 233.948203 188.418097 
L 234.017915 188.188303 
L 234.15734 188.712242 
L 234.296764 189.101972 
L 234.366476 188.847365 
L 234.436189 188.920941 
L 234.715038 189.557708 
L 234.78475 189.30664 
L 234.854462 189.426785 
L 235.063599 189.811401 
L 235.133311 189.862168 
L 235.272736 189.603948 
L 235.481872 190.108037 
L 235.551585 190.035506 
L 235.621297 190.111823 
L 235.760721 190.421971 
L 235.900146 190.27279 
L 235.969858 190.337916 
L 236.03957 190.555607 
L 236.109282 190.500542 
L 236.248707 190.564942 
L 236.388131 190.935441 
L 236.527556 190.501924 
L 236.597268 190.540203 
L 236.806405 191.093124 
L 236.876117 190.879857 
L 236.945829 190.927792 
L 237.085254 190.838368 
L 237.224678 191.308198 
L 237.364103 191.068393 
L 237.433815 191.145052 
L 237.642952 190.98163 
L 237.921801 191.570488 
L 237.991513 191.436689 
L 238.130937 192.095968 
L 238.270362 191.66152 
L 238.409786 192.031937 
L 238.549211 191.870215 
L 238.82806 191.699278 
L 238.967484 191.849934 
L 239.037197 192.024682 
L 239.106909 191.338203 
L 239.246333 191.973478 
L 239.316045 191.781462 
L 239.385758 192.200538 
L 239.45547 192.119553 
L 239.525182 191.863596 
L 239.594894 191.885241 
L 239.734319 191.636854 
L 239.873743 192.11069 
L 239.943456 191.714715 
L 240.013168 192.367885 
L 240.08288 192.145357 
L 240.222305 191.941089 
L 240.361729 192.21682 
L 240.431441 191.977342 
L 240.501154 192.007992 
L 240.71029 191.917609 
L 240.849715 192.324809 
L 240.919427 192.722171 
L 241.058851 191.736365 
L 241.128564 191.860929 
L 241.3377 192.317844 
L 241.546837 192.010406 
L 242.104535 192.534038 
L 242.174247 192.345187 
L 242.24396 192.346646 
L 242.313672 192.521125 
L 242.522808 191.876783 
L 242.731945 192.30614 
L 242.801657 192.26837 
L 242.941082 192.747471 
L 243.010794 192.648805 
L 243.150219 192.319813 
L 243.219931 192.878063 
L 243.289643 192.725145 
L 243.359355 192.337245 
L 243.49878 192.699933 
L 243.568492 192.72477 
L 243.707917 193.022586 
L 243.777629 192.757201 
L 243.847341 192.909431 
L 243.917053 192.913105 
L 244.056478 193.303799 
L 244.12619 193.22774 
L 244.335327 193.008309 
L 244.405039 193.028799 
L 244.614176 193.400066 
L 244.823312 193.193787 
L 244.893025 193.903103 
L 244.962737 193.513327 
L 245.032449 193.382958 
L 245.241586 193.760963 
L 245.311298 193.686401 
L 245.38101 193.772372 
L 245.450723 194.170187 
L 245.520435 194.070682 
L 245.659859 193.449129 
L 245.799284 193.498942 
L 245.868996 193.456835 
L 246.00842 194.000112 
L 246.078133 193.912586 
L 246.217557 194.487063 
L 246.287269 194.36347 
L 246.356982 193.847673 
L 246.426694 193.96167 
L 246.566118 193.687776 
L 246.635831 194.226973 
L 246.705543 194.201218 
L 246.775255 194.192608 
L 246.844967 194.49428 
L 246.91468 194.395094 
L 247.054104 193.953602 
L 247.332953 194.551344 
L 247.472377 194.596127 
L 247.54209 194.035629 
L 247.611802 194.274323 
L 247.681514 193.986637 
L 247.820939 194.375785 
L 247.890651 194.33022 
L 247.960363 194.366372 
L 248.099788 194.227892 
L 248.308924 194.430042 
L 248.448349 194.496922 
L 248.518061 194.742965 
L 248.657486 194.357439 
L 248.866622 194.641927 
L 249.075759 194.344653 
L 249.145471 194.466881 
L 249.215183 194.36114 
L 249.284896 194.411048 
L 249.42432 194.695732 
L 249.563745 194.130474 
L 249.703169 194.402001 
L 249.772881 194.368866 
L 249.842594 194.601287 
L 249.912306 194.48694 
L 249.982018 194.46356 
L 250.05173 194.655616 
L 250.191155 194.261402 
L 250.260867 194.324687 
L 250.330579 194.231158 
L 250.400292 194.428376 
L 250.470004 194.401254 
L 250.67914 194.478146 
L 250.748853 195.097399 
L 250.818565 194.831137 
L 250.957989 194.348504 
L 251.027702 194.795867 
L 251.097414 194.666024 
L 251.306551 194.427253 
L 251.515687 195.003726 
L 251.5854 194.877929 
L 251.655112 194.749608 
L 251.794536 194.932275 
L 251.864249 194.414045 
L 251.933961 194.431052 
L 252.073385 194.846858 
L 252.143097 194.639067 
L 252.21281 194.751008 
L 252.491659 195.602355 
L 252.561371 195.384821 
L 252.909932 196.325056 
L 253.119069 196.576063 
L 253.188781 196.425575 
L 253.258493 196.503438 
L 253.397918 196.812192 
L 253.46763 196.650684 
L 253.607055 197.033066 
L 253.746479 196.504475 
L 253.816191 196.543084 
L 253.885903 196.570187 
L 254.234465 197.09402 
L 254.373889 196.947853 
L 254.443601 197.132602 
L 254.583026 196.872732 
L 254.72245 197.358207 
L 254.792163 197.338912 
L 254.861875 196.804537 
L 254.931587 197.03235 
L 255.001299 197.425918 
L 255.071012 197.360956 
L 255.210436 197.174423 
L 255.419573 196.555623 
L 255.628709 196.741151 
L 255.837846 196.148614 
L 255.907558 195.948477 
L 256.116695 196.212274 
L 256.25612 195.590833 
L 256.325832 195.701861 
L 256.465256 196.271453 
L 256.534969 196.201995 
L 256.604681 196.197976 
L 256.674393 196.010541 
L 256.813818 196.789888 
L 256.88353 196.274404 
L 256.953242 196.798606 
L 257.022954 196.680337 
L 257.092666 196.131937 
L 257.162379 196.309857 
L 257.371515 196.729751 
L 257.51094 196.614667 
L 257.650364 196.85379 
L 257.859501 196.434353 
L 257.929213 196.805948 
L 257.998926 196.634514 
L 258.068638 196.8761 
L 258.13835 196.819562 
L 258.277775 196.407543 
L 258.347487 196.429912 
L 258.417199 196.501865 
L 258.626336 196.131201 
L 258.835472 196.726999 
L 258.905185 196.693384 
L 258.974897 196.413558 
L 259.044609 196.88105 
L 259.114321 196.617001 
L 259.184034 196.329063 
L 259.323458 196.826101 
L 259.39317 196.72096 
L 259.462883 196.822377 
L 259.741732 196.400954 
L 259.881156 196.693301 
L 259.950868 196.577562 
L 260.090293 196.410293 
L 260.229717 196.684112 
L 260.369142 196.431468 
L 260.508566 196.758811 
L 260.717703 196.434014 
L 260.787415 196.507828 
L 260.857127 196.25908 
L 261.066264 196.882646 
L 261.135976 196.509644 
L 261.205689 196.849824 
L 261.275401 196.644517 
L 261.345113 196.813123 
L 261.414825 196.746302 
L 261.484538 196.654249 
L 261.693674 196.938862 
L 261.833099 196.725188 
L 261.972523 196.981295 
L 262.111948 196.352889 
L 262.390797 197.003704 
L 262.530221 196.951411 
L 262.669646 197.147529 
L 262.739358 196.994913 
L 262.80907 197.041071 
L 262.878782 197.232072 
L 262.948495 197.109317 
L 263.087919 196.929201 
L 263.227344 197.453571 
L 263.297056 196.931969 
L 263.366768 197.02128 
L 263.43648 197.00921 
L 263.506192 197.395543 
L 263.575905 197.375158 
L 263.645617 197.203508 
L 263.715329 197.258946 
L 263.854754 197.417198 
L 263.924466 197.687895 
L 264.06389 197.177981 
L 264.133603 197.731799 
L 264.203315 197.679074 
L 264.273027 197.472278 
L 264.342739 197.856696 
L 264.412452 197.512719 
L 264.482164 197.865136 
L 264.551876 197.449359 
L 264.621588 197.832513 
L 264.691301 197.72574 
L 264.761013 197.556924 
L 264.900437 198.077949 
L 265.109574 197.712884 
L 265.179286 197.712002 
L 265.248998 197.548616 
L 265.318711 197.608526 
L 265.458135 198.00039 
L 265.527847 197.795548 
L 265.59756 197.930552 
L 265.667272 198.38992 
L 265.876409 197.436006 
L 266.085545 198.044233 
L 266.364394 197.849503 
L 266.434107 198.129591 
L 266.503819 198.061593 
L 266.573531 198.068933 
L 266.643243 197.897498 
L 266.782668 198.242292 
L 266.85238 197.930291 
L 266.922092 198.738604 
L 266.991804 198.31279 
L 267.131229 198.190372 
L 267.200941 198.307857 
L 267.270653 198.242008 
L 267.410078 197.977429 
L 267.967776 198.780327 
L 268.037488 198.368922 
L 268.176913 198.795976 
L 268.246625 198.333391 
L 268.386049 198.664356 
L 268.455761 198.380189 
L 268.525474 198.560051 
L 268.595186 198.48697 
L 268.943747 198.905049 
L 269.083172 198.569608 
L 269.292308 198.881846 
L 269.362021 198.693356 
L 269.431733 198.742333 
L 269.64087 199.012613 
L 269.919718 198.635698 
L 269.989431 198.724333 
L 270.059143 199.038951 
L 270.128855 198.95886 
L 270.198567 198.790879 
L 270.337992 199.311705 
L 270.547129 198.39448 
L 270.686553 199.040922 
L 270.756265 198.836052 
L 270.825978 198.959458 
L 270.89569 199.32845 
L 271.035114 198.839358 
L 271.174539 199.069132 
L 271.453388 198.712923 
L 271.5231 198.78595 
L 271.662524 198.485397 
L 271.732237 199.030383 
L 271.801949 198.937915 
L 271.871661 199.00765 
L 271.941373 198.783244 
L 272.011086 199.208241 
L 272.080798 198.588831 
L 272.15051 198.715291 
L 272.289935 198.624505 
L 272.359647 198.889003 
L 272.429359 198.835903 
L 272.499071 198.730244 
L 272.568784 198.881689 
L 272.638496 198.820532 
L 272.77792 198.609173 
L 272.917345 198.824104 
L 272.987057 198.692803 
L 273.056769 198.98555 
L 273.126481 198.940947 
L 273.265906 199.042675 
L 273.335618 198.585537 
L 273.475043 199.192171 
L 273.614467 198.993677 
L 273.684179 198.474307 
L 273.753892 198.594681 
L 274.032741 198.599235 
L 274.241877 198.103347 
L 274.381302 198.648061 
L 274.590439 198.35634 
L 274.660151 198.452508 
L 274.729863 198.360718 
L 274.799575 198.131734 
L 274.869287 198.263277 
L 275.008712 198.625848 
L 275.426985 197.803913 
L 275.496698 197.76603 
L 275.636122 198.346102 
L 275.705834 198.210025 
L 275.914971 197.370709 
L 276.124108 197.675349 
L 276.19382 197.528816 
L 276.263532 197.607662 
L 276.333244 197.667888 
L 276.402957 198.057358 
L 276.472669 197.653172 
L 276.542381 197.737461 
L 276.612093 197.961724 
L 276.681806 197.605154 
L 276.751518 197.717063 
L 276.82123 197.82714 
L 276.960655 197.445117 
L 277.100079 197.86807 
L 277.169791 197.748718 
L 277.239504 197.837992 
L 277.309216 198.004017 
L 277.44864 197.625911 
L 277.518353 198.015927 
L 277.588065 197.959896 
L 277.657777 197.788844 
L 277.866914 198.234744 
L 277.936626 198.166307 
L 278.006338 198.100537 
L 278.07605 198.313592 
L 278.215475 197.819116 
L 278.285187 197.850166 
L 278.424612 198.143061 
L 278.564036 197.946495 
L 278.633748 198.064582 
L 278.773173 198.807729 
L 278.98231 198.317224 
L 279.330871 198.974949 
L 279.400583 198.74278 
L 279.470295 199.005485 
L 279.540007 198.959826 
L 279.60972 198.628634 
L 279.749144 199.249143 
L 279.818856 199.350982 
L 279.888569 199.015951 
L 279.958281 199.059235 
L 280.027993 199.482723 
L 280.097705 199.298482 
L 280.23713 199.040572 
L 280.446267 199.096135 
L 280.585691 199.607273 
L 280.655403 199.469426 
L 280.725116 199.575851 
L 280.794828 199.6637 
L 280.934252 199.345263 
L 281.143389 199.715549 
L 281.213101 199.57249 
L 281.561662 200.186298 
L 281.701087 199.8956 
L 281.840511 200.10564 
L 281.910224 200.329444 
L 281.979936 200.196358 
L 282.049648 200.002301 
L 282.189073 200.21657 
L 282.258785 200.060859 
L 282.398209 200.194767 
L 282.467922 200.011634 
L 282.607346 200.624926 
L 282.677058 200.343856 
L 282.886195 200.933713 
L 283.095332 200.442174 
L 283.304468 201.092874 
L 283.443893 200.607491 
L 283.65303 201.294223 
L 283.722742 200.940824 
L 283.792454 201.164866 
L 283.862166 201.045327 
L 284.001591 201.156009 
L 284.141015 200.75416 
L 284.350152 201.325399 
L 284.419864 201.236208 
L 284.489576 201.436393 
L 284.559289 201.329762 
L 284.768425 201.705699 
L 284.838138 201.639418 
L 284.90785 201.143259 
L 284.977562 201.426549 
L 285.047274 201.222004 
L 285.116987 201.73795 
L 285.186699 201.610908 
L 285.53526 200.784566 
L 285.744397 201.353059 
L 285.814109 201.160744 
L 285.953534 201.356403 
L 286.232382 201.004249 
L 286.371807 201.192609 
L 286.511231 201.023583 
L 286.580944 201.223581 
L 286.650656 200.913114 
L 286.720368 200.95474 
L 286.859793 200.653925 
L 286.929505 200.98936 
L 286.999217 200.589942 
L 287.068929 201.008807 
L 287.138642 200.425265 
L 287.208354 200.474956 
L 287.347778 200.373939 
L 287.556915 200.886989 
L 287.626627 200.853365 
L 287.835764 200.391001 
L 287.975188 200.789861 
L 288.044901 200.696743 
L 288.254037 200.279325 
L 288.393462 201.052372 
L 288.602599 200.392115 
L 288.742023 200.957487 
L 288.811735 200.658617 
L 288.881448 200.91205 
L 288.95116 200.834586 
L 289.090584 200.555137 
L 289.160297 200.732313 
L 289.230009 200.660528 
L 289.299721 200.362971 
L 289.369433 200.625242 
L 289.439145 200.446786 
L 289.508858 200.948156 
L 289.57857 200.772603 
L 289.717994 200.664701 
L 289.787707 200.462104 
L 289.857419 200.982114 
L 289.927131 200.780522 
L 289.996843 200.732694 
L 290.136268 200.907426 
L 290.20598 200.622548 
L 290.275692 200.75255 
L 290.415117 201.222522 
L 290.624254 200.707608 
L 290.693966 200.762694 
L 290.903102 200.981744 
L 291.042527 201.239881 
L 291.181951 200.690174 
L 291.251664 201.020169 
L 291.391088 200.733178 
L 291.4608 200.794301 
L 291.600225 200.473645 
L 291.669937 200.517637 
L 291.739649 200.892128 
L 291.809362 200.801748 
L 292.088211 201.167099 
L 292.157923 200.868209 
L 292.227635 200.905596 
L 292.297347 201.392491 
L 292.36706 201.240638 
L 292.436772 201.023293 
L 292.506484 201.163337 
L 292.645908 200.938238 
L 292.715621 201.110131 
L 292.855045 200.707081 
L 292.924757 200.695621 
L 293.064182 201.040594 
L 293.133894 201.008959 
L 293.343031 200.498254 
L 293.482455 201.089779 
L 293.691592 200.554324 
L 293.761304 200.651464 
L 293.900729 201.086106 
L 293.970441 200.424465 
L 294.040153 200.651546 
L 294.109865 201.350764 
L 294.179578 200.872769 
L 294.24929 201.053959 
L 294.319002 200.967961 
L 294.388714 201.225009 
L 294.597851 200.270703 
L 294.8767 201.093511 
L 295.085837 200.800294 
L 295.225261 200.93265 
L 295.294974 200.675479 
L 295.364686 200.794285 
L 295.434398 200.872939 
L 295.50411 200.630185 
L 295.573823 200.770348 
L 295.713247 201.23436 
L 295.852671 200.921766 
L 295.922384 200.998916 
L 296.061808 200.522706 
L 296.270945 201.081856 
L 296.480082 200.795337 
L 296.619506 200.853699 
L 296.758931 200.7867 
L 296.968067 201.273047 
L 297.107492 201.132804 
L 297.246916 201.184184 
L 297.316628 200.927224 
L 297.386341 201.211607 
L 297.595477 200.455705 
L 297.734902 201.323708 
L 297.804614 200.769975 
L 297.874326 200.914696 
L 297.944039 200.864876 
L 298.013751 201.091057 
L 298.083463 200.960404 
L 298.153175 201.063976 
L 298.222888 200.931235 
L 298.2926 201.074653 
L 298.432024 200.972585 
L 298.501737 201.148465 
L 298.571449 201.017737 
L 298.710873 201.515357 
L 298.780586 201.207077 
L 298.850298 201.242701 
L 298.92001 201.112259 
L 299.059434 201.353141 
L 299.129147 201.078583 
L 299.198859 201.247847 
L 299.338283 201.182637 
L 299.407996 201.32892 
L 299.686845 200.761762 
L 299.965694 201.690616 
L 300.035406 201.676582 
L 300.453679 200.940443 
L 300.523391 201.606194 
L 300.593104 201.506424 
L 300.662816 201.241721 
L 300.80224 201.617837 
L 300.871953 201.384891 
L 301.011377 201.72691 
L 301.081089 201.481539 
L 301.150802 201.889281 
L 301.220514 201.621913 
L 301.290226 201.971067 
L 301.359938 201.418139 
L 301.429651 201.482672 
L 301.569075 200.96987 
L 301.7085 201.795297 
L 301.778212 201.851126 
L 301.847924 201.647328 
L 301.987349 202.09129 
L 302.057061 201.694427 
L 302.126773 201.892641 
L 302.196485 202.21346 
L 302.475334 201.599645 
L 302.684471 202.406302 
L 302.823895 202.096941 
L 302.893608 202.067609 
L 302.96332 201.909247 
L 303.311881 202.885412 
L 303.59073 203.0238 
L 303.660442 202.763455 
L 303.869579 203.507526 
L 303.939291 203.644057 
L 304.009003 203.427367 
L 304.21814 204.372671 
L 304.287852 204.342377 
L 304.427277 204.994227 
L 304.496989 204.597696 
L 304.566701 205.262493 
L 304.636414 205.23449 
L 304.706126 205.401499 
L 304.915263 206.951297 
L 304.984975 206.877796 
L 305.054687 207.902202 
L 305.124399 207.385468 
L 305.333536 208.512432 
L 305.403248 208.33282 
L 305.542673 209.51061 
L 305.612385 208.761737 
L 305.682097 209.094188 
L 305.960946 209.954265 
L 306.030658 210.116841 
L 306.100371 209.913346 
L 306.170083 210.195098 
L 306.239795 209.926224 
L 306.309507 209.99681 
L 306.588356 210.494371 
L 306.658069 210.084934 
L 306.727781 210.249897 
L 306.867205 210.34993 
L 307.285479 209.451086 
L 307.355191 209.450884 
L 307.912889 207.380743 
L 308.052313 207.371439 
L 308.331162 206.737464 
L 308.470587 206.767809 
L 308.679723 205.885612 
L 308.749436 206.042278 
L 308.819148 205.748688 
L 308.88886 205.822361 
L 308.958572 205.752079 
L 309.028285 205.122375 
L 309.097997 205.304604 
L 309.237421 205.407983 
L 309.307134 205.432822 
L 309.446558 204.931651 
L 309.51627 205.121232 
L 309.585983 204.509553 
L 309.655695 204.659257 
L 309.864832 203.959612 
L 310.004256 204.31754 
L 310.073968 203.790423 
L 310.143681 203.989726 
L 310.213393 203.71617 
L 310.283105 203.844006 
L 310.352817 203.762347 
L 310.422529 203.993101 
L 310.492242 203.739604 
L 310.561954 203.947974 
L 310.631666 203.641263 
L 310.701378 203.804688 
L 310.771091 203.831893 
L 310.840803 203.384466 
L 310.910515 203.495106 
L 311.119652 204.052516 
L 311.189364 203.850151 
L 311.398501 202.972481 
L 311.468213 203.502316 
L 311.537925 202.690232 
L 311.607638 203.243252 
L 311.67735 202.939942 
L 311.747062 203.192889 
L 311.816774 202.717732 
L 311.886486 203.151511 
L 311.956199 202.890114 
L 312.025911 203.275661 
L 312.235048 202.404613 
L 312.30476 203.229416 
L 312.374472 202.785707 
L 312.513897 202.379639 
L 312.583609 202.032437 
L 312.792746 202.735774 
L 312.862458 202.305956 
L 312.93217 202.390335 
L 313.001882 202.290313 
L 313.071595 202.590174 
L 313.141307 202.427435 
L 313.280731 202.727976 
L 313.55958 202.387882 
L 313.629292 202.869009 
L 313.699005 202.643859 
L 313.908141 202.058019 
L 313.977854 202.29042 
L 314.047566 202.189445 
L 314.18699 202.277974 
L 314.465839 202.219733 
L 314.674976 202.41669 
L 314.953825 202.316153 
L 315.162962 202.7177 
L 315.302386 202.265635 
L 315.372098 202.321491 
L 315.511523 202.742981 
L 315.650947 202.377393 
L 315.72066 202.426186 
L 315.790372 202.036977 
L 315.860084 202.083401 
L 315.929796 202.274265 
L 315.999509 202.230969 
L 316.208645 202.523001 
L 316.278358 202.921419 
L 316.417782 202.241104 
L 316.626919 202.854473 
L 316.766343 202.338628 
L 316.836055 202.755552 
L 316.905768 202.537443 
L 317.045192 203.035801 
L 317.184617 202.362235 
L 317.254329 202.408364 
L 317.324041 202.549283 
L 317.393753 202.509594 
L 317.533178 202.378582 
L 317.672602 202.841701 
L 317.812027 202.070748 
L 318.2303 203.79056 
L 318.369725 242.116364 
L 373.581818 242.116364 
L 373.581818 242.116364 
" style="fill:none;stroke:#1f77b4;stroke-linecap:square;stroke-width:1.5;"/>
   </g>
   <g id="line2d_18">
    <path clip-path="url(#p8a3347a254)" d="M 306.472169 242.116364 
L 306.472169 44.443636 
" style="fill:none;stroke:#ff0000;stroke-dasharray:1.5,2.475;stroke-dashoffset:0;stroke-width:1.5;"/>
   </g>
   <g id="line2d_19">
    <path clip-path="url(#p8a3347a254)" d="M 304.357565 242.116364 
L 304.357565 44.443636 
" style="fill:none;stroke:#008000;stroke-dasharray:1.5,2.475;stroke-dashoffset:0;stroke-width:1.5;"/>
   </g>
   <g id="line2d_20">
    <path clip-path="url(#p8a3347a254)" d="M 308.540299 242.116364 
L 308.540299 44.443636 
" style="fill:none;stroke:#008000;stroke-dasharray:1.5,2.475;stroke-dashoffset:0;stroke-width:1.5;"/>
   </g>
   <g id="patch_3">
    <path d="M 54 252 
L 54 34.56 
" style="fill:none;stroke:#000000;stroke-linecap:square;stroke-linejoin:miter;stroke-width:0.8;"/>
   </g>
   <g id="patch_4">
    <path d="M 388.8 252 
L 388.8 34.56 
" style="fill:none;stroke:#000000;stroke-linecap:square;stroke-linejoin:miter;stroke-width:0.8;"/>
   </g>
   <g id="patch_5">
    <path d="M 54 252 
L 388.8 252 
" style="fill:none;stroke:#000000;stroke-linecap:square;stroke-linejoin:miter;stroke-width:0.8;"/>
   </g>
   <g id="patch_6">
    <path d="M 54 34.56 
L 388.8 34.56 
" style="fill:none;stroke:#000000;stroke-linecap:square;stroke-linejoin:miter;stroke-width:0.8;"/>
   </g>
   <g id="text_19">
    <!-- $H_\alpha$ -->
    <defs>
     <path d="M 16.890625 72.90625 
L 26.8125 72.90625 
L 21 43.015625 
L 56.78125 43.015625 
L 62.59375 72.90625 
L 72.515625 72.90625 
L 58.296875 0 
L 48.390625 0 
L 55.171875 34.71875 
L 19.390625 34.71875 
L 12.59375 0 
L 2.6875 0 
z
" id="DejaVuSans-Oblique-72"/>
     <path d="M 40.921875 25.4375 
L 40.96875 36.71875 
Q 41.015625 48.25 32.328125 48.296875 
Q 25.828125 48.34375 21.78125 42.921875 
Q 16.703125 36.234375 14.984375 27.296875 
Q 12.890625 16.546875 15.53125 11.421875 
Q 18.265625 6.203125 24.171875 6.203125 
Q 30.71875 6.203125 36.234375 16.609375 
z
M 33.84375 55.90625 
Q 49.078125 56.15625 48.875 40.375 
Q 48.875 40.375 56.5 54.6875 
L 64.5 54.6875 
L 48.734375 25.046875 
L 48.578125 14.359375 
Q 48.578125 11.96875 49.90625 9.96875 
Q 51.421875 7.625 52.984375 7.625 
L 57.328125 7.625 
L 55.859375 0 
L 50.4375 0 
Q 45.84375 0 42.53125 4.109375 
Q 40.96875 6.15625 40.921875 10.453125 
Q 37.75 5.21875 32.28125 0.78125 
Q 29.6875 -1.265625 22.703125 -1.21875 
Q 11.28125 -1.125 7.125 6.203125 
Q 2.875 13.8125 5.515625 27.296875 
Q 8.34375 41.796875 15.765625 48.390625 
Q 24.125 55.765625 33.84375 55.90625 
z
" id="DejaVuSans-Oblique-945"/>
    </defs>
    <g style="fill:#ff0000;" transform="translate(300.222169 242.116364)scale(0.1 -0.1)">
     <use transform="translate(0 0.09375)" xlink:href="#DejaVuSans-Oblique-72"/>
     <use transform="translate(75.195312 -16.3125)scale(0.7)" xlink:href="#DejaVuSans-Oblique-945"/>
    </g>
   </g>
   <g id="text_20">
    <!-- Spectrum of HD 112028 -->
    <defs>
     <path d="M 53.515625 70.515625 
L 53.515625 60.890625 
Q 47.90625 63.578125 42.921875 64.890625 
Q 37.9375 66.21875 33.296875 66.21875 
Q 25.25 66.21875 20.875 63.09375 
Q 16.5 59.96875 16.5 54.203125 
Q 16.5 49.359375 19.40625 46.890625 
Q 22.3125 44.4375 30.421875 42.921875 
L 36.375 41.703125 
Q 47.40625 39.59375 52.65625 34.296875 
Q 57.90625 29 57.90625 20.125 
Q 57.90625 9.515625 50.796875 4.046875 
Q 43.703125 -1.421875 29.984375 -1.421875 
Q 24.8125 -1.421875 18.96875 -0.25 
Q 13.140625 0.921875 6.890625 3.21875 
L 6.890625 13.375 
Q 12.890625 10.015625 18.65625 8.296875 
Q 24.421875 6.59375 29.984375 6.59375 
Q 38.421875 6.59375 43.015625 9.90625 
Q 47.609375 13.234375 47.609375 19.390625 
Q 47.609375 24.75 44.3125 27.78125 
Q 41.015625 30.8125 33.5 32.328125 
L 27.484375 33.5 
Q 16.453125 35.6875 11.515625 40.375 
Q 6.59375 45.0625 6.59375 53.421875 
Q 6.59375 63.09375 13.40625 68.65625 
Q 20.21875 74.21875 32.171875 74.21875 
Q 37.3125 74.21875 42.625 73.28125 
Q 47.953125 72.359375 53.515625 70.515625 
z
" id="DejaVuSans-83"/>
     <path d="M 18.109375 8.203125 
L 18.109375 -20.796875 
L 9.078125 -20.796875 
L 9.078125 54.6875 
L 18.109375 54.6875 
L 18.109375 46.390625 
Q 20.953125 51.265625 25.265625 53.625 
Q 29.59375 56 35.59375 56 
Q 45.5625 56 51.78125 48.09375 
Q 58.015625 40.1875 58.015625 27.296875 
Q 58.015625 14.40625 51.78125 6.484375 
Q 45.5625 -1.421875 35.59375 -1.421875 
Q 29.59375 -1.421875 25.265625 0.953125 
Q 20.953125 3.328125 18.109375 8.203125 
z
M 48.6875 27.296875 
Q 48.6875 37.203125 44.609375 42.84375 
Q 40.53125 48.484375 33.40625 48.484375 
Q 26.265625 48.484375 22.1875 42.84375 
Q 18.109375 37.203125 18.109375 27.296875 
Q 18.109375 17.390625 22.1875 11.75 
Q 26.265625 6.109375 33.40625 6.109375 
Q 40.53125 6.109375 44.609375 11.75 
Q 48.6875 17.390625 48.6875 27.296875 
z
" id="DejaVuSans-112"/>
     <path d="M 48.78125 52.59375 
L 48.78125 44.1875 
Q 44.96875 46.296875 41.140625 47.34375 
Q 37.3125 48.390625 33.40625 48.390625 
Q 24.65625 48.390625 19.8125 42.84375 
Q 14.984375 37.3125 14.984375 27.296875 
Q 14.984375 17.28125 19.8125 11.734375 
Q 24.65625 6.203125 33.40625 6.203125 
Q 37.3125 6.203125 41.140625 7.25 
Q 44.96875 8.296875 48.78125 10.40625 
L 48.78125 2.09375 
Q 45.015625 0.34375 40.984375 -0.53125 
Q 36.96875 -1.421875 32.421875 -1.421875 
Q 20.0625 -1.421875 12.78125 6.34375 
Q 5.515625 14.109375 5.515625 27.296875 
Q 5.515625 40.671875 12.859375 48.328125 
Q 20.21875 56 33.015625 56 
Q 37.15625 56 41.109375 55.140625 
Q 45.0625 54.296875 48.78125 52.59375 
z
" id="DejaVuSans-99"/>
     <path d="M 52 44.1875 
Q 55.375 50.25 60.0625 53.125 
Q 64.75 56 71.09375 56 
Q 79.640625 56 84.28125 50.015625 
Q 88.921875 44.046875 88.921875 33.015625 
L 88.921875 0 
L 79.890625 0 
L 79.890625 32.71875 
Q 79.890625 40.578125 77.09375 44.375 
Q 74.3125 48.1875 68.609375 48.1875 
Q 61.625 48.1875 57.5625 43.546875 
Q 53.515625 38.921875 53.515625 30.90625 
L 53.515625 0 
L 44.484375 0 
L 44.484375 32.71875 
Q 44.484375 40.625 41.703125 44.40625 
Q 38.921875 48.1875 33.109375 48.1875 
Q 26.21875 48.1875 22.15625 43.53125 
Q 18.109375 38.875 18.109375 30.90625 
L 18.109375 0 
L 9.078125 0 
L 9.078125 54.6875 
L 18.109375 54.6875 
L 18.109375 46.1875 
Q 21.1875 51.21875 25.484375 53.609375 
Q 29.78125 56 35.6875 56 
Q 41.65625 56 45.828125 52.96875 
Q 50 49.953125 52 44.1875 
z
" id="DejaVuSans-109"/>
     <path d="M 30.609375 48.390625 
Q 23.390625 48.390625 19.1875 42.75 
Q 14.984375 37.109375 14.984375 27.296875 
Q 14.984375 17.484375 19.15625 11.84375 
Q 23.34375 6.203125 30.609375 6.203125 
Q 37.796875 6.203125 41.984375 11.859375 
Q 46.1875 17.53125 46.1875 27.296875 
Q 46.1875 37.015625 41.984375 42.703125 
Q 37.796875 48.390625 30.609375 48.390625 
z
M 30.609375 56 
Q 42.328125 56 49.015625 48.375 
Q 55.71875 40.765625 55.71875 27.296875 
Q 55.71875 13.875 49.015625 6.21875 
Q 42.328125 -1.421875 30.609375 -1.421875 
Q 18.84375 -1.421875 12.171875 6.21875 
Q 5.515625 13.875 5.515625 27.296875 
Q 5.515625 40.765625 12.171875 48.375 
Q 18.84375 56 30.609375 56 
z
" id="DejaVuSans-111"/>
     <path d="M 9.8125 72.90625 
L 19.671875 72.90625 
L 19.671875 43.015625 
L 55.515625 43.015625 
L 55.515625 72.90625 
L 65.375 72.90625 
L 65.375 0 
L 55.515625 0 
L 55.515625 34.71875 
L 19.671875 34.71875 
L 19.671875 0 
L 9.8125 0 
z
" id="DejaVuSans-72"/>
     <path d="M 19.671875 64.796875 
L 19.671875 8.109375 
L 31.59375 8.109375 
Q 46.6875 8.109375 53.6875 14.9375 
Q 60.6875 21.78125 60.6875 36.53125 
Q 60.6875 51.171875 53.6875 57.984375 
Q 46.6875 64.796875 31.59375 64.796875 
z
M 9.8125 72.90625 
L 30.078125 72.90625 
Q 51.265625 72.90625 61.171875 64.09375 
Q 71.09375 55.28125 71.09375 36.53125 
Q 71.09375 17.671875 61.125 8.828125 
Q 51.171875 0 30.078125 0 
L 9.8125 0 
z
" id="DejaVuSans-68"/>
     <path d="M 31.78125 34.625 
Q 24.75 34.625 20.71875 30.859375 
Q 16.703125 27.09375 16.703125 20.515625 
Q 16.703125 13.921875 20.71875 10.15625 
Q 24.75 6.390625 31.78125 6.390625 
Q 38.8125 6.390625 42.859375 10.171875 
Q 46.921875 13.96875 46.921875 20.515625 
Q 46.921875 27.09375 42.890625 30.859375 
Q 38.875 34.625 31.78125 34.625 
z
M 21.921875 38.8125 
Q 15.578125 40.375 12.03125 44.71875 
Q 8.5 49.078125 8.5 55.328125 
Q 8.5 64.0625 14.71875 69.140625 
Q 20.953125 74.21875 31.78125 74.21875 
Q 42.671875 74.21875 48.875 69.140625 
Q 55.078125 64.0625 55.078125 55.328125 
Q 55.078125 49.078125 51.53125 44.71875 
Q 48 40.375 41.703125 38.8125 
Q 48.828125 37.15625 52.796875 32.3125 
Q 56.78125 27.484375 56.78125 20.515625 
Q 56.78125 9.90625 50.3125 4.234375 
Q 43.84375 -1.421875 31.78125 -1.421875 
Q 19.734375 -1.421875 13.25 4.234375 
Q 6.78125 9.90625 6.78125 20.515625 
Q 6.78125 27.484375 10.78125 32.3125 
Q 14.796875 37.15625 21.921875 38.8125 
z
M 18.3125 54.390625 
Q 18.3125 48.734375 21.84375 45.5625 
Q 25.390625 42.390625 31.78125 42.390625 
Q 38.140625 42.390625 41.71875 45.5625 
Q 45.3125 48.734375 45.3125 54.390625 
Q 45.3125 60.0625 41.71875 63.234375 
Q 38.140625 66.40625 31.78125 66.40625 
Q 25.390625 66.40625 21.84375 63.234375 
Q 18.3125 60.0625 18.3125 54.390625 
z
" id="DejaVuSans-56"/>
    </defs>
    <g transform="translate(148.784063 28.56)scale(0.12 -0.12)">
     <use xlink:href="#DejaVuSans-83"/>
     <use x="63.476562" xlink:href="#DejaVuSans-112"/>
     <use x="126.953125" xlink:href="#DejaVuSans-101"/>
     <use x="188.476562" xlink:href="#DejaVuSans-99"/>
     <use x="243.457031" xlink:href="#DejaVuSans-116"/>
     <use x="282.666016" xlink:href="#DejaVuSans-114"/>
     <use x="323.779297" xlink:href="#DejaVuSans-117"/>
     <use x="387.158203" xlink:href="#DejaVuSans-109"/>
     <use x="484.570312" xlink:href="#DejaVuSans-32"/>
     <use x="516.357422" xlink:href="#DejaVuSans-111"/>
     <use x="577.539062" xlink:href="#DejaVuSans-102"/>
     <use x="612.744141" xlink:href="#DejaVuSans-32"/>
     <use x="644.53125" xlink:href="#DejaVuSans-72"/>
     <use x="719.726562" xlink:href="#DejaVuSans-68"/>
     <use x="796.728516" xlink:href="#DejaVuSans-32"/>
     <use x="828.515625" xlink:href="#DejaVuSans-49"/>
     <use x="892.138672" xlink:href="#DejaVuSans-49"/>
     <use x="955.761719" xlink:href="#DejaVuSans-50"/>
     <use x="1019.384766" xlink:href="#DejaVuSans-48"/>
     <use x="1083.007812" xlink:href="#DejaVuSans-50"/>
     <use x="1146.630859" xlink:href="#DejaVuSans-56"/>
    </g>
   </g>
  </g>
 </g>
 <defs>
  <clipPath id="p8a3347a254">
   <rect height="217.44" width="334.8" x="54" y="34.56"/>
  </clipPath>
 </defs>
</svg>
