<?xml version="1.0" encoding="utf-8" standalone="no"?>
<!DOCTYPE svg PUBLIC "-//W3C//DTD SVG 1.1//EN"
  "http://www.w3.org/Graphics/SVG/1.1/DTD/svg11.dtd">
<!-- Created with matplotlib (https://matplotlib.org/) -->
<svg height="288pt" version="1.1" viewBox="0 0 432 288" width="432pt" xmlns="http://www.w3.org/2000/svg" xmlns:xlink="http://www.w3.org/1999/xlink">
 <defs>
  <style type="text/css">
*{stroke-linecap:butt;stroke-linejoin:round;white-space:pre;}
  </style>
 </defs>
 <g id="figure_1">
  <g id="patch_1">
   <path d="M 0 288 
L 432 288 
L 432 0 
L 0 0 
z
" style="fill:#ffffff;"/>
  </g>
  <g id="axes_1">
   <g id="patch_2">
    <path d="M 54 252 
L 388.8 252 
L 388.8 34.56 
L 54 34.56 
z
" style="fill:#ffffff;"/>
   </g>
   <g id="patch_3">
    <path clip-path="url(#pf2623964f0)" d="M -4417.063798 252 
L -4417.050681 252 
L -4417.050681 -176561.573934 
L -4417.063798 -176561.573934 
z
" style="fill:#9467bd;"/>
   </g>
   <g id="patch_4">
    <path clip-path="url(#pf2623964f0)" d="M -4417.050681 252 
L -4417.037565 252 
L -4417.037565 -80787.55472 
L -4417.050681 -80787.55472 
z
" style="fill:#9467bd;"/>
   </g>
   <g id="patch_5">
    <path clip-path="url(#pf2623964f0)" d="M -4417.037565 252 
L -4417.024448 252 
L -4417.024448 -36584.161236 
L -4417.037565 -36584.161236 
z
" style="fill:#9467bd;"/>
   </g>
   <g id="patch_6">
    <path clip-path="url(#pf2623964f0)" d="M -4417.024448 252 
L -4417.011331 252 
L -4417.011331 -36584.161236 
L -4417.024448 -36584.161236 
z
" style="fill:#9467bd;"/>
   </g>
   <g id="patch_7">
    <path clip-path="url(#pf2623964f0)" d="M -4417.011331 252 
L -4416.998215 252 
L -4416.998215 -29216.928989 
L -4417.011331 -29216.928989 
z
" style="fill:#9467bd;"/>
   </g>
   <g id="patch_8">
    <path clip-path="url(#pf2623964f0)" d="M -4416.998215 252 
L -4416.985098 252 
L -4416.985098 -29216.928989 
L -4416.998215 -29216.928989 
z
" style="fill:#9467bd;"/>
   </g>
   <g id="patch_9">
    <path clip-path="url(#pf2623964f0)" d="M -4416.985098 252 
L -4416.971981 252 
L -4416.971981 -21849.696742 
L -4416.985098 -21849.696742 
z
" style="fill:#9467bd;"/>
   </g>
   <g id="patch_10">
    <path clip-path="url(#pf2623964f0)" d="M -4416.971981 252 
L -4416.958865 252 
L -4416.958865 -7115.232247 
L -4416.971981 -7115.232247 
z
" style="fill:#9467bd;"/>
   </g>
   <g id="patch_11">
    <path clip-path="url(#pf2623964f0)" d="M -4416.958865 252 
L -4416.945748 252 
L -4416.945748 -7115.232247 
L -4416.958865 -7115.232247 
z
" style="fill:#9467bd;"/>
   </g>
   <g id="patch_12">
    <path clip-path="url(#pf2623964f0)" d="M -4416.945748 252 
L -4416.932632 252 
L -4416.932632 -14482.464494 
L -4416.945748 -14482.464494 
z
" style="fill:#9467bd;"/>
   </g>
   <g id="patch_13">
    <path clip-path="url(#pf2623964f0)" d="M -4417.109014 252 
L -4417.095021 252 
L -4417.095021 -154459.877192 
L -4417.109014 -154459.877192 
z
" style="fill:#7f7f7f;"/>
   </g>
   <g id="patch_14">
    <path clip-path="url(#pf2623964f0)" d="M -4417.095021 252 
L -4417.081029 252 
L -4417.081029 -58685.857978 
L -4417.095021 -58685.857978 
z
" style="fill:#7f7f7f;"/>
   </g>
   <g id="patch_15">
    <path clip-path="url(#pf2623964f0)" d="M -4417.081029 252 
L -4417.067037 252 
L -4417.067037 -58685.857978 
L -4417.081029 -58685.857978 
z
" style="fill:#7f7f7f;"/>
   </g>
   <g id="patch_16">
    <path clip-path="url(#pf2623964f0)" d="M -4417.067037 252 
L -4417.053044 252 
L -4417.053044 -36584.161236 
L -4417.067037 -36584.161236 
z
" style="fill:#7f7f7f;"/>
   </g>
   <g id="patch_17">
    <path clip-path="url(#pf2623964f0)" d="M -4417.053044 252 
L -4417.039052 252 
L -4417.039052 -21849.696742 
L -4417.053044 -21849.696742 
z
" style="fill:#7f7f7f;"/>
   </g>
   <g id="patch_18">
    <path clip-path="url(#pf2623964f0)" d="M -4417.039052 252 
L -4417.02506 252 
L -4417.02506 -21849.696742 
L -4417.039052 -21849.696742 
z
" style="fill:#7f7f7f;"/>
   </g>
   <g id="patch_19">
    <path clip-path="url(#pf2623964f0)" d="M -4417.02506 252 
L -4417.011067 252 
L -4417.011067 -21849.696742 
L -4417.02506 -21849.696742 
z
" style="fill:#7f7f7f;"/>
   </g>
   <g id="patch_20">
    <path clip-path="url(#pf2623964f0)" d="M -4417.011067 252 
L -4416.997075 252 
L -4416.997075 -21849.696742 
L -4417.011067 -21849.696742 
z
" style="fill:#7f7f7f;"/>
   </g>
   <g id="patch_21">
    <path clip-path="url(#pf2623964f0)" d="M -4416.997075 252 
L -4416.983083 252 
L -4416.983083 -21849.696742 
L -4416.997075 -21849.696742 
z
" style="fill:#7f7f7f;"/>
   </g>
   <g id="patch_22">
    <path clip-path="url(#pf2623964f0)" d="M -4416.983083 252 
L -4416.96909 252 
L -4416.96909 -21849.696742 
L -4416.983083 -21849.696742 
z
" style="fill:#7f7f7f;"/>
   </g>
   <g id="matplotlib.axis_1">
    <g id="xtick_1">
     <g id="line2d_1">
      <defs>
       <path d="M 0 0 
L 0 3.5 
" id="m0e19457b96" style="stroke:#000000;stroke-width:0.8;"/>
      </defs>
      <g>
       <use style="stroke:#000000;stroke-width:0.8;" x="91.087273" xlink:href="#m0e19457b96" y="252"/>
      </g>
     </g>
     <g id="text_1">
      <!-- 4000 -->
      <defs>
       <path d="M 37.796875 64.3125 
L 12.890625 25.390625 
L 37.796875 25.390625 
z
M 35.203125 72.90625 
L 47.609375 72.90625 
L 47.609375 25.390625 
L 58.015625 25.390625 
L 58.015625 17.1875 
L 47.609375 17.1875 
L 47.609375 0 
L 37.796875 0 
L 37.796875 17.1875 
L 4.890625 17.1875 
L 4.890625 26.703125 
z
" id="DejaVuSans-52"/>
       <path d="M 31.78125 66.40625 
Q 24.171875 66.40625 20.328125 58.90625 
Q 16.5 51.421875 16.5 36.375 
Q 16.5 21.390625 20.328125 13.890625 
Q 24.171875 6.390625 31.78125 6.390625 
Q 39.453125 6.390625 43.28125 13.890625 
Q 47.125 21.390625 47.125 36.375 
Q 47.125 51.421875 43.28125 58.90625 
Q 39.453125 66.40625 31.78125 66.40625 
z
M 31.78125 74.21875 
Q 44.046875 74.21875 50.515625 64.515625 
Q 56.984375 54.828125 56.984375 36.375 
Q 56.984375 17.96875 50.515625 8.265625 
Q 44.046875 -1.421875 31.78125 -1.421875 
Q 19.53125 -1.421875 13.0625 8.265625 
Q 6.59375 17.96875 6.59375 36.375 
Q 6.59375 54.828125 13.0625 64.515625 
Q 19.53125 74.21875 31.78125 74.21875 
z
" id="DejaVuSans-48"/>
      </defs>
      <g transform="translate(78.362273 266.598437)scale(0.1 -0.1)">
       <use xlink:href="#DejaVuSans-52"/>
       <use x="63.623047" xlink:href="#DejaVuSans-48"/>
       <use x="127.246094" xlink:href="#DejaVuSans-48"/>
       <use x="190.869141" xlink:href="#DejaVuSans-48"/>
      </g>
     </g>
    </g>
    <g id="xtick_2">
     <g id="line2d_2">
      <g>
       <use style="stroke:#000000;stroke-width:0.8;" x="147.450909" xlink:href="#m0e19457b96" y="252"/>
      </g>
     </g>
     <g id="text_2">
      <!-- 4050 -->
      <defs>
       <path d="M 10.796875 72.90625 
L 49.515625 72.90625 
L 49.515625 64.59375 
L 19.828125 64.59375 
L 19.828125 46.734375 
Q 21.96875 47.46875 24.109375 47.828125 
Q 26.265625 48.1875 28.421875 48.1875 
Q 40.625 48.1875 47.75 41.5 
Q 54.890625 34.8125 54.890625 23.390625 
Q 54.890625 11.625 47.5625 5.09375 
Q 40.234375 -1.421875 26.90625 -1.421875 
Q 22.3125 -1.421875 17.546875 -0.640625 
Q 12.796875 0.140625 7.71875 1.703125 
L 7.71875 11.625 
Q 12.109375 9.234375 16.796875 8.0625 
Q 21.484375 6.890625 26.703125 6.890625 
Q 35.15625 6.890625 40.078125 11.328125 
Q 45.015625 15.765625 45.015625 23.390625 
Q 45.015625 31 40.078125 35.4375 
Q 35.15625 39.890625 26.703125 39.890625 
Q 22.75 39.890625 18.8125 39.015625 
Q 14.890625 38.140625 10.796875 36.28125 
z
" id="DejaVuSans-53"/>
      </defs>
      <g transform="translate(134.725909 266.598437)scale(0.1 -0.1)">
       <use xlink:href="#DejaVuSans-52"/>
       <use x="63.623047" xlink:href="#DejaVuSans-48"/>
       <use x="127.246094" xlink:href="#DejaVuSans-53"/>
       <use x="190.869141" xlink:href="#DejaVuSans-48"/>
      </g>
     </g>
    </g>
    <g id="xtick_3">
     <g id="line2d_3">
      <g>
       <use style="stroke:#000000;stroke-width:0.8;" x="203.814545" xlink:href="#m0e19457b96" y="252"/>
      </g>
     </g>
     <g id="text_3">
      <!-- 4100 -->
      <defs>
       <path d="M 12.40625 8.296875 
L 28.515625 8.296875 
L 28.515625 63.921875 
L 10.984375 60.40625 
L 10.984375 69.390625 
L 28.421875 72.90625 
L 38.28125 72.90625 
L 38.28125 8.296875 
L 54.390625 8.296875 
L 54.390625 0 
L 12.40625 0 
z
" id="DejaVuSans-49"/>
      </defs>
      <g transform="translate(191.089545 266.598437)scale(0.1 -0.1)">
       <use xlink:href="#DejaVuSans-52"/>
       <use x="63.623047" xlink:href="#DejaVuSans-49"/>
       <use x="127.246094" xlink:href="#DejaVuSans-48"/>
       <use x="190.869141" xlink:href="#DejaVuSans-48"/>
      </g>
     </g>
    </g>
    <g id="xtick_4">
     <g id="line2d_4">
      <g>
       <use style="stroke:#000000;stroke-width:0.8;" x="260.178182" xlink:href="#m0e19457b96" y="252"/>
      </g>
     </g>
     <g id="text_4">
      <!-- 4150 -->
      <g transform="translate(247.453182 266.598437)scale(0.1 -0.1)">
       <use xlink:href="#DejaVuSans-52"/>
       <use x="63.623047" xlink:href="#DejaVuSans-49"/>
       <use x="127.246094" xlink:href="#DejaVuSans-53"/>
       <use x="190.869141" xlink:href="#DejaVuSans-48"/>
      </g>
     </g>
    </g>
    <g id="xtick_5">
     <g id="line2d_5">
      <g>
       <use style="stroke:#000000;stroke-width:0.8;" x="316.541818" xlink:href="#m0e19457b96" y="252"/>
      </g>
     </g>
     <g id="text_5">
      <!-- 4200 -->
      <defs>
       <path d="M 19.1875 8.296875 
L 53.609375 8.296875 
L 53.609375 0 
L 7.328125 0 
L 7.328125 8.296875 
Q 12.9375 14.109375 22.625 23.890625 
Q 32.328125 33.6875 34.8125 36.53125 
Q 39.546875 41.84375 41.421875 45.53125 
Q 43.3125 49.21875 43.3125 52.78125 
Q 43.3125 58.59375 39.234375 62.25 
Q 35.15625 65.921875 28.609375 65.921875 
Q 23.96875 65.921875 18.8125 64.3125 
Q 13.671875 62.703125 7.8125 59.421875 
L 7.8125 69.390625 
Q 13.765625 71.78125 18.9375 73 
Q 24.125 74.21875 28.421875 74.21875 
Q 39.75 74.21875 46.484375 68.546875 
Q 53.21875 62.890625 53.21875 53.421875 
Q 53.21875 48.921875 51.53125 44.890625 
Q 49.859375 40.875 45.40625 35.40625 
Q 44.1875 33.984375 37.640625 27.21875 
Q 31.109375 20.453125 19.1875 8.296875 
z
" id="DejaVuSans-50"/>
      </defs>
      <g transform="translate(303.816818 266.598437)scale(0.1 -0.1)">
       <use xlink:href="#DejaVuSans-52"/>
       <use x="63.623047" xlink:href="#DejaVuSans-50"/>
       <use x="127.246094" xlink:href="#DejaVuSans-48"/>
       <use x="190.869141" xlink:href="#DejaVuSans-48"/>
      </g>
     </g>
    </g>
    <g id="xtick_6">
     <g id="line2d_6">
      <g>
       <use style="stroke:#000000;stroke-width:0.8;" x="372.905455" xlink:href="#m0e19457b96" y="252"/>
      </g>
     </g>
     <g id="text_6">
      <!-- 4250 -->
      <g transform="translate(360.180455 266.598437)scale(0.1 -0.1)">
       <use xlink:href="#DejaVuSans-52"/>
       <use x="63.623047" xlink:href="#DejaVuSans-50"/>
       <use x="127.246094" xlink:href="#DejaVuSans-53"/>
       <use x="190.869141" xlink:href="#DejaVuSans-48"/>
      </g>
     </g>
    </g>
    <g id="text_7">
     <!-- $\lambda$ ($\AA$) -->
     <defs>
      <path d="M 36.71875 67.4375 
L 48.828125 0 
L 39.3125 0 
L 31.84375 40.4375 
L 5.125 0 
L -4.390625 0 
L 29.734375 52.4375 
L 28.03125 62.109375 
Q 26.953125 68.265625 21.734375 68.265625 
L 17.046875 68.265625 
L 18.5 75.984375 
L 24.21875 75.875 
Q 35.203125 75.734375 36.71875 67.4375 
z
" id="DejaVuSans-Oblique-955"/>
      <path id="DejaVuSans-32"/>
      <path d="M 31 75.875 
Q 24.46875 64.65625 21.28125 53.65625 
Q 18.109375 42.671875 18.109375 31.390625 
Q 18.109375 20.125 21.3125 9.0625 
Q 24.515625 -2 31 -13.1875 
L 23.1875 -13.1875 
Q 15.875 -1.703125 12.234375 9.375 
Q 8.59375 20.453125 8.59375 31.390625 
Q 8.59375 42.28125 12.203125 53.3125 
Q 15.828125 64.359375 23.1875 75.875 
z
" id="DejaVuSans-40"/>
      <path d="M 49.8125 79.390625 
Q 49.8125 82.46875 47.625 84.640625 
Q 45.453125 86.8125 42.390625 86.8125 
Q 39.265625 86.8125 37.140625 84.6875 
Q 35.015625 82.5625 35.015625 79.390625 
Q 35.015625 76.3125 37.140625 74.15625 
Q 39.265625 72.015625 42.390625 72.015625 
Q 45.453125 72.015625 47.625 74.15625 
Q 49.8125 76.3125 49.8125 79.390625 
z
M 34.421875 68.703125 
Q 31.78125 70.515625 30.390625 73.265625 
Q 29 76.03125 29 79.390625 
Q 29 84.96875 32.90625 88.890625 
Q 36.8125 92.828125 42.390625 92.828125 
Q 47.953125 92.828125 51.875 88.890625 
Q 55.8125 84.96875 55.8125 79.390625 
Q 55.8125 75.53125 54.03125 72.546875 
Q 52.25 69.578125 48.875 67.828125 
L 61.53125 0 
L 51.21875 0 
L 48.1875 18.703125 
L 15.375 18.703125 
L 5.078125 0 
L -5.328125 0 
z
M 40.375 63.1875 
L 19.921875 26.90625 
L 46.6875 26.90625 
z
" id="DejaVuSans-Oblique-197"/>
      <path d="M 8.015625 75.875 
L 15.828125 75.875 
Q 23.140625 64.359375 26.78125 53.3125 
Q 30.421875 42.28125 30.421875 31.390625 
Q 30.421875 20.453125 26.78125 9.375 
Q 23.140625 -1.703125 15.828125 -13.1875 
L 8.015625 -13.1875 
Q 14.5 -2 17.703125 9.0625 
Q 20.90625 20.125 20.90625 31.390625 
Q 20.90625 42.671875 17.703125 53.65625 
Q 14.5 64.65625 8.015625 75.875 
z
" id="DejaVuSans-41"/>
     </defs>
     <g transform="translate(209.5 281.298437)scale(0.1 -0.1)">
      <use transform="translate(0 0.171875)" xlink:href="#DejaVuSans-Oblique-955"/>
      <use transform="translate(59.179688 0.171875)" xlink:href="#DejaVuSans-32"/>
      <use transform="translate(90.966797 0.171875)" xlink:href="#DejaVuSans-40"/>
      <use transform="translate(129.980469 0.171875)" xlink:href="#DejaVuSans-Oblique-197"/>
      <use transform="translate(198.388672 0.171875)" xlink:href="#DejaVuSans-41"/>
     </g>
    </g>
   </g>
   <g id="matplotlib.axis_2">
    <g id="ytick_1">
     <g id="line2d_7">
      <defs>
       <path d="M 0 0 
L -3.5 0 
" id="ma61dd33f4e" style="stroke:#000000;stroke-width:0.8;"/>
      </defs>
      <g>
       <use style="stroke:#000000;stroke-width:0.8;" x="54" xlink:href="#ma61dd33f4e" y="252"/>
      </g>
     </g>
     <g id="text_8">
      <!-- 0.000 -->
      <defs>
       <path d="M 10.6875 12.40625 
L 21 12.40625 
L 21 0 
L 10.6875 0 
z
" id="DejaVuSans-46"/>
      </defs>
      <g transform="translate(18.371875 255.799219)scale(0.1 -0.1)">
       <use xlink:href="#DejaVuSans-48"/>
       <use x="63.623047" xlink:href="#DejaVuSans-46"/>
       <use x="95.410156" xlink:href="#DejaVuSans-48"/>
       <use x="159.033203" xlink:href="#DejaVuSans-48"/>
       <use x="222.65625" xlink:href="#DejaVuSans-48"/>
      </g>
     </g>
    </g>
    <g id="ytick_2">
     <g id="line2d_8">
      <g>
       <use style="stroke:#000000;stroke-width:0.8;" x="54" xlink:href="#ma61dd33f4e" y="215.163839"/>
      </g>
     </g>
     <g id="text_9">
      <!-- 0.005 -->
      <g transform="translate(18.371875 218.963058)scale(0.1 -0.1)">
       <use xlink:href="#DejaVuSans-48"/>
       <use x="63.623047" xlink:href="#DejaVuSans-46"/>
       <use x="95.410156" xlink:href="#DejaVuSans-48"/>
       <use x="159.033203" xlink:href="#DejaVuSans-48"/>
       <use x="222.65625" xlink:href="#DejaVuSans-53"/>
      </g>
     </g>
    </g>
    <g id="ytick_3">
     <g id="line2d_9">
      <g>
       <use style="stroke:#000000;stroke-width:0.8;" x="54" xlink:href="#ma61dd33f4e" y="178.327678"/>
      </g>
     </g>
     <g id="text_10">
      <!-- 0.010 -->
      <g transform="translate(18.371875 182.126896)scale(0.1 -0.1)">
       <use xlink:href="#DejaVuSans-48"/>
       <use x="63.623047" xlink:href="#DejaVuSans-46"/>
       <use x="95.410156" xlink:href="#DejaVuSans-48"/>
       <use x="159.033203" xlink:href="#DejaVuSans-49"/>
       <use x="222.65625" xlink:href="#DejaVuSans-48"/>
      </g>
     </g>
    </g>
    <g id="ytick_4">
     <g id="line2d_10">
      <g>
       <use style="stroke:#000000;stroke-width:0.8;" x="54" xlink:href="#ma61dd33f4e" y="141.491516"/>
      </g>
     </g>
     <g id="text_11">
      <!-- 0.015 -->
      <g transform="translate(18.371875 145.290735)scale(0.1 -0.1)">
       <use xlink:href="#DejaVuSans-48"/>
       <use x="63.623047" xlink:href="#DejaVuSans-46"/>
       <use x="95.410156" xlink:href="#DejaVuSans-48"/>
       <use x="159.033203" xlink:href="#DejaVuSans-49"/>
       <use x="222.65625" xlink:href="#DejaVuSans-53"/>
      </g>
     </g>
    </g>
    <g id="ytick_5">
     <g id="line2d_11">
      <g>
       <use style="stroke:#000000;stroke-width:0.8;" x="54" xlink:href="#ma61dd33f4e" y="104.655355"/>
      </g>
     </g>
     <g id="text_12">
      <!-- 0.020 -->
      <g transform="translate(18.371875 108.454574)scale(0.1 -0.1)">
       <use xlink:href="#DejaVuSans-48"/>
       <use x="63.623047" xlink:href="#DejaVuSans-46"/>
       <use x="95.410156" xlink:href="#DejaVuSans-48"/>
       <use x="159.033203" xlink:href="#DejaVuSans-50"/>
       <use x="222.65625" xlink:href="#DejaVuSans-48"/>
      </g>
     </g>
    </g>
    <g id="ytick_6">
     <g id="line2d_12">
      <g>
       <use style="stroke:#000000;stroke-width:0.8;" x="54" xlink:href="#ma61dd33f4e" y="67.819194"/>
      </g>
     </g>
     <g id="text_13">
      <!-- 0.025 -->
      <g transform="translate(18.371875 71.618413)scale(0.1 -0.1)">
       <use xlink:href="#DejaVuSans-48"/>
       <use x="63.623047" xlink:href="#DejaVuSans-46"/>
       <use x="95.410156" xlink:href="#DejaVuSans-48"/>
       <use x="159.033203" xlink:href="#DejaVuSans-50"/>
       <use x="222.65625" xlink:href="#DejaVuSans-53"/>
      </g>
     </g>
    </g>
    <g id="text_14">
     <!-- relative flux -->
     <defs>
      <path d="M 41.109375 46.296875 
Q 39.59375 47.171875 37.8125 47.578125 
Q 36.03125 48 33.890625 48 
Q 26.265625 48 22.1875 43.046875 
Q 18.109375 38.09375 18.109375 28.8125 
L 18.109375 0 
L 9.078125 0 
L 9.078125 54.6875 
L 18.109375 54.6875 
L 18.109375 46.1875 
Q 20.953125 51.171875 25.484375 53.578125 
Q 30.03125 56 36.53125 56 
Q 37.453125 56 38.578125 55.875 
Q 39.703125 55.765625 41.0625 55.515625 
z
" id="DejaVuSans-114"/>
      <path d="M 56.203125 29.59375 
L 56.203125 25.203125 
L 14.890625 25.203125 
Q 15.484375 15.921875 20.484375 11.0625 
Q 25.484375 6.203125 34.421875 6.203125 
Q 39.59375 6.203125 44.453125 7.46875 
Q 49.3125 8.734375 54.109375 11.28125 
L 54.109375 2.78125 
Q 49.265625 0.734375 44.1875 -0.34375 
Q 39.109375 -1.421875 33.890625 -1.421875 
Q 20.796875 -1.421875 13.15625 6.1875 
Q 5.515625 13.8125 5.515625 26.8125 
Q 5.515625 40.234375 12.765625 48.109375 
Q 20.015625 56 32.328125 56 
Q 43.359375 56 49.78125 48.890625 
Q 56.203125 41.796875 56.203125 29.59375 
z
M 47.21875 32.234375 
Q 47.125 39.59375 43.09375 43.984375 
Q 39.0625 48.390625 32.421875 48.390625 
Q 24.90625 48.390625 20.390625 44.140625 
Q 15.875 39.890625 15.1875 32.171875 
z
" id="DejaVuSans-101"/>
      <path d="M 9.421875 75.984375 
L 18.40625 75.984375 
L 18.40625 0 
L 9.421875 0 
z
" id="DejaVuSans-108"/>
      <path d="M 34.28125 27.484375 
Q 23.390625 27.484375 19.1875 25 
Q 14.984375 22.515625 14.984375 16.5 
Q 14.984375 11.71875 18.140625 8.90625 
Q 21.296875 6.109375 26.703125 6.109375 
Q 34.1875 6.109375 38.703125 11.40625 
Q 43.21875 16.703125 43.21875 25.484375 
L 43.21875 27.484375 
z
M 52.203125 31.203125 
L 52.203125 0 
L 43.21875 0 
L 43.21875 8.296875 
Q 40.140625 3.328125 35.546875 0.953125 
Q 30.953125 -1.421875 24.3125 -1.421875 
Q 15.921875 -1.421875 10.953125 3.296875 
Q 6 8.015625 6 15.921875 
Q 6 25.140625 12.171875 29.828125 
Q 18.359375 34.515625 30.609375 34.515625 
L 43.21875 34.515625 
L 43.21875 35.40625 
Q 43.21875 41.609375 39.140625 45 
Q 35.0625 48.390625 27.6875 48.390625 
Q 23 48.390625 18.546875 47.265625 
Q 14.109375 46.140625 10.015625 43.890625 
L 10.015625 52.203125 
Q 14.9375 54.109375 19.578125 55.046875 
Q 24.21875 56 28.609375 56 
Q 40.484375 56 46.34375 49.84375 
Q 52.203125 43.703125 52.203125 31.203125 
z
" id="DejaVuSans-97"/>
      <path d="M 18.3125 70.21875 
L 18.3125 54.6875 
L 36.8125 54.6875 
L 36.8125 47.703125 
L 18.3125 47.703125 
L 18.3125 18.015625 
Q 18.3125 11.328125 20.140625 9.421875 
Q 21.96875 7.515625 27.59375 7.515625 
L 36.8125 7.515625 
L 36.8125 0 
L 27.59375 0 
Q 17.1875 0 13.234375 3.875 
Q 9.28125 7.765625 9.28125 18.015625 
L 9.28125 47.703125 
L 2.6875 47.703125 
L 2.6875 54.6875 
L 9.28125 54.6875 
L 9.28125 70.21875 
z
" id="DejaVuSans-116"/>
      <path d="M 9.421875 54.6875 
L 18.40625 54.6875 
L 18.40625 0 
L 9.421875 0 
z
M 9.421875 75.984375 
L 18.40625 75.984375 
L 18.40625 64.59375 
L 9.421875 64.59375 
z
" id="DejaVuSans-105"/>
      <path d="M 2.984375 54.6875 
L 12.5 54.6875 
L 29.59375 8.796875 
L 46.6875 54.6875 
L 56.203125 54.6875 
L 35.6875 0 
L 23.484375 0 
z
" id="DejaVuSans-118"/>
      <path d="M 37.109375 75.984375 
L 37.109375 68.5 
L 28.515625 68.5 
Q 23.6875 68.5 21.796875 66.546875 
Q 19.921875 64.59375 19.921875 59.515625 
L 19.921875 54.6875 
L 34.71875 54.6875 
L 34.71875 47.703125 
L 19.921875 47.703125 
L 19.921875 0 
L 10.890625 0 
L 10.890625 47.703125 
L 2.296875 47.703125 
L 2.296875 54.6875 
L 10.890625 54.6875 
L 10.890625 58.5 
Q 10.890625 67.625 15.140625 71.796875 
Q 19.390625 75.984375 28.609375 75.984375 
z
" id="DejaVuSans-102"/>
      <path d="M 8.5 21.578125 
L 8.5 54.6875 
L 17.484375 54.6875 
L 17.484375 21.921875 
Q 17.484375 14.15625 20.5 10.265625 
Q 23.53125 6.390625 29.59375 6.390625 
Q 36.859375 6.390625 41.078125 11.03125 
Q 45.3125 15.671875 45.3125 23.6875 
L 45.3125 54.6875 
L 54.296875 54.6875 
L 54.296875 0 
L 45.3125 0 
L 45.3125 8.40625 
Q 42.046875 3.421875 37.71875 1 
Q 33.40625 -1.421875 27.6875 -1.421875 
Q 18.265625 -1.421875 13.375 4.4375 
Q 8.5 10.296875 8.5 21.578125 
z
M 31.109375 56 
z
" id="DejaVuSans-117"/>
      <path d="M 54.890625 54.6875 
L 35.109375 28.078125 
L 55.90625 0 
L 45.3125 0 
L 29.390625 21.484375 
L 13.484375 0 
L 2.875 0 
L 24.125 28.609375 
L 4.6875 54.6875 
L 15.28125 54.6875 
L 29.78125 35.203125 
L 44.28125 54.6875 
z
" id="DejaVuSans-120"/>
     </defs>
     <g transform="translate(12.292187 173.115156)rotate(-90)scale(0.1 -0.1)">
      <use xlink:href="#DejaVuSans-114"/>
      <use x="41.082031" xlink:href="#DejaVuSans-101"/>
      <use x="102.605469" xlink:href="#DejaVuSans-108"/>
      <use x="130.388672" xlink:href="#DejaVuSans-97"/>
      <use x="191.667969" xlink:href="#DejaVuSans-116"/>
      <use x="230.876953" xlink:href="#DejaVuSans-105"/>
      <use x="258.660156" xlink:href="#DejaVuSans-118"/>
      <use x="317.839844" xlink:href="#DejaVuSans-101"/>
      <use x="379.363281" xlink:href="#DejaVuSans-32"/>
      <use x="411.150391" xlink:href="#DejaVuSans-102"/>
      <use x="446.355469" xlink:href="#DejaVuSans-108"/>
      <use x="474.138672" xlink:href="#DejaVuSans-117"/>
      <use x="537.517578" xlink:href="#DejaVuSans-120"/>
     </g>
    </g>
   </g>
   <g id="line2d_13">
    <path clip-path="url(#pf2623964f0)" d="M 52.985455 252 
L 64.145455 252 
L 65.16 148.098939 
L 66.174545 148.424708 
L 67.189091 146.016461 
L 68.203636 145.567667 
L 69.218182 143.901884 
L 70.232727 143.304713 
L 71.247273 142.447665 
L 74.290909 137.36479 
L 75.305455 133.992229 
L 76.32 133.745929 
L 77.334545 130.424855 
L 78.349091 129.560875 
L 81.392727 124.216788 
L 82.407273 121.757874 
L 83.421818 121.474802 
L 84.436364 118.238556 
L 85.450909 116.600036 
L 86.465455 112.799152 
L 87.48 111.095658 
L 88.494545 110.563661 
L 89.509091 108.685474 
L 90.523636 105.79947 
L 91.538182 104.531292 
L 92.552727 105.12207 
L 93.567273 101.01136 
L 94.581818 101.025674 
L 95.596364 100.133828 
L 96.610909 97.606806 
L 97.625455 95.751314 
L 98.64 95.311423 
L 99.654545 93.543377 
L 100.669091 94.711037 
L 101.683636 93.479254 
L 103.712727 90.634722 
L 105.741818 90.662204 
L 106.756364 88.253602 
L 107.770909 86.490434 
L 108.785455 85.85627 
L 109.8 84.675583 
L 110.814545 82.475678 
L 111.829091 81.927696 
L 112.843636 81.213685 
L 113.858182 79.579702 
L 114.872727 79.274347 
L 115.887273 78.48883 
L 116.901818 77.180203 
L 117.916364 77.364234 
L 118.930909 76.810728 
L 119.945455 74.647279 
L 120.96 73.433117 
L 122.989091 75.496376 
L 124.003636 74.993156 
L 125.018182 75.067157 
L 126.032727 72.332863 
L 127.047273 70.679854 
L 128.061818 69.528847 
L 129.076364 69.190161 
L 130.090909 69.713449 
L 131.105455 69.848817 
L 132.12 70.818756 
L 133.134545 65.394306 
L 134.149091 66.015997 
L 135.163636 66.325033 
L 136.178182 65.873013 
L 138.207273 62.92375 
L 139.221818 63.703781 
L 140.236364 63.145149 
L 141.250909 65.146845 
L 142.265455 61.787049 
L 143.28 60.262626 
L 144.294545 60.621121 
L 145.309091 61.584089 
L 146.323636 61.757274 
L 147.338182 58.906025 
L 148.352727 57.704662 
L 149.367273 59.105341 
L 150.381818 57.932066 
L 151.396364 57.969543 
L 152.410909 58.996521 
L 153.425455 59.732552 
L 154.44 59.289773 
L 155.454545 56.400043 
L 156.469091 54.266826 
L 157.483636 56.643033 
L 158.498182 57.978981 
L 159.512727 57.503269 
L 160.527273 56.681043 
L 161.541818 57.226761 
L 162.556364 58.87512 
L 163.570909 57.740111 
L 164.585455 58.632019 
L 165.6 58.607844 
L 166.614545 59.038399 
L 167.629091 58.237701 
L 168.643636 58.065588 
L 169.658182 59.325603 
L 170.672727 58.734454 
L 171.687273 58.68429 
L 172.701818 58.203154 
L 173.716364 60.068902 
L 174.730909 60.343011 
L 175.745455 60.237607 
L 176.76 60.772381 
L 177.774545 62.140908 
L 178.789091 65.147811 
L 179.803636 65.978544 
L 180.818182 70.179059 
L 181.832727 71.197839 
L 182.847273 73.232283 
L 183.861818 76.635845 
L 184.876364 79.168912 
L 185.890909 79.752911 
L 187.92 83.543735 
L 188.934545 86.953527 
L 189.949091 89.829905 
L 191.978182 93.264791 
L 194.007273 98.70371 
L 195.021818 97.546167 
L 196.036364 98.964695 
L 197.050909 101.343674 
L 198.065455 102.468433 
L 199.08 102.705797 
L 200.094545 102.736389 
L 201.109091 102.999007 
L 202.123636 104.024277 
L 203.138182 104.188049 
L 204.152727 102.60303 
L 205.167273 103.185254 
L 206.181818 102.164122 
L 207.196364 102.18187 
L 208.210909 103.583071 
L 209.225455 102.649648 
L 210.24 103.623675 
L 211.254545 104.266294 
L 212.269091 101.715339 
L 213.283636 100.51537 
L 214.298182 99.091488 
L 215.312727 98.592883 
L 216.327273 99.392179 
L 217.341818 96.971752 
L 218.356364 94.83928 
L 220.385455 91.517337 
L 221.4 89.131691 
L 223.429091 83.365921 
L 224.443636 81.021591 
L 225.458182 77.667681 
L 226.472727 75.614511 
L 227.487273 72.313603 
L 229.516364 67.066736 
L 231.545455 62.581932 
L 232.56 59.274794 
L 233.574545 60.741877 
L 234.589091 56.492184 
L 236.618182 53.58679 
L 237.632727 52.042184 
L 238.647273 51.575262 
L 239.661818 52.028649 
L 240.676364 51.575556 
L 242.705455 47.107307 
L 243.72 46.172418 
L 244.734545 46.443256 
L 245.749091 46.482083 
L 246.763636 45.853769 
L 247.778182 45.947062 
L 248.792727 43.937077 
L 249.807273 43.298008 
L 250.821818 40.868295 
L 251.836364 39.815741 
L 253.865455 40.1256 
L 254.88 40.055305 
L 255.894545 40.830205 
L 256.909091 38.654715 
L 257.923636 39.697704 
L 258.938182 38.780141 
L 259.952727 37.325794 
L 260.967273 36.855244 
L 261.981818 37.51768 
L 262.996364 38.454834 
L 264.010909 37.8314 
L 265.025455 38.117665 
L 266.04 37.567484 
L 267.054545 37.924511 
L 268.069091 38.825386 
L 269.083636 39.236488 
L 270.098182 39.011176 
L 271.112727 39.415343 
L 272.127273 38.839011 
L 273.141818 36.921494 
L 274.156364 36.274198 
L 275.170909 37.412922 
L 276.185455 39.109318 
L 277.2 39.650004 
L 278.214545 38.566201 
L 279.229091 38.808236 
L 280.243636 40.647591 
L 281.258182 40.58849 
L 282.272727 39.827727 
L 284.301818 36.72826 
L 285.316364 38.099197 
L 286.330909 38.631953 
L 287.345455 37.965026 
L 288.36 38.605145 
L 289.374545 40.013851 
L 290.389091 39.986686 
L 291.403636 38.868251 
L 292.418182 39.326762 
L 293.432727 42.124037 
L 295.461818 40.1554 
L 296.476364 38.574527 
L 297.490909 38.311603 
L 298.505455 39.531324 
L 299.52 40.158076 
L 300.534545 38.092651 
L 301.549091 38.544663 
L 302.563636 38.523321 
L 303.578182 39.77222 
L 305.607273 38.650953 
L 306.621818 38.679254 
L 307.636364 37.057101 
L 308.650909 38.191316 
L 310.68 35.051008 
L 312.709091 36.387405 
L 313.723636 36.000837 
L 314.738182 35.832751 
L 315.752727 36.217061 
L 316.767273 35.588775 
L 317.781818 34.56 
L 318.796364 34.6868 
L 319.810909 35.752894 
L 320.825455 35.785939 
L 321.84 34.764596 
L 322.854545 36.767882 
L 323.869091 38.006297 
L 324.883636 37.311708 
L 325.898182 37.31365 
L 326.912727 37.809437 
L 327.927273 38.03804 
L 328.941818 38.024578 
L 329.956364 38.697587 
L 331.985455 40.375885 
L 333 38.748715 
L 334.014545 37.657143 
L 335.029091 38.597306 
L 336.043636 39.98709 
L 337.058182 39.403344 
L 338.072727 39.157043 
L 339.087273 39.232061 
L 340.101818 39.142499 
L 341.116364 39.198174 
L 342.130909 38.951814 
L 343.145455 38.900179 
L 344.16 39.589918 
L 345.174545 39.848281 
L 346.189091 39.412432 
L 347.203636 40.492976 
L 348.218182 40.418164 
L 349.232727 39.931524 
L 350.247273 39.831923 
L 352.276364 40.497596 
L 353.290909 39.487725 
L 354.305455 39.830587 
L 355.32 41.707811 
L 356.334545 41.079716 
L 357.349091 39.637031 
L 358.363636 40.504872 
L 359.378182 43.259875 
L 360.392727 40.968064 
L 361.407273 40.150988 
L 362.421818 40.572633 
L 364.450909 41.89894 
L 365.465455 41.770665 
L 366.48 40.404533 
L 367.494545 42.473547 
L 368.509091 42.007174 
L 369.523636 42.943472 
L 370.538182 42.316315 
L 371.552727 41.522972 
L 372.567273 41.815691 
L 373.581818 42.435384 
L 374.596364 41.132959 
L 375.610909 43.429404 
L 376.625455 44.666896 
L 377.64 44.090541 
L 378.654545 43.805939 
L 379.669091 44.094061 
L 380.683636 44.004941 
L 381.698182 43.408434 
L 382.712727 41.412118 
L 383.727273 43.716093 
L 384.741818 44.228643 
L 385.756364 43.814586 
L 386.770909 43.993946 
L 387.785455 45.497516 
L 388.8 47.437986 
L 389.814545 44.855286 
L 389.814545 44.855286 
" style="fill:none;stroke:#1f77b4;stroke-linecap:square;stroke-width:1.5;"/>
   </g>
   <g id="line2d_14">
    <path clip-path="url(#pf2623964f0)" d="M 52.985455 252 
L 64.145455 252 
L 65.16 240.013811 
L 66.174545 240.020749 
L 67.189091 239.710803 
L 68.203636 239.627156 
L 69.218182 239.401344 
L 71.247273 239.166481 
L 74.290909 238.467948 
L 75.305455 238.034325 
L 76.32 237.969525 
L 77.334545 237.538769 
L 78.349091 237.398948 
L 82.407273 236.310037 
L 83.421818 236.236067 
L 84.436364 235.804282 
L 85.450909 235.56438 
L 86.465455 235.06025 
L 87.48 234.809587 
L 88.494545 234.701079 
L 89.509091 234.427095 
L 90.523636 234.02798 
L 91.538182 233.826369 
L 92.552727 233.853558 
L 93.567273 233.298708 
L 94.581818 233.253418 
L 95.596364 233.095249 
L 97.625455 232.45184 
L 98.64 232.347602 
L 99.654545 232.075998 
L 100.669091 232.173245 
L 104.727273 231.451645 
L 105.741818 231.40724 
L 107.770909 230.769198 
L 109.8 230.429286 
L 110.814545 230.091277 
L 112.843636 229.818261 
L 113.858182 229.550403 
L 115.887273 229.29609 
L 116.901818 229.068141 
L 118.930909 228.9057 
L 119.945455 228.562658 
L 120.96 228.343859 
L 122.989091 228.501543 
L 125.018182 228.328053 
L 126.032727 227.903001 
L 128.061818 227.406298 
L 129.076364 227.300063 
L 132.12 227.339331 
L 133.134545 226.538725 
L 135.163636 226.541449 
L 136.178182 226.417021 
L 138.207273 225.884436 
L 139.221818 225.928666 
L 140.236364 225.78751 
L 141.250909 226.002096 
L 142.265455 225.470138 
L 143.28 225.192398 
L 146.323636 225.206854 
L 147.338182 224.739256 
L 148.352727 224.503085 
L 149.367273 224.635112 
L 150.381818 224.40195 
L 151.396364 224.340462 
L 153.425455 224.459021 
L 154.44 224.32889 
L 156.469091 223.470408 
L 157.483636 223.745286 
L 158.498182 223.870886 
L 161.541818 223.557488 
L 162.556364 223.730429 
L 163.570909 223.496006 
L 164.585455 223.558795 
L 168.643636 223.201199 
L 169.658182 223.319895 
L 172.701818 222.945688 
L 173.716364 223.156797 
L 176.76 223.056761 
L 177.774545 223.195573 
L 178.789091 223.584414 
L 179.803636 223.643585 
L 180.818182 224.218141 
L 181.832727 224.308313 
L 182.847273 224.555043 
L 183.861818 225.013832 
L 184.876364 225.340718 
L 185.890909 225.367991 
L 187.92 225.830951 
L 189.949091 226.688532 
L 191.978182 227.107833 
L 194.007273 227.84756 
L 195.021818 227.608026 
L 196.036364 227.775322 
L 197.050909 228.095967 
L 198.065455 228.218822 
L 203.138182 228.216134 
L 204.152727 227.904998 
L 205.167273 227.942931 
L 206.181818 227.721414 
L 207.196364 227.667763 
L 208.210909 227.839247 
L 209.225455 227.630764 
L 211.254545 227.782443 
L 212.269091 227.307115 
L 215.312727 226.618479 
L 216.327273 226.692314 
L 218.356364 225.816692 
L 221.4 224.677597 
L 223.429091 223.579926 
L 224.443636 223.118562 
L 225.458182 222.484347 
L 226.472727 222.068149 
L 228.501818 220.895282 
L 232.56 218.843304 
L 233.574545 219.020525 
L 234.589091 218.210765 
L 238.647273 217.044153 
L 239.661818 217.043895 
L 240.676364 216.885057 
L 242.705455 215.939014 
L 243.72 215.692318 
L 245.749091 215.5825 
L 246.763636 215.388503 
L 247.778182 215.322323 
L 248.792727 214.880861 
L 249.807273 214.682782 
L 250.821818 214.16316 
L 251.836364 213.888804 
L 255.894545 213.728457 
L 256.909091 213.247333 
L 257.923636 213.350232 
L 260.967273 212.568841 
L 262.996364 212.686721 
L 264.010909 212.483851 
L 265.025455 212.448561 
L 266.04 212.258354 
L 268.069091 212.315202 
L 269.083636 212.303566 
L 270.098182 212.173138 
L 271.112727 212.160361 
L 272.127273 211.963631 
L 273.141818 211.513828 
L 274.156364 211.301929 
L 277.2 211.672091 
L 278.214545 211.376647 
L 279.229091 211.33307 
L 280.243636 211.594932 
L 281.258182 211.49448 
L 282.272727 211.259117 
L 284.301818 210.481744 
L 285.316364 210.655424 
L 286.330909 210.667771 
L 287.345455 210.447535 
L 288.36 210.480906 
L 289.374545 210.664561 
L 290.389091 210.568694 
L 291.403636 210.258953 
L 292.418182 210.257639 
L 293.432727 210.716632 
L 297.490909 209.598704 
L 298.505455 209.748928 
L 299.52 209.781904 
L 300.534545 209.277602 
L 303.578182 209.336413 
L 307.636364 208.415199 
L 308.650909 208.551508 
L 310.68 207.722852 
L 312.709091 207.80574 
L 314.738182 207.50118 
L 315.752727 207.484829 
L 318.796364 206.879932 
L 319.810909 207.005089 
L 320.825455 206.915655 
L 321.84 206.605791 
L 322.854545 206.928271 
L 323.869091 207.091898 
L 324.883636 206.849983 
L 326.912727 206.762414 
L 329.956364 206.661855 
L 331.985455 206.827361 
L 334.014545 206.05283 
L 336.043636 206.359687 
L 338.072727 205.987135 
L 342.130909 205.55312 
L 343.145455 205.444105 
L 345.174545 205.456209 
L 346.189091 205.262683 
L 347.203636 205.402704 
L 352.276364 204.914145 
L 353.290909 204.590556 
L 354.305455 204.568311 
L 355.32 204.889989 
L 356.334545 204.650876 
L 357.349091 204.227804 
L 358.363636 204.324102 
L 359.378182 204.847379 
L 360.392727 204.230715 
L 361.407273 203.946288 
L 365.465455 203.917569 
L 366.48 203.505128 
L 367.494545 203.880184 
L 368.509091 203.673596 
L 369.523636 203.789908 
L 371.552727 203.262282 
L 373.581818 203.27388 
L 374.596364 202.870403 
L 375.610909 203.305772 
L 376.625455 203.495477 
L 378.654545 203.094449 
L 380.683636 202.941282 
L 381.698182 202.700157 
L 382.712727 202.12682 
L 383.727273 202.571939 
L 384.741818 202.593169 
L 385.756364 202.393982 
L 386.770909 202.335957 
L 388.8 202.959713 
L 389.814545 202.239842 
L 389.814545 202.239842 
" style="fill:none;stroke:#ff7f0e;stroke-linecap:square;stroke-width:1.5;"/>
   </g>
   <g id="line2d_15">
    <path clip-path="url(#pf2623964f0)" style="fill:none;stroke:#ff0000;stroke-dasharray:1.5,2.475;stroke-dashoffset:0;stroke-width:1.5;"/>
   </g>
   <g id="line2d_16">
    <path clip-path="url(#pf2623964f0)" style="fill:none;stroke:#008000;stroke-dasharray:1.5,2.475;stroke-dashoffset:0;stroke-width:1.5;"/>
   </g>
   <g id="line2d_17">
    <path clip-path="url(#pf2623964f0)" style="fill:none;stroke:#008000;stroke-dasharray:1.5,2.475;stroke-dashoffset:0;stroke-width:1.5;"/>
   </g>
   <g id="line2d_18">
    <path clip-path="url(#pf2623964f0)" d="M 52.985455 252 
L 64.145455 252 
L 65.16 148.098939 
L 66.174545 148.424708 
L 67.189091 146.016461 
L 68.203636 145.567667 
L 69.218182 143.901884 
L 70.232727 143.304713 
L 71.247273 142.447665 
L 74.290909 137.36479 
L 75.305455 133.992229 
L 76.32 133.745929 
L 77.334545 130.424855 
L 78.349091 129.560875 
L 81.392727 124.216788 
L 82.407273 121.757874 
L 83.421818 121.474802 
L 84.436364 118.238556 
L 85.450909 116.600036 
L 86.465455 112.799152 
L 87.48 111.095658 
L 88.494545 110.563661 
L 89.509091 108.685474 
L 90.523636 105.79947 
L 91.538182 104.531292 
L 92.552727 105.12207 
L 93.567273 101.01136 
L 94.581818 101.025674 
L 95.596364 100.133828 
L 96.610909 97.606806 
L 97.625455 95.751314 
L 98.64 95.311423 
L 99.654545 93.543377 
L 100.669091 94.711037 
L 101.683636 93.479254 
L 103.712727 90.634722 
L 105.741818 90.662204 
L 106.756364 88.253602 
L 107.770909 86.490434 
L 108.785455 85.85627 
L 109.8 84.675583 
L 110.814545 82.475678 
L 111.829091 81.927696 
L 112.843636 81.213685 
L 113.858182 79.579702 
L 114.872727 79.274347 
L 115.887273 78.48883 
L 116.901818 77.180203 
L 117.916364 77.364234 
L 118.930909 76.810728 
L 119.945455 74.647279 
L 120.96 73.433117 
L 122.989091 75.496376 
L 124.003636 74.993156 
L 125.018182 75.067157 
L 126.032727 72.332863 
L 127.047273 70.679854 
L 128.061818 69.528847 
L 129.076364 69.190161 
L 130.090909 69.713449 
L 131.105455 69.848817 
L 132.12 70.818756 
L 133.134545 65.394306 
L 134.149091 66.015997 
L 135.163636 66.325033 
L 136.178182 65.873013 
L 138.207273 62.92375 
L 139.221818 63.703781 
L 140.236364 63.145149 
L 141.250909 65.146845 
L 142.265455 61.787049 
L 143.28 60.262626 
L 144.294545 60.621121 
L 145.309091 61.584089 
L 146.323636 61.757274 
L 147.338182 58.906025 
L 148.352727 57.704662 
L 149.367273 59.105341 
L 150.381818 57.932066 
L 151.396364 57.969543 
L 152.410909 58.996521 
L 153.425455 59.732552 
L 154.44 59.289773 
L 155.454545 56.400043 
L 156.469091 54.266826 
L 157.483636 56.643033 
L 158.498182 57.978981 
L 159.512727 57.503269 
L 160.527273 56.681043 
L 161.541818 57.226761 
L 162.556364 58.87512 
L 163.570909 57.740111 
L 164.585455 58.632019 
L 165.6 58.607844 
L 166.614545 59.038399 
L 167.629091 58.237701 
L 168.643636 58.065588 
L 169.658182 59.325603 
L 170.672727 58.734454 
L 171.687273 58.68429 
L 172.701818 58.203154 
L 173.716364 60.068902 
L 174.730909 60.343011 
L 175.745455 60.237607 
L 176.76 60.772381 
L 177.774545 62.140908 
L 178.789091 65.147811 
L 179.803636 65.978544 
L 180.818182 70.179059 
L 181.832727 71.197839 
L 182.847273 73.232283 
L 183.861818 76.635845 
L 184.876364 79.168912 
L 185.890909 79.752911 
L 187.92 83.543735 
L 188.934545 86.953527 
L 189.949091 89.829905 
L 191.978182 93.264791 
L 194.007273 98.70371 
L 195.021818 97.546167 
L 196.036364 98.964695 
L 197.050909 101.343674 
L 198.065455 102.468433 
L 199.08 102.705797 
L 200.094545 102.736389 
L 201.109091 102.999007 
L 202.123636 104.024277 
L 203.138182 104.188049 
L 204.152727 102.60303 
L 205.167273 103.185254 
L 206.181818 102.164122 
L 207.196364 102.18187 
L 208.210909 103.583071 
L 209.225455 102.649648 
L 210.24 103.623675 
L 211.254545 104.266294 
L 212.269091 101.715339 
L 213.283636 100.51537 
L 214.298182 99.091488 
L 215.312727 98.592883 
L 216.327273 99.392179 
L 217.341818 96.971752 
L 218.356364 94.83928 
L 220.385455 91.517337 
L 221.4 89.131691 
L 223.429091 83.365921 
L 224.443636 81.021591 
L 225.458182 77.667681 
L 226.472727 75.614511 
L 227.487273 72.313603 
L 229.516364 67.066736 
L 231.545455 62.581932 
L 232.56 59.274794 
L 233.574545 60.741877 
L 234.589091 56.492184 
L 236.618182 53.58679 
L 237.632727 52.042184 
L 238.647273 51.575262 
L 239.661818 52.028649 
L 240.676364 51.575556 
L 242.705455 47.107307 
L 243.72 46.172418 
L 244.734545 46.443256 
L 245.749091 46.482083 
L 246.763636 45.853769 
L 247.778182 45.947062 
L 248.792727 43.937077 
L 249.807273 43.298008 
L 250.821818 40.868295 
L 251.836364 39.815741 
L 253.865455 40.1256 
L 254.88 40.055305 
L 255.894545 40.830205 
L 256.909091 38.654715 
L 257.923636 39.697704 
L 258.938182 38.780141 
L 259.952727 37.325794 
L 260.967273 36.855244 
L 261.981818 37.51768 
L 262.996364 38.454834 
L 264.010909 37.8314 
L 265.025455 38.117665 
L 266.04 37.567484 
L 267.054545 37.924511 
L 268.069091 38.825386 
L 269.083636 39.236488 
L 270.098182 39.011176 
L 271.112727 39.415343 
L 272.127273 38.839011 
L 273.141818 36.921494 
L 274.156364 36.274198 
L 275.170909 37.412922 
L 276.185455 39.109318 
L 277.2 39.650004 
L 278.214545 38.566201 
L 279.229091 38.808236 
L 280.243636 40.647591 
L 281.258182 40.58849 
L 282.272727 39.827727 
L 284.301818 36.72826 
L 285.316364 38.099197 
L 286.330909 38.631953 
L 287.345455 37.965026 
L 288.36 38.605145 
L 289.374545 40.013851 
L 290.389091 39.986686 
L 291.403636 38.868251 
L 292.418182 39.326762 
L 293.432727 42.124037 
L 295.461818 40.1554 
L 296.476364 38.574527 
L 297.490909 38.311603 
L 298.505455 39.531324 
L 299.52 40.158076 
L 300.534545 38.092651 
L 301.549091 38.544663 
L 302.563636 38.523321 
L 303.578182 39.77222 
L 305.607273 38.650953 
L 306.621818 38.679254 
L 307.636364 37.057101 
L 308.650909 38.191316 
L 310.68 35.051008 
L 312.709091 36.387405 
L 313.723636 36.000837 
L 314.738182 35.832751 
L 315.752727 36.217061 
L 316.767273 35.588775 
L 317.781818 34.56 
L 318.796364 34.6868 
L 319.810909 35.752894 
L 320.825455 35.785939 
L 321.84 34.764596 
L 322.854545 36.767882 
L 323.869091 38.006297 
L 324.883636 37.311708 
L 325.898182 37.31365 
L 326.912727 37.809437 
L 327.927273 38.03804 
L 328.941818 38.024578 
L 329.956364 38.697587 
L 331.985455 40.375885 
L 333 38.748715 
L 334.014545 37.657143 
L 335.029091 38.597306 
L 336.043636 39.98709 
L 337.058182 39.403344 
L 338.072727 39.157043 
L 339.087273 39.232061 
L 340.101818 39.142499 
L 341.116364 39.198174 
L 342.130909 38.951814 
L 343.145455 38.900179 
L 344.16 39.589918 
L 345.174545 39.848281 
L 346.189091 39.412432 
L 347.203636 40.492976 
L 348.218182 40.418164 
L 349.232727 39.931524 
L 350.247273 39.831923 
L 352.276364 40.497596 
L 353.290909 39.487725 
L 354.305455 39.830587 
L 355.32 41.707811 
L 356.334545 41.079716 
L 357.349091 39.637031 
L 358.363636 40.504872 
L 359.378182 43.259875 
L 360.392727 40.968064 
L 361.407273 40.150988 
L 362.421818 40.572633 
L 364.450909 41.89894 
L 365.465455 41.770665 
L 366.48 40.404533 
L 367.494545 42.473547 
L 368.509091 42.007174 
L 369.523636 42.943472 
L 370.538182 42.316315 
L 371.552727 41.522972 
L 372.567273 41.815691 
L 373.581818 42.435384 
L 374.596364 41.132959 
L 375.610909 43.429404 
L 376.625455 44.666896 
L 377.64 44.090541 
L 378.654545 43.805939 
L 379.669091 44.094061 
L 380.683636 44.004941 
L 381.698182 43.408434 
L 382.712727 41.412118 
L 383.727273 43.716093 
L 384.741818 44.228643 
L 385.756364 43.814586 
L 386.770909 43.993946 
L 387.785455 45.497516 
L 388.8 47.437986 
L 389.814545 44.855286 
L 389.814545 44.855286 
" style="fill:none;stroke:#2ca02c;stroke-linecap:square;stroke-width:1.5;"/>
   </g>
   <g id="line2d_19">
    <path clip-path="url(#pf2623964f0)" style="fill:none;stroke:#000000;stroke-dasharray:1.5,2.475;stroke-dashoffset:0;stroke-width:1.5;"/>
   </g>
   <g id="line2d_20">
    <path clip-path="url(#pf2623964f0)" style="fill:none;stroke:#0000ff;stroke-dasharray:1.5,2.475;stroke-dashoffset:0;stroke-width:1.5;"/>
   </g>
   <g id="line2d_21">
    <path clip-path="url(#pf2623964f0)" style="fill:none;stroke:#0000ff;stroke-dasharray:1.5,2.475;stroke-dashoffset:0;stroke-width:1.5;"/>
   </g>
   <g id="line2d_22">
    <path clip-path="url(#pf2623964f0)" style="fill:none;stroke:#ff0000;stroke-dasharray:1.5,2.475;stroke-dashoffset:0;stroke-width:1.5;"/>
   </g>
   <g id="line2d_23">
    <path clip-path="url(#pf2623964f0)" style="fill:none;stroke:#ff0000;stroke-dasharray:1.5,2.475;stroke-dashoffset:0;stroke-width:1.5;"/>
   </g>
   <g id="line2d_24">
    <path clip-path="url(#pf2623964f0)" style="fill:none;stroke:#008000;stroke-dasharray:1.5,2.475;stroke-dashoffset:0;stroke-width:1.5;"/>
   </g>
   <g id="line2d_25">
    <path clip-path="url(#pf2623964f0)" style="fill:none;stroke:#008000;stroke-dasharray:1.5,2.475;stroke-dashoffset:0;stroke-width:1.5;"/>
   </g>
   <g id="line2d_26">
    <defs>
     <path d="M 0 1.5 
C 0.397805 1.5 0.77937 1.341951 1.06066 1.06066 
C 1.341951 0.77937 1.5 0.397805 1.5 0 
C 1.5 -0.397805 1.341951 -0.77937 1.06066 -1.06066 
C 0.77937 -1.341951 0.397805 -1.5 0 -1.5 
C -0.397805 -1.5 -0.77937 -1.341951 -1.06066 -1.06066 
C -1.341951 -0.77937 -1.5 -0.397805 -1.5 0 
C -1.5 0.397805 -1.341951 0.77937 -1.06066 1.06066 
C -0.77937 1.341951 -0.397805 1.5 0 1.5 
z
" id="m760c7d23c5" style="stroke:#d62728;"/>
    </defs>
    <g clip-path="url(#pf2623964f0)"/>
   </g>
   <g id="line2d_27">
    <path clip-path="url(#pf2623964f0)" d="M 52.985455 252 
L 64.145455 252 
L 65.16 148.098939 
L 66.174545 148.424708 
L 67.189091 146.016461 
L 68.203636 145.567667 
L 69.218182 143.901884 
L 70.232727 143.304713 
L 71.247273 142.447665 
L 74.290909 137.36479 
L 75.305455 133.992229 
L 76.32 133.745929 
L 77.334545 130.424855 
L 78.349091 129.560875 
L 81.392727 124.216788 
L 82.407273 121.757874 
L 83.421818 121.474802 
L 84.436364 118.238556 
L 85.450909 116.600036 
L 86.465455 112.799152 
L 87.48 111.095658 
L 88.494545 110.563661 
L 89.509091 108.685474 
L 90.523636 105.79947 
L 91.538182 104.531292 
L 92.552727 105.12207 
L 93.567273 101.01136 
L 94.581818 101.025674 
L 95.596364 100.133828 
L 96.610909 97.606806 
L 97.625455 95.751314 
L 98.64 95.311423 
L 99.654545 93.543377 
L 100.669091 94.711037 
L 101.683636 93.479254 
L 103.712727 90.634722 
L 105.741818 90.662204 
L 106.756364 88.253602 
L 107.770909 86.490434 
L 108.785455 85.85627 
L 109.8 84.675583 
L 110.814545 82.475678 
L 111.829091 81.927696 
L 112.843636 81.213685 
L 113.858182 79.579702 
L 114.872727 79.274347 
L 115.887273 78.48883 
L 116.901818 77.180203 
L 117.916364 77.364234 
L 118.930909 76.810728 
L 119.945455 74.647279 
L 120.96 73.433117 
L 122.989091 75.496376 
L 124.003636 74.993156 
L 125.018182 75.067157 
L 126.032727 72.332863 
L 127.047273 70.679854 
L 128.061818 69.528847 
L 129.076364 69.190161 
L 130.090909 69.713449 
L 131.105455 69.848817 
L 132.12 70.818756 
L 133.134545 65.394306 
L 134.149091 66.015997 
L 135.163636 66.325033 
L 136.178182 65.873013 
L 138.207273 62.92375 
L 139.221818 63.703781 
L 140.236364 63.145149 
L 141.250909 65.146845 
L 142.265455 61.787049 
L 143.28 60.262626 
L 144.294545 60.621121 
L 145.309091 61.584089 
L 146.323636 61.757274 
L 147.338182 58.906025 
L 148.352727 57.704662 
L 149.367273 59.105341 
L 150.381818 57.932066 
L 151.396364 57.969543 
L 152.410909 58.996521 
L 153.425455 59.732552 
L 154.44 59.289773 
L 155.454545 56.400043 
L 156.469091 54.266826 
L 157.483636 56.643033 
L 158.498182 57.978981 
L 159.512727 57.503269 
L 160.527273 56.681043 
L 161.541818 57.226761 
L 162.556364 58.87512 
L 163.570909 57.740111 
L 164.585455 58.632019 
L 165.6 58.607844 
L 166.614545 59.038399 
L 167.629091 58.237701 
L 168.643636 58.065588 
L 169.658182 59.325603 
L 170.672727 58.734454 
L 171.687273 58.68429 
L 172.701818 58.203154 
L 173.716364 60.068902 
L 174.730909 60.343011 
L 175.745455 60.237607 
L 176.76 60.772381 
L 177.774545 62.140908 
L 178.789091 65.147811 
L 179.803636 65.978544 
L 180.818182 70.179059 
L 181.832727 71.197839 
L 182.847273 73.232283 
L 183.861818 76.635845 
L 184.876364 79.168912 
L 185.890909 79.752911 
L 187.92 83.543735 
L 188.934545 86.953527 
L 189.949091 89.829905 
L 191.978182 93.264791 
L 194.007273 98.70371 
L 195.021818 97.546167 
L 196.036364 98.964695 
L 197.050909 101.343674 
L 198.065455 102.468433 
L 199.08 102.705797 
L 200.094545 102.736389 
L 201.109091 102.999007 
L 202.123636 104.024277 
L 203.138182 104.188049 
L 204.152727 102.60303 
L 205.167273 103.185254 
L 206.181818 102.164122 
L 207.196364 102.18187 
L 208.210909 103.583071 
L 209.225455 102.649648 
L 210.24 103.623675 
L 211.254545 104.266294 
L 212.269091 101.715339 
L 213.283636 100.51537 
L 214.298182 99.091488 
L 215.312727 98.592883 
L 216.327273 99.392179 
L 217.341818 96.971752 
L 218.356364 94.83928 
L 220.385455 91.517337 
L 221.4 89.131691 
L 223.429091 83.365921 
L 224.443636 81.021591 
L 225.458182 77.667681 
L 226.472727 75.614511 
L 227.487273 72.313603 
L 229.516364 67.066736 
L 231.545455 62.581932 
L 232.56 59.274794 
L 233.574545 60.741877 
L 234.589091 56.492184 
L 236.618182 53.58679 
L 237.632727 52.042184 
L 238.647273 51.575262 
L 239.661818 52.028649 
L 240.676364 51.575556 
L 242.705455 47.107307 
L 243.72 46.172418 
L 244.734545 46.443256 
L 245.749091 46.482083 
L 246.763636 45.853769 
L 247.778182 45.947062 
L 248.792727 43.937077 
L 249.807273 43.298008 
L 250.821818 40.868295 
L 251.836364 39.815741 
L 253.865455 40.1256 
L 254.88 40.055305 
L 255.894545 40.830205 
L 256.909091 38.654715 
L 257.923636 39.697704 
L 258.938182 38.780141 
L 259.952727 37.325794 
L 260.967273 36.855244 
L 261.981818 37.51768 
L 262.996364 38.454834 
L 264.010909 37.8314 
L 265.025455 38.117665 
L 266.04 37.567484 
L 267.054545 37.924511 
L 268.069091 38.825386 
L 269.083636 39.236488 
L 270.098182 39.011176 
L 271.112727 39.415343 
L 272.127273 38.839011 
L 273.141818 36.921494 
L 274.156364 36.274198 
L 275.170909 37.412922 
L 276.185455 39.109318 
L 277.2 39.650004 
L 278.214545 38.566201 
L 279.229091 38.808236 
L 280.243636 40.647591 
L 281.258182 40.58849 
L 282.272727 39.827727 
L 284.301818 36.72826 
L 285.316364 38.099197 
L 286.330909 38.631953 
L 287.345455 37.965026 
L 288.36 38.605145 
L 289.374545 40.013851 
L 290.389091 39.986686 
L 291.403636 38.868251 
L 292.418182 39.326762 
L 293.432727 42.124037 
L 295.461818 40.1554 
L 296.476364 38.574527 
L 297.490909 38.311603 
L 298.505455 39.531324 
L 299.52 40.158076 
L 300.534545 38.092651 
L 301.549091 38.544663 
L 302.563636 38.523321 
L 303.578182 39.77222 
L 305.607273 38.650953 
L 306.621818 38.679254 
L 307.636364 37.057101 
L 308.650909 38.191316 
L 310.68 35.051008 
L 312.709091 36.387405 
L 313.723636 36.000837 
L 314.738182 35.832751 
L 315.752727 36.217061 
L 316.767273 35.588775 
L 317.781818 34.56 
L 318.796364 34.6868 
L 319.810909 35.752894 
L 320.825455 35.785939 
L 321.84 34.764596 
L 322.854545 36.767882 
L 323.869091 38.006297 
L 324.883636 37.311708 
L 325.898182 37.31365 
L 326.912727 37.809437 
L 327.927273 38.03804 
L 328.941818 38.024578 
L 329.956364 38.697587 
L 331.985455 40.375885 
L 333 38.748715 
L 334.014545 37.657143 
L 335.029091 38.597306 
L 336.043636 39.98709 
L 337.058182 39.403344 
L 338.072727 39.157043 
L 339.087273 39.232061 
L 340.101818 39.142499 
L 341.116364 39.198174 
L 342.130909 38.951814 
L 343.145455 38.900179 
L 344.16 39.589918 
L 345.174545 39.848281 
L 346.189091 39.412432 
L 347.203636 40.492976 
L 348.218182 40.418164 
L 349.232727 39.931524 
L 350.247273 39.831923 
L 352.276364 40.497596 
L 353.290909 39.487725 
L 354.305455 39.830587 
L 355.32 41.707811 
L 356.334545 41.079716 
L 357.349091 39.637031 
L 358.363636 40.504872 
L 359.378182 43.259875 
L 360.392727 40.968064 
L 361.407273 40.150988 
L 362.421818 40.572633 
L 364.450909 41.89894 
L 365.465455 41.770665 
L 366.48 40.404533 
L 367.494545 42.473547 
L 368.509091 42.007174 
L 369.523636 42.943472 
L 370.538182 42.316315 
L 371.552727 41.522972 
L 372.567273 41.815691 
L 373.581818 42.435384 
L 374.596364 41.132959 
L 375.610909 43.429404 
L 376.625455 44.666896 
L 377.64 44.090541 
L 378.654545 43.805939 
L 379.669091 44.094061 
L 380.683636 44.004941 
L 381.698182 43.408434 
L 382.712727 41.412118 
L 383.727273 43.716093 
L 384.741818 44.228643 
L 385.756364 43.814586 
L 386.770909 43.993946 
L 387.785455 45.497516 
L 388.8 47.437986 
L 389.814545 44.855286 
L 389.814545 44.855286 
" style="fill:none;stroke:#8c564b;stroke-linecap:square;stroke-width:1.5;"/>
   </g>
   <g id="line2d_28">
    <path clip-path="url(#pf2623964f0)" style="fill:none;stroke:#000000;stroke-dasharray:1.5,2.475;stroke-dashoffset:0;stroke-width:1.5;"/>
   </g>
   <g id="line2d_29">
    <path clip-path="url(#pf2623964f0)" style="fill:none;stroke:#0000ff;stroke-dasharray:1.5,2.475;stroke-dashoffset:0;stroke-width:1.5;"/>
   </g>
   <g id="line2d_30">
    <path clip-path="url(#pf2623964f0)" style="fill:none;stroke:#0000ff;stroke-dasharray:1.5,2.475;stroke-dashoffset:0;stroke-width:1.5;"/>
   </g>
   <g id="line2d_31">
    <path clip-path="url(#pf2623964f0)" style="fill:none;stroke:#ff0000;stroke-dasharray:1.5,2.475;stroke-dashoffset:0;stroke-width:1.5;"/>
   </g>
   <g id="line2d_32">
    <path clip-path="url(#pf2623964f0)" style="fill:none;stroke:#ff0000;stroke-dasharray:1.5,2.475;stroke-dashoffset:0;stroke-width:1.5;"/>
   </g>
   <g id="line2d_33">
    <path clip-path="url(#pf2623964f0)" style="fill:none;stroke:#008000;stroke-dasharray:1.5,2.475;stroke-dashoffset:0;stroke-width:1.5;"/>
   </g>
   <g id="line2d_34">
    <path clip-path="url(#pf2623964f0)" style="fill:none;stroke:#008000;stroke-dasharray:1.5,2.475;stroke-dashoffset:0;stroke-width:1.5;"/>
   </g>
   <g id="line2d_35">
    <defs>
     <path d="M 0 1.5 
C 0.397805 1.5 0.77937 1.341951 1.06066 1.06066 
C 1.341951 0.77937 1.5 0.397805 1.5 0 
C 1.5 -0.397805 1.341951 -0.77937 1.06066 -1.06066 
C 0.77937 -1.341951 0.397805 -1.5 0 -1.5 
C -0.397805 -1.5 -0.77937 -1.341951 -1.06066 -1.06066 
C -1.341951 -0.77937 -1.5 -0.397805 -1.5 0 
C -1.5 0.397805 -1.341951 0.77937 -1.06066 1.06066 
C -0.77937 1.341951 -0.397805 1.5 0 1.5 
z
" id="mb1062c0c88" style="stroke:#e377c2;"/>
    </defs>
    <g clip-path="url(#pf2623964f0)"/>
   </g>
   <g id="line2d_36">
    <path clip-path="url(#pf2623964f0)" d="M 52.985455 252 
L 64.145455 252 
L 65.16 148.098939 
L 66.174545 148.424708 
L 67.189091 146.016461 
L 68.203636 145.567667 
L 69.218182 143.901884 
L 70.232727 143.304713 
L 71.247273 142.447665 
L 74.290909 137.36479 
L 75.305455 133.992229 
L 76.32 133.745929 
L 77.334545 130.424855 
L 78.349091 129.560875 
L 81.392727 124.216788 
L 82.407273 121.757874 
L 83.421818 121.474802 
L 84.436364 118.238556 
L 85.450909 116.600036 
L 86.465455 112.799152 
L 87.48 111.095658 
L 88.494545 110.563661 
L 89.509091 108.685474 
L 90.523636 105.79947 
L 91.538182 104.531292 
L 92.552727 105.12207 
L 93.567273 101.01136 
L 94.581818 101.025674 
L 95.596364 100.133828 
L 96.610909 97.606806 
L 97.625455 95.751314 
L 98.64 95.311423 
L 99.654545 93.543377 
L 100.669091 94.711037 
L 101.683636 93.479254 
L 103.712727 90.634722 
L 105.741818 90.662204 
L 106.756364 88.253602 
L 107.770909 86.490434 
L 108.785455 85.85627 
L 109.8 84.675583 
L 110.814545 82.475678 
L 111.829091 81.927696 
L 112.843636 81.213685 
L 113.858182 79.579702 
L 114.872727 79.274347 
L 115.887273 78.48883 
L 116.901818 77.180203 
L 117.916364 77.364234 
L 118.930909 76.810728 
L 119.945455 74.647279 
L 120.96 73.433117 
L 122.989091 75.496376 
L 124.003636 74.993156 
L 125.018182 75.067157 
L 126.032727 72.332863 
L 127.047273 70.679854 
L 128.061818 69.528847 
L 129.076364 69.190161 
L 130.090909 69.713449 
L 131.105455 69.848817 
L 132.12 70.818756 
L 133.134545 65.394306 
L 134.149091 66.015997 
L 135.163636 66.325033 
L 136.178182 65.873013 
L 138.207273 62.92375 
L 139.221818 63.703781 
L 140.236364 63.145149 
L 141.250909 65.146845 
L 142.265455 61.787049 
L 143.28 60.262626 
L 144.294545 60.621121 
L 145.309091 61.584089 
L 146.323636 61.757274 
L 147.338182 58.906025 
L 148.352727 57.704662 
L 149.367273 59.105341 
L 150.381818 57.932066 
L 151.396364 57.969543 
L 152.410909 58.996521 
L 153.425455 59.732552 
L 154.44 59.289773 
L 155.454545 56.400043 
L 156.469091 54.266826 
L 157.483636 56.643033 
L 158.498182 57.978981 
L 159.512727 57.503269 
L 160.527273 56.681043 
L 161.541818 57.226761 
L 162.556364 58.87512 
L 163.570909 57.740111 
L 164.585455 58.632019 
L 165.6 58.607844 
L 166.614545 59.038399 
L 167.629091 58.237701 
L 168.643636 58.065588 
L 169.658182 59.325603 
L 170.672727 58.734454 
L 171.687273 58.68429 
L 172.701818 58.203154 
L 173.716364 60.068902 
L 174.730909 60.343011 
L 175.745455 60.237607 
L 176.76 60.772381 
L 177.774545 62.140908 
L 178.789091 65.147811 
L 179.803636 65.978544 
L 180.818182 70.179059 
L 181.832727 71.197839 
L 182.847273 73.232283 
L 183.861818 76.635845 
L 184.876364 79.168912 
L 185.890909 79.752911 
L 187.92 83.543735 
L 188.934545 86.953527 
L 189.949091 89.829905 
L 191.978182 93.264791 
L 194.007273 98.70371 
L 195.021818 97.546167 
L 196.036364 98.964695 
L 197.050909 101.343674 
L 198.065455 102.468433 
L 199.08 102.705797 
L 200.094545 102.736389 
L 201.109091 102.999007 
L 202.123636 104.024277 
L 203.138182 104.188049 
L 204.152727 102.60303 
L 205.167273 103.185254 
L 206.181818 102.164122 
L 207.196364 102.18187 
L 208.210909 103.583071 
L 209.225455 102.649648 
L 210.24 103.623675 
L 211.254545 104.266294 
L 212.269091 101.715339 
L 213.283636 100.51537 
L 214.298182 99.091488 
L 215.312727 98.592883 
L 216.327273 99.392179 
L 217.341818 96.971752 
L 218.356364 94.83928 
L 220.385455 91.517337 
L 221.4 89.131691 
L 223.429091 83.365921 
L 224.443636 81.021591 
L 225.458182 77.667681 
L 226.472727 75.614511 
L 227.487273 72.313603 
L 229.516364 67.066736 
L 231.545455 62.581932 
L 232.56 59.274794 
L 233.574545 60.741877 
L 234.589091 56.492184 
L 236.618182 53.58679 
L 237.632727 52.042184 
L 238.647273 51.575262 
L 239.661818 52.028649 
L 240.676364 51.575556 
L 242.705455 47.107307 
L 243.72 46.172418 
L 244.734545 46.443256 
L 245.749091 46.482083 
L 246.763636 45.853769 
L 247.778182 45.947062 
L 248.792727 43.937077 
L 249.807273 43.298008 
L 250.821818 40.868295 
L 251.836364 39.815741 
L 253.865455 40.1256 
L 254.88 40.055305 
L 255.894545 40.830205 
L 256.909091 38.654715 
L 257.923636 39.697704 
L 258.938182 38.780141 
L 259.952727 37.325794 
L 260.967273 36.855244 
L 261.981818 37.51768 
L 262.996364 38.454834 
L 264.010909 37.8314 
L 265.025455 38.117665 
L 266.04 37.567484 
L 267.054545 37.924511 
L 268.069091 38.825386 
L 269.083636 39.236488 
L 270.098182 39.011176 
L 271.112727 39.415343 
L 272.127273 38.839011 
L 273.141818 36.921494 
L 274.156364 36.274198 
L 275.170909 37.412922 
L 276.185455 39.109318 
L 277.2 39.650004 
L 278.214545 38.566201 
L 279.229091 38.808236 
L 280.243636 40.647591 
L 281.258182 40.58849 
L 282.272727 39.827727 
L 284.301818 36.72826 
L 285.316364 38.099197 
L 286.330909 38.631953 
L 287.345455 37.965026 
L 288.36 38.605145 
L 289.374545 40.013851 
L 290.389091 39.986686 
L 291.403636 38.868251 
L 292.418182 39.326762 
L 293.432727 42.124037 
L 295.461818 40.1554 
L 296.476364 38.574527 
L 297.490909 38.311603 
L 298.505455 39.531324 
L 299.52 40.158076 
L 300.534545 38.092651 
L 301.549091 38.544663 
L 302.563636 38.523321 
L 303.578182 39.77222 
L 305.607273 38.650953 
L 306.621818 38.679254 
L 307.636364 37.057101 
L 308.650909 38.191316 
L 310.68 35.051008 
L 312.709091 36.387405 
L 313.723636 36.000837 
L 314.738182 35.832751 
L 315.752727 36.217061 
L 316.767273 35.588775 
L 317.781818 34.56 
L 318.796364 34.6868 
L 319.810909 35.752894 
L 320.825455 35.785939 
L 321.84 34.764596 
L 322.854545 36.767882 
L 323.869091 38.006297 
L 324.883636 37.311708 
L 325.898182 37.31365 
L 326.912727 37.809437 
L 327.927273 38.03804 
L 328.941818 38.024578 
L 329.956364 38.697587 
L 331.985455 40.375885 
L 333 38.748715 
L 334.014545 37.657143 
L 335.029091 38.597306 
L 336.043636 39.98709 
L 337.058182 39.403344 
L 338.072727 39.157043 
L 339.087273 39.232061 
L 340.101818 39.142499 
L 341.116364 39.198174 
L 342.130909 38.951814 
L 343.145455 38.900179 
L 344.16 39.589918 
L 345.174545 39.848281 
L 346.189091 39.412432 
L 347.203636 40.492976 
L 348.218182 40.418164 
L 349.232727 39.931524 
L 350.247273 39.831923 
L 352.276364 40.497596 
L 353.290909 39.487725 
L 354.305455 39.830587 
L 355.32 41.707811 
L 356.334545 41.079716 
L 357.349091 39.637031 
L 358.363636 40.504872 
L 359.378182 43.259875 
L 360.392727 40.968064 
L 361.407273 40.150988 
L 362.421818 40.572633 
L 364.450909 41.89894 
L 365.465455 41.770665 
L 366.48 40.404533 
L 367.494545 42.473547 
L 368.509091 42.007174 
L 369.523636 42.943472 
L 370.538182 42.316315 
L 371.552727 41.522972 
L 372.567273 41.815691 
L 373.581818 42.435384 
L 374.596364 41.132959 
L 375.610909 43.429404 
L 376.625455 44.666896 
L 377.64 44.090541 
L 378.654545 43.805939 
L 379.669091 44.094061 
L 380.683636 44.004941 
L 381.698182 43.408434 
L 382.712727 41.412118 
L 383.727273 43.716093 
L 384.741818 44.228643 
L 385.756364 43.814586 
L 386.770909 43.993946 
L 387.785455 45.497516 
L 388.8 47.437986 
L 389.814545 44.855286 
L 389.814545 44.855286 
" style="fill:none;stroke:#bcbd22;stroke-linecap:square;stroke-width:1.5;"/>
   </g>
   <g id="line2d_37">
    <path clip-path="url(#pf2623964f0)" style="fill:none;stroke:#000000;stroke-dasharray:1.5,2.475;stroke-dashoffset:0;stroke-width:1.5;"/>
   </g>
   <g id="line2d_38">
    <path clip-path="url(#pf2623964f0)" d="M 398.945455 112.495944 
L 398.945455 38.900179 
" style="fill:none;stroke:#0000ff;stroke-dasharray:1.5,2.475;stroke-dashoffset:0;stroke-width:1.5;"/>
   </g>
   <g id="line2d_39">
    <path clip-path="url(#pf2623964f0)" d="M 338.072727 112.495944 
L 338.072727 38.900179 
" style="fill:none;stroke:#0000ff;stroke-dasharray:1.5,2.475;stroke-dashoffset:0;stroke-width:1.5;"/>
   </g>
   <g id="line2d_40">
    <path clip-path="url(#pf2623964f0)" style="fill:none;stroke:#ff0000;stroke-dasharray:1.5,2.475;stroke-dashoffset:0;stroke-width:1.5;"/>
   </g>
   <g id="line2d_41">
    <path clip-path="url(#pf2623964f0)" style="fill:none;stroke:#ff0000;stroke-dasharray:1.5,2.475;stroke-dashoffset:0;stroke-width:1.5;"/>
   </g>
   <g id="line2d_42">
    <path clip-path="url(#pf2623964f0)" style="fill:none;stroke:#008000;stroke-dasharray:1.5,2.475;stroke-dashoffset:0;stroke-width:1.5;"/>
   </g>
   <g id="line2d_43">
    <path clip-path="url(#pf2623964f0)" style="fill:none;stroke:#008000;stroke-dasharray:1.5,2.475;stroke-dashoffset:0;stroke-width:1.5;"/>
   </g>
   <g id="line2d_44">
    <defs>
     <path d="M 0 1.5 
C 0.397805 1.5 0.77937 1.341951 1.06066 1.06066 
C 1.341951 0.77937 1.5 0.397805 1.5 0 
C 1.5 -0.397805 1.341951 -0.77937 1.06066 -1.06066 
C 0.77937 -1.341951 0.397805 -1.5 0 -1.5 
C -0.397805 -1.5 -0.77937 -1.341951 -1.06066 -1.06066 
C -1.341951 -0.77937 -1.5 -0.397805 -1.5 0 
C -1.5 0.397805 -1.341951 0.77937 -1.06066 1.06066 
C -0.77937 1.341951 -0.397805 1.5 0 1.5 
z
" id="m9c5cecee74" style="stroke:#17becf;"/>
    </defs>
    <g clip-path="url(#pf2623964f0)"/>
   </g>
   <g id="line2d_45">
    <path clip-path="url(#pf2623964f0)" d="M 52.985455 252 
L 64.145455 252 
L 65.16 148.098939 
L 66.174545 148.424708 
L 67.189091 146.016461 
L 68.203636 145.567667 
L 69.218182 143.901884 
L 70.232727 143.304713 
L 71.247273 142.447665 
L 74.290909 137.36479 
L 75.305455 133.992229 
L 76.32 133.745929 
L 77.334545 130.424855 
L 78.349091 129.560875 
L 81.392727 124.216788 
L 82.407273 121.757874 
L 83.421818 121.474802 
L 84.436364 118.238556 
L 85.450909 116.600036 
L 86.465455 112.799152 
L 87.48 111.095658 
L 88.494545 110.563661 
L 89.509091 108.685474 
L 90.523636 105.79947 
L 91.538182 104.531292 
L 92.552727 105.12207 
L 93.567273 101.01136 
L 94.581818 101.025674 
L 95.596364 100.133828 
L 96.610909 97.606806 
L 97.625455 95.751314 
L 98.64 95.311423 
L 99.654545 93.543377 
L 100.669091 94.711037 
L 101.683636 93.479254 
L 103.712727 90.634722 
L 105.741818 90.662204 
L 106.756364 88.253602 
L 107.770909 86.490434 
L 108.785455 85.85627 
L 109.8 84.675583 
L 110.814545 82.475678 
L 111.829091 81.927696 
L 112.843636 81.213685 
L 113.858182 79.579702 
L 114.872727 79.274347 
L 115.887273 78.48883 
L 116.901818 77.180203 
L 117.916364 77.364234 
L 118.930909 76.810728 
L 119.945455 74.647279 
L 120.96 73.433117 
L 122.989091 75.496376 
L 124.003636 74.993156 
L 125.018182 75.067157 
L 126.032727 72.332863 
L 127.047273 70.679854 
L 128.061818 69.528847 
L 129.076364 69.190161 
L 130.090909 69.713449 
L 131.105455 69.848817 
L 132.12 70.818756 
L 133.134545 65.394306 
L 134.149091 66.015997 
L 135.163636 66.325033 
L 136.178182 65.873013 
L 138.207273 62.92375 
L 139.221818 63.703781 
L 140.236364 63.145149 
L 141.250909 65.146845 
L 142.265455 61.787049 
L 143.28 60.262626 
L 144.294545 60.621121 
L 145.309091 61.584089 
L 146.323636 61.757274 
L 147.338182 58.906025 
L 148.352727 57.704662 
L 149.367273 59.105341 
L 150.381818 57.932066 
L 151.396364 57.969543 
L 152.410909 58.996521 
L 153.425455 59.732552 
L 154.44 59.289773 
L 155.454545 56.400043 
L 156.469091 54.266826 
L 157.483636 56.643033 
L 158.498182 57.978981 
L 159.512727 57.503269 
L 160.527273 56.681043 
L 161.541818 57.226761 
L 162.556364 58.87512 
L 163.570909 57.740111 
L 164.585455 58.632019 
L 165.6 58.607844 
L 166.614545 59.038399 
L 167.629091 58.237701 
L 168.643636 58.065588 
L 169.658182 59.325603 
L 170.672727 58.734454 
L 171.687273 58.68429 
L 172.701818 58.203154 
L 173.716364 60.068902 
L 174.730909 60.343011 
L 175.745455 60.237607 
L 176.76 60.772381 
L 177.774545 62.140908 
L 178.789091 65.147811 
L 179.803636 65.978544 
L 180.818182 70.179059 
L 181.832727 71.197839 
L 182.847273 73.232283 
L 183.861818 76.635845 
L 184.876364 79.168912 
L 185.890909 79.752911 
L 187.92 83.543735 
L 188.934545 86.953527 
L 189.949091 89.829905 
L 191.978182 93.264791 
L 194.007273 98.70371 
L 195.021818 97.546167 
L 196.036364 98.964695 
L 197.050909 101.343674 
L 198.065455 102.468433 
L 199.08 102.705797 
L 200.094545 102.736389 
L 201.109091 102.999007 
L 202.123636 104.024277 
L 203.138182 104.188049 
L 204.152727 102.60303 
L 205.167273 103.185254 
L 206.181818 102.164122 
L 207.196364 102.18187 
L 208.210909 103.583071 
L 209.225455 102.649648 
L 210.24 103.623675 
L 211.254545 104.266294 
L 212.269091 101.715339 
L 213.283636 100.51537 
L 214.298182 99.091488 
L 215.312727 98.592883 
L 216.327273 99.392179 
L 217.341818 96.971752 
L 218.356364 94.83928 
L 220.385455 91.517337 
L 221.4 89.131691 
L 223.429091 83.365921 
L 224.443636 81.021591 
L 225.458182 77.667681 
L 226.472727 75.614511 
L 227.487273 72.313603 
L 229.516364 67.066736 
L 231.545455 62.581932 
L 232.56 59.274794 
L 233.574545 60.741877 
L 234.589091 56.492184 
L 236.618182 53.58679 
L 237.632727 52.042184 
L 238.647273 51.575262 
L 239.661818 52.028649 
L 240.676364 51.575556 
L 242.705455 47.107307 
L 243.72 46.172418 
L 244.734545 46.443256 
L 245.749091 46.482083 
L 246.763636 45.853769 
L 247.778182 45.947062 
L 248.792727 43.937077 
L 249.807273 43.298008 
L 250.821818 40.868295 
L 251.836364 39.815741 
L 253.865455 40.1256 
L 254.88 40.055305 
L 255.894545 40.830205 
L 256.909091 38.654715 
L 257.923636 39.697704 
L 258.938182 38.780141 
L 259.952727 37.325794 
L 260.967273 36.855244 
L 261.981818 37.51768 
L 262.996364 38.454834 
L 264.010909 37.8314 
L 265.025455 38.117665 
L 266.04 37.567484 
L 267.054545 37.924511 
L 268.069091 38.825386 
L 269.083636 39.236488 
L 270.098182 39.011176 
L 271.112727 39.415343 
L 272.127273 38.839011 
L 273.141818 36.921494 
L 274.156364 36.274198 
L 275.170909 37.412922 
L 276.185455 39.109318 
L 277.2 39.650004 
L 278.214545 38.566201 
L 279.229091 38.808236 
L 280.243636 40.647591 
L 281.258182 40.58849 
L 282.272727 39.827727 
L 284.301818 36.72826 
L 285.316364 38.099197 
L 286.330909 38.631953 
L 287.345455 37.965026 
L 288.36 38.605145 
L 289.374545 40.013851 
L 290.389091 39.986686 
L 291.403636 38.868251 
L 292.418182 39.326762 
L 293.432727 42.124037 
L 295.461818 40.1554 
L 296.476364 38.574527 
L 297.490909 38.311603 
L 298.505455 39.531324 
L 299.52 40.158076 
L 300.534545 38.092651 
L 301.549091 38.544663 
L 302.563636 38.523321 
L 303.578182 39.77222 
L 305.607273 38.650953 
L 306.621818 38.679254 
L 307.636364 37.057101 
L 308.650909 38.191316 
L 310.68 35.051008 
L 312.709091 36.387405 
L 313.723636 36.000837 
L 314.738182 35.832751 
L 315.752727 36.217061 
L 316.767273 35.588775 
L 317.781818 34.56 
L 318.796364 34.6868 
L 319.810909 35.752894 
L 320.825455 35.785939 
L 321.84 34.764596 
L 322.854545 36.767882 
L 323.869091 38.006297 
L 324.883636 37.311708 
L 325.898182 37.31365 
L 326.912727 37.809437 
L 327.927273 38.03804 
L 328.941818 38.024578 
L 329.956364 38.697587 
L 331.985455 40.375885 
L 333 38.748715 
L 334.014545 37.657143 
L 335.029091 38.597306 
L 336.043636 39.98709 
L 337.058182 39.403344 
L 338.072727 39.157043 
L 339.087273 39.232061 
L 340.101818 39.142499 
L 341.116364 39.198174 
L 342.130909 38.951814 
L 343.145455 38.900179 
L 344.16 39.589918 
L 345.174545 39.848281 
L 346.189091 39.412432 
L 347.203636 40.492976 
L 348.218182 40.418164 
L 349.232727 39.931524 
L 350.247273 39.831923 
L 352.276364 40.497596 
L 353.290909 39.487725 
L 354.305455 39.830587 
L 355.32 41.707811 
L 356.334545 41.079716 
L 357.349091 39.637031 
L 358.363636 40.504872 
L 359.378182 43.259875 
L 360.392727 40.968064 
L 361.407273 40.150988 
L 362.421818 40.572633 
L 364.450909 41.89894 
L 365.465455 41.770665 
L 366.48 40.404533 
L 367.494545 42.473547 
L 368.509091 42.007174 
L 369.523636 42.943472 
L 370.538182 42.316315 
L 371.552727 41.522972 
L 372.567273 41.815691 
L 373.581818 42.435384 
L 374.596364 41.132959 
L 375.610909 43.429404 
L 376.625455 44.666896 
L 377.64 44.090541 
L 378.654545 43.805939 
L 379.669091 44.094061 
L 380.683636 44.004941 
L 381.698182 43.408434 
L 382.712727 41.412118 
L 383.727273 43.716093 
L 384.741818 44.228643 
L 385.756364 43.814586 
L 386.770909 43.993946 
L 387.785455 45.497516 
L 388.8 47.437986 
L 389.814545 44.855286 
L 389.814545 44.855286 
" style="fill:none;stroke:#1f77b4;stroke-linecap:square;stroke-width:1.5;"/>
   </g>
   <g id="line2d_46">
    <path clip-path="url(#pf2623964f0)" d="M 206.181818 252 
L 206.181818 34.56 
" style="fill:none;stroke:#000000;stroke-dasharray:1.5,2.475;stroke-dashoffset:0;stroke-width:1.5;"/>
   </g>
   <g id="line2d_47">
    <path clip-path="url(#pf2623964f0)" d="M 145.309091 252 
L 145.309091 34.56 
" style="fill:none;stroke:#0000ff;stroke-dasharray:1.5,2.475;stroke-dashoffset:0;stroke-width:1.5;"/>
   </g>
   <g id="line2d_48">
    <path clip-path="url(#pf2623964f0)" d="M 84.436364 252 
L 84.436364 34.56 
" style="fill:none;stroke:#0000ff;stroke-dasharray:1.5,2.475;stroke-dashoffset:0;stroke-width:1.5;"/>
   </g>
   <g id="line2d_49">
    <path clip-path="url(#pf2623964f0)" d="M 358.363636 252 
L 358.363636 34.56 
" style="fill:none;stroke:#ff0000;stroke-dasharray:1.5,2.475;stroke-dashoffset:0;stroke-width:1.5;"/>
   </g>
   <g id="line2d_50">
    <path clip-path="url(#pf2623964f0)" d="M 297.490909 252 
L 297.490909 34.56 
" style="fill:none;stroke:#ff0000;stroke-dasharray:1.5,2.475;stroke-dashoffset:0;stroke-width:1.5;"/>
   </g>
   <g id="line2d_51">
    <path clip-path="url(#pf2623964f0)" d="M 236.618182 252 
L 236.618182 34.56 
" style="fill:none;stroke:#008000;stroke-dasharray:1.5,2.475;stroke-dashoffset:0;stroke-width:1.5;"/>
   </g>
   <g id="line2d_52">
    <path clip-path="url(#pf2623964f0)" d="M 175.745455 252 
L 175.745455 34.56 
" style="fill:none;stroke:#008000;stroke-dasharray:1.5,2.475;stroke-dashoffset:0;stroke-width:1.5;"/>
   </g>
   <g id="patch_23">
    <path d="M 54 252 
L 54 34.56 
" style="fill:none;stroke:#000000;stroke-linecap:square;stroke-linejoin:miter;stroke-width:0.8;"/>
   </g>
   <g id="patch_24">
    <path d="M 388.8 252 
L 388.8 34.56 
" style="fill:none;stroke:#000000;stroke-linecap:square;stroke-linejoin:miter;stroke-width:0.8;"/>
   </g>
   <g id="patch_25">
    <path d="M 54 252 
L 388.8 252 
" style="fill:none;stroke:#000000;stroke-linecap:square;stroke-linejoin:miter;stroke-width:0.8;"/>
   </g>
   <g id="patch_26">
    <path d="M 54 34.56 
L 388.8 34.56 
" style="fill:none;stroke:#000000;stroke-linecap:square;stroke-linejoin:miter;stroke-width:0.8;"/>
   </g>
   <g id="text_15">
    <!-- $H_\alpha$ -->
    <defs>
     <path d="M 16.890625 72.90625 
L 26.8125 72.90625 
L 21 43.015625 
L 56.78125 43.015625 
L 62.59375 72.90625 
L 72.515625 72.90625 
L 58.296875 0 
L 48.390625 0 
L 55.171875 34.71875 
L 19.390625 34.71875 
L 12.59375 0 
L 2.6875 0 
z
" id="DejaVuSans-Oblique-72"/>
     <path d="M 40.921875 25.4375 
L 40.96875 36.71875 
Q 41.015625 48.25 32.328125 48.296875 
Q 25.828125 48.34375 21.78125 42.921875 
Q 16.703125 36.234375 14.984375 27.296875 
Q 12.890625 16.546875 15.53125 11.421875 
Q 18.265625 6.203125 24.171875 6.203125 
Q 30.71875 6.203125 36.234375 16.609375 
z
M 33.84375 55.90625 
Q 49.078125 56.15625 48.875 40.375 
Q 48.875 40.375 56.5 54.6875 
L 64.5 54.6875 
L 48.734375 25.046875 
L 48.578125 14.359375 
Q 48.578125 11.96875 49.90625 9.96875 
Q 51.421875 7.625 52.984375 7.625 
L 57.328125 7.625 
L 55.859375 0 
L 50.4375 0 
Q 45.84375 0 42.53125 4.109375 
Q 40.96875 6.15625 40.921875 10.453125 
Q 37.75 5.21875 32.28125 0.78125 
Q 29.6875 -1.265625 22.703125 -1.21875 
Q 11.28125 -1.125 7.125 6.203125 
Q 2.875 13.8125 5.515625 27.296875 
Q 8.34375 41.796875 15.765625 48.390625 
Q 24.125 55.765625 33.84375 55.90625 
z
" id="DejaVuSans-Oblique-945"/>
    </defs>
    <g style="fill:#ff0000;" transform="translate(2974.037273 252)scale(0.1 -0.1)">
     <use transform="translate(0 0.09375)" xlink:href="#DejaVuSans-Oblique-72"/>
     <use transform="translate(75.195312 -16.3125)scale(0.7)" xlink:href="#DejaVuSans-Oblique-945"/>
    </g>
   </g>
   <g id="text_16">
    <!-- Spectrum of HD 112028 near $H_\delta$ -->
    <defs>
     <path d="M 53.515625 70.515625 
L 53.515625 60.890625 
Q 47.90625 63.578125 42.921875 64.890625 
Q 37.9375 66.21875 33.296875 66.21875 
Q 25.25 66.21875 20.875 63.09375 
Q 16.5 59.96875 16.5 54.203125 
Q 16.5 49.359375 19.40625 46.890625 
Q 22.3125 44.4375 30.421875 42.921875 
L 36.375 41.703125 
Q 47.40625 39.59375 52.65625 34.296875 
Q 57.90625 29 57.90625 20.125 
Q 57.90625 9.515625 50.796875 4.046875 
Q 43.703125 -1.421875 29.984375 -1.421875 
Q 24.8125 -1.421875 18.96875 -0.25 
Q 13.140625 0.921875 6.890625 3.21875 
L 6.890625 13.375 
Q 12.890625 10.015625 18.65625 8.296875 
Q 24.421875 6.59375 29.984375 6.59375 
Q 38.421875 6.59375 43.015625 9.90625 
Q 47.609375 13.234375 47.609375 19.390625 
Q 47.609375 24.75 44.3125 27.78125 
Q 41.015625 30.8125 33.5 32.328125 
L 27.484375 33.5 
Q 16.453125 35.6875 11.515625 40.375 
Q 6.59375 45.0625 6.59375 53.421875 
Q 6.59375 63.09375 13.40625 68.65625 
Q 20.21875 74.21875 32.171875 74.21875 
Q 37.3125 74.21875 42.625 73.28125 
Q 47.953125 72.359375 53.515625 70.515625 
z
" id="DejaVuSans-83"/>
     <path d="M 18.109375 8.203125 
L 18.109375 -20.796875 
L 9.078125 -20.796875 
L 9.078125 54.6875 
L 18.109375 54.6875 
L 18.109375 46.390625 
Q 20.953125 51.265625 25.265625 53.625 
Q 29.59375 56 35.59375 56 
Q 45.5625 56 51.78125 48.09375 
Q 58.015625 40.1875 58.015625 27.296875 
Q 58.015625 14.40625 51.78125 6.484375 
Q 45.5625 -1.421875 35.59375 -1.421875 
Q 29.59375 -1.421875 25.265625 0.953125 
Q 20.953125 3.328125 18.109375 8.203125 
z
M 48.6875 27.296875 
Q 48.6875 37.203125 44.609375 42.84375 
Q 40.53125 48.484375 33.40625 48.484375 
Q 26.265625 48.484375 22.1875 42.84375 
Q 18.109375 37.203125 18.109375 27.296875 
Q 18.109375 17.390625 22.1875 11.75 
Q 26.265625 6.109375 33.40625 6.109375 
Q 40.53125 6.109375 44.609375 11.75 
Q 48.6875 17.390625 48.6875 27.296875 
z
" id="DejaVuSans-112"/>
     <path d="M 48.78125 52.59375 
L 48.78125 44.1875 
Q 44.96875 46.296875 41.140625 47.34375 
Q 37.3125 48.390625 33.40625 48.390625 
Q 24.65625 48.390625 19.8125 42.84375 
Q 14.984375 37.3125 14.984375 27.296875 
Q 14.984375 17.28125 19.8125 11.734375 
Q 24.65625 6.203125 33.40625 6.203125 
Q 37.3125 6.203125 41.140625 7.25 
Q 44.96875 8.296875 48.78125 10.40625 
L 48.78125 2.09375 
Q 45.015625 0.34375 40.984375 -0.53125 
Q 36.96875 -1.421875 32.421875 -1.421875 
Q 20.0625 -1.421875 12.78125 6.34375 
Q 5.515625 14.109375 5.515625 27.296875 
Q 5.515625 40.671875 12.859375 48.328125 
Q 20.21875 56 33.015625 56 
Q 37.15625 56 41.109375 55.140625 
Q 45.0625 54.296875 48.78125 52.59375 
z
" id="DejaVuSans-99"/>
     <path d="M 52 44.1875 
Q 55.375 50.25 60.0625 53.125 
Q 64.75 56 71.09375 56 
Q 79.640625 56 84.28125 50.015625 
Q 88.921875 44.046875 88.921875 33.015625 
L 88.921875 0 
L 79.890625 0 
L 79.890625 32.71875 
Q 79.890625 40.578125 77.09375 44.375 
Q 74.3125 48.1875 68.609375 48.1875 
Q 61.625 48.1875 57.5625 43.546875 
Q 53.515625 38.921875 53.515625 30.90625 
L 53.515625 0 
L 44.484375 0 
L 44.484375 32.71875 
Q 44.484375 40.625 41.703125 44.40625 
Q 38.921875 48.1875 33.109375 48.1875 
Q 26.21875 48.1875 22.15625 43.53125 
Q 18.109375 38.875 18.109375 30.90625 
L 18.109375 0 
L 9.078125 0 
L 9.078125 54.6875 
L 18.109375 54.6875 
L 18.109375 46.1875 
Q 21.1875 51.21875 25.484375 53.609375 
Q 29.78125 56 35.6875 56 
Q 41.65625 56 45.828125 52.96875 
Q 50 49.953125 52 44.1875 
z
" id="DejaVuSans-109"/>
     <path d="M 30.609375 48.390625 
Q 23.390625 48.390625 19.1875 42.75 
Q 14.984375 37.109375 14.984375 27.296875 
Q 14.984375 17.484375 19.15625 11.84375 
Q 23.34375 6.203125 30.609375 6.203125 
Q 37.796875 6.203125 41.984375 11.859375 
Q 46.1875 17.53125 46.1875 27.296875 
Q 46.1875 37.015625 41.984375 42.703125 
Q 37.796875 48.390625 30.609375 48.390625 
z
M 30.609375 56 
Q 42.328125 56 49.015625 48.375 
Q 55.71875 40.765625 55.71875 27.296875 
Q 55.71875 13.875 49.015625 6.21875 
Q 42.328125 -1.421875 30.609375 -1.421875 
Q 18.84375 -1.421875 12.171875 6.21875 
Q 5.515625 13.875 5.515625 27.296875 
Q 5.515625 40.765625 12.171875 48.375 
Q 18.84375 56 30.609375 56 
z
" id="DejaVuSans-111"/>
     <path d="M 9.8125 72.90625 
L 19.671875 72.90625 
L 19.671875 43.015625 
L 55.515625 43.015625 
L 55.515625 72.90625 
L 65.375 72.90625 
L 65.375 0 
L 55.515625 0 
L 55.515625 34.71875 
L 19.671875 34.71875 
L 19.671875 0 
L 9.8125 0 
z
" id="DejaVuSans-72"/>
     <path d="M 19.671875 64.796875 
L 19.671875 8.109375 
L 31.59375 8.109375 
Q 46.6875 8.109375 53.6875 14.9375 
Q 60.6875 21.78125 60.6875 36.53125 
Q 60.6875 51.171875 53.6875 57.984375 
Q 46.6875 64.796875 31.59375 64.796875 
z
M 9.8125 72.90625 
L 30.078125 72.90625 
Q 51.265625 72.90625 61.171875 64.09375 
Q 71.09375 55.28125 71.09375 36.53125 
Q 71.09375 17.671875 61.125 8.828125 
Q 51.171875 0 30.078125 0 
L 9.8125 0 
z
" id="DejaVuSans-68"/>
     <path d="M 31.78125 34.625 
Q 24.75 34.625 20.71875 30.859375 
Q 16.703125 27.09375 16.703125 20.515625 
Q 16.703125 13.921875 20.71875 10.15625 
Q 24.75 6.390625 31.78125 6.390625 
Q 38.8125 6.390625 42.859375 10.171875 
Q 46.921875 13.96875 46.921875 20.515625 
Q 46.921875 27.09375 42.890625 30.859375 
Q 38.875 34.625 31.78125 34.625 
z
M 21.921875 38.8125 
Q 15.578125 40.375 12.03125 44.71875 
Q 8.5 49.078125 8.5 55.328125 
Q 8.5 64.0625 14.71875 69.140625 
Q 20.953125 74.21875 31.78125 74.21875 
Q 42.671875 74.21875 48.875 69.140625 
Q 55.078125 64.0625 55.078125 55.328125 
Q 55.078125 49.078125 51.53125 44.71875 
Q 48 40.375 41.703125 38.8125 
Q 48.828125 37.15625 52.796875 32.3125 
Q 56.78125 27.484375 56.78125 20.515625 
Q 56.78125 9.90625 50.3125 4.234375 
Q 43.84375 -1.421875 31.78125 -1.421875 
Q 19.734375 -1.421875 13.25 4.234375 
Q 6.78125 9.90625 6.78125 20.515625 
Q 6.78125 27.484375 10.78125 32.3125 
Q 14.796875 37.15625 21.921875 38.8125 
z
M 18.3125 54.390625 
Q 18.3125 48.734375 21.84375 45.5625 
Q 25.390625 42.390625 31.78125 42.390625 
Q 38.140625 42.390625 41.71875 45.5625 
Q 45.3125 48.734375 45.3125 54.390625 
Q 45.3125 60.0625 41.71875 63.234375 
Q 38.140625 66.40625 31.78125 66.40625 
Q 25.390625 66.40625 21.84375 63.234375 
Q 18.3125 60.0625 18.3125 54.390625 
z
" id="DejaVuSans-56"/>
     <path d="M 54.890625 33.015625 
L 54.890625 0 
L 45.90625 0 
L 45.90625 32.71875 
Q 45.90625 40.484375 42.875 44.328125 
Q 39.84375 48.1875 33.796875 48.1875 
Q 26.515625 48.1875 22.3125 43.546875 
Q 18.109375 38.921875 18.109375 30.90625 
L 18.109375 0 
L 9.078125 0 
L 9.078125 54.6875 
L 18.109375 54.6875 
L 18.109375 46.1875 
Q 21.34375 51.125 25.703125 53.5625 
Q 30.078125 56 35.796875 56 
Q 45.21875 56 50.046875 50.171875 
Q 54.890625 44.34375 54.890625 33.015625 
z
" id="DejaVuSans-110"/>
     <path d="M 54.25 63.328125 
Q 49.953125 66.75 38.28125 66.75 
Q 25.921875 66.75 24.8125 61.03125 
Q 23.921875 56.546875 36.375 54.203125 
Q 46.140625 52.390625 50.828125 46.921875 
Q 56.5 40.328125 53.859375 26.8125 
Q 51.3125 13.875 43.171875 6.25 
Q 34.96875 -1.421875 23.25 -1.421875 
Q 11.578125 -1.421875 6.34375 6.25 
Q 1.125 13.875 3.765625 27.296875 
Q 5.671875 37.25 13.921875 45.3125 
Q 17.140625 48.4375 21.140625 50.203125 
Q 14.265625 54.046875 15.625 60.9375 
Q 18.21875 74.21875 39.75 74.21875 
Q 50.53125 74.21875 55.71875 70.796875 
z
M 27.390625 47.75 
Q 23.828125 46.34375 20.40625 42.78125 
Q 15.140625 37.25 13.234375 27.296875 
Q 11.28125 17.390625 14.359375 11.8125 
Q 17.484375 6.203125 24.75 6.203125 
Q 31.9375 6.203125 37.203125 11.859375 
Q 42.53125 17.53125 44.34375 26.8125 
Q 46.1875 36.53125 42.671875 41.21875 
Q 38.921875 46.234375 32.859375 46.78125 
Q 29.78125 47.078125 27.390625 47.75 
z
" id="DejaVuSans-Oblique-948"/>
    </defs>
    <g transform="translate(124.08 28.56)scale(0.12 -0.12)">
     <use transform="translate(0 0.015625)" xlink:href="#DejaVuSans-83"/>
     <use transform="translate(63.476562 0.015625)" xlink:href="#DejaVuSans-112"/>
     <use transform="translate(126.953125 0.015625)" xlink:href="#DejaVuSans-101"/>
     <use transform="translate(188.476562 0.015625)" xlink:href="#DejaVuSans-99"/>
     <use transform="translate(243.457031 0.015625)" xlink:href="#DejaVuSans-116"/>
     <use transform="translate(282.666016 0.015625)" xlink:href="#DejaVuSans-114"/>
     <use transform="translate(323.779297 0.015625)" xlink:href="#DejaVuSans-117"/>
     <use transform="translate(387.158203 0.015625)" xlink:href="#DejaVuSans-109"/>
     <use transform="translate(484.570312 0.015625)" xlink:href="#DejaVuSans-32"/>
     <use transform="translate(516.357422 0.015625)" xlink:href="#DejaVuSans-111"/>
     <use transform="translate(577.539062 0.015625)" xlink:href="#DejaVuSans-102"/>
     <use transform="translate(612.744141 0.015625)" xlink:href="#DejaVuSans-32"/>
     <use transform="translate(644.53125 0.015625)" xlink:href="#DejaVuSans-72"/>
     <use transform="translate(719.726562 0.015625)" xlink:href="#DejaVuSans-68"/>
     <use transform="translate(796.728516 0.015625)" xlink:href="#DejaVuSans-32"/>
     <use transform="translate(828.515625 0.015625)" xlink:href="#DejaVuSans-49"/>
     <use transform="translate(892.138672 0.015625)" xlink:href="#DejaVuSans-49"/>
     <use transform="translate(955.761719 0.015625)" xlink:href="#DejaVuSans-50"/>
     <use transform="translate(1019.384766 0.015625)" xlink:href="#DejaVuSans-48"/>
     <use transform="translate(1083.007812 0.015625)" xlink:href="#DejaVuSans-50"/>
     <use transform="translate(1146.630859 0.015625)" xlink:href="#DejaVuSans-56"/>
     <use transform="translate(1210.253906 0.015625)" xlink:href="#DejaVuSans-32"/>
     <use transform="translate(1242.041016 0.015625)" xlink:href="#DejaVuSans-110"/>
     <use transform="translate(1305.419922 0.015625)" xlink:href="#DejaVuSans-101"/>
     <use transform="translate(1366.943359 0.015625)" xlink:href="#DejaVuSans-97"/>
     <use transform="translate(1428.222656 0.015625)" xlink:href="#DejaVuSans-114"/>
     <use transform="translate(1469.335938 0.015625)" xlink:href="#DejaVuSans-32"/>
     <use transform="translate(1501.123047 0.015625)" xlink:href="#DejaVuSans-Oblique-72"/>
     <use transform="translate(1576.318359 -16.390625)scale(0.7)" xlink:href="#DejaVuSans-Oblique-948"/>
    </g>
   </g>
  </g>
 </g>
 <defs>
  <clipPath id="pf2623964f0">
   <rect height="217.44" width="334.8" x="54" y="34.56"/>
  </clipPath>
 </defs>
</svg>
